<?xml version="1.0" encoding="utf-8"?>
<!-- Generator: Adobe Illustrator 15.0.0, SVG Export Plug-In . SVG Version: 6.00 Build 0)  -->
<!DOCTYPE svg PUBLIC "-//W3C//DTD SVG 1.0//EN" "http://www.w3.org/TR/2001/REC-SVG-20010904/DTD/svg10.dtd">
<svg version="1.0" xmlns="http://www.w3.org/2000/svg" xmlns:xlink="http://www.w3.org/1999/xlink" x="0px" y="0px" width="668px"
	 height="172px" viewBox="0 0 668 172" enable-background="new 0 0 668 172" xml:space="preserve">
<g id="Layer_1" display="none">
	<text transform="matrix(1 0 0 1 114.3936 145.6406)" display="inline" font-family="'AGaramondPro-Regular'" font-size="52">Time-based Media</text>
	<text transform="matrix(1 0 0 1 248 103)" display="inline" font-family="'HelveticaNeue'" font-size="22" letter-spacing="1">WHAT IS </text>
	<text transform="matrix(1 0 0 1 879 -245)" display="inline" font-family="'HelveticaNeue'" font-size="48">{{</text>
</g>
<g id="Layer_1_copy" display="none">
	<g display="inline">
		<path d="M133.53,137.84c0,5.461,0.104,6.24,3.12,6.501l1.664,0.155c0.312,0.209,0.208,1.145-0.104,1.301
			c-2.964-0.104-4.732-0.156-6.812-0.156s-3.9,0.052-7.229,0.156c-0.312-0.156-0.416-1.04,0-1.301l1.872-0.155
			c2.964-0.261,3.224-1.04,3.224-6.501v-23.244c0-1.612,0-1.664-1.56-1.664h-2.86c-2.236,0-5.096,0.104-6.396,1.3
			c-1.248,1.144-1.768,2.288-2.34,3.588c-0.416,0.312-1.144,0.052-1.352-0.364c0.832-2.34,1.612-5.668,1.976-7.749
			c0.156-0.104,0.832-0.156,0.988,0c0.312,1.664,2.028,1.612,4.42,1.612h21.061c2.808,0,3.276-0.104,4.056-1.456
			c0.26-0.104,0.832-0.052,0.936,0.156c-0.572,2.132-0.936,6.344-0.78,7.904c-0.208,0.416-1.092,0.416-1.353,0.104
			c-0.156-1.3-0.52-3.224-1.3-3.796c-1.196-0.884-3.172-1.3-6.032-1.3h-3.692c-1.56,0-1.508,0.052-1.508,1.768V137.84z"/>
		<path d="M148.713,128.532c0-3.588-0.208-3.796-2.444-4.16l-0.988-0.156c-0.364-0.26-0.312-1.144,0.104-1.3
			c2.028,0.104,3.641,0.156,5.305,0.156s3.276-0.052,5.304-0.156c0.416,0.156,0.468,1.04,0.104,1.3l-0.988,0.156
			c-2.236,0.364-2.444,0.572-2.444,4.16v11.648c0,3.588,0.208,3.796,2.444,4.16l0.988,0.155c0.364,0.261,0.312,1.145-0.104,1.301
			c-1.976-0.104-3.692-0.156-5.304-0.156c-1.664,0-3.276,0.052-5.305,0.156c-0.416-0.156-0.468-1.04-0.104-1.301l0.988-0.155
			c2.236-0.364,2.444-0.572,2.444-4.16V128.532z"/>
		<path d="M173.882,136.488c0.364,0.676,1.664,3.016,1.872,3.172c0.208-0.104,1.144-1.768,2.132-3.64l2.6-4.992
			c2.496-4.784,2.756-5.668,3.588-8.112c1.144,0.104,2.184,0.156,3.016,0.156c1.248,0,2.756-0.052,4.265-0.156
			c0.468,0.156,0.52,1.04,0.156,1.3l-1.144,0.156c-2.392,0.312-2.496,1.3-2.496,4.368c0,5.512,0,9.932,0.26,13.053
			c0.104,1.144,0.104,2.392,1.716,2.548l1.508,0.155c0.364,0.209,0.364,1.093-0.052,1.301c-1.872-0.104-3.9-0.156-5.2-0.156
			c-1.508,0-3.12,0.052-4.576,0.156c-0.364-0.26-0.416-1.092-0.052-1.301l1.145-0.155c1.664-0.208,1.664-0.624,1.664-2.704v-12.013
			c0-0.624,0-1.404-0.156-1.508c-0.156,0-1.508,2.6-2.236,3.952l-3.172,5.98c-0.416,0.779-3.12,6.188-3.692,7.852
			c-0.26,0.208-0.676,0.208-0.988,0c-0.572-1.872-2.184-5.2-3.068-6.916l-3.38-6.552c-0.572-1.144-1.664-3.9-2.08-4.056
			c-0.208,0.26-0.26,3.744-0.312,5.2c-0.052,2.08-0.104,4.264-0.104,6.812c0,2.652,0.052,3.796,1.508,3.952l1.716,0.155
			c0.364,0.209,0.312,1.093-0.052,1.301c-1.353-0.104-2.86-0.156-4.265-0.156c-1.144,0-2.704,0.052-4.316,0.156
			c-0.364-0.208-0.416-1.04,0-1.301l1.092-0.155c1.716-0.261,1.872-0.78,2.132-2.601c0.416-2.808,0.728-11.18,0.728-14.716
			c0-1.664-0.572-2.444-2.34-2.652l-1.248-0.156c-0.312-0.26-0.364-1.092,0.104-1.3c1.404,0.104,2.6,0.156,4.004,0.156
			c1.04,0,2.132,0,3.796-0.156c0,2.288,0.937,3.952,2.704,7.384L173.882,136.488z"/>
		<path d="M198.685,128.532c0-3.588-0.208-3.744-2.185-4.16l-0.728-0.156c-0.364-0.208-0.312-1.092,0.104-1.3
			c1.508,0.104,3.12,0.156,4.836,0.156h7.384c2.288,0,4.368-0.052,4.836-0.156c0.052,0.624,0.312,3.068,0.572,5.304
			c-0.208,0.416-1.04,0.468-1.352,0.104c-0.312-1.353-0.624-2.028-0.936-2.496c-0.832-1.248-3.172-1.248-4.42-1.248h-2.288
			c-1.82,0-1.872,0.052-1.872,1.664v5.772c0,0.936,0,1.04,0.988,1.04h2.444c2.756,0,3.017-0.416,3.433-1.976l0.26-0.988
			c0.26-0.364,1.04-0.312,1.3,0.104c-0.104,1.508-0.104,2.444-0.104,3.64c0,1.3,0,2.236,0.104,3.744
			c-0.26,0.416-1.04,0.469-1.3,0.104l-0.26-0.988c-0.416-1.56-0.676-1.976-3.433-1.976h-2.444c-0.988,0-0.988,0.156-0.988,1.196
			v3.744c0,1.561,0.104,3.172,0.572,3.744c0.468,0.521,1.404,0.729,4.368,0.729c3.328,0,5.252-0.156,6.76-4.316
			c0.364-0.364,1.196-0.26,1.352,0.208c-0.26,2.185-0.988,4.784-1.56,5.772c-3.276-0.104-6.032-0.156-8.84-0.156h-4.576
			c-1.664,0-3.276,0.052-5.772,0.156c-0.416-0.156-0.468-1.04-0.104-1.301l1.404-0.155c2.236-0.261,2.444-0.572,2.444-4.16V128.532z
			"/>
		<path d="M230.717,132.796c0.572,0.364,0.78,0.988,0.78,1.664c0,0.521-0.156,0.988-0.416,1.3l-12.117,1.144
			c-0.572-0.468-0.78-1.144-0.78-1.664s0.156-0.988,0.416-1.3L230.717,132.796z"/>
		<path d="M238.62,129.156c0-3.38-0.052-4.212-1.508-4.42l-1.612-0.208c-0.468-0.156-0.416-1.144,0.052-1.3
			c2.6-0.208,5.668-0.312,8.685-0.312c2.548,0,4.68,0.052,6.604,0.78c1.871,0.676,3.275,2.132,3.275,4.576
			c0,2.236-1.508,3.64-4.16,4.576c-0.208,0.364,0.156,0.416,1.301,0.676c1.871,0.416,4.628,2.08,4.628,5.668
			c0,2.808-1.404,4.42-3.433,5.408c-1.976,0.937-4.628,1.196-7.072,1.196c-1.04,0-2.756-0.156-4.628-0.156
			c-1.664,0-3.432,0.052-5.46,0.156c-0.416-0.156-0.468-1.04-0.104-1.301l0.988-0.155c2.236-0.364,2.444-0.572,2.444-4.16V129.156z
			 M242.572,131.912c0,0.832,0.104,0.884,1.768,0.884c3.276,0,5.513-0.78,5.513-4.056c0-3.12-2.34-4.316-4.992-4.316
			c-2.185,0-2.288,0.468-2.288,1.404V131.912z M242.572,140.232c0,3.12,0.676,4.057,3.899,4.057c2.601,0,5.045-1.196,5.045-4.629
			c0-4.108-3.12-5.356-6.5-5.356c-2.341,0-2.444,0.208-2.444,0.884V140.232z"/>
		<path d="M266.647,137.58c-1.196,0-1.353,0.053-1.769,1.248l-1.196,3.328c-0.571,1.664-0.416,1.872,0.572,2.08l1.404,0.26
			c0.416,0.261,0.364,1.196-0.156,1.301c-1.3-0.104-2.652-0.156-4.107-0.156c-1.457,0-2.705,0.104-3.641,0.156
			c-0.468-0.208-0.468-1.04-0.104-1.301l1.195-0.26c1.612-0.363,2.185-0.936,3.225-3.432l4.992-11.961
			c0.884-2.132,1.248-3.38,1.352-4.368c0.937-0.364,1.924-1.352,2.185-1.976c0.416-0.156,0.728-0.052,0.832,0.26
			c0.208,0.52,1.04,3.224,2.235,6.396l4.681,12.428c0.624,1.717,1.092,2.393,2.964,2.757l0.832,0.155
			c0.469,0.261,0.364,1.196-0.156,1.301c-1.352-0.104-2.548-0.156-4.315-0.156c-1.872,0-3.38,0.052-4.681,0.156
			c-0.52-0.156-0.572-1.092-0.104-1.301l1.04-0.155c1.352-0.208,1.3-0.521,0.676-2.132l-1.248-3.381
			c-0.416-1.195-0.572-1.248-1.769-1.248H266.647z M270.755,135.916c1.353,0,1.509-0.104,0.937-1.612l-1.612-4.42
			c-0.416-1.196-0.624-1.612-0.779-1.872h-0.104c-0.156,0.208-0.364,0.676-0.832,1.769l-1.872,4.628
			c-0.572,1.404-0.468,1.508,0.676,1.508H270.755z"/>
		<path d="M289.787,135.032c-2.496-1.3-4.628-3.328-4.628-6.24c0-3.796,2.912-6.448,8.164-6.448c1.82,0,3.068,0.468,4.836,0.78
			c0.416,0.884,0.78,2.86,0.729,5.096c-0.156,0.416-1.093,0.468-1.353,0.104c-0.416-1.82-1.769-4.473-4.836-4.473
			c-3.068,0-4.212,1.769-4.212,3.536c0,1.872,1.403,3.017,3.483,4.108l3.225,1.664c1.872,0.936,4.212,3.12,4.212,6.604
			c0,4.056-3.328,6.604-8.477,6.604c-3.172,0-5.252-1.093-5.98-1.612c-0.468-0.729-1.092-2.601-1.092-5.356
			c0.208-0.52,0.988-0.572,1.353-0.104c0.416,1.871,2.704,5.563,6.188,5.563c2.651,0,4.367-1.352,4.367-3.744
			c0-1.664-0.676-3.38-3.64-4.888L289.787,135.032z"/>
		<path d="M306.842,128.532c0-3.588-0.208-3.744-2.184-4.16l-0.729-0.156c-0.364-0.208-0.312-1.092,0.104-1.3
			c1.508,0.104,3.12,0.156,4.836,0.156h7.385c2.287,0,4.367-0.052,4.836-0.156c0.052,0.624,0.312,3.068,0.572,5.304
			c-0.209,0.416-1.041,0.468-1.353,0.104c-0.312-1.353-0.624-2.028-0.937-2.496c-0.832-1.248-3.172-1.248-4.42-1.248h-2.288
			c-1.819,0-1.872,0.052-1.872,1.664v5.772c0,0.936,0,1.04,0.988,1.04h2.444c2.756,0,3.016-0.416,3.432-1.976l0.261-0.988
			c0.26-0.364,1.039-0.312,1.3,0.104c-0.104,1.508-0.104,2.444-0.104,3.64c0,1.3,0,2.236,0.104,3.744
			c-0.261,0.416-1.04,0.469-1.3,0.104l-0.261-0.988c-0.416-1.56-0.676-1.976-3.432-1.976h-2.444c-0.988,0-0.988,0.156-0.988,1.196
			v3.744c0,1.561,0.104,3.172,0.572,3.744c0.468,0.521,1.404,0.729,4.368,0.729c3.328,0,5.252-0.156,6.761-4.316
			c0.363-0.364,1.195-0.26,1.352,0.208c-0.26,2.185-0.988,4.784-1.561,5.772c-3.275-0.104-6.031-0.156-8.84-0.156h-4.576
			c-1.664,0-3.276,0.052-5.772,0.156c-0.416-0.156-0.468-1.04-0.104-1.301l1.403-0.155c2.236-0.261,2.444-0.572,2.444-4.16V128.532z
			"/>
		<path d="M330.138,129.156c0-3.38-0.052-4.265-1.248-4.42l-1.56-0.208c-0.468-0.156-0.416-1.144,0.052-1.3
			c2.912-0.208,5.824-0.312,10.036-0.312c2.912,0,5.46,0.312,7.904,1.144c4.732,1.612,7.177,5.408,7.177,10.192
			c0,4.108-2.133,7.904-6.293,10.037c-2.34,1.195-5.252,1.611-7.852,1.611c-2.34,0-4.681-0.26-6.24-0.26
			c-1.664,0-3.276,0.052-5.305,0.156c-0.416-0.156-0.468-1.04-0.104-1.301l0.988-0.155c2.235-0.364,2.443-0.572,2.443-4.16V129.156z
			 M334.09,139.4c0,3.328,0.521,4.992,4.473,4.992c6.24,0,9.308-3.9,9.308-10.244c0-6.396-4.472-9.725-10.348-9.725
			c-1.717,0-2.704,0.208-3.12,0.572c-0.312,0.208-0.312,0.884-0.312,2.028V139.4z"/>
		<path d="M387.702,131.756c1.196,2.444,2.34,4.836,3.588,7.125h0.104c1.404-2.444,2.704-5.148,4.004-7.801l4.889-9.933
			c2.34-4.732,3.848-7.592,3.952-9.984c1.768,0.156,2.859,0.156,3.899,0.156c1.301,0,3.017-0.052,4.629-0.156
			c0.312,0.208,0.312,1.092,0.052,1.3l-1.092,0.104c-3.276,0.312-3.692,1.3-3.641,4.94c0.104,5.512,0.156,15.132,0.572,22.621
			c0.156,2.6,0.104,4.004,2.548,4.212l1.664,0.155c0.312,0.312,0.261,1.093-0.104,1.301c-2.133-0.104-4.265-0.156-6.137-0.156
			c-1.82,0-4.16,0.052-6.292,0.156c-0.364-0.26-0.416-0.988-0.104-1.301l1.508-0.155c2.548-0.261,2.548-1.093,2.548-4.421
			l-0.156-21.685h-0.104c-0.364,0.572-2.341,4.732-3.38,6.761l-4.629,9.1c-2.34,4.576-4.68,9.464-5.616,11.857
			c-0.104,0.155-0.312,0.207-0.52,0.207c-0.104,0-0.364-0.052-0.468-0.207c-0.885-2.757-3.381-7.853-4.576-10.401l-4.681-10.037
			c-1.092-2.392-2.185-5.096-3.328-7.488h-0.104c-0.207,3.225-0.363,6.24-0.52,9.257c-0.156,3.172-0.364,7.8-0.364,12.22
			c0,3.849,0.312,4.681,2.341,4.837l1.976,0.155c0.364,0.312,0.312,1.145-0.052,1.301c-1.769-0.104-3.797-0.156-5.772-0.156
			c-1.664,0-3.536,0.052-5.304,0.156c-0.312-0.26-0.416-1.04-0.104-1.301l1.144-0.155c2.185-0.312,2.912-0.624,3.225-4.265
			c0.312-3.432,0.572-6.292,0.884-11.44c0.261-4.316,0.468-8.736,0.572-11.596c0.104-3.276-0.312-4.056-3.484-4.472l-0.832-0.104
			c-0.26-0.312-0.208-1.092,0.208-1.3c1.561,0.104,2.809,0.156,4.108,0.156c1.196,0,2.601,0,4.316-0.156
			c-0.208,2.028,1.092,5.252,2.704,8.581L387.702,131.756z"/>
		<path d="M420.357,128.532c0-3.588-0.208-3.744-2.184-4.16l-0.729-0.156c-0.364-0.208-0.312-1.092,0.104-1.3
			c1.508,0.104,3.12,0.156,4.836,0.156h7.385c2.287,0,4.367-0.052,4.836-0.156c0.052,0.624,0.312,3.068,0.572,5.304
			c-0.209,0.416-1.041,0.468-1.353,0.104c-0.312-1.353-0.624-2.028-0.937-2.496c-0.832-1.248-3.172-1.248-4.42-1.248h-2.288
			c-1.819,0-1.872,0.052-1.872,1.664v5.772c0,0.936,0,1.04,0.988,1.04h2.444c2.756,0,3.016-0.416,3.432-1.976l0.261-0.988
			c0.26-0.364,1.039-0.312,1.3,0.104c-0.104,1.508-0.104,2.444-0.104,3.64c0,1.3,0,2.236,0.104,3.744
			c-0.261,0.416-1.04,0.469-1.3,0.104l-0.261-0.988c-0.416-1.56-0.676-1.976-3.432-1.976h-2.444c-0.988,0-0.988,0.156-0.988,1.196
			v3.744c0,1.561,0.104,3.172,0.572,3.744c0.468,0.521,1.404,0.729,4.368,0.729c3.328,0,5.252-0.156,6.761-4.316
			c0.363-0.364,1.195-0.26,1.352,0.208c-0.26,2.185-0.988,4.784-1.561,5.772c-3.275-0.104-6.031-0.156-8.84-0.156h-4.576
			c-1.664,0-3.276,0.052-5.772,0.156c-0.416-0.156-0.468-1.04-0.104-1.301l1.403-0.155c2.236-0.261,2.444-0.572,2.444-4.16V128.532z
			"/>
		<path d="M443.653,129.156c0-3.38-0.052-4.265-1.248-4.42l-1.56-0.208c-0.468-0.156-0.416-1.144,0.052-1.3
			c2.912-0.208,5.824-0.312,10.036-0.312c2.912,0,5.46,0.312,7.904,1.144c4.732,1.612,7.177,5.408,7.177,10.192
			c0,4.108-2.133,7.904-6.293,10.037c-2.34,1.195-5.252,1.611-7.852,1.611c-2.34,0-4.681-0.26-6.24-0.26
			c-1.664,0-3.276,0.052-5.305,0.156c-0.416-0.156-0.468-1.04-0.104-1.301l0.988-0.155c2.235-0.364,2.443-0.572,2.443-4.16V129.156z
			 M447.605,139.4c0,3.328,0.521,4.992,4.473,4.992c6.24,0,9.308-3.9,9.308-10.244c0-6.396-4.472-9.725-10.348-9.725
			c-1.717,0-2.704,0.208-3.12,0.572c-0.312,0.208-0.312,0.884-0.312,2.028V139.4z"/>
		<path d="M473.449,128.532c0-3.588-0.208-3.796-2.444-4.16l-0.987-0.156c-0.364-0.26-0.312-1.144,0.104-1.3
			c2.028,0.104,3.641,0.156,5.305,0.156s3.276-0.052,5.304-0.156c0.416,0.156,0.469,1.04,0.104,1.3l-0.988,0.156
			c-2.236,0.364-2.444,0.572-2.444,4.16v11.648c0,3.588,0.208,3.796,2.444,4.16l0.988,0.155c0.364,0.261,0.312,1.145-0.104,1.301
			c-1.976-0.104-3.691-0.156-5.304-0.156c-1.664,0-3.276,0.052-5.305,0.156c-0.416-0.156-0.468-1.04-0.104-1.301l0.987-0.155
			c2.236-0.364,2.444-0.572,2.444-4.16V128.532z"/>
		<path d="M491.337,137.58c-1.196,0-1.353,0.053-1.769,1.248l-1.196,3.328c-0.571,1.664-0.416,1.872,0.572,2.08l1.404,0.26
			c0.416,0.261,0.364,1.196-0.156,1.301c-1.3-0.104-2.652-0.156-4.107-0.156c-1.457,0-2.705,0.104-3.641,0.156
			c-0.468-0.208-0.468-1.04-0.104-1.301l1.195-0.26c1.612-0.363,2.185-0.936,3.225-3.432l4.992-11.961
			c0.884-2.132,1.248-3.38,1.352-4.368c0.937-0.364,1.924-1.352,2.185-1.976c0.416-0.156,0.728-0.052,0.832,0.26
			c0.208,0.52,1.04,3.224,2.235,6.396l4.681,12.428c0.624,1.717,1.092,2.393,2.964,2.757l0.832,0.155
			c0.469,0.261,0.364,1.196-0.156,1.301c-1.352-0.104-2.548-0.156-4.315-0.156c-1.872,0-3.38,0.052-4.681,0.156
			c-0.52-0.156-0.572-1.092-0.104-1.301l1.04-0.155c1.352-0.208,1.3-0.521,0.676-2.132l-1.248-3.381
			c-0.416-1.195-0.572-1.248-1.769-1.248H491.337z M495.444,135.916c1.353,0,1.509-0.104,0.937-1.612l-1.612-4.42
			c-0.416-1.196-0.624-1.612-0.779-1.872h-0.104c-0.156,0.208-0.364,0.676-0.832,1.769l-1.872,4.628
			c-0.572,1.404-0.468,1.508,0.676,1.508H495.444z"/>
	</g>
	<g display="inline">
		<path d="M261.728,103l-3.586-13.2h-0.044l-3.63,13.2h-2.178l-4.026-15.708h2.134l3.08,13.068h0.044l3.52-13.068h2.266
			l3.476,13.068h0.044l3.19-13.068h2.09L263.906,103H261.728z"/>
		<path d="M273.872,87.292v6.754h8.272v-6.754h2.09V103h-2.09v-7.194h-8.272V103h-2.09V87.292H273.872z"/>
		<path d="M295.938,87.292L302.076,103h-2.311l-1.717-4.73h-6.643l-1.761,4.73h-2.134l6.115-15.708H295.938z M297.39,96.51
			l-2.618-7.326h-0.044l-2.662,7.326H297.39z"/>
		<path d="M301.613,89.052v-1.76h12.562v1.76h-5.236V103h-2.09V89.052H301.613z"/>
		<path d="M327.595,87.292V103h-2.09V87.292H327.595z"/>
		<path d="M340.674,89.437c-0.697-0.506-1.588-0.759-2.673-0.759c-0.44,0-0.873,0.044-1.298,0.132
			c-0.426,0.088-0.804,0.235-1.134,0.44c-0.329,0.206-0.594,0.48-0.792,0.825c-0.197,0.345-0.297,0.773-0.297,1.287
			c0,0.484,0.144,0.877,0.43,1.177c0.285,0.301,0.667,0.546,1.144,0.737c0.477,0.191,1.016,0.349,1.617,0.473
			c0.602,0.125,1.213,0.261,1.837,0.407c0.623,0.147,1.235,0.319,1.837,0.517c0.602,0.198,1.141,0.466,1.617,0.803
			s0.857,0.763,1.144,1.276c0.286,0.514,0.43,1.159,0.43,1.936c0,0.836-0.188,1.551-0.562,2.145
			c-0.374,0.594-0.854,1.078-1.44,1.452c-0.587,0.374-1.243,0.646-1.97,0.814c-0.726,0.168-1.448,0.253-2.167,0.253
			c-0.88,0-1.712-0.11-2.497-0.33c-0.784-0.22-1.474-0.553-2.067-1.001c-0.595-0.447-1.063-1.019-1.408-1.716
			s-0.517-1.521-0.517-2.475h1.979c0,0.66,0.128,1.229,0.385,1.705s0.595,0.869,1.013,1.177s0.905,0.536,1.463,0.682
			c0.557,0.147,1.129,0.22,1.716,0.22c0.469,0,0.942-0.044,1.419-0.132s0.905-0.238,1.287-0.451
			c0.381-0.212,0.689-0.502,0.924-0.869s0.352-0.836,0.352-1.408c0-0.542-0.143-0.982-0.429-1.32s-0.667-0.612-1.144-0.825
			c-0.478-0.212-1.016-0.385-1.617-0.517c-0.602-0.132-1.214-0.267-1.837-0.407c-0.624-0.139-1.236-0.3-1.837-0.484
			c-0.602-0.184-1.141-0.425-1.617-0.726c-0.477-0.3-0.858-0.689-1.145-1.166c-0.285-0.477-0.429-1.074-0.429-1.793
			c0-0.792,0.161-1.478,0.484-2.057c0.322-0.579,0.751-1.056,1.287-1.43c0.535-0.374,1.144-0.652,1.825-0.836
			c0.683-0.183,1.383-0.275,2.102-0.275c0.807,0,1.555,0.096,2.244,0.286c0.689,0.191,1.294,0.492,1.814,0.902
			c0.521,0.411,0.932,0.928,1.232,1.551s0.465,1.368,0.495,2.233h-1.98C341.777,90.761,341.37,89.943,340.674,89.437z"/>
	</g>
	<g display="inline">
		<path d="M891.432-277.208c-0.479,0-0.863,0.12-1.151,0.36c-0.288,0.24-0.521,0.552-0.696,0.936
			c-0.176,0.384-0.296,0.824-0.36,1.32s-0.096,1-0.096,1.512v8.784c0,1.121-0.168,2.072-0.504,2.856
			c-0.336,0.785-0.729,1.433-1.176,1.944c-0.449,0.512-0.904,0.896-1.368,1.152c-0.464,0.257-0.84,0.417-1.128,0.48v0.144
			c0.288,0.032,0.664,0.161,1.128,0.384c0.464,0.224,0.919,0.584,1.368,1.08c0.447,0.497,0.84,1.145,1.176,1.944
			c0.336,0.8,0.504,1.808,0.504,3.024v8.736c0,0.48,0.031,0.967,0.096,1.464c0.064,0.496,0.185,0.943,0.36,1.344
			c0.176,0.4,0.408,0.72,0.696,0.96c0.288,0.24,0.672,0.36,1.151,0.36h2.4v2.88h-3.36c-0.608,0-1.216-0.137-1.823-0.408
			c-0.608-0.272-1.161-0.672-1.656-1.2c-0.497-0.528-0.904-1.185-1.225-1.968c-0.32-0.784-0.479-1.688-0.479-2.712v-8.688
			c0-0.864-0.112-1.648-0.336-2.352c-0.225-0.704-0.521-1.296-0.888-1.776c-0.369-0.48-0.792-0.848-1.272-1.104
			c-0.48-0.256-0.977-0.384-1.488-0.384v-3.264c0.512,0,1.008-0.136,1.488-0.408c0.48-0.271,0.903-0.655,1.272-1.152
			c0.367-0.496,0.663-1.096,0.888-1.8c0.224-0.704,0.336-1.472,0.336-2.304v-8.736c0-1.024,0.159-1.928,0.479-2.712
			c0.32-0.784,0.728-1.44,1.225-1.968c0.495-0.528,1.048-0.928,1.656-1.2c0.607-0.271,1.215-0.408,1.823-0.408h3.36v2.88H891.432z"
			/>
		<path d="M907.415-277.208c-0.479,0-0.863,0.12-1.151,0.36c-0.288,0.24-0.521,0.552-0.696,0.936
			c-0.176,0.384-0.296,0.824-0.36,1.32s-0.096,1-0.096,1.512v8.784c0,1.121-0.168,2.072-0.504,2.856
			c-0.336,0.785-0.729,1.433-1.176,1.944c-0.449,0.512-0.904,0.896-1.368,1.152c-0.464,0.257-0.84,0.417-1.128,0.48v0.144
			c0.288,0.032,0.664,0.161,1.128,0.384c0.464,0.224,0.919,0.584,1.368,1.08c0.447,0.497,0.84,1.145,1.176,1.944
			c0.336,0.8,0.504,1.808,0.504,3.024v8.736c0,0.48,0.031,0.967,0.096,1.464c0.064,0.496,0.185,0.943,0.36,1.344
			c0.176,0.4,0.408,0.72,0.696,0.96c0.288,0.24,0.672,0.36,1.151,0.36h2.4v2.88h-3.36c-0.608,0-1.216-0.137-1.823-0.408
			c-0.608-0.272-1.161-0.672-1.656-1.2c-0.497-0.528-0.904-1.185-1.225-1.968c-0.32-0.784-0.479-1.688-0.479-2.712v-8.688
			c0-0.864-0.112-1.648-0.336-2.352c-0.225-0.704-0.521-1.296-0.888-1.776c-0.369-0.48-0.792-0.848-1.272-1.104
			c-0.48-0.256-0.977-0.384-1.488-0.384v-3.264c0.512,0,1.008-0.136,1.488-0.408c0.48-0.271,0.903-0.655,1.272-1.152
			c0.367-0.496,0.663-1.096,0.888-1.8c0.224-0.704,0.336-1.472,0.336-2.304v-8.736c0-1.024,0.159-1.928,0.479-2.712
			c0.32-0.784,0.728-1.44,1.225-1.968c0.495-0.528,1.048-0.928,1.656-1.2c0.607-0.271,1.215-0.408,1.823-0.408h3.36v2.88H907.415z"
			/>
	</g>
	<g display="inline">
		<path d="M62.875,182.99c-1.552-2.7-2.325-6.9-2.325-12.6V146.09c0-6.098-0.701-11.224-2.1-15.375
			c-1.402-4.148-4.301-7.674-8.7-10.575v-3c1.699-0.3,3.199-1.2,4.5-2.7c1.298-1.5,2.423-3.398,3.375-5.7
			c0.949-2.299,1.673-4.898,2.175-7.8c0.5-2.899,0.75-5.85,0.75-8.85V67.34c0-5.7,0.773-9.849,2.325-12.45
			c1.549-2.599,4.425-3.9,8.625-3.9H79v3h-7.2c-3,0-5.125,1.125-6.375,3.375c-1.251,2.25-1.875,6.476-1.875,12.675v24.6
			c0,2.201-0.201,4.552-0.6,7.05c-0.401,2.501-1.05,4.901-1.95,7.2c-0.9,2.302-2.025,4.35-3.375,6.15
			c-1.35,1.8-2.977,3.101-4.875,3.9c3.3,1.601,5.925,4.676,7.875,9.225c1.95,4.552,2.925,9.675,2.925,15.375v24.149
			c0,3.301,0.174,6.023,0.525,8.176c0.349,2.148,0.848,3.824,1.5,5.025c0.649,1.199,1.5,2.024,2.55,2.475
			c1.05,0.449,2.273,0.675,3.675,0.675H79v3h-7.5C67.3,187.04,64.424,185.689,62.875,182.99z"/>
	</g>
	<g display="inline">
		<path d="M543.075,55.041c1.549,2.7,2.325,6.9,2.325,12.6v24.45c0,6.101,0.698,11.25,2.1,15.45c1.399,4.2,4.299,7.702,8.7,10.5v3
			c-1.601,0.3-3.075,1.2-4.425,2.7c-1.351,1.5-2.501,3.401-3.45,5.7c-0.952,2.302-1.676,4.901-2.175,7.8
			c-0.502,2.902-0.75,5.851-0.75,8.851v24.6c0,5.7-0.776,9.849-2.325,12.45c-1.552,2.6-4.425,3.9-8.625,3.9h-7.5v-3h7.2
			c3,0,5.123-1.125,6.375-3.375c1.249-2.25,1.875-6.477,1.875-12.676v-24.449c0-2.199,0.199-4.55,0.6-7.051
			c0.398-2.498,1.05-4.898,1.95-7.2c0.899-2.299,2.024-4.35,3.375-6.15c1.35-1.8,2.974-3.099,4.875-3.9
			c-3.3-1.599-5.925-4.673-7.875-9.225c-1.95-4.549-2.925-9.675-2.925-15.375v-24.3c0-3.3-0.176-6.023-0.525-8.175
			c-0.352-2.149-0.851-3.825-1.5-5.025c-0.651-1.2-1.5-2.025-2.55-2.475c-1.05-0.45-2.276-0.675-3.675-0.675h-7.2v-3h7.5
			C538.65,50.991,541.523,52.341,543.075,55.041z"/>
	</g>
</g>
<g id="Layer_4" display="none">
	<text transform="matrix(1 0 0 1 8 134.6396)" display="inline" font-family="'HelveticaNeue-UltraLight'" font-size="150">{</text>
	<text transform="matrix(1 0 0 1 618 134.6401)" display="inline" font-family="'HelveticaNeue-UltraLight'" font-size="150">}</text>
</g>
<g id="Layer_3" display="none">
	<text transform="matrix(1 0 0 1 82 80.6533)" display="inline" font-family="'AGaramondPro-Regular'" font-size="52">David Hall</text>
	<text transform="matrix(0.7 0 0 0.7 140 113)" display="inline" font-family="'HelveticaNeue'" font-size="22">the</text>
	<text transform="matrix(1 0 0 1 169.3672 113)" display="inline" font-family="'HelveticaNeue'" font-size="22"> </text>
	<text transform="matrix(0.7 0 0 0.7 175.4834 113)" display="inline" font-family="'HelveticaNeue'" font-size="22">uk</text>
	<text transform="matrix(1 0 0 1 196.873 113)" display="inline" font-family="'HelveticaNeue'" font-size="22"> </text>
	<text transform="matrix(0.7 0 0 0.7 202.9893 113)" display="inline" font-family="'HelveticaNeue'" font-size="22">video</text>
	<text transform="matrix(1 0 0 1 248.3418 113)" display="inline" font-family="'HelveticaNeue'" font-size="22"> </text>
	<text transform="matrix(0.7 0 0 0.7 254.458 113)" display="inline" font-family="'HelveticaNeue'" font-size="22">art</text>
	<text transform="matrix(1 0 0 1 283.8252 113)" display="inline" font-family="'HelveticaNeue'" font-size="22"> </text>
	<text transform="matrix(0.7 0 0 0.7 289.9414 113)" display="inline" font-family="'HelveticaNeue'" font-size="22">pioneer</text>
	<text transform="matrix(1 0 0 1 356.0986 113)" display="inline" font-family="'HelveticaNeue'" font-size="22">, </text>
	<text transform="matrix(0.7 0 0 0.7 140 139.4004)" display="inline" font-family="'HelveticaNeue'" font-size="22">first</text>
	<text transform="matrix(1 0 0 1 182.1953 139.4004)" display="inline" font-family="'HelveticaNeue'" font-size="22"> </text>
	<text transform="matrix(0.7 0 0 0.7 188.3115 139.4004)" display="inline" font-family="'HelveticaNeue'" font-size="22">introduced</text>
	<text transform="matrix(1 0 0 1 287.8398 139.4004)" display="inline" font-family="'HelveticaNeue'" font-size="22"> </text>
	<text transform="matrix(0.7 0 0 0.7 293.9561 139.4004)" display="inline" font-family="'HelveticaNeue'" font-size="22">the</text>
	<text transform="matrix(1 0 0 1 323.3232 139.4004)" display="inline" font-family="'HelveticaNeue'" font-size="22"> </text>
	<text transform="matrix(0.7 0 0 0.7 329.4395 139.4004)" display="inline" font-family="'HelveticaNeue'" font-size="22">term</text>
	<text transform="matrix(1 0 0 1 371.6504 139.4004)" display="inline" font-family="'HelveticaNeue'" font-size="22">, </text>
	<text transform="matrix(0.7 0 0 0.7 383.8818 139.4004)" display="inline" font-family="'HelveticaNeue'" font-size="22">time</text>
	<text transform="matrix(1 0 0 1 419.5322 139.4004)" display="inline" font-family="'HelveticaNeue'" font-size="22">-</text>
	<text transform="matrix(0.7 0 0 0.7 428.0898 139.4004)" display="inline" font-family="'HelveticaNeue'" font-size="22">based</text>
	<text transform="matrix(1 0 0 1 478.8486 139.4004)" display="inline" font-family="'HelveticaNeue'" font-size="22"> </text>
	<text transform="matrix(0.7 0 0 0.7 484.9639 139.4004)" display="inline" font-family="'HelveticaNeue'" font-size="22">media</text>
	<text transform="matrix(1 0 0 1 532.5957 139.4004)" display="inline" font-family="'HelveticaNeue'" font-size="22"> </text>
	<text transform="matrix(0.7 0 0 0.7 538.7119 139.4004)" display="inline" font-family="'HelveticaNeue'" font-size="22">in</text>
	<text transform="matrix(1 0 0 1 553.8184 139.4004)" display="inline" font-family="'HelveticaNeue'" font-size="22"> </text>
	<text transform="matrix(1 0 0 1 559.9346 139.4004)" display="inline" font-family="'HelveticaNeue'" font-size="18">1972</text>
</g>
<g id="Layer_3_copy">
	<g>
		<path d="M88.656,49.092c0-3.64-0.26-4.732-2.444-5.044l-1.144-0.156c-0.416-0.26-0.468-1.092,0.052-1.3
			c4.42-0.26,8.632-0.416,13.053-0.416c4.368,0,8.06,0.312,11.44,1.561c7.02,2.548,10.556,8.476,10.556,15.34
			c0,6.604-3.172,12.272-9.1,15.497c-3.38,1.82-7.645,2.496-11.648,2.496c-3.328,0-6.656-0.416-8.477-0.416
			c-2.184,0-4.056,0.052-6.5,0.156c-0.312-0.156-0.416-0.988-0.104-1.3l1.196-0.156c3.016-0.416,3.12-1.04,3.12-6.5V49.092z
			 M92.92,67.657c0,2.756,0.156,4.42,1.04,5.668c1.144,1.612,3.12,2.132,6.396,2.132c10.089,0,14.613-6.604,14.613-16.276
			c0-5.72-2.756-15.393-16.38-15.393c-3.068,0-4.732,0.416-5.148,0.728s-0.52,1.612-0.52,3.952V67.657z"/>
		<path d="M128.957,68.593c-1.196,0-1.353,0.052-1.769,1.248l-1.196,3.328c-0.572,1.664-0.416,1.872,0.572,2.08l1.404,0.26
			c0.416,0.26,0.364,1.196-0.156,1.3c-1.3-0.104-2.652-0.156-4.108-0.156s-2.704,0.104-3.64,0.156
			c-0.468-0.208-0.468-1.04-0.104-1.3l1.196-0.26c1.612-0.364,2.185-0.936,3.225-3.432l4.992-11.961
			c0.884-2.132,1.248-3.38,1.352-4.368c0.937-0.364,1.924-1.352,2.185-1.976c0.416-0.156,0.728-0.052,0.832,0.26
			c0.208,0.52,1.04,3.224,2.236,6.396l4.68,12.428c0.624,1.716,1.092,2.392,2.964,2.756l0.832,0.156
			c0.468,0.26,0.364,1.196-0.156,1.3c-1.352-0.104-2.548-0.156-4.316-0.156c-1.872,0-3.38,0.052-4.681,0.156
			c-0.52-0.156-0.572-1.092-0.104-1.3l1.04-0.156c1.352-0.208,1.3-0.521,0.676-2.132l-1.248-3.38
			c-0.416-1.196-0.572-1.248-1.768-1.248H128.957z M133.065,66.929c1.352,0,1.508-0.104,0.936-1.612l-1.612-4.42
			c-0.416-1.196-0.624-1.612-0.78-1.872h-0.104c-0.156,0.208-0.364,0.676-0.832,1.769l-1.872,4.628
			c-0.572,1.404-0.468,1.508,0.676,1.508H133.065z"/>
		<path d="M145.544,59.648c-1.561-3.432-1.769-3.692-3.017-4.004l-1.716-0.416c-0.312-0.312-0.364-1.04,0.052-1.3
			c1.353,0.104,3.068,0.156,4.681,0.156c1.872,0,3.38-0.052,5.044-0.156c0.416,0.208,0.468,1.04,0,1.3l-1.092,0.156
			c-1.353,0.208-1.353,0.884-0.208,3.432l2.548,5.772c1.3,2.964,2.184,4.888,2.964,6.604c1.04-2.185,1.924-4.368,2.912-6.553
			c1.092-2.392,2.548-5.98,3.068-7.488c0.364-1.092,0.312-1.456-1.248-1.768l-0.832-0.156c-0.468-0.312-0.312-0.988,0.104-1.3
			c1.508,0.104,2.86,0.156,4.264,0.156c1.664,0,2.86-0.052,3.692-0.156c0.52,0.208,0.624,1.04,0.26,1.3l-1.456,0.312
			c-1.56,0.312-1.872,0.78-3.536,4.316l-3.952,8.477c-1.56,3.328-3.068,7.124-3.692,8.84c-0.156,0.156-0.364,0.208-0.624,0.208
			c-0.208,0-0.416-0.052-0.624-0.208c-0.468-1.352-1.04-3.016-1.716-4.472L145.544,59.648z"/>
		<path d="M171.752,59.545c0-3.588-0.208-3.796-2.444-4.16l-0.988-0.156c-0.364-0.26-0.312-1.144,0.104-1.3
			c2.028,0.104,3.64,0.156,5.304,0.156s3.276-0.052,5.305-0.156c0.416,0.156,0.468,1.04,0.104,1.3l-0.988,0.156
			c-2.236,0.364-2.444,0.572-2.444,4.16v11.648c0,3.588,0.208,3.796,2.444,4.16l0.988,0.156c0.364,0.26,0.312,1.144-0.104,1.3
			c-1.977-0.104-3.692-0.156-5.305-0.156c-1.664,0-3.276,0.052-5.304,0.156c-0.416-0.156-0.468-1.04-0.104-1.3l0.988-0.156
			c2.236-0.364,2.444-0.572,2.444-4.16V59.545z"/>
		<path d="M186.623,60.169c0-3.38-0.052-4.265-1.248-4.42l-1.56-0.208c-0.468-0.156-0.416-1.144,0.052-1.3
			c2.912-0.208,5.824-0.312,10.036-0.312c2.912,0,5.46,0.312,7.904,1.144c4.732,1.612,7.177,5.408,7.177,10.192
			c0,4.108-2.132,7.904-6.292,10.037c-2.34,1.196-5.252,1.612-7.852,1.612c-2.34,0-4.681-0.26-6.24-0.26
			c-1.664,0-3.276,0.052-5.305,0.156c-0.416-0.156-0.468-1.04-0.104-1.3l0.988-0.156c2.236-0.364,2.444-0.572,2.444-4.16V60.169z
			 M190.575,70.413c0,3.328,0.521,4.992,4.473,4.992c6.24,0,9.308-3.9,9.308-10.244c0-6.396-4.472-9.725-10.348-9.725
			c-1.716,0-2.704,0.208-3.12,0.572c-0.312,0.208-0.312,0.884-0.312,2.028V70.413z"/>
		<path d="M237.479,59.856c-2.496,0-2.601,0.104-2.601,1.664v7.333c0,5.46,0.261,6.188,3.173,6.5l1.508,0.156
			c0.312,0.208,0.208,1.144-0.104,1.3c-2.808-0.104-4.576-0.156-6.604-0.156c-2.236,0-4.004,0.104-6.032,0.156
			c-0.312-0.156-0.416-0.988-0.104-1.3l0.885-0.156c2.912-0.521,3.016-1.04,3.016-6.5V50.132c0-5.46-0.364-6.344-3.068-6.552
			l-1.352-0.104c-0.312-0.208-0.208-1.144,0.104-1.3c2.549,0.052,4.316,0.156,6.553,0.156c2.027,0,3.796-0.052,6.032-0.156
			c0.312,0.156,0.416,1.092,0.104,1.3L238,43.58c-3.017,0.312-3.121,1.092-3.121,6.552v5.98c0,1.612,0.104,1.664,2.601,1.664h14.872
			c2.496,0,2.601-0.052,2.601-1.664v-5.98c0-5.46-0.104-6.24-3.172-6.552l-0.988-0.104c-0.312-0.208-0.208-1.144,0.104-1.3
			c2.393,0.104,4.16,0.156,6.293,0.156c2.027,0,3.796-0.052,6.136-0.156c0.312,0.156,0.416,1.092,0.104,1.3l-1.093,0.104
			c-3.016,0.312-3.119,1.092-3.119,6.552v18.721c0,5.46,0.104,6.136,3.119,6.5l1.248,0.156c0.312,0.208,0.209,1.144-0.104,1.3
			c-2.496-0.104-4.265-0.156-6.292-0.156c-2.133,0-4.005,0.052-6.292,0.156c-0.312-0.156-0.416-0.988-0.104-1.3l0.988-0.156
			c3.172-0.521,3.172-1.04,3.172-6.5v-7.333c0-1.56-0.104-1.664-2.601-1.664H237.479z"/>
		<path d="M274.348,68.593c-1.196,0-1.353,0.052-1.769,1.248l-1.196,3.328c-0.571,1.664-0.416,1.872,0.572,2.08l1.404,0.26
			c0.416,0.26,0.364,1.196-0.156,1.3c-1.3-0.104-2.652-0.156-4.107-0.156c-1.457,0-2.705,0.104-3.641,0.156
			c-0.468-0.208-0.468-1.04-0.104-1.3l1.195-0.26c1.612-0.364,2.185-0.936,3.225-3.432l4.992-11.961
			c0.884-2.132,1.248-3.38,1.352-4.368c0.937-0.364,1.924-1.352,2.185-1.976c0.416-0.156,0.728-0.052,0.832,0.26
			c0.208,0.52,1.04,3.224,2.235,6.396l4.681,12.428c0.624,1.716,1.092,2.392,2.964,2.756l0.832,0.156
			c0.469,0.26,0.364,1.196-0.156,1.3c-1.352-0.104-2.548-0.156-4.315-0.156c-1.872,0-3.38,0.052-4.681,0.156
			c-0.52-0.156-0.572-1.092-0.104-1.3l1.04-0.156c1.352-0.208,1.3-0.521,0.676-2.132l-1.248-3.38
			c-0.416-1.196-0.572-1.248-1.769-1.248H274.348z M278.455,66.929c1.353,0,1.509-0.104,0.937-1.612l-1.612-4.42
			c-0.416-1.196-0.624-1.612-0.779-1.872h-0.104c-0.156,0.208-0.364,0.676-0.832,1.769l-1.872,4.628
			c-0.572,1.404-0.468,1.508,0.676,1.508H278.455z"/>
		<path d="M295.094,59.545c0-3.588-0.208-3.796-2.443-4.16l-0.988-0.156c-0.364-0.26-0.312-1.144,0.104-1.3
			c2.028,0.104,3.641,0.156,5.305,0.156s3.275-0.052,4.992-0.156c0.416,0.156,0.468,1.04,0.104,1.3l-0.676,0.156
			c-2.184,0.52-2.444,0.572-2.444,4.16v11.18c0,1.612,0.104,3.068,0.572,3.588c0.468,0.468,1.3,0.832,4.004,0.832
			c3.173,0,5.097-0.156,6.604-4.316c0.364-0.364,1.196-0.26,1.352,0.208c-0.26,2.184-0.987,4.784-1.56,5.772
			c-3.276-0.104-6.032-0.156-8.685-0.156h-4.264c-1.664,0-3.276,0.052-5.305,0.156c-0.416-0.156-0.468-1.04-0.104-1.3l0.988-0.156
			c2.235-0.364,2.443-0.572,2.443-4.16V59.545z"/>
		<path d="M317.038,59.545c0-3.588-0.208-3.796-2.444-4.16l-0.987-0.156c-0.364-0.26-0.312-1.144,0.104-1.3
			c2.028,0.104,3.641,0.156,5.305,0.156s3.276-0.052,4.992-0.156c0.416,0.156,0.468,1.04,0.104,1.3l-0.676,0.156
			c-2.185,0.52-2.444,0.572-2.444,4.16v11.18c0,1.612,0.104,3.068,0.572,3.588c0.468,0.468,1.3,0.832,4.004,0.832
			c3.172,0,5.097-0.156,6.604-4.316c0.364-0.364,1.196-0.26,1.353,0.208c-0.261,2.184-0.988,4.784-1.561,5.772
			c-3.276-0.104-6.032-0.156-8.685-0.156h-4.264c-1.664,0-3.276,0.052-5.305,0.156c-0.416-0.156-0.468-1.04-0.104-1.3l0.987-0.156
			c2.236-0.364,2.444-0.572,2.444-4.16V59.545z"/>
	</g>
	<g>
		<path d="M140.031,99.236v-1.232h8.793v1.232h-3.665V109h-1.463v-9.764H140.031z"/>
		<path d="M151.504,98.004v4.728h5.791v-4.728h1.463V109h-1.463v-5.036h-5.791V109h-1.463V98.004H151.504z"/>
		<path d="M168.751,98.004v1.232h-6.129v3.496h5.714v1.232h-5.714v3.804h6.176V109h-7.639V98.004H168.751z"/>
		<path d="M184.339,108.191c-0.75,0.704-1.817,1.055-3.204,1.055c-1.416,0-2.522-0.336-3.318-1.009s-1.193-1.743-1.193-3.211v-7.022
			h1.463v7.022c0,0.985,0.262,1.732,0.785,2.241s1.278,0.762,2.264,0.762c0.935,0,1.646-0.254,2.134-0.762
			c0.487-0.508,0.731-1.255,0.731-2.241v-7.022h1.463v7.022C185.463,106.434,185.088,107.488,184.339,108.191z"/>
		<path d="M189.266,98.004v5.482l5.575-5.482h1.894l-4.635,4.435l4.82,6.561h-1.849l-3.973-5.56l-1.833,1.709V109h-1.463V98.004
			H189.266z"/>
		<path d="M206.854,109l-3.865-10.996h1.57l3.142,9.533h0.031l3.173-9.533h1.524L208.518,109H206.854z"/>
		<path d="M215.124,98.004V109h-1.463V98.004H215.124z"/>
		<path d="M221.361,98.004c1.693,0,2.997,0.431,3.911,1.293s1.371,2.177,1.371,3.942c0,0.924-0.104,1.743-0.309,2.457
			s-0.523,1.314-0.955,1.802c-0.431,0.488-0.98,0.86-1.647,1.117c-0.667,0.256-1.458,0.385-2.371,0.385h-3.773V98.004H221.361z
			 M221.484,107.768c0.164,0,0.369-0.013,0.616-0.039c0.246-0.025,0.508-0.087,0.785-0.185s0.552-0.239,0.823-0.424
			c0.272-0.185,0.517-0.436,0.732-0.754c0.215-0.318,0.393-0.716,0.531-1.193c0.138-0.478,0.207-1.055,0.207-1.733
			c0-0.657-0.063-1.245-0.192-1.763c-0.128-0.518-0.339-0.96-0.631-1.324c-0.293-0.364-0.67-0.642-1.132-0.832
			s-1.032-0.285-1.71-0.285h-2.464v8.532H221.484z"/>
		<path d="M236.021,98.004v1.232h-6.129v3.496h5.714v1.232h-5.714v3.804h6.176V109h-7.639V98.004H236.021z"/>
		<path d="M237.554,101.338c0.221-0.693,0.552-1.306,0.993-1.84c0.441-0.534,0.991-0.959,1.648-1.278
			c0.656-0.318,1.422-0.478,2.294-0.478c0.873,0,1.638,0.159,2.295,0.478s1.206,0.744,1.647,1.278
			c0.441,0.534,0.772,1.147,0.994,1.84c0.221,0.693,0.331,1.415,0.331,2.164s-0.11,1.47-0.331,2.164
			c-0.222,0.693-0.553,1.307-0.994,1.84s-0.99,0.958-1.647,1.271s-1.422,0.47-2.295,0.47c-0.872,0-1.638-0.157-2.294-0.47
			c-0.657-0.313-1.207-0.737-1.648-1.271s-0.772-1.147-0.993-1.84c-0.221-0.693-0.331-1.414-0.331-2.164
			S237.333,102.032,237.554,101.338z M238.901,105.142c0.144,0.539,0.37,1.024,0.678,1.456s0.703,0.778,1.186,1.04
			s1.058,0.393,1.725,0.393c0.668,0,1.242-0.131,1.726-0.393c0.482-0.262,0.878-0.608,1.186-1.04s0.533-0.917,0.678-1.456
			c0.144-0.539,0.216-1.085,0.216-1.64c0-0.555-0.072-1.102-0.216-1.64c-0.145-0.539-0.37-1.024-0.678-1.456
			s-0.703-0.778-1.186-1.04c-0.483-0.262-1.058-0.393-1.726-0.393c-0.667,0-1.242,0.131-1.725,0.393s-0.878,0.608-1.186,1.04
			s-0.534,0.917-0.678,1.456c-0.144,0.539-0.216,1.085-0.216,1.64C238.686,104.057,238.758,104.604,238.901,105.142z"/>
		<path d="M260.264,98.004L264.561,109h-1.617l-1.201-3.311h-4.65L255.859,109h-1.494l4.281-10.996H260.264z M261.28,104.457
			l-1.833-5.128h-0.03l-1.863,5.128H261.28z"/>
		<path d="M270.812,98.004c1.047,0,1.865,0.257,2.456,0.77c0.59,0.514,0.886,1.217,0.886,2.11c0,0.667-0.152,1.252-0.455,1.755
			c-0.303,0.503-0.788,0.847-1.455,1.032v0.031c0.318,0.062,0.578,0.164,0.778,0.308c0.2,0.144,0.358,0.316,0.477,0.516
			s0.206,0.423,0.262,0.67c0.057,0.246,0.101,0.503,0.132,0.77c0.02,0.267,0.035,0.539,0.046,0.816
			c0.01,0.277,0.036,0.549,0.077,0.816s0.1,0.521,0.177,0.762s0.192,0.455,0.347,0.639h-1.633c-0.103-0.113-0.172-0.267-0.208-0.462
			s-0.059-0.413-0.069-0.655c-0.01-0.241-0.021-0.5-0.03-0.777c-0.011-0.277-0.041-0.549-0.093-0.816
			c-0.041-0.267-0.092-0.521-0.153-0.762c-0.062-0.241-0.16-0.452-0.293-0.631c-0.134-0.18-0.308-0.324-0.523-0.431
			c-0.216-0.108-0.503-0.162-0.862-0.162h-3.573V109h-1.463V98.004H270.812z M271.12,102.994c0.308-0.051,0.577-0.151,0.809-0.3
			c0.23-0.149,0.416-0.349,0.555-0.601s0.208-0.578,0.208-0.978c0-0.554-0.154-1.006-0.463-1.355
			c-0.308-0.349-0.806-0.523-1.493-0.523h-3.635v3.834h3.05C270.488,103.071,270.812,103.045,271.12,102.994z"/>
		<path d="M274.74,99.236v-1.232h8.793v1.232h-3.665V109h-1.463v-9.764H274.74z"/>
		<path d="M295.686,98.004c1.108,0,1.948,0.285,2.518,0.854c0.57,0.57,0.854,1.368,0.854,2.395s-0.284,1.828-0.854,2.402
			c-0.569,0.575-1.409,0.857-2.518,0.847h-3.357V109h-1.463V98.004H295.686z M295.192,103.271c0.832,0.011,1.44-0.159,1.825-0.508
			s0.577-0.852,0.577-1.509s-0.192-1.158-0.577-1.501c-0.385-0.344-0.993-0.516-1.825-0.516h-2.864v4.035H295.192z"/>
		<path d="M302.369,98.004V109h-1.463V98.004H302.369z"/>
		<path d="M304.548,101.338c0.221-0.693,0.552-1.306,0.993-1.84c0.441-0.534,0.991-0.959,1.648-1.278
			c0.656-0.318,1.422-0.478,2.294-0.478c0.873,0,1.638,0.159,2.295,0.478s1.206,0.744,1.647,1.278
			c0.441,0.534,0.772,1.147,0.994,1.84c0.221,0.693,0.331,1.415,0.331,2.164s-0.11,1.47-0.331,2.164
			c-0.222,0.693-0.553,1.307-0.994,1.84s-0.99,0.958-1.647,1.271s-1.422,0.47-2.295,0.47c-0.872,0-1.638-0.157-2.294-0.47
			c-0.657-0.313-1.207-0.737-1.648-1.271s-0.772-1.147-0.993-1.84c-0.221-0.693-0.331-1.414-0.331-2.164
			S304.327,102.032,304.548,101.338z M305.896,105.142c0.144,0.539,0.37,1.024,0.678,1.456s0.703,0.778,1.186,1.04
			s1.058,0.393,1.725,0.393c0.668,0,1.242-0.131,1.726-0.393c0.482-0.262,0.878-0.608,1.186-1.04s0.533-0.917,0.678-1.456
			c0.144-0.539,0.216-1.085,0.216-1.64c0-0.555-0.072-1.102-0.216-1.64c-0.145-0.539-0.37-1.024-0.678-1.456
			s-0.703-0.778-1.186-1.04c-0.483-0.262-1.058-0.393-1.726-0.393c-0.667,0-1.242,0.131-1.725,0.393s-0.878,0.608-1.186,1.04
			s-0.534,0.917-0.678,1.456c-0.144,0.539-0.216,1.085-0.216,1.64C305.68,104.057,305.752,104.604,305.896,105.142z"/>
		<path d="M318.077,98.004l5.79,8.917h0.031v-8.917h1.386V109h-1.602l-5.744-8.824h-0.03V109h-1.387V98.004H318.077z"/>
		<path d="M335.247,98.004v1.232h-6.129v3.496h5.714v1.232h-5.714v3.804h6.176V109h-7.639V98.004H335.247z"/>
		<path d="M344.656,98.004v1.232h-6.129v3.496h5.714v1.232h-5.714v3.804h6.176V109h-7.639V98.004H344.656z"/>
		<path d="M351.648,98.004c1.047,0,1.865,0.257,2.456,0.77c0.59,0.514,0.886,1.217,0.886,2.11c0,0.667-0.152,1.252-0.455,1.755
			c-0.303,0.503-0.788,0.847-1.455,1.032v0.031c0.318,0.062,0.578,0.164,0.778,0.308c0.2,0.144,0.358,0.316,0.477,0.516
			s0.206,0.423,0.262,0.67c0.057,0.246,0.101,0.503,0.132,0.77c0.02,0.267,0.035,0.539,0.046,0.816
			c0.01,0.277,0.036,0.549,0.077,0.816s0.1,0.521,0.177,0.762s0.192,0.455,0.347,0.639h-1.633c-0.103-0.113-0.172-0.267-0.208-0.462
			s-0.059-0.413-0.069-0.655c-0.01-0.241-0.021-0.5-0.03-0.777c-0.011-0.277-0.041-0.549-0.093-0.816
			c-0.041-0.267-0.092-0.521-0.153-0.762c-0.062-0.241-0.16-0.452-0.293-0.631c-0.134-0.18-0.308-0.324-0.523-0.431
			c-0.216-0.108-0.503-0.162-0.862-0.162h-3.573V109h-1.463V98.004H351.648z M351.956,102.994c0.308-0.051,0.577-0.151,0.809-0.3
			c0.23-0.149,0.416-0.349,0.555-0.601s0.208-0.578,0.208-0.978c0-0.554-0.154-1.006-0.463-1.355
			c-0.308-0.349-0.806-0.523-1.493-0.523h-3.635v3.834h3.05C351.324,103.071,351.648,103.045,351.956,102.994z"/>
		<path d="M360.089,106.558v2.222c0,0.836-0.19,1.555-0.571,2.156c-0.382,0.601-0.998,1.026-1.849,1.276v-1.1
			c0.25-0.088,0.459-0.216,0.627-0.385c0.169-0.169,0.305-0.352,0.407-0.55c0.103-0.198,0.173-0.399,0.209-0.605
			s0.048-0.396,0.033-0.572h-1.298v-2.442H360.089z"/>
		<path d="M148.424,124.404v1.232h-5.76v3.497h5.052v1.231h-5.052v5.036h-1.463v-10.996H148.424z"/>
		<path d="M151.565,124.404V135.4h-1.463v-10.996H151.565z"/>
		<path d="M159.204,124.404c1.047,0,1.865,0.257,2.456,0.77c0.59,0.514,0.886,1.217,0.886,2.11c0,0.667-0.152,1.253-0.455,1.755
			c-0.303,0.504-0.788,0.848-1.455,1.032v0.031c0.318,0.062,0.578,0.164,0.778,0.308c0.2,0.145,0.358,0.316,0.477,0.516
			c0.118,0.201,0.206,0.424,0.262,0.67c0.057,0.246,0.101,0.504,0.132,0.771c0.02,0.267,0.035,0.539,0.046,0.815
			c0.01,0.277,0.036,0.55,0.077,0.816c0.041,0.268,0.1,0.521,0.177,0.763s0.192,0.454,0.347,0.64h-1.633
			c-0.103-0.113-0.172-0.268-0.208-0.463c-0.036-0.194-0.059-0.412-0.069-0.654c-0.01-0.24-0.021-0.5-0.03-0.777
			c-0.011-0.277-0.041-0.549-0.093-0.816c-0.041-0.267-0.092-0.521-0.153-0.762c-0.062-0.242-0.16-0.452-0.293-0.632
			c-0.134-0.18-0.308-0.323-0.523-0.431c-0.216-0.108-0.503-0.162-0.862-0.162h-3.573v4.697h-1.463v-10.996H159.204z
			 M159.512,129.395c0.308-0.052,0.577-0.152,0.809-0.301c0.23-0.148,0.416-0.35,0.555-0.601s0.208-0.578,0.208-0.978
			c0-0.554-0.154-1.006-0.463-1.355c-0.308-0.349-0.806-0.523-1.493-0.523h-3.635v3.834h3.05
			C158.88,129.471,159.204,129.445,159.512,129.395z"/>
		<path d="M170.084,125.906c-0.488-0.354-1.111-0.531-1.871-0.531c-0.309,0-0.611,0.031-0.909,0.092s-0.562,0.165-0.793,0.308
			c-0.23,0.144-0.416,0.336-0.555,0.578s-0.207,0.542-0.207,0.901c0,0.339,0.1,0.613,0.3,0.824c0.2,0.21,0.467,0.383,0.801,0.517
			c0.334,0.133,0.711,0.243,1.132,0.33c0.421,0.088,0.85,0.183,1.286,0.285c0.437,0.104,0.864,0.224,1.286,0.361
			c0.421,0.139,0.798,0.326,1.132,0.562c0.333,0.236,0.601,0.534,0.801,0.894s0.3,0.812,0.3,1.354c0,0.586-0.131,1.086-0.393,1.502
			s-0.598,0.755-1.009,1.017c-0.41,0.262-0.87,0.452-1.378,0.569c-0.509,0.118-1.015,0.178-1.517,0.178
			c-0.616,0-1.199-0.077-1.748-0.23c-0.55-0.154-1.032-0.389-1.448-0.701c-0.415-0.313-0.744-0.714-0.985-1.201
			c-0.241-0.488-0.362-1.065-0.362-1.732h1.387c0,0.461,0.09,0.859,0.27,1.193s0.415,0.607,0.708,0.824
			c0.293,0.215,0.634,0.375,1.024,0.477c0.39,0.104,0.79,0.154,1.201,0.154c0.328,0,0.659-0.031,0.993-0.092
			c0.333-0.062,0.634-0.168,0.9-0.316c0.268-0.148,0.483-0.352,0.647-0.608s0.246-0.585,0.246-0.985c0-0.38-0.1-0.688-0.3-0.924
			s-0.468-0.429-0.801-0.578c-0.334-0.148-0.712-0.27-1.132-0.361c-0.422-0.093-0.851-0.188-1.286-0.285
			c-0.437-0.098-0.865-0.21-1.286-0.339c-0.421-0.128-0.799-0.298-1.132-0.508c-0.334-0.21-0.601-0.483-0.801-0.816
			s-0.301-0.752-0.301-1.255c0-0.555,0.113-1.035,0.339-1.44c0.226-0.406,0.526-0.739,0.901-1.001
			c0.375-0.262,0.801-0.457,1.278-0.585s0.968-0.192,1.471-0.192c0.564,0,1.088,0.067,1.57,0.2s0.906,0.344,1.271,0.631
			c0.364,0.288,0.652,0.649,0.862,1.085c0.211,0.437,0.326,0.958,0.347,1.563h-1.386
			C170.856,126.833,170.571,126.26,170.084,125.906z"/>
		<path d="M173.387,125.636v-1.232h8.793v1.232h-3.665v9.764h-1.463v-9.764H173.387z"/>
		<path d="M191.037,124.404V135.4h-1.463v-10.996H191.037z"/>
		<path d="M195.041,124.404l5.79,8.916h0.031v-8.916h1.386V135.4h-1.602l-5.744-8.825h-0.03v8.825h-1.387v-10.996H195.041z"/>
		<path d="M203.449,125.636v-1.232h8.793v1.232h-3.665v9.764h-1.463v-9.764H203.449z"/>
		<path d="M218.634,124.404c1.047,0,1.865,0.257,2.456,0.77c0.59,0.514,0.886,1.217,0.886,2.11c0,0.667-0.152,1.253-0.455,1.755
			c-0.303,0.504-0.788,0.848-1.455,1.032v0.031c0.318,0.062,0.578,0.164,0.778,0.308c0.2,0.145,0.358,0.316,0.477,0.516
			c0.118,0.201,0.206,0.424,0.262,0.67c0.057,0.246,0.101,0.504,0.132,0.771c0.02,0.267,0.035,0.539,0.046,0.815
			c0.01,0.277,0.036,0.55,0.077,0.816c0.041,0.268,0.1,0.521,0.177,0.763s0.192,0.454,0.347,0.64h-1.633
			c-0.103-0.113-0.172-0.268-0.208-0.463c-0.036-0.194-0.059-0.412-0.069-0.654c-0.01-0.24-0.021-0.5-0.03-0.777
			c-0.011-0.277-0.041-0.549-0.093-0.816c-0.041-0.267-0.092-0.521-0.153-0.762c-0.062-0.242-0.16-0.452-0.293-0.632
			c-0.134-0.18-0.308-0.323-0.523-0.431c-0.216-0.108-0.503-0.162-0.862-0.162h-3.573v4.697h-1.463v-10.996H218.634z
			 M218.941,129.395c0.308-0.052,0.577-0.152,0.809-0.301c0.23-0.148,0.416-0.35,0.555-0.601s0.208-0.578,0.208-0.978
			c0-0.554-0.154-1.006-0.463-1.355c-0.308-0.349-0.806-0.523-1.493-0.523h-3.635v3.834h3.05
			C218.31,129.471,218.634,129.445,218.941,129.395z"/>
		<path d="M223.723,127.738c0.221-0.693,0.552-1.306,0.993-1.84c0.441-0.534,0.991-0.959,1.648-1.278
			c0.656-0.318,1.422-0.478,2.294-0.478c0.873,0,1.638,0.159,2.295,0.478s1.206,0.744,1.647,1.278
			c0.441,0.534,0.772,1.147,0.994,1.84c0.221,0.693,0.331,1.414,0.331,2.164s-0.11,1.471-0.331,2.164
			c-0.222,0.692-0.553,1.307-0.994,1.84s-0.99,0.957-1.647,1.271s-1.422,0.47-2.295,0.47c-0.872,0-1.638-0.156-2.294-0.47
			c-0.657-0.313-1.207-0.737-1.648-1.271s-0.772-1.147-0.993-1.84c-0.221-0.693-0.331-1.414-0.331-2.164
			S223.502,128.432,223.723,127.738z M225.07,131.542c0.144,0.539,0.37,1.024,0.678,1.456c0.308,0.431,0.703,0.777,1.186,1.039
			s1.058,0.393,1.725,0.393c0.668,0,1.242-0.131,1.726-0.393c0.482-0.262,0.878-0.608,1.186-1.039
			c0.308-0.432,0.533-0.917,0.678-1.456c0.144-0.538,0.216-1.085,0.216-1.64s-0.072-1.102-0.216-1.641
			c-0.145-0.539-0.37-1.024-0.678-1.455s-0.703-0.778-1.186-1.04c-0.483-0.262-1.058-0.393-1.726-0.393
			c-0.667,0-1.242,0.131-1.725,0.393s-0.878,0.608-1.186,1.04s-0.534,0.917-0.678,1.455c-0.144,0.539-0.216,1.086-0.216,1.641
			S224.927,131.004,225.07,131.542z"/>
		<path d="M239.485,124.404c1.693,0,2.997,0.431,3.911,1.293s1.371,2.177,1.371,3.943c0,0.924-0.104,1.742-0.309,2.456
			s-0.523,1.314-0.955,1.802c-0.431,0.488-0.98,0.859-1.647,1.117c-0.667,0.256-1.458,0.385-2.371,0.385h-3.773v-10.996H239.485z
			 M239.608,134.168c0.164,0,0.369-0.013,0.616-0.039c0.246-0.025,0.508-0.086,0.785-0.184s0.552-0.239,0.823-0.424
			c0.272-0.186,0.517-0.437,0.732-0.755c0.215-0.318,0.393-0.716,0.531-1.193c0.138-0.478,0.207-1.056,0.207-1.733
			c0-0.656-0.063-1.244-0.192-1.763c-0.128-0.518-0.339-0.96-0.631-1.324c-0.293-0.364-0.67-0.642-1.132-0.832
			s-1.032-0.285-1.71-0.285h-2.464v8.532H239.608z"/>
		<path d="M254.208,134.592c-0.75,0.703-1.817,1.055-3.204,1.055c-1.416,0-2.522-0.336-3.318-1.009s-1.193-1.743-1.193-3.211v-7.022
			h1.463v7.022c0,0.985,0.262,1.732,0.785,2.241c0.523,0.508,1.278,0.762,2.264,0.762c0.935,0,1.646-0.254,2.134-0.762
			c0.487-0.509,0.731-1.256,0.731-2.241v-7.022h1.463v7.022C255.332,132.834,254.957,133.889,254.208,134.592z"/>
		<path d="M264.317,125.959c-0.561-0.39-1.225-0.585-1.995-0.585c-0.656,0-1.219,0.123-1.686,0.37
			c-0.468,0.247-0.853,0.578-1.155,0.993c-0.303,0.416-0.526,0.891-0.67,1.425c-0.144,0.533-0.216,1.088-0.216,1.663
			c0,0.626,0.072,1.22,0.216,1.778c0.144,0.561,0.367,1.047,0.67,1.463s0.69,0.747,1.163,0.994c0.472,0.246,1.036,0.369,1.693,0.369
			c0.482,0,0.911-0.08,1.286-0.238c0.375-0.16,0.698-0.38,0.97-0.662c0.272-0.283,0.485-0.619,0.64-1.01
			c0.154-0.39,0.246-0.811,0.277-1.262h1.463c-0.144,1.385-0.621,2.463-1.433,3.233c-0.811,0.771-1.92,1.155-3.326,1.155
			c-0.853,0-1.597-0.146-2.233-0.439c-0.637-0.292-1.165-0.695-1.586-1.209c-0.421-0.513-0.736-1.119-0.947-1.816
			c-0.21-0.698-0.315-1.447-0.315-2.248s0.113-1.553,0.339-2.257c0.226-0.703,0.557-1.317,0.993-1.84s0.98-0.937,1.633-1.24
			c0.651-0.303,1.398-0.454,2.24-0.454c0.575,0,1.119,0.077,1.633,0.231c0.513,0.154,0.97,0.38,1.37,0.678s0.734,0.67,1.001,1.116
			c0.268,0.447,0.441,0.962,0.523,1.548h-1.463C265.238,126.935,264.876,126.35,264.317,125.959z"/>
		<path d="M276.382,124.404v1.232h-6.129v3.497h5.714v1.231h-5.714v3.804h6.176v1.232h-7.639v-10.996H276.382z"/>
		<path d="M281.973,124.404c1.693,0,2.997,0.431,3.911,1.293s1.371,2.177,1.371,3.943c0,0.924-0.104,1.742-0.309,2.456
			s-0.523,1.314-0.955,1.802c-0.431,0.488-0.98,0.859-1.647,1.117c-0.667,0.256-1.458,0.385-2.371,0.385h-3.773v-10.996H281.973z
			 M282.096,134.168c0.164,0,0.369-0.013,0.616-0.039c0.246-0.025,0.508-0.086,0.785-0.184s0.552-0.239,0.823-0.424
			c0.272-0.186,0.517-0.437,0.732-0.755c0.215-0.318,0.393-0.716,0.531-1.193c0.138-0.478,0.207-1.056,0.207-1.733
			c0-0.656-0.063-1.244-0.192-1.763c-0.128-0.518-0.339-0.96-0.631-1.324c-0.293-0.364-0.67-0.642-1.132-0.832
			s-1.032-0.285-1.71-0.285h-2.464v8.532H282.096z"/>
		<path d="M293.987,125.636v-1.232h8.793v1.232h-3.665v9.764h-1.463v-9.764H293.987z"/>
		<path d="M305.459,124.404v4.729h5.791v-4.729h1.463V135.4h-1.463v-5.036h-5.791v5.036h-1.463v-10.996H305.459z"/>
		<path d="M322.707,124.404v1.232h-6.129v3.497h5.714v1.231h-5.714v3.804h6.176v1.232h-7.639v-10.996H322.707z"/>
		<path d="M329.471,125.636v-1.232h8.793v1.232h-3.665v9.764h-1.463v-9.764H329.471z"/>
		<path d="M347.071,124.404v1.232h-6.129v3.497h5.714v1.231h-5.714v3.804h6.176v1.232h-7.639v-10.996H347.071z"/>
		<path d="M354.063,124.404c1.047,0,1.865,0.257,2.456,0.77c0.59,0.514,0.886,1.217,0.886,2.11c0,0.667-0.152,1.253-0.455,1.755
			c-0.303,0.504-0.788,0.848-1.455,1.032v0.031c0.318,0.062,0.578,0.164,0.778,0.308c0.2,0.145,0.358,0.316,0.477,0.516
			c0.118,0.201,0.206,0.424,0.262,0.67c0.057,0.246,0.101,0.504,0.132,0.771c0.02,0.267,0.035,0.539,0.046,0.815
			c0.01,0.277,0.036,0.55,0.077,0.816c0.041,0.268,0.1,0.521,0.177,0.763s0.192,0.454,0.347,0.64h-1.633
			c-0.103-0.113-0.172-0.268-0.208-0.463c-0.036-0.194-0.059-0.412-0.069-0.654c-0.01-0.24-0.021-0.5-0.03-0.777
			c-0.011-0.277-0.041-0.549-0.093-0.816c-0.041-0.267-0.092-0.521-0.153-0.762c-0.062-0.242-0.16-0.452-0.293-0.632
			c-0.134-0.18-0.308-0.323-0.523-0.431c-0.216-0.108-0.503-0.162-0.862-0.162h-3.573v4.697h-1.463v-10.996H354.063z
			 M354.371,129.395c0.308-0.052,0.577-0.152,0.809-0.301c0.23-0.148,0.416-0.35,0.555-0.601s0.208-0.578,0.208-0.978
			c0-0.554-0.154-1.006-0.463-1.355c-0.308-0.349-0.806-0.523-1.493-0.523h-3.635v3.834h3.05
			C353.739,129.471,354.063,129.445,354.371,129.395z"/>
		<path d="M361.472,124.404l3.465,9.24l3.48-9.24h2.002V135.4h-1.387v-9.148h-0.03l-3.435,9.148h-1.247l-3.435-9.148h-0.03v9.148
			h-1.386v-10.996H361.472z"/>
		<path d="M375.918,132.958v2.222c0,0.836-0.19,1.555-0.571,2.156c-0.382,0.602-0.998,1.026-1.849,1.275v-1.1
			c0.25-0.088,0.459-0.217,0.627-0.385c0.169-0.169,0.305-0.352,0.407-0.551c0.103-0.197,0.173-0.398,0.209-0.604
			s0.048-0.396,0.033-0.571h-1.298v-2.442H375.918z"/>
		<path d="M383.913,125.636v-1.232h8.793v1.232h-3.665v9.764h-1.463v-9.764H383.913z"/>
		<path d="M395.447,124.404V135.4h-1.463v-10.996H395.447z"/>
		<path d="M399.944,124.404l3.465,9.24l3.48-9.24h2.002V135.4h-1.387v-9.148h-0.03l-3.435,9.148h-1.247l-3.435-9.148h-0.03v9.148
			h-1.386v-10.996H399.944z"/>
		<path d="M418.916,124.404v1.232h-6.129v3.497h5.714v1.231h-5.714v3.804h6.176v1.232h-7.639v-10.996H418.916z"/>
		<path d="M426.99,128.404v1.76h-6.358v-1.76H426.99z"/>
		<path d="M433.279,124.404c0.236,0,0.49,0.002,0.763,0.008c0.271,0.005,0.541,0.021,0.809,0.046
			c0.267,0.026,0.516,0.064,0.747,0.116c0.23,0.051,0.429,0.128,0.593,0.231c0.359,0.216,0.664,0.514,0.916,0.893
			c0.252,0.38,0.377,0.847,0.377,1.401c0,0.585-0.141,1.091-0.423,1.517c-0.282,0.427-0.686,0.741-1.209,0.947v0.03
			c0.678,0.145,1.195,0.452,1.556,0.924c0.358,0.473,0.539,1.048,0.539,1.725c0,0.4-0.072,0.791-0.216,1.171
			c-0.145,0.38-0.357,0.716-0.64,1.009s-0.631,0.529-1.047,0.709s-0.896,0.27-1.439,0.27h-5.313v-10.996H433.279z M433.68,129.133
			c0.832,0,1.43-0.146,1.795-0.439c0.364-0.293,0.546-0.731,0.546-1.317c0-0.39-0.062-0.698-0.185-0.924
			c-0.123-0.226-0.293-0.4-0.508-0.524c-0.216-0.123-0.465-0.203-0.747-0.238c-0.282-0.036-0.583-0.054-0.901-0.054h-2.926v3.497
			H433.68z M434.419,134.168c0.647,0,1.152-0.174,1.518-0.523c0.364-0.35,0.546-0.832,0.546-1.447c0-0.359-0.066-0.657-0.2-0.894
			c-0.133-0.236-0.311-0.424-0.531-0.562c-0.221-0.138-0.475-0.235-0.762-0.292c-0.288-0.057-0.585-0.085-0.894-0.085h-3.342v3.804
			H434.419z"/>
		<path d="M444.444,124.404l4.297,10.996h-1.617l-1.201-3.312h-4.65l-1.232,3.312h-1.494l4.281-10.996H444.444z M445.461,130.857
			l-1.833-5.129h-0.03l-1.863,5.129H445.461z"/>
		<path d="M455.325,125.906c-0.488-0.354-1.111-0.531-1.871-0.531c-0.309,0-0.611,0.031-0.909,0.092s-0.562,0.165-0.793,0.308
			c-0.23,0.144-0.416,0.336-0.555,0.578s-0.207,0.542-0.207,0.901c0,0.339,0.1,0.613,0.3,0.824c0.2,0.21,0.467,0.383,0.801,0.517
			c0.334,0.133,0.711,0.243,1.132,0.33c0.421,0.088,0.85,0.183,1.286,0.285c0.437,0.104,0.864,0.224,1.286,0.361
			c0.421,0.139,0.798,0.326,1.132,0.562c0.333,0.236,0.601,0.534,0.801,0.894s0.3,0.812,0.3,1.354c0,0.586-0.131,1.086-0.393,1.502
			s-0.598,0.755-1.009,1.017c-0.41,0.262-0.87,0.452-1.378,0.569c-0.509,0.118-1.015,0.178-1.517,0.178
			c-0.616,0-1.199-0.077-1.748-0.23c-0.55-0.154-1.032-0.389-1.448-0.701c-0.415-0.313-0.744-0.714-0.985-1.201
			c-0.241-0.488-0.362-1.065-0.362-1.732h1.387c0,0.461,0.09,0.859,0.27,1.193s0.415,0.607,0.708,0.824
			c0.293,0.215,0.634,0.375,1.024,0.477c0.39,0.104,0.79,0.154,1.201,0.154c0.328,0,0.659-0.031,0.993-0.092
			c0.333-0.062,0.634-0.168,0.9-0.316c0.268-0.148,0.483-0.352,0.647-0.608s0.246-0.585,0.246-0.985c0-0.38-0.1-0.688-0.3-0.924
			s-0.468-0.429-0.801-0.578c-0.334-0.148-0.712-0.27-1.132-0.361c-0.422-0.093-0.851-0.188-1.286-0.285
			c-0.437-0.098-0.865-0.21-1.286-0.339c-0.421-0.128-0.799-0.298-1.132-0.508c-0.334-0.21-0.601-0.483-0.801-0.816
			s-0.301-0.752-0.301-1.255c0-0.555,0.113-1.035,0.339-1.44c0.226-0.406,0.526-0.739,0.901-1.001
			c0.375-0.262,0.801-0.457,1.278-0.585s0.968-0.192,1.471-0.192c0.564,0,1.088,0.067,1.57,0.2s0.906,0.344,1.271,0.631
			c0.364,0.288,0.652,0.649,0.862,1.085c0.211,0.437,0.326,0.958,0.347,1.563h-1.386
			C456.098,126.833,455.812,126.26,455.325,125.906z"/>
		<path d="M467.391,124.404v1.232h-6.129v3.497h5.714v1.231h-5.714v3.804h6.176v1.232h-7.639v-10.996H467.391z"/>
		<path d="M472.981,124.404c1.693,0,2.997,0.431,3.911,1.293s1.371,2.177,1.371,3.943c0,0.924-0.104,1.742-0.309,2.456
			s-0.523,1.314-0.955,1.802c-0.431,0.488-0.98,0.859-1.647,1.117c-0.667,0.256-1.458,0.385-2.371,0.385h-3.773v-10.996H472.981z
			 M473.104,134.168c0.164,0,0.369-0.013,0.616-0.039c0.246-0.025,0.508-0.086,0.785-0.184s0.552-0.239,0.823-0.424
			c0.272-0.186,0.517-0.437,0.732-0.755c0.215-0.318,0.393-0.716,0.531-1.193c0.138-0.478,0.207-1.056,0.207-1.733
			c0-0.656-0.063-1.244-0.192-1.763c-0.128-0.518-0.339-0.96-0.631-1.324c-0.293-0.364-0.67-0.642-1.132-0.832
			s-1.032-0.285-1.71-0.285h-2.464v8.532H473.104z"/>
		<path d="M488.198,124.404l3.465,9.24l3.48-9.24h2.002V135.4h-1.387v-9.148h-0.03l-3.435,9.148h-1.247l-3.435-9.148h-0.03v9.148
			h-1.386v-10.996H488.198z"/>
		<path d="M507.17,124.404v1.232h-6.129v3.497h5.714v1.231h-5.714v3.804h6.176v1.232h-7.639v-10.996H507.17z"/>
		<path d="M512.762,124.404c1.693,0,2.997,0.431,3.911,1.293s1.371,2.177,1.371,3.943c0,0.924-0.104,1.742-0.309,2.456
			s-0.523,1.314-0.955,1.802c-0.431,0.488-0.98,0.859-1.647,1.117c-0.667,0.256-1.458,0.385-2.371,0.385h-3.773v-10.996H512.762z
			 M512.885,134.168c0.164,0,0.369-0.013,0.616-0.039c0.246-0.025,0.508-0.086,0.785-0.184s0.552-0.239,0.823-0.424
			c0.272-0.186,0.517-0.437,0.732-0.755c0.215-0.318,0.393-0.716,0.531-1.193c0.138-0.478,0.207-1.056,0.207-1.733
			c0-0.656-0.063-1.244-0.192-1.763c-0.128-0.518-0.339-0.96-0.631-1.324c-0.293-0.364-0.67-0.642-1.132-0.832
			s-1.032-0.285-1.71-0.285h-2.464v8.532H512.885z"/>
		<path d="M521.354,124.404V135.4h-1.463v-10.996H521.354z"/>
		<path d="M528.422,124.404l4.297,10.996h-1.617l-1.201-3.312h-4.65l-1.232,3.312h-1.494l4.281-10.996H528.422z M529.438,130.857
			l-1.833-5.129h-0.03l-1.863,5.129H529.438z"/>
		<path d="M541.438,124.404V135.4h-1.463v-10.996H541.438z"/>
		<path d="M545.441,124.404l5.79,8.916h0.031v-8.916h1.386V135.4h-1.602l-5.744-8.825h-0.03v8.825h-1.387v-10.996H545.441z"/>
		<path d="M564.812,135.4v-9.145h-3.312v-1.224c0.432,0,0.852-0.033,1.26-0.099c0.407-0.066,0.776-0.189,1.106-0.369
			s0.609-0.426,0.837-0.738c0.229-0.312,0.385-0.708,0.469-1.188h1.17V135.4H564.812z"/>
		<path d="M573.11,133.762c0.443,0.336,0.972,0.504,1.584,0.504c0.937,0,1.638-0.404,2.106-1.215
			c0.468-0.811,0.726-2.049,0.773-3.717l-0.036-0.036c-0.288,0.54-0.695,0.97-1.224,1.287s-1.104,0.478-1.729,0.478
			c-0.647,0-1.224-0.105-1.728-0.315s-0.927-0.501-1.269-0.873c-0.343-0.372-0.601-0.821-0.774-1.351
			c-0.174-0.527-0.261-1.104-0.261-1.728c0-0.612,0.102-1.173,0.306-1.683c0.204-0.51,0.492-0.948,0.864-1.314
			c0.372-0.366,0.815-0.651,1.332-0.855c0.516-0.204,1.08-0.306,1.691-0.306c0.601,0,1.164,0.093,1.692,0.279
			s0.99,0.507,1.386,0.963c0.396,0.456,0.711,1.077,0.945,1.863c0.234,0.786,0.351,1.785,0.351,2.998
			c0,2.207-0.351,3.902-1.053,5.084c-0.702,1.183-1.827,1.773-3.375,1.773c-1.068,0-1.956-0.27-2.664-0.81s-1.11-1.362-1.206-2.466
			h1.53C572.414,132.945,572.666,133.426,573.11,133.762z M577.134,125.788c-0.114-0.348-0.282-0.657-0.505-0.927
			c-0.222-0.27-0.494-0.483-0.818-0.639c-0.324-0.156-0.702-0.234-1.134-0.234c-0.457,0-0.844,0.084-1.161,0.252
			c-0.318,0.168-0.576,0.394-0.774,0.675s-0.342,0.603-0.432,0.963s-0.135,0.738-0.135,1.134c0,0.348,0.062,0.684,0.188,1.008
			c0.126,0.324,0.3,0.612,0.522,0.864c0.222,0.252,0.485,0.453,0.792,0.603c0.306,0.15,0.645,0.226,1.017,0.226
			c0.396,0,0.756-0.075,1.08-0.226c0.324-0.149,0.6-0.354,0.828-0.611c0.228-0.258,0.401-0.559,0.521-0.9
			c0.12-0.342,0.181-0.699,0.181-1.071C577.305,126.508,577.247,126.136,577.134,125.788z"/>
		<path d="M587.294,126.436c-0.563,0.876-1.064,1.812-1.503,2.808s-0.795,2.021-1.071,3.078c-0.275,1.056-0.443,2.082-0.504,3.078
			h-1.71c0.072-1.08,0.249-2.133,0.531-3.16c0.282-1.025,0.645-2.01,1.089-2.951s0.957-1.833,1.539-2.673
			c0.582-0.84,1.209-1.614,1.881-2.322h-6.695v-1.44h8.262v1.314C588.464,124.804,587.858,125.56,587.294,126.436z"/>
		<path d="M590.949,125.356c0.168-0.552,0.429-1.029,0.783-1.431c0.354-0.402,0.794-0.717,1.322-0.945s1.128-0.342,1.801-0.342
			c0.552,0,1.07,0.081,1.557,0.243s0.909,0.396,1.269,0.702c0.36,0.306,0.646,0.687,0.855,1.143s0.314,0.984,0.314,1.584
			c0,0.564-0.087,1.062-0.261,1.494c-0.174,0.433-0.405,0.819-0.692,1.161c-0.288,0.342-0.619,0.651-0.99,0.928
			c-0.372,0.275-0.756,0.539-1.152,0.791c-0.396,0.24-0.792,0.478-1.188,0.711c-0.396,0.234-0.76,0.483-1.09,0.748
			c-0.33,0.264-0.611,0.549-0.846,0.854c-0.233,0.306-0.387,0.657-0.459,1.053h6.552v1.351h-8.334
			c0.061-0.756,0.195-1.401,0.405-1.936c0.21-0.533,0.478-0.999,0.801-1.395c0.324-0.396,0.69-0.744,1.099-1.045
			c0.407-0.299,0.834-0.582,1.277-0.846c0.54-0.336,1.015-0.645,1.422-0.927c0.408-0.282,0.747-0.567,1.018-0.854
			c0.27-0.289,0.474-0.601,0.612-0.937c0.138-0.336,0.207-0.726,0.207-1.17c0-0.348-0.066-0.663-0.198-0.945
			c-0.133-0.282-0.31-0.524-0.531-0.729c-0.222-0.204-0.483-0.36-0.783-0.468s-0.618-0.162-0.954-0.162
			c-0.443,0-0.825,0.093-1.143,0.279c-0.318,0.186-0.579,0.429-0.783,0.729s-0.351,0.639-0.44,1.017
			c-0.091,0.378-0.13,0.759-0.117,1.143h-1.53C590.715,126.508,590.781,125.908,590.949,125.356z"/>
	</g>
	<g id="Layer_4_copy">
		<g>
			<path d="M33.875,152.99c-1.552-2.701-2.325-6.9-2.325-12.601v-24.3c0-6.099-0.701-11.225-2.1-15.375
				c-1.402-4.148-4.301-7.674-8.7-10.575v-3c1.699-0.3,3.199-1.2,4.5-2.7c1.298-1.5,2.423-3.398,3.375-5.7
				c0.949-2.299,1.673-4.898,2.175-7.8c0.5-2.899,0.75-5.85,0.75-8.85V37.34c0-5.7,0.773-9.849,2.325-12.45
				c1.549-2.599,4.425-3.9,8.625-3.9H50v3h-7.2c-3,0-5.125,1.125-6.375,3.375c-1.251,2.25-1.875,6.476-1.875,12.675v24.6
				c0,2.201-0.201,4.552-0.6,7.05c-0.401,2.501-1.05,4.901-1.95,7.2c-0.9,2.302-2.025,4.35-3.375,6.15
				c-1.35,1.8-2.977,3.101-4.875,3.9c3.3,1.601,5.925,4.676,7.875,9.225c1.95,4.552,2.925,9.675,2.925,15.375v24.15
				c0,3.301,0.174,6.023,0.525,8.176c0.349,2.148,0.848,3.824,1.5,5.024c0.649,1.2,1.5,2.024,2.55,2.476
				c1.05,0.449,2.273,0.674,3.675,0.674H50v3h-7.5C38.3,157.039,35.424,155.689,33.875,152.99z"/>
		</g>
		<g>
			<path d="M642.075,25.04c1.549,2.7,2.325,6.9,2.325,12.6v24.45c0,6.101,0.698,11.25,2.1,15.45c1.399,4.2,4.299,7.702,8.7,10.5v3
				c-1.601,0.3-3.075,1.2-4.425,2.7c-1.351,1.5-2.501,3.401-3.45,5.7c-0.952,2.302-1.676,4.901-2.175,7.8
				c-0.502,2.901-0.75,5.85-0.75,8.85v24.599c0,5.701-0.776,9.85-2.325,12.451c-1.552,2.599-4.425,3.899-8.625,3.899h-7.5v-3h7.2
				c3,0,5.123-1.125,6.375-3.375c1.249-2.25,1.875-6.476,1.875-12.675v-24.45c0-2.198,0.199-4.549,0.6-7.05
				c0.398-2.499,1.05-4.898,1.95-7.2c0.899-2.299,2.024-4.35,3.375-6.15c1.35-1.8,2.974-3.099,4.875-3.9
				c-3.3-1.599-5.925-4.673-7.875-9.225c-1.95-4.549-2.925-9.675-2.925-15.375v-24.3c0-3.3-0.176-6.023-0.525-8.175
				c-0.352-2.149-0.851-3.825-1.5-5.025c-0.651-1.2-1.5-2.025-2.55-2.475c-1.05-0.45-2.276-0.675-3.675-0.675h-7.2v-3h7.5
				C637.65,20.99,640.523,22.34,642.075,25.04z"/>
		</g>
	</g>
</g>
</svg>
