<?xml version="1.0" encoding="utf-8"?>
<!-- Generator: Adobe Illustrator 15.0.0, SVG Export Plug-In . SVG Version: 6.00 Build 0)  -->
<!DOCTYPE svg PUBLIC "-//W3C//DTD SVG 1.0//EN" "http://www.w3.org/TR/2001/REC-SVG-20010904/DTD/svg10.dtd">
<svg version="1.0" xmlns="http://www.w3.org/2000/svg" xmlns:xlink="http://www.w3.org/1999/xlink" x="0px" y="0px" width="756px"
	 height="180px" viewBox="0 0 756 180" enable-background="new 0 0 756 180" xml:space="preserve">
<g id="text1-ori">
	<text transform="matrix(1 0 0 1 294.8877 -77.3887)" font-family="'AGaramondPro-Regular'" font-size="52">Time-based Media</text>
	<text transform="matrix(1 0 0 1 428.4941 -120.0293)" font-family="'HelveticaNeue'" font-size="22" letter-spacing="1">WHAT IS </text>
	<text transform="matrix(1 0 0 1 1059.4941 -468.0293)" font-family="'HelveticaNeue'" font-size="48">{{</text>
</g>
<g id="Layer_1_copy" display="none">
	<g display="inline">
		<path d="M314.024-85.189c0,5.461,0.104,6.24,3.12,6.501l1.664,0.155c0.312,0.209,0.208,1.145-0.104,1.301
			c-2.964-0.104-4.732-0.156-6.812-0.156s-3.9,0.052-7.229,0.156c-0.312-0.156-0.416-1.04,0-1.301l1.872-0.155
			c2.964-0.261,3.224-1.04,3.224-6.501v-23.244c0-1.612,0-1.664-1.56-1.664h-2.86c-2.236,0-5.096,0.104-6.396,1.3
			c-1.248,1.144-1.768,2.288-2.34,3.588c-0.416,0.312-1.144,0.052-1.352-0.364c0.832-2.34,1.612-5.668,1.976-7.749
			c0.156-0.104,0.832-0.156,0.988,0c0.312,1.664,2.028,1.612,4.42,1.612h21.061c2.808,0,3.276-0.104,4.056-1.456
			c0.26-0.104,0.832-0.052,0.936,0.156c-0.572,2.132-0.936,6.344-0.78,7.904c-0.208,0.416-1.092,0.416-1.353,0.104
			c-0.156-1.3-0.52-3.224-1.3-3.796c-1.196-0.884-3.172-1.3-6.032-1.3h-3.692c-1.56,0-1.508,0.052-1.508,1.768V-85.189z"/>
		<path d="M329.207-94.497c0-3.588-0.208-3.796-2.444-4.16l-0.988-0.156c-0.364-0.26-0.312-1.144,0.104-1.3
			c2.028,0.104,3.641,0.156,5.305,0.156s3.276-0.052,5.304-0.156c0.416,0.156,0.468,1.04,0.104,1.3l-0.988,0.156
			c-2.236,0.364-2.444,0.572-2.444,4.16v11.648c0,3.588,0.208,3.796,2.444,4.16l0.988,0.155c0.364,0.261,0.312,1.145-0.104,1.301
			c-1.976-0.104-3.692-0.156-5.304-0.156c-1.664,0-3.276,0.052-5.305,0.156c-0.416-0.156-0.468-1.04-0.104-1.301l0.988-0.155
			c2.236-0.364,2.444-0.572,2.444-4.16V-94.497z"/>
		<path d="M354.376-86.541c0.364,0.676,1.664,3.016,1.872,3.172c0.208-0.104,1.144-1.768,2.132-3.64l2.6-4.992
			c2.496-4.784,2.756-5.668,3.588-8.112c1.144,0.104,2.184,0.156,3.016,0.156c1.248,0,2.756-0.052,4.265-0.156
			c0.468,0.156,0.52,1.04,0.156,1.3l-1.144,0.156c-2.392,0.312-2.496,1.3-2.496,4.368c0,5.512,0,9.932,0.26,13.053
			c0.104,1.144,0.104,2.392,1.716,2.548l1.508,0.155c0.364,0.209,0.364,1.093-0.052,1.301c-1.872-0.104-3.9-0.156-5.2-0.156
			c-1.508,0-3.12,0.052-4.576,0.156c-0.364-0.26-0.416-1.092-0.052-1.301l1.145-0.155c1.664-0.208,1.664-0.624,1.664-2.704v-12.013
			c0-0.624,0-1.404-0.156-1.508c-0.156,0-1.508,2.6-2.236,3.952l-3.172,5.98c-0.416,0.779-3.12,6.188-3.692,7.852
			c-0.26,0.208-0.676,0.208-0.988,0c-0.572-1.872-2.184-5.2-3.068-6.916l-3.38-6.552c-0.572-1.144-1.664-3.9-2.08-4.056
			c-0.208,0.26-0.26,3.744-0.312,5.2c-0.052,2.08-0.104,4.264-0.104,6.812c0,2.652,0.052,3.796,1.508,3.952l1.716,0.155
			c0.364,0.209,0.312,1.093-0.052,1.301c-1.353-0.104-2.86-0.156-4.265-0.156c-1.144,0-2.704,0.052-4.316,0.156
			c-0.364-0.208-0.416-1.04,0-1.301l1.092-0.155c1.716-0.261,1.872-0.78,2.132-2.601c0.416-2.808,0.728-11.18,0.728-14.716
			c0-1.664-0.572-2.444-2.34-2.652l-1.248-0.156c-0.312-0.26-0.364-1.092,0.104-1.3c1.404,0.104,2.6,0.156,4.004,0.156
			c1.04,0,2.132,0,3.796-0.156c0,2.288,0.937,3.952,2.704,7.384L354.376-86.541z"/>
		<path d="M379.179-94.497c0-3.588-0.208-3.744-2.185-4.16l-0.728-0.156c-0.364-0.208-0.312-1.092,0.104-1.3
			c1.508,0.104,3.12,0.156,4.836,0.156h7.384c2.288,0,4.368-0.052,4.836-0.156c0.052,0.624,0.312,3.068,0.572,5.304
			c-0.208,0.416-1.04,0.468-1.352,0.104c-0.312-1.353-0.624-2.028-0.936-2.496c-0.832-1.248-3.172-1.248-4.42-1.248h-2.288
			c-1.82,0-1.872,0.052-1.872,1.664v5.772c0,0.936,0,1.04,0.988,1.04h2.444c2.756,0,3.017-0.416,3.433-1.976l0.26-0.988
			c0.26-0.364,1.04-0.312,1.3,0.104c-0.104,1.508-0.104,2.444-0.104,3.64c0,1.3,0,2.236,0.104,3.744
			c-0.26,0.416-1.04,0.469-1.3,0.104l-0.26-0.988c-0.416-1.56-0.676-1.976-3.433-1.976h-2.444c-0.988,0-0.988,0.156-0.988,1.196
			v3.744c0,1.561,0.104,3.172,0.572,3.744c0.468,0.521,1.404,0.729,4.368,0.729c3.328,0,5.252-0.156,6.76-4.316
			c0.364-0.364,1.196-0.26,1.352,0.208c-0.26,2.185-0.988,4.784-1.56,5.772c-3.276-0.104-6.032-0.156-8.84-0.156h-4.576
			c-1.664,0-3.276,0.052-5.772,0.156c-0.416-0.156-0.468-1.04-0.104-1.301l1.404-0.155c2.236-0.261,2.444-0.572,2.444-4.16V-94.497z
			"/>
		<path d="M411.211-90.233c0.572,0.364,0.78,0.988,0.78,1.664c0,0.521-0.156,0.988-0.416,1.3l-12.117,1.144
			c-0.572-0.468-0.78-1.144-0.78-1.664s0.156-0.988,0.416-1.3L411.211-90.233z"/>
		<path d="M419.114-93.873c0-3.38-0.052-4.212-1.508-4.42l-1.612-0.208c-0.468-0.156-0.416-1.144,0.052-1.3
			c2.6-0.208,5.668-0.312,8.685-0.312c2.548,0,4.68,0.052,6.604,0.78c1.871,0.676,3.275,2.132,3.275,4.576
			c0,2.236-1.508,3.64-4.16,4.576c-0.208,0.364,0.156,0.416,1.301,0.676c1.871,0.416,4.628,2.08,4.628,5.668
			c0,2.808-1.404,4.42-3.433,5.408c-1.976,0.937-4.628,1.196-7.072,1.196c-1.04,0-2.756-0.156-4.628-0.156
			c-1.664,0-3.432,0.052-5.46,0.156c-0.416-0.156-0.468-1.04-0.104-1.301l0.988-0.155c2.236-0.364,2.444-0.572,2.444-4.16V-93.873z
			 M423.066-91.117c0,0.832,0.104,0.884,1.768,0.884c3.276,0,5.513-0.78,5.513-4.056c0-3.12-2.34-4.316-4.992-4.316
			c-2.185,0-2.288,0.468-2.288,1.404V-91.117z M423.066-82.797c0,3.12,0.676,4.057,3.899,4.057c2.601,0,5.045-1.196,5.045-4.629
			c0-4.108-3.12-5.356-6.5-5.356c-2.341,0-2.444,0.208-2.444,0.884V-82.797z"/>
		<path d="M447.142-85.449c-1.196,0-1.353,0.053-1.769,1.248l-1.196,3.328c-0.571,1.664-0.416,1.872,0.572,2.08l1.404,0.26
			c0.416,0.261,0.364,1.196-0.156,1.301c-1.3-0.104-2.652-0.156-4.107-0.156c-1.457,0-2.705,0.104-3.641,0.156
			c-0.468-0.208-0.468-1.04-0.104-1.301l1.195-0.26c1.612-0.363,2.185-0.936,3.225-3.432l4.992-11.961
			c0.884-2.132,1.248-3.38,1.352-4.368c0.937-0.364,1.924-1.352,2.185-1.976c0.416-0.156,0.728-0.052,0.832,0.26
			c0.208,0.52,1.04,3.224,2.235,6.396l4.681,12.428c0.624,1.717,1.092,2.393,2.964,2.757l0.832,0.155
			c0.469,0.261,0.364,1.196-0.156,1.301c-1.352-0.104-2.548-0.156-4.315-0.156c-1.872,0-3.38,0.052-4.681,0.156
			c-0.52-0.156-0.572-1.092-0.104-1.301l1.04-0.155c1.352-0.208,1.3-0.521,0.676-2.132l-1.248-3.381
			c-0.416-1.195-0.572-1.248-1.769-1.248H447.142z M451.249-87.113c1.353,0,1.509-0.104,0.937-1.612l-1.612-4.42
			c-0.416-1.196-0.624-1.612-0.779-1.872h-0.104c-0.156,0.208-0.364,0.676-0.832,1.769l-1.872,4.628
			c-0.572,1.404-0.468,1.508,0.676,1.508H451.249z"/>
		<path d="M470.281-87.997c-2.496-1.3-4.628-3.328-4.628-6.24c0-3.796,2.912-6.448,8.164-6.448c1.82,0,3.068,0.468,4.836,0.78
			c0.416,0.884,0.78,2.86,0.729,5.096c-0.156,0.416-1.093,0.468-1.353,0.104c-0.416-1.82-1.769-4.473-4.836-4.473
			c-3.068,0-4.212,1.769-4.212,3.536c0,1.872,1.403,3.017,3.483,4.108l3.225,1.664c1.872,0.936,4.212,3.12,4.212,6.604
			c0,4.056-3.328,6.604-8.477,6.604c-3.172,0-5.252-1.093-5.98-1.612c-0.468-0.729-1.092-2.601-1.092-5.356
			c0.208-0.52,0.988-0.572,1.353-0.104c0.416,1.871,2.704,5.563,6.188,5.563c2.651,0,4.367-1.352,4.367-3.744
			c0-1.664-0.676-3.38-3.64-4.888L470.281-87.997z"/>
		<path d="M487.336-94.497c0-3.588-0.208-3.744-2.184-4.16l-0.729-0.156c-0.364-0.208-0.312-1.092,0.104-1.3
			c1.508,0.104,3.12,0.156,4.836,0.156h7.385c2.287,0,4.367-0.052,4.836-0.156c0.052,0.624,0.312,3.068,0.572,5.304
			c-0.209,0.416-1.041,0.468-1.353,0.104c-0.312-1.353-0.624-2.028-0.937-2.496c-0.832-1.248-3.172-1.248-4.42-1.248h-2.288
			c-1.819,0-1.872,0.052-1.872,1.664v5.772c0,0.936,0,1.04,0.988,1.04h2.444c2.756,0,3.016-0.416,3.432-1.976l0.261-0.988
			c0.26-0.364,1.039-0.312,1.3,0.104c-0.104,1.508-0.104,2.444-0.104,3.64c0,1.3,0,2.236,0.104,3.744
			c-0.261,0.416-1.04,0.469-1.3,0.104l-0.261-0.988c-0.416-1.56-0.676-1.976-3.432-1.976h-2.444c-0.988,0-0.988,0.156-0.988,1.196
			v3.744c0,1.561,0.104,3.172,0.572,3.744c0.468,0.521,1.404,0.729,4.368,0.729c3.328,0,5.252-0.156,6.761-4.316
			c0.363-0.364,1.195-0.26,1.352,0.208c-0.26,2.185-0.988,4.784-1.561,5.772c-3.275-0.104-6.031-0.156-8.84-0.156h-4.576
			c-1.664,0-3.276,0.052-5.772,0.156c-0.416-0.156-0.468-1.04-0.104-1.301l1.403-0.155c2.236-0.261,2.444-0.572,2.444-4.16V-94.497z
			"/>
		<path d="M510.632-93.873c0-3.38-0.052-4.265-1.248-4.42l-1.56-0.208c-0.468-0.156-0.416-1.144,0.052-1.3
			c2.912-0.208,5.824-0.312,10.036-0.312c2.912,0,5.46,0.312,7.904,1.144c4.732,1.612,7.177,5.408,7.177,10.192
			c0,4.108-2.133,7.904-6.293,10.037c-2.34,1.195-5.252,1.611-7.852,1.611c-2.34,0-4.681-0.26-6.24-0.26
			c-1.664,0-3.276,0.052-5.305,0.156c-0.416-0.156-0.468-1.04-0.104-1.301l0.988-0.155c2.235-0.364,2.443-0.572,2.443-4.16V-93.873z
			 M514.584-83.629c0,3.328,0.521,4.992,4.473,4.992c6.24,0,9.308-3.9,9.308-10.244c0-6.396-4.472-9.725-10.348-9.725
			c-1.717,0-2.704,0.208-3.12,0.572c-0.312,0.208-0.312,0.884-0.312,2.028V-83.629z"/>
		<path d="M568.196-91.273c1.196,2.444,2.34,4.836,3.588,7.125h0.104c1.404-2.444,2.704-5.148,4.004-7.801l4.889-9.933
			c2.34-4.732,3.848-7.592,3.952-9.984c1.768,0.156,2.859,0.156,3.899,0.156c1.301,0,3.017-0.052,4.629-0.156
			c0.312,0.208,0.312,1.092,0.052,1.3l-1.092,0.104c-3.276,0.312-3.692,1.3-3.641,4.94c0.104,5.512,0.156,15.132,0.572,22.621
			c0.156,2.6,0.104,4.004,2.548,4.212l1.664,0.155c0.312,0.312,0.261,1.093-0.104,1.301c-2.133-0.104-4.265-0.156-6.137-0.156
			c-1.82,0-4.16,0.052-6.292,0.156c-0.364-0.26-0.416-0.988-0.104-1.301l1.508-0.155c2.548-0.261,2.548-1.093,2.548-4.421
			l-0.156-21.685h-0.104c-0.364,0.572-2.341,4.732-3.38,6.761l-4.629,9.1c-2.34,4.576-4.68,9.464-5.616,11.857
			c-0.104,0.155-0.312,0.207-0.52,0.207c-0.104,0-0.364-0.052-0.468-0.207c-0.885-2.757-3.381-7.853-4.576-10.401l-4.681-10.037
			c-1.092-2.392-2.185-5.096-3.328-7.488h-0.104c-0.207,3.225-0.363,6.24-0.52,9.257c-0.156,3.172-0.364,7.8-0.364,12.22
			c0,3.849,0.312,4.681,2.341,4.837l1.976,0.155c0.364,0.312,0.312,1.145-0.052,1.301c-1.769-0.104-3.797-0.156-5.772-0.156
			c-1.664,0-3.536,0.052-5.304,0.156c-0.312-0.26-0.416-1.04-0.104-1.301l1.144-0.155c2.185-0.312,2.912-0.624,3.225-4.265
			c0.312-3.432,0.572-6.292,0.884-11.44c0.261-4.316,0.468-8.736,0.572-11.596c0.104-3.276-0.312-4.056-3.484-4.472l-0.832-0.104
			c-0.26-0.312-0.208-1.092,0.208-1.3c1.561,0.104,2.809,0.156,4.108,0.156c1.196,0,2.601,0,4.316-0.156
			c-0.208,2.028,1.092,5.252,2.704,8.581L568.196-91.273z"/>
		<path d="M600.852-94.497c0-3.588-0.208-3.744-2.184-4.16l-0.729-0.156c-0.364-0.208-0.312-1.092,0.104-1.3
			c1.508,0.104,3.12,0.156,4.836,0.156h7.385c2.287,0,4.367-0.052,4.836-0.156c0.052,0.624,0.312,3.068,0.572,5.304
			c-0.209,0.416-1.041,0.468-1.353,0.104c-0.312-1.353-0.624-2.028-0.937-2.496c-0.832-1.248-3.172-1.248-4.42-1.248h-2.288
			c-1.819,0-1.872,0.052-1.872,1.664v5.772c0,0.936,0,1.04,0.988,1.04h2.444c2.756,0,3.016-0.416,3.432-1.976l0.261-0.988
			c0.26-0.364,1.039-0.312,1.3,0.104c-0.104,1.508-0.104,2.444-0.104,3.64c0,1.3,0,2.236,0.104,3.744
			c-0.261,0.416-1.04,0.469-1.3,0.104l-0.261-0.988c-0.416-1.56-0.676-1.976-3.432-1.976h-2.444c-0.988,0-0.988,0.156-0.988,1.196
			v3.744c0,1.561,0.104,3.172,0.572,3.744c0.468,0.521,1.404,0.729,4.368,0.729c3.328,0,5.252-0.156,6.761-4.316
			c0.363-0.364,1.195-0.26,1.352,0.208c-0.26,2.185-0.988,4.784-1.561,5.772c-3.275-0.104-6.031-0.156-8.84-0.156h-4.576
			c-1.664,0-3.276,0.052-5.772,0.156c-0.416-0.156-0.468-1.04-0.104-1.301l1.403-0.155c2.236-0.261,2.444-0.572,2.444-4.16V-94.497z
			"/>
		<path d="M624.147-93.873c0-3.38-0.052-4.265-1.248-4.42l-1.56-0.208c-0.468-0.156-0.416-1.144,0.052-1.3
			c2.912-0.208,5.824-0.312,10.036-0.312c2.912,0,5.46,0.312,7.904,1.144c4.732,1.612,7.177,5.408,7.177,10.192
			c0,4.108-2.133,7.904-6.293,10.037c-2.34,1.195-5.252,1.611-7.852,1.611c-2.34,0-4.681-0.26-6.24-0.26
			c-1.664,0-3.276,0.052-5.305,0.156c-0.416-0.156-0.468-1.04-0.104-1.301l0.988-0.155c2.235-0.364,2.443-0.572,2.443-4.16V-93.873z
			 M628.1-83.629c0,3.328,0.521,4.992,4.473,4.992c6.24,0,9.308-3.9,9.308-10.244c0-6.396-4.472-9.725-10.348-9.725
			c-1.717,0-2.704,0.208-3.12,0.572c-0.312,0.208-0.312,0.884-0.312,2.028V-83.629z"/>
		<path d="M653.943-94.497c0-3.588-0.208-3.796-2.444-4.16l-0.987-0.156c-0.364-0.26-0.312-1.144,0.104-1.3
			c2.028,0.104,3.641,0.156,5.305,0.156s3.276-0.052,5.304-0.156c0.416,0.156,0.469,1.04,0.104,1.3l-0.988,0.156
			c-2.236,0.364-2.444,0.572-2.444,4.16v11.648c0,3.588,0.208,3.796,2.444,4.16l0.988,0.155c0.364,0.261,0.312,1.145-0.104,1.301
			c-1.976-0.104-3.691-0.156-5.304-0.156c-1.664,0-3.276,0.052-5.305,0.156c-0.416-0.156-0.468-1.04-0.104-1.301l0.987-0.155
			c2.236-0.364,2.444-0.572,2.444-4.16V-94.497z"/>
		<path d="M671.831-85.449c-1.196,0-1.353,0.053-1.769,1.248l-1.196,3.328c-0.571,1.664-0.416,1.872,0.572,2.08l1.404,0.26
			c0.416,0.261,0.364,1.196-0.156,1.301c-1.3-0.104-2.652-0.156-4.107-0.156c-1.457,0-2.705,0.104-3.641,0.156
			c-0.468-0.208-0.468-1.04-0.104-1.301l1.195-0.26c1.612-0.363,2.185-0.936,3.225-3.432l4.992-11.961
			c0.884-2.132,1.248-3.38,1.352-4.368c0.937-0.364,1.924-1.352,2.185-1.976c0.416-0.156,0.728-0.052,0.832,0.26
			c0.208,0.52,1.04,3.224,2.235,6.396l4.681,12.428c0.624,1.717,1.092,2.393,2.964,2.757l0.832,0.155
			c0.469,0.261,0.364,1.196-0.156,1.301c-1.352-0.104-2.548-0.156-4.315-0.156c-1.872,0-3.38,0.052-4.681,0.156
			c-0.52-0.156-0.572-1.092-0.104-1.301l1.04-0.155c1.352-0.208,1.3-0.521,0.676-2.132l-1.248-3.381
			c-0.416-1.195-0.572-1.248-1.769-1.248H671.831z M675.938-87.113c1.353,0,1.509-0.104,0.937-1.612l-1.612-4.42
			c-0.416-1.196-0.624-1.612-0.779-1.872h-0.104c-0.156,0.208-0.364,0.676-0.832,1.769l-1.872,4.628
			c-0.572,1.404-0.468,1.508,0.676,1.508H675.938z"/>
	</g>
	<g display="inline">
		<path d="M442.222-120.029l-3.586-13.2h-0.044l-3.63,13.2h-2.178l-4.026-15.708h2.134l3.08,13.068h0.044l3.52-13.068h2.266
			l3.476,13.068h0.044l3.19-13.068h2.09l-4.202,15.708H442.222z"/>
		<path d="M454.366-135.737v6.754h8.272v-6.754h2.09v15.708h-2.09v-7.194h-8.272v7.194h-2.09v-15.708H454.366z"/>
		<path d="M476.432-135.737l6.139,15.708h-2.311l-1.717-4.73H471.9l-1.761,4.73h-2.134l6.115-15.708H476.432z M477.884-126.52
			l-2.618-7.326h-0.044l-2.662,7.326H477.884z"/>
		<path d="M482.107-133.978v-1.76h12.562v1.76h-5.236v13.948h-2.09v-13.948H482.107z"/>
		<path d="M508.089-135.737v15.708h-2.09v-15.708H508.089z"/>
		<path d="M521.168-133.592c-0.697-0.506-1.588-0.759-2.673-0.759c-0.44,0-0.873,0.044-1.298,0.132
			c-0.426,0.088-0.804,0.235-1.134,0.44c-0.329,0.206-0.594,0.48-0.792,0.825c-0.197,0.345-0.297,0.773-0.297,1.287
			c0,0.484,0.144,0.877,0.43,1.177c0.285,0.301,0.667,0.546,1.144,0.737c0.477,0.191,1.016,0.349,1.617,0.473
			c0.602,0.125,1.213,0.261,1.837,0.407c0.623,0.147,1.235,0.319,1.837,0.517c0.602,0.198,1.141,0.466,1.617,0.803
			s0.857,0.763,1.144,1.276c0.286,0.514,0.43,1.159,0.43,1.936c0,0.836-0.188,1.551-0.562,2.145
			c-0.374,0.594-0.854,1.078-1.44,1.452c-0.587,0.374-1.243,0.646-1.97,0.814c-0.726,0.168-1.448,0.253-2.167,0.253
			c-0.88,0-1.712-0.11-2.497-0.33c-0.784-0.22-1.474-0.553-2.067-1.001c-0.595-0.447-1.063-1.019-1.408-1.716
			s-0.517-1.521-0.517-2.475h1.979c0,0.66,0.128,1.229,0.385,1.705s0.595,0.869,1.013,1.177s0.905,0.536,1.463,0.682
			c0.557,0.147,1.129,0.22,1.716,0.22c0.469,0,0.942-0.044,1.419-0.132s0.905-0.238,1.287-0.451
			c0.381-0.212,0.689-0.502,0.924-0.869s0.352-0.836,0.352-1.408c0-0.542-0.143-0.982-0.429-1.32s-0.667-0.612-1.144-0.825
			c-0.478-0.212-1.016-0.385-1.617-0.517c-0.602-0.132-1.214-0.267-1.837-0.407c-0.624-0.139-1.236-0.3-1.837-0.484
			c-0.602-0.184-1.141-0.425-1.617-0.726c-0.477-0.3-0.858-0.689-1.145-1.166c-0.285-0.477-0.429-1.074-0.429-1.793
			c0-0.792,0.161-1.478,0.484-2.057c0.322-0.579,0.751-1.056,1.287-1.43c0.535-0.374,1.144-0.652,1.825-0.836
			c0.683-0.183,1.383-0.275,2.102-0.275c0.807,0,1.555,0.096,2.244,0.286c0.689,0.191,1.294,0.492,1.814,0.902
			c0.521,0.411,0.932,0.928,1.232,1.551s0.465,1.368,0.495,2.233h-1.98C522.271-132.269,521.864-133.086,521.168-133.592z"/>
	</g>
	<g display="inline">
		<path d="M1071.926-500.237c-0.479,0-0.863,0.12-1.151,0.36c-0.288,0.24-0.521,0.552-0.696,0.936
			c-0.176,0.384-0.296,0.824-0.36,1.32s-0.096,1-0.096,1.512v8.784c0,1.121-0.168,2.072-0.504,2.856
			c-0.336,0.785-0.729,1.433-1.176,1.944c-0.449,0.512-0.904,0.896-1.368,1.152c-0.464,0.257-0.84,0.417-1.128,0.48v0.144
			c0.288,0.032,0.664,0.161,1.128,0.384c0.464,0.224,0.919,0.584,1.368,1.08c0.447,0.497,0.84,1.145,1.176,1.944
			c0.336,0.8,0.504,1.808,0.504,3.024v8.736c0,0.48,0.031,0.967,0.096,1.464c0.064,0.496,0.185,0.943,0.36,1.344
			c0.176,0.4,0.408,0.72,0.696,0.96c0.288,0.24,0.672,0.36,1.151,0.36h2.4v2.88h-3.36c-0.608,0-1.216-0.137-1.823-0.408
			c-0.608-0.272-1.161-0.672-1.656-1.2c-0.497-0.528-0.904-1.185-1.225-1.968c-0.32-0.784-0.479-1.688-0.479-2.712v-8.688
			c0-0.864-0.112-1.648-0.336-2.352c-0.225-0.704-0.521-1.296-0.888-1.776c-0.369-0.48-0.792-0.848-1.272-1.104
			c-0.48-0.256-0.977-0.384-1.488-0.384v-3.264c0.512,0,1.008-0.136,1.488-0.408c0.48-0.271,0.903-0.655,1.272-1.152
			c0.367-0.496,0.663-1.096,0.888-1.8c0.224-0.704,0.336-1.472,0.336-2.304v-8.736c0-1.024,0.159-1.928,0.479-2.712
			c0.32-0.784,0.728-1.44,1.225-1.968c0.495-0.528,1.048-0.928,1.656-1.2c0.607-0.271,1.215-0.408,1.823-0.408h3.36v2.88H1071.926z"
			/>
		<path d="M1087.909-500.237c-0.479,0-0.863,0.12-1.151,0.36c-0.288,0.24-0.521,0.552-0.696,0.936
			c-0.176,0.384-0.296,0.824-0.36,1.32s-0.096,1-0.096,1.512v8.784c0,1.121-0.168,2.072-0.504,2.856
			c-0.336,0.785-0.729,1.433-1.176,1.944c-0.449,0.512-0.904,0.896-1.368,1.152c-0.464,0.257-0.84,0.417-1.128,0.48v0.144
			c0.288,0.032,0.664,0.161,1.128,0.384c0.464,0.224,0.919,0.584,1.368,1.08c0.447,0.497,0.84,1.145,1.176,1.944
			c0.336,0.8,0.504,1.808,0.504,3.024v8.736c0,0.48,0.031,0.967,0.096,1.464c0.064,0.496,0.185,0.943,0.36,1.344
			c0.176,0.4,0.408,0.72,0.696,0.96c0.288,0.24,0.672,0.36,1.151,0.36h2.4v2.88h-3.36c-0.608,0-1.216-0.137-1.823-0.408
			c-0.608-0.272-1.161-0.672-1.656-1.2c-0.497-0.528-0.904-1.185-1.225-1.968c-0.32-0.784-0.479-1.688-0.479-2.712v-8.688
			c0-0.864-0.112-1.648-0.336-2.352c-0.225-0.704-0.521-1.296-0.888-1.776c-0.369-0.48-0.792-0.848-1.272-1.104
			c-0.48-0.256-0.977-0.384-1.488-0.384v-3.264c0.512,0,1.008-0.136,1.488-0.408c0.48-0.271,0.903-0.655,1.272-1.152
			c0.367-0.496,0.663-1.096,0.888-1.8c0.224-0.704,0.336-1.472,0.336-2.304v-8.736c0-1.024,0.159-1.928,0.479-2.712
			c0.32-0.784,0.728-1.44,1.225-1.968c0.495-0.528,1.048-0.928,1.656-1.2c0.607-0.271,1.215-0.408,1.823-0.408h3.36v2.88H1087.909z"
			/>
	</g>
	<g display="inline">
		<path d="M243.369-40.039c-1.552-2.7-2.325-6.9-2.325-12.6v-24.301c0-6.098-0.701-11.224-2.1-15.375
			c-1.402-4.148-4.301-7.674-8.7-10.575v-3c1.699-0.3,3.199-1.2,4.5-2.7c1.298-1.5,2.423-3.398,3.375-5.7
			c0.949-2.299,1.673-4.898,2.175-7.8c0.5-2.899,0.75-5.85,0.75-8.85v-24.75c0-5.7,0.773-9.849,2.325-12.45
			c1.549-2.599,4.425-3.9,8.625-3.9h7.5v3h-7.2c-3,0-5.125,1.125-6.375,3.375c-1.251,2.25-1.875,6.476-1.875,12.675v24.6
			c0,2.201-0.201,4.552-0.6,7.05c-0.401,2.501-1.05,4.901-1.95,7.2c-0.9,2.302-2.025,4.35-3.375,6.15
			c-1.35,1.8-2.977,3.101-4.875,3.9c3.3,1.601,5.925,4.676,7.875,9.225c1.95,4.552,2.925,9.675,2.925,15.375v24.149
			c0,3.301,0.174,6.023,0.525,8.176c0.349,2.148,0.848,3.824,1.5,5.025c0.649,1.199,1.5,2.024,2.55,2.475
			c1.05,0.449,2.273,0.675,3.675,0.675h7.2v3h-7.5C247.794-35.989,244.918-37.34,243.369-40.039z"/>
	</g>
	<g display="inline">
		<path d="M723.569-167.989c1.549,2.7,2.325,6.9,2.325,12.6v24.45c0,6.101,0.698,11.25,2.1,15.45c1.399,4.2,4.299,7.702,8.7,10.5v3
			c-1.601,0.3-3.075,1.2-4.425,2.7c-1.351,1.5-2.501,3.401-3.45,5.7c-0.952,2.302-1.676,4.901-2.175,7.8
			c-0.502,2.902-0.75,5.851-0.75,8.851v24.6c0,5.7-0.776,9.849-2.325,12.45c-1.552,2.6-4.425,3.9-8.625,3.9h-7.5v-3h7.2
			c3,0,5.123-1.125,6.375-3.375c1.249-2.25,1.875-6.477,1.875-12.676v-24.449c0-2.199,0.199-4.55,0.6-7.051
			c0.398-2.498,1.05-4.898,1.95-7.2c0.899-2.299,2.024-4.35,3.375-6.15c1.35-1.8,2.974-3.099,4.875-3.9
			c-3.3-1.599-5.925-4.673-7.875-9.225c-1.95-4.549-2.925-9.675-2.925-15.375v-24.3c0-3.3-0.176-6.023-0.525-8.175
			c-0.352-2.149-0.851-3.825-1.5-5.025c-0.651-1.2-1.5-2.025-2.55-2.475c-1.05-0.45-2.276-0.675-3.675-0.675h-7.2v-3h7.5
			C719.145-172.039,722.018-170.688,723.569-167.989z"/>
	</g>
</g>
<g id="Layer_4">
	<text transform="matrix(1 0 0 1 188.4941 -88.3896)" font-family="'HelveticaNeue-UltraLight'" font-size="150">{</text>
	<text transform="matrix(1 0 0 1 798.4941 -88.3892)" font-family="'HelveticaNeue-UltraLight'" font-size="150">}</text>
</g>
<g id="text2-ori" display="none">
	<text transform="matrix(1 0 0 1 262.4941 -142.376)" display="inline" font-family="'AGaramondPro-Regular'" font-size="52">David Hall</text>
	<text transform="matrix(0.7 0 0 0.7 320.4941 -110.0293)" display="inline" font-family="'HelveticaNeue'" font-size="22">the</text>
	<text transform="matrix(1 0 0 1 349.8613 -110.0293)" display="inline" font-family="'HelveticaNeue'" font-size="22"> </text>
	<text transform="matrix(0.7 0 0 0.7 355.9775 -110.0293)" display="inline" font-family="'HelveticaNeue'" font-size="22">uk</text>
	<text transform="matrix(1 0 0 1 377.3672 -110.0293)" display="inline" font-family="'HelveticaNeue'" font-size="22"> </text>
	<text transform="matrix(0.7 0 0 0.7 383.4834 -110.0293)" display="inline" font-family="'HelveticaNeue'" font-size="22">video</text>
	<text transform="matrix(1 0 0 1 428.8359 -110.0293)" display="inline" font-family="'HelveticaNeue'" font-size="22"> </text>
	<text transform="matrix(0.7 0 0 0.7 434.9521 -110.0293)" display="inline" font-family="'HelveticaNeue'" font-size="22">art</text>
	<text transform="matrix(1 0 0 1 464.3193 -110.0293)" display="inline" font-family="'HelveticaNeue'" font-size="22"> </text>
	<text transform="matrix(0.7 0 0 0.7 470.4355 -110.0293)" display="inline" font-family="'HelveticaNeue'" font-size="22">pioneer</text>
	<text transform="matrix(1 0 0 1 536.5928 -110.0293)" display="inline" font-family="'HelveticaNeue'" font-size="22">, </text>
	<text transform="matrix(0.7 0 0 0.7 320.4941 -83.6289)" display="inline" font-family="'HelveticaNeue'" font-size="22">first</text>
	<text transform="matrix(1 0 0 1 362.6895 -83.6289)" display="inline" font-family="'HelveticaNeue'" font-size="22"> </text>
	<text transform="matrix(0.7 0 0 0.7 368.8057 -83.6289)" display="inline" font-family="'HelveticaNeue'" font-size="22">introduced</text>
	<text transform="matrix(1 0 0 1 468.334 -83.6289)" display="inline" font-family="'HelveticaNeue'" font-size="22"> </text>
	<text transform="matrix(0.7 0 0 0.7 474.4502 -83.6289)" display="inline" font-family="'HelveticaNeue'" font-size="22">the</text>
	<text transform="matrix(1 0 0 1 503.8174 -83.6289)" display="inline" font-family="'HelveticaNeue'" font-size="22"> </text>
	<text transform="matrix(0.7 0 0 0.7 509.9336 -83.6289)" display="inline" font-family="'HelveticaNeue'" font-size="22">term</text>
	<text transform="matrix(1 0 0 1 552.1445 -83.6289)" display="inline" font-family="'HelveticaNeue'" font-size="22">, </text>
	<text transform="matrix(0.7 0 0 0.7 564.376 -83.6289)" display="inline" font-family="'HelveticaNeue'" font-size="22">time</text>
	<text transform="matrix(1 0 0 1 600.0264 -83.6289)" display="inline" font-family="'HelveticaNeue'" font-size="22">-</text>
	<text transform="matrix(0.7 0 0 0.7 608.584 -83.6289)" display="inline" font-family="'HelveticaNeue'" font-size="22">based</text>
	<text transform="matrix(1 0 0 1 659.3428 -83.6289)" display="inline" font-family="'HelveticaNeue'" font-size="22"> </text>
	<text transform="matrix(0.7 0 0 0.7 665.458 -83.6289)" display="inline" font-family="'HelveticaNeue'" font-size="22">media</text>
	<text transform="matrix(1 0 0 1 713.0898 -83.6289)" display="inline" font-family="'HelveticaNeue'" font-size="22"> </text>
	<text transform="matrix(0.7 0 0 0.7 719.2061 -83.6289)" display="inline" font-family="'HelveticaNeue'" font-size="22">in</text>
	<text transform="matrix(1 0 0 1 734.3125 -83.6289)" display="inline" font-family="'HelveticaNeue'" font-size="22"> </text>
	<text transform="matrix(1 0 0 1 740.4287 -83.6289)" display="inline" font-family="'HelveticaNeue'" font-size="18">1972</text>
</g>
<g id="Layer_3_copy" display="none">
	<g display="inline">
		<path d="M269.15-173.937c0-3.64-0.26-4.732-2.444-5.044l-1.144-0.156c-0.416-0.26-0.468-1.092,0.052-1.3
			c4.42-0.26,8.632-0.416,13.053-0.416c4.368,0,8.06,0.312,11.44,1.561c7.02,2.548,10.556,8.476,10.556,15.34
			c0,6.604-3.172,12.272-9.1,15.497c-3.38,1.82-7.645,2.496-11.648,2.496c-3.328,0-6.656-0.416-8.477-0.416
			c-2.184,0-4.056,0.052-6.5,0.156c-0.312-0.156-0.416-0.988-0.104-1.3l1.196-0.156c3.016-0.416,3.12-1.04,3.12-6.5V-173.937z
			 M273.415-155.372c0,2.756,0.156,4.42,1.04,5.668c1.144,1.612,3.12,2.132,6.396,2.132c10.089,0,14.613-6.604,14.613-16.276
			c0-5.72-2.756-15.393-16.38-15.393c-3.068,0-4.732,0.416-5.148,0.728s-0.52,1.612-0.52,3.952V-155.372z"/>
		<path d="M309.451-154.437c-1.196,0-1.353,0.052-1.769,1.248l-1.196,3.328c-0.572,1.664-0.416,1.872,0.572,2.08l1.404,0.26
			c0.416,0.26,0.364,1.196-0.156,1.3c-1.3-0.104-2.652-0.156-4.108-0.156s-2.704,0.104-3.64,0.156
			c-0.468-0.208-0.468-1.04-0.104-1.3l1.196-0.26c1.612-0.364,2.185-0.936,3.225-3.432l4.992-11.961
			c0.884-2.132,1.248-3.38,1.352-4.368c0.937-0.364,1.924-1.352,2.185-1.976c0.416-0.156,0.728-0.052,0.832,0.26
			c0.208,0.52,1.04,3.224,2.236,6.396l4.68,12.428c0.624,1.716,1.092,2.392,2.964,2.756l0.832,0.156
			c0.468,0.26,0.364,1.196-0.156,1.3c-1.352-0.104-2.548-0.156-4.316-0.156c-1.872,0-3.38,0.052-4.681,0.156
			c-0.52-0.156-0.572-1.092-0.104-1.3l1.04-0.156c1.352-0.208,1.3-0.521,0.676-2.132l-1.248-3.38
			c-0.416-1.196-0.572-1.248-1.768-1.248H309.451z M313.559-156.101c1.352,0,1.508-0.104,0.936-1.612l-1.612-4.42
			c-0.416-1.196-0.624-1.612-0.78-1.872h-0.104c-0.156,0.208-0.364,0.676-0.832,1.769l-1.872,4.628
			c-0.572,1.404-0.468,1.508,0.676,1.508H313.559z"/>
		<path d="M326.038-163.381c-1.561-3.432-1.769-3.692-3.017-4.004l-1.716-0.416c-0.312-0.312-0.364-1.04,0.052-1.3
			c1.353,0.104,3.068,0.156,4.681,0.156c1.872,0,3.38-0.052,5.044-0.156c0.416,0.208,0.468,1.04,0,1.3l-1.092,0.156
			c-1.353,0.208-1.353,0.884-0.208,3.432l2.548,5.772c1.3,2.964,2.184,4.888,2.964,6.604c1.04-2.185,1.924-4.368,2.912-6.553
			c1.092-2.392,2.548-5.98,3.068-7.488c0.364-1.092,0.312-1.456-1.248-1.768l-0.832-0.156c-0.468-0.312-0.312-0.988,0.104-1.3
			c1.508,0.104,2.86,0.156,4.264,0.156c1.664,0,2.86-0.052,3.692-0.156c0.52,0.208,0.624,1.04,0.26,1.3l-1.456,0.312
			c-1.56,0.312-1.872,0.78-3.536,4.316l-3.952,8.477c-1.56,3.328-3.068,7.124-3.692,8.84c-0.156,0.156-0.364,0.208-0.624,0.208
			c-0.208,0-0.416-0.052-0.624-0.208c-0.468-1.352-1.04-3.016-1.716-4.472L326.038-163.381z"/>
		<path d="M352.246-163.484c0-3.588-0.208-3.796-2.444-4.16l-0.988-0.156c-0.364-0.26-0.312-1.144,0.104-1.3
			c2.028,0.104,3.64,0.156,5.304,0.156s3.276-0.052,5.305-0.156c0.416,0.156,0.468,1.04,0.104,1.3l-0.988,0.156
			c-2.236,0.364-2.444,0.572-2.444,4.16v11.648c0,3.588,0.208,3.796,2.444,4.16l0.988,0.156c0.364,0.26,0.312,1.144-0.104,1.3
			c-1.977-0.104-3.692-0.156-5.305-0.156c-1.664,0-3.276,0.052-5.304,0.156c-0.416-0.156-0.468-1.04-0.104-1.3l0.988-0.156
			c2.236-0.364,2.444-0.572,2.444-4.16V-163.484z"/>
		<path d="M367.117-162.86c0-3.38-0.052-4.265-1.248-4.42l-1.56-0.208c-0.468-0.156-0.416-1.144,0.052-1.3
			c2.912-0.208,5.824-0.312,10.036-0.312c2.912,0,5.46,0.312,7.904,1.144c4.732,1.612,7.177,5.408,7.177,10.192
			c0,4.108-2.132,7.904-6.292,10.037c-2.34,1.196-5.252,1.612-7.852,1.612c-2.34,0-4.681-0.26-6.24-0.26
			c-1.664,0-3.276,0.052-5.305,0.156c-0.416-0.156-0.468-1.04-0.104-1.3l0.988-0.156c2.236-0.364,2.444-0.572,2.444-4.16V-162.86z
			 M371.069-152.616c0,3.328,0.521,4.992,4.473,4.992c6.24,0,9.308-3.9,9.308-10.244c0-6.396-4.472-9.725-10.348-9.725
			c-1.716,0-2.704,0.208-3.12,0.572c-0.312,0.208-0.312,0.884-0.312,2.028V-152.616z"/>
		<path d="M417.974-163.173c-2.496,0-2.601,0.104-2.601,1.664v7.333c0,5.46,0.261,6.188,3.173,6.5l1.508,0.156
			c0.312,0.208,0.208,1.144-0.104,1.3c-2.808-0.104-4.576-0.156-6.604-0.156c-2.236,0-4.004,0.104-6.032,0.156
			c-0.312-0.156-0.416-0.988-0.104-1.3l0.885-0.156c2.912-0.521,3.016-1.04,3.016-6.5v-18.721c0-5.46-0.364-6.344-3.068-6.552
			l-1.352-0.104c-0.312-0.208-0.208-1.144,0.104-1.3c2.549,0.052,4.316,0.156,6.553,0.156c2.027,0,3.796-0.052,6.032-0.156
			c0.312,0.156,0.416,1.092,0.104,1.3l-0.987,0.104c-3.017,0.312-3.121,1.092-3.121,6.552v5.98c0,1.612,0.104,1.664,2.601,1.664
			h14.872c2.496,0,2.601-0.052,2.601-1.664v-5.98c0-5.46-0.104-6.24-3.172-6.552l-0.988-0.104c-0.312-0.208-0.208-1.144,0.104-1.3
			c2.393,0.104,4.16,0.156,6.293,0.156c2.027,0,3.796-0.052,6.136-0.156c0.312,0.156,0.416,1.092,0.104,1.3l-1.093,0.104
			c-3.016,0.312-3.119,1.092-3.119,6.552v18.721c0,5.46,0.104,6.136,3.119,6.5l1.248,0.156c0.312,0.208,0.209,1.144-0.104,1.3
			c-2.496-0.104-4.265-0.156-6.292-0.156c-2.133,0-4.005,0.052-6.292,0.156c-0.312-0.156-0.416-0.988-0.104-1.3l0.988-0.156
			c3.172-0.521,3.172-1.04,3.172-6.5v-7.333c0-1.56-0.104-1.664-2.601-1.664H417.974z"/>
		<path d="M454.842-154.437c-1.196,0-1.353,0.052-1.769,1.248l-1.196,3.328c-0.571,1.664-0.416,1.872,0.572,2.08l1.404,0.26
			c0.416,0.26,0.364,1.196-0.156,1.3c-1.3-0.104-2.652-0.156-4.107-0.156c-1.457,0-2.705,0.104-3.641,0.156
			c-0.468-0.208-0.468-1.04-0.104-1.3l1.195-0.26c1.612-0.364,2.185-0.936,3.225-3.432l4.992-11.961
			c0.884-2.132,1.248-3.38,1.352-4.368c0.937-0.364,1.924-1.352,2.185-1.976c0.416-0.156,0.728-0.052,0.832,0.26
			c0.208,0.52,1.04,3.224,2.235,6.396l4.681,12.428c0.624,1.716,1.092,2.392,2.964,2.756l0.832,0.156
			c0.469,0.26,0.364,1.196-0.156,1.3c-1.352-0.104-2.548-0.156-4.315-0.156c-1.872,0-3.38,0.052-4.681,0.156
			c-0.52-0.156-0.572-1.092-0.104-1.3l1.04-0.156c1.352-0.208,1.3-0.521,0.676-2.132l-1.248-3.38
			c-0.416-1.196-0.572-1.248-1.769-1.248H454.842z M458.949-156.101c1.353,0,1.509-0.104,0.937-1.612l-1.612-4.42
			c-0.416-1.196-0.624-1.612-0.779-1.872h-0.104c-0.156,0.208-0.364,0.676-0.832,1.769l-1.872,4.628
			c-0.572,1.404-0.468,1.508,0.676,1.508H458.949z"/>
		<path d="M475.588-163.484c0-3.588-0.208-3.796-2.443-4.16l-0.988-0.156c-0.364-0.26-0.312-1.144,0.104-1.3
			c2.028,0.104,3.641,0.156,5.305,0.156s3.275-0.052,4.992-0.156c0.416,0.156,0.468,1.04,0.104,1.3l-0.676,0.156
			c-2.184,0.52-2.444,0.572-2.444,4.16v11.18c0,1.612,0.104,3.068,0.572,3.588c0.468,0.468,1.3,0.832,4.004,0.832
			c3.173,0,5.097-0.156,6.604-4.316c0.364-0.364,1.196-0.26,1.352,0.208c-0.26,2.184-0.987,4.784-1.56,5.772
			c-3.276-0.104-6.032-0.156-8.685-0.156h-4.264c-1.664,0-3.276,0.052-5.305,0.156c-0.416-0.156-0.468-1.04-0.104-1.3l0.988-0.156
			c2.235-0.364,2.443-0.572,2.443-4.16V-163.484z"/>
		<path d="M497.532-163.484c0-3.588-0.208-3.796-2.444-4.16l-0.987-0.156c-0.364-0.26-0.312-1.144,0.104-1.3
			c2.028,0.104,3.641,0.156,5.305,0.156s3.276-0.052,4.992-0.156c0.416,0.156,0.468,1.04,0.104,1.3l-0.676,0.156
			c-2.185,0.52-2.444,0.572-2.444,4.16v11.18c0,1.612,0.104,3.068,0.572,3.588c0.468,0.468,1.3,0.832,4.004,0.832
			c3.172,0,5.097-0.156,6.604-4.316c0.364-0.364,1.196-0.26,1.353,0.208c-0.261,2.184-0.988,4.784-1.561,5.772
			c-3.276-0.104-6.032-0.156-8.685-0.156h-4.264c-1.664,0-3.276,0.052-5.305,0.156c-0.416-0.156-0.468-1.04-0.104-1.3l0.987-0.156
			c2.236-0.364,2.444-0.572,2.444-4.16V-163.484z"/>
	</g>
	<g display="inline">
		<path d="M320.525-123.793v-1.232h8.793v1.232h-3.665v9.764h-1.463v-9.764H320.525z"/>
		<path d="M331.998-125.025v4.728h5.791v-4.728h1.463v10.996h-1.463v-5.036h-5.791v5.036h-1.463v-10.996H331.998z"/>
		<path d="M349.245-125.025v1.232h-6.129v3.496h5.714v1.232h-5.714v3.804h6.176v1.232h-7.639v-10.996H349.245z"/>
		<path d="M364.833-114.838c-0.75,0.704-1.817,1.055-3.204,1.055c-1.416,0-2.522-0.336-3.318-1.009s-1.193-1.743-1.193-3.211v-7.022
			h1.463v7.022c0,0.985,0.262,1.732,0.785,2.241s1.278,0.762,2.264,0.762c0.935,0,1.646-0.254,2.134-0.762
			c0.487-0.508,0.731-1.255,0.731-2.241v-7.022h1.463v7.022C365.957-116.596,365.582-115.541,364.833-114.838z"/>
		<path d="M369.76-125.025v5.482l5.575-5.482h1.894l-4.635,4.435l4.82,6.561h-1.849l-3.973-5.56l-1.833,1.709v3.85h-1.463v-10.996
			H369.76z"/>
		<path d="M387.349-114.029l-3.865-10.996h1.57l3.142,9.533h0.031l3.173-9.533h1.524l-3.912,10.996H387.349z"/>
		<path d="M395.618-125.025v10.996h-1.463v-10.996H395.618z"/>
		<path d="M401.855-125.025c1.693,0,2.997,0.431,3.911,1.293s1.371,2.177,1.371,3.942c0,0.924-0.104,1.743-0.309,2.457
			s-0.523,1.314-0.955,1.802c-0.431,0.488-0.98,0.86-1.647,1.117c-0.667,0.256-1.458,0.385-2.371,0.385h-3.773v-10.996H401.855z
			 M401.979-115.261c0.164,0,0.369-0.013,0.616-0.039c0.246-0.025,0.508-0.087,0.785-0.185s0.552-0.239,0.823-0.424
			c0.272-0.185,0.517-0.436,0.732-0.754c0.215-0.318,0.393-0.716,0.531-1.193c0.138-0.478,0.207-1.055,0.207-1.733
			c0-0.657-0.063-1.245-0.192-1.763c-0.128-0.518-0.339-0.96-0.631-1.324c-0.293-0.364-0.67-0.642-1.132-0.832
			s-1.032-0.285-1.71-0.285h-2.464v8.532H401.979z"/>
		<path d="M416.516-125.025v1.232h-6.129v3.496h5.714v1.232h-5.714v3.804h6.176v1.232h-7.639v-10.996H416.516z"/>
		<path d="M418.048-121.691c0.221-0.693,0.552-1.306,0.993-1.84c0.441-0.534,0.991-0.959,1.648-1.278
			c0.656-0.318,1.422-0.478,2.294-0.478c0.873,0,1.638,0.159,2.295,0.478s1.206,0.744,1.647,1.278
			c0.441,0.534,0.772,1.147,0.994,1.84c0.221,0.693,0.331,1.415,0.331,2.164s-0.11,1.47-0.331,2.164
			c-0.222,0.693-0.553,1.307-0.994,1.84s-0.99,0.958-1.647,1.271s-1.422,0.47-2.295,0.47c-0.872,0-1.638-0.157-2.294-0.47
			c-0.657-0.313-1.207-0.737-1.648-1.271s-0.772-1.147-0.993-1.84c-0.221-0.693-0.331-1.414-0.331-2.164
			S417.827-120.998,418.048-121.691z M419.396-117.887c0.144,0.539,0.37,1.024,0.678,1.456s0.703,0.778,1.186,1.04
			s1.058,0.393,1.725,0.393c0.668,0,1.242-0.131,1.726-0.393c0.482-0.262,0.878-0.608,1.186-1.04s0.533-0.917,0.678-1.456
			c0.144-0.539,0.216-1.085,0.216-1.64c0-0.555-0.072-1.102-0.216-1.64c-0.145-0.539-0.37-1.024-0.678-1.456
			s-0.703-0.778-1.186-1.04c-0.483-0.262-1.058-0.393-1.726-0.393c-0.667,0-1.242,0.131-1.725,0.393s-0.878,0.608-1.186,1.04
			s-0.534,0.917-0.678,1.456c-0.144,0.539-0.216,1.085-0.216,1.64C419.18-118.973,419.252-118.426,419.396-117.887z"/>
		<path d="M440.758-125.025l4.297,10.996h-1.617l-1.201-3.311h-4.65l-1.232,3.311h-1.494l4.281-10.996H440.758z M441.774-118.572
			l-1.833-5.128h-0.03l-1.863,5.128H441.774z"/>
		<path d="M451.307-125.025c1.047,0,1.865,0.257,2.456,0.77c0.59,0.514,0.886,1.217,0.886,2.11c0,0.667-0.152,1.252-0.455,1.755
			c-0.303,0.503-0.788,0.847-1.455,1.032v0.031c0.318,0.062,0.578,0.164,0.778,0.308c0.2,0.144,0.358,0.316,0.477,0.516
			s0.206,0.423,0.262,0.67c0.057,0.246,0.101,0.503,0.132,0.77c0.02,0.267,0.035,0.539,0.046,0.816
			c0.01,0.277,0.036,0.549,0.077,0.816s0.1,0.521,0.177,0.762s0.192,0.455,0.347,0.639H453.4c-0.103-0.113-0.172-0.267-0.208-0.462
			s-0.059-0.413-0.069-0.655c-0.01-0.241-0.021-0.5-0.03-0.777c-0.011-0.277-0.041-0.549-0.093-0.816
			c-0.041-0.267-0.092-0.521-0.153-0.762c-0.062-0.241-0.16-0.452-0.293-0.631c-0.134-0.18-0.308-0.324-0.523-0.431
			c-0.216-0.108-0.503-0.162-0.862-0.162h-3.573v4.697h-1.463v-10.996H451.307z M451.614-120.035c0.308-0.051,0.577-0.151,0.809-0.3
			c0.23-0.149,0.416-0.349,0.555-0.601s0.208-0.578,0.208-0.978c0-0.554-0.154-1.006-0.463-1.355
			c-0.308-0.349-0.806-0.523-1.493-0.523h-3.635v3.834h3.05C450.982-119.958,451.307-119.984,451.614-120.035z"/>
		<path d="M455.234-123.793v-1.232h8.793v1.232h-3.665v9.764h-1.463v-9.764H455.234z"/>
		<path d="M476.18-125.025c1.108,0,1.948,0.285,2.518,0.854c0.57,0.57,0.854,1.368,0.854,2.395s-0.284,1.828-0.854,2.402
			c-0.569,0.575-1.409,0.857-2.518,0.847h-3.357v4.497h-1.463v-10.996H476.18z M475.687-119.758c0.832,0.011,1.44-0.159,1.825-0.508
			s0.577-0.852,0.577-1.509s-0.192-1.158-0.577-1.501c-0.385-0.344-0.993-0.516-1.825-0.516h-2.864v4.035H475.687z"/>
		<path d="M482.863-125.025v10.996H481.4v-10.996H482.863z"/>
		<path d="M485.042-121.691c0.221-0.693,0.552-1.306,0.993-1.84c0.441-0.534,0.991-0.959,1.648-1.278
			c0.656-0.318,1.422-0.478,2.294-0.478c0.873,0,1.638,0.159,2.295,0.478s1.206,0.744,1.647,1.278
			c0.441,0.534,0.772,1.147,0.994,1.84c0.221,0.693,0.331,1.415,0.331,2.164s-0.11,1.47-0.331,2.164
			c-0.222,0.693-0.553,1.307-0.994,1.84s-0.99,0.958-1.647,1.271s-1.422,0.47-2.295,0.47c-0.872,0-1.638-0.157-2.294-0.47
			c-0.657-0.313-1.207-0.737-1.648-1.271s-0.772-1.147-0.993-1.84c-0.221-0.693-0.331-1.414-0.331-2.164
			S484.821-120.998,485.042-121.691z M486.39-117.887c0.144,0.539,0.37,1.024,0.678,1.456s0.703,0.778,1.186,1.04
			s1.058,0.393,1.725,0.393c0.668,0,1.242-0.131,1.726-0.393c0.482-0.262,0.878-0.608,1.186-1.04s0.533-0.917,0.678-1.456
			c0.144-0.539,0.216-1.085,0.216-1.64c0-0.555-0.072-1.102-0.216-1.64c-0.145-0.539-0.37-1.024-0.678-1.456
			s-0.703-0.778-1.186-1.04c-0.483-0.262-1.058-0.393-1.726-0.393c-0.667,0-1.242,0.131-1.725,0.393s-0.878,0.608-1.186,1.04
			s-0.534,0.917-0.678,1.456c-0.144,0.539-0.216,1.085-0.216,1.64C486.174-118.973,486.246-118.426,486.39-117.887z"/>
		<path d="M498.571-125.025l5.79,8.917h0.031v-8.917h1.386v10.996h-1.602l-5.744-8.824h-0.03v8.824h-1.387v-10.996H498.571z"/>
		<path d="M515.741-125.025v1.232h-6.129v3.496h5.714v1.232h-5.714v3.804h6.176v1.232h-7.639v-10.996H515.741z"/>
		<path d="M525.15-125.025v1.232h-6.129v3.496h5.714v1.232h-5.714v3.804h6.176v1.232h-7.639v-10.996H525.15z"/>
		<path d="M532.143-125.025c1.047,0,1.865,0.257,2.456,0.77c0.59,0.514,0.886,1.217,0.886,2.11c0,0.667-0.152,1.252-0.455,1.755
			c-0.303,0.503-0.788,0.847-1.455,1.032v0.031c0.318,0.062,0.578,0.164,0.778,0.308c0.2,0.144,0.358,0.316,0.477,0.516
			s0.206,0.423,0.262,0.67c0.057,0.246,0.101,0.503,0.132,0.77c0.02,0.267,0.035,0.539,0.046,0.816
			c0.01,0.277,0.036,0.549,0.077,0.816s0.1,0.521,0.177,0.762s0.192,0.455,0.347,0.639h-1.633c-0.103-0.113-0.172-0.267-0.208-0.462
			s-0.059-0.413-0.069-0.655c-0.01-0.241-0.021-0.5-0.03-0.777c-0.011-0.277-0.041-0.549-0.093-0.816
			c-0.041-0.267-0.092-0.521-0.153-0.762c-0.062-0.241-0.16-0.452-0.293-0.631c-0.134-0.18-0.308-0.324-0.523-0.431
			c-0.216-0.108-0.503-0.162-0.862-0.162h-3.573v4.697h-1.463v-10.996H532.143z M532.45-120.035c0.308-0.051,0.577-0.151,0.809-0.3
			c0.23-0.149,0.416-0.349,0.555-0.601s0.208-0.578,0.208-0.978c0-0.554-0.154-1.006-0.463-1.355
			c-0.308-0.349-0.806-0.523-1.493-0.523h-3.635v3.834h3.05C531.818-119.958,532.143-119.984,532.45-120.035z"/>
		<path d="M540.583-116.471v2.222c0,0.836-0.19,1.555-0.571,2.156c-0.382,0.601-0.998,1.026-1.849,1.276v-1.1
			c0.25-0.088,0.459-0.216,0.627-0.385c0.169-0.169,0.305-0.352,0.407-0.55c0.103-0.198,0.173-0.399,0.209-0.605
			s0.048-0.396,0.033-0.572h-1.298v-2.442H540.583z"/>
		<path d="M328.918-98.625v1.232h-5.76v3.497h5.052v1.231h-5.052v5.036h-1.463v-10.996H328.918z"/>
		<path d="M332.06-98.625v10.996h-1.463v-10.996H332.06z"/>
		<path d="M339.698-98.625c1.047,0,1.865,0.257,2.456,0.77c0.59,0.514,0.886,1.217,0.886,2.11c0,0.667-0.152,1.253-0.455,1.755
			c-0.303,0.504-0.788,0.848-1.455,1.032v0.031c0.318,0.062,0.578,0.164,0.778,0.308c0.2,0.145,0.358,0.316,0.477,0.516
			c0.118,0.201,0.206,0.424,0.262,0.67c0.057,0.246,0.101,0.504,0.132,0.771c0.02,0.267,0.035,0.539,0.046,0.815
			c0.01,0.277,0.036,0.55,0.077,0.816c0.041,0.268,0.1,0.521,0.177,0.763s0.192,0.454,0.347,0.64h-1.633
			c-0.103-0.113-0.172-0.268-0.208-0.463c-0.036-0.194-0.059-0.412-0.069-0.654c-0.01-0.24-0.021-0.5-0.03-0.777
			c-0.011-0.277-0.041-0.549-0.093-0.816c-0.041-0.267-0.092-0.521-0.153-0.762c-0.062-0.242-0.16-0.452-0.293-0.632
			c-0.134-0.18-0.308-0.323-0.523-0.431c-0.216-0.108-0.503-0.162-0.862-0.162h-3.573v4.697h-1.463v-10.996H339.698z
			 M340.006-93.635c0.308-0.052,0.577-0.152,0.809-0.301c0.23-0.148,0.416-0.35,0.555-0.601s0.208-0.578,0.208-0.978
			c0-0.554-0.154-1.006-0.463-1.355c-0.308-0.349-0.806-0.523-1.493-0.523h-3.635v3.834h3.05
			C339.374-93.559,339.698-93.584,340.006-93.635z"/>
		<path d="M350.578-97.124c-0.488-0.354-1.111-0.531-1.871-0.531c-0.309,0-0.611,0.031-0.909,0.092s-0.562,0.165-0.793,0.308
			c-0.23,0.144-0.416,0.336-0.555,0.578s-0.207,0.542-0.207,0.901c0,0.339,0.1,0.613,0.3,0.824c0.2,0.21,0.467,0.383,0.801,0.517
			c0.334,0.133,0.711,0.243,1.132,0.33c0.421,0.088,0.85,0.183,1.286,0.285c0.437,0.104,0.864,0.224,1.286,0.361
			c0.421,0.139,0.798,0.326,1.132,0.562c0.333,0.236,0.601,0.534,0.801,0.894s0.3,0.812,0.3,1.354c0,0.586-0.131,1.086-0.393,1.502
			s-0.598,0.755-1.009,1.017c-0.41,0.262-0.87,0.452-1.378,0.569c-0.509,0.118-1.015,0.178-1.517,0.178
			c-0.616,0-1.199-0.077-1.748-0.23c-0.55-0.154-1.032-0.389-1.448-0.701c-0.415-0.313-0.744-0.714-0.985-1.201
			c-0.241-0.488-0.362-1.065-0.362-1.732h1.387c0,0.461,0.09,0.859,0.27,1.193s0.415,0.607,0.708,0.824
			c0.293,0.215,0.634,0.375,1.024,0.477c0.39,0.104,0.79,0.154,1.201,0.154c0.328,0,0.659-0.031,0.993-0.092
			c0.333-0.062,0.634-0.168,0.9-0.316c0.268-0.148,0.483-0.352,0.647-0.608s0.246-0.585,0.246-0.985c0-0.38-0.1-0.688-0.3-0.924
			s-0.468-0.429-0.801-0.578c-0.334-0.148-0.712-0.27-1.132-0.361c-0.422-0.093-0.851-0.188-1.286-0.285
			c-0.437-0.098-0.865-0.21-1.286-0.339c-0.421-0.128-0.799-0.298-1.132-0.508c-0.334-0.21-0.601-0.483-0.801-0.816
			s-0.301-0.752-0.301-1.255c0-0.555,0.113-1.035,0.339-1.44c0.226-0.406,0.526-0.739,0.901-1.001
			c0.375-0.262,0.801-0.457,1.278-0.585s0.968-0.192,1.471-0.192c0.564,0,1.088,0.067,1.57,0.2s0.906,0.344,1.271,0.631
			c0.364,0.288,0.652,0.649,0.862,1.085c0.211,0.437,0.326,0.958,0.347,1.563h-1.386C351.351-96.197,351.065-96.77,350.578-97.124z"
			/>
		<path d="M353.881-97.393v-1.232h8.793v1.232h-3.665v9.764h-1.463v-9.764H353.881z"/>
		<path d="M371.531-98.625v10.996h-1.463v-10.996H371.531z"/>
		<path d="M375.535-98.625l5.79,8.916h0.031v-8.916h1.386v10.996h-1.602l-5.744-8.825h-0.03v8.825h-1.387v-10.996H375.535z"/>
		<path d="M383.943-97.393v-1.232h8.793v1.232h-3.665v9.764h-1.463v-9.764H383.943z"/>
		<path d="M399.128-98.625c1.047,0,1.865,0.257,2.456,0.77c0.59,0.514,0.886,1.217,0.886,2.11c0,0.667-0.152,1.253-0.455,1.755
			c-0.303,0.504-0.788,0.848-1.455,1.032v0.031c0.318,0.062,0.578,0.164,0.778,0.308c0.2,0.145,0.358,0.316,0.477,0.516
			c0.118,0.201,0.206,0.424,0.262,0.67c0.057,0.246,0.101,0.504,0.132,0.771c0.02,0.267,0.035,0.539,0.046,0.815
			c0.01,0.277,0.036,0.55,0.077,0.816c0.041,0.268,0.1,0.521,0.177,0.763s0.192,0.454,0.347,0.64h-1.633
			c-0.103-0.113-0.172-0.268-0.208-0.463c-0.036-0.194-0.059-0.412-0.069-0.654c-0.01-0.24-0.021-0.5-0.03-0.777
			c-0.011-0.277-0.041-0.549-0.093-0.816c-0.041-0.267-0.092-0.521-0.153-0.762c-0.062-0.242-0.16-0.452-0.293-0.632
			c-0.134-0.18-0.308-0.323-0.523-0.431c-0.216-0.108-0.503-0.162-0.862-0.162h-3.573v4.697h-1.463v-10.996H399.128z
			 M399.436-93.635c0.308-0.052,0.577-0.152,0.809-0.301c0.23-0.148,0.416-0.35,0.555-0.601s0.208-0.578,0.208-0.978
			c0-0.554-0.154-1.006-0.463-1.355c-0.308-0.349-0.806-0.523-1.493-0.523h-3.635v3.834h3.05
			C398.804-93.559,399.128-93.584,399.436-93.635z"/>
		<path d="M404.217-95.291c0.221-0.693,0.552-1.306,0.993-1.84c0.441-0.534,0.991-0.959,1.648-1.278
			c0.656-0.318,1.422-0.478,2.294-0.478c0.873,0,1.638,0.159,2.295,0.478s1.206,0.744,1.647,1.278
			c0.441,0.534,0.772,1.147,0.994,1.84c0.221,0.693,0.331,1.414,0.331,2.164s-0.11,1.471-0.331,2.164
			c-0.222,0.692-0.553,1.307-0.994,1.84s-0.99,0.957-1.647,1.271s-1.422,0.47-2.295,0.47c-0.872,0-1.638-0.156-2.294-0.47
			c-0.657-0.313-1.207-0.737-1.648-1.271s-0.772-1.147-0.993-1.84c-0.221-0.693-0.331-1.414-0.331-2.164
			S403.996-94.598,404.217-95.291z M405.564-91.487c0.144,0.539,0.37,1.024,0.678,1.456c0.308,0.431,0.703,0.777,1.186,1.039
			s1.058,0.393,1.725,0.393c0.668,0,1.242-0.131,1.726-0.393c0.482-0.262,0.878-0.608,1.186-1.039
			c0.308-0.432,0.533-0.917,0.678-1.456c0.144-0.538,0.216-1.085,0.216-1.64s-0.072-1.102-0.216-1.641
			c-0.145-0.539-0.37-1.024-0.678-1.455s-0.703-0.778-1.186-1.04c-0.483-0.262-1.058-0.393-1.726-0.393
			c-0.667,0-1.242,0.131-1.725,0.393s-0.878,0.608-1.186,1.04s-0.534,0.917-0.678,1.455c-0.144,0.539-0.216,1.086-0.216,1.641
			S405.421-92.025,405.564-91.487z"/>
		<path d="M419.979-98.625c1.693,0,2.997,0.431,3.911,1.293s1.371,2.177,1.371,3.943c0,0.924-0.104,1.742-0.309,2.456
			s-0.523,1.314-0.955,1.802c-0.431,0.488-0.98,0.859-1.647,1.117c-0.667,0.256-1.458,0.385-2.371,0.385h-3.773v-10.996H419.979z
			 M420.103-88.861c0.164,0,0.369-0.013,0.616-0.039c0.246-0.025,0.508-0.086,0.785-0.184s0.552-0.239,0.823-0.424
			c0.272-0.186,0.517-0.437,0.732-0.755c0.215-0.318,0.393-0.716,0.531-1.193c0.138-0.478,0.207-1.056,0.207-1.733
			c0-0.656-0.063-1.244-0.192-1.763c-0.128-0.518-0.339-0.96-0.631-1.324c-0.293-0.364-0.67-0.642-1.132-0.832
			s-1.032-0.285-1.71-0.285h-2.464v8.532H420.103z"/>
		<path d="M434.702-88.438c-0.75,0.703-1.817,1.055-3.204,1.055c-1.416,0-2.522-0.336-3.318-1.009s-1.193-1.743-1.193-3.211v-7.022
			h1.463v7.022c0,0.985,0.262,1.732,0.785,2.241c0.523,0.508,1.278,0.762,2.264,0.762c0.935,0,1.646-0.254,2.134-0.762
			c0.487-0.509,0.731-1.256,0.731-2.241v-7.022h1.463v7.022C435.826-90.195,435.451-89.141,434.702-88.438z"/>
		<path d="M444.812-97.07c-0.561-0.39-1.225-0.585-1.995-0.585c-0.656,0-1.219,0.123-1.686,0.37
			c-0.468,0.247-0.853,0.578-1.155,0.993c-0.303,0.416-0.526,0.891-0.67,1.425c-0.144,0.533-0.216,1.088-0.216,1.663
			c0,0.626,0.072,1.22,0.216,1.778c0.144,0.561,0.367,1.047,0.67,1.463s0.69,0.747,1.163,0.994c0.472,0.246,1.036,0.369,1.693,0.369
			c0.482,0,0.911-0.08,1.286-0.238c0.375-0.16,0.698-0.38,0.97-0.662c0.272-0.283,0.485-0.619,0.64-1.01
			c0.154-0.39,0.246-0.811,0.277-1.262h1.463c-0.144,1.385-0.621,2.463-1.433,3.233c-0.811,0.771-1.92,1.155-3.326,1.155
			c-0.853,0-1.597-0.146-2.233-0.439c-0.637-0.292-1.165-0.695-1.586-1.209c-0.421-0.513-0.736-1.119-0.947-1.816
			c-0.21-0.698-0.315-1.447-0.315-2.248s0.113-1.553,0.339-2.257c0.226-0.703,0.557-1.317,0.993-1.84s0.98-0.937,1.633-1.24
			c0.651-0.303,1.398-0.454,2.24-0.454c0.575,0,1.119,0.077,1.633,0.231c0.513,0.154,0.97,0.38,1.37,0.678s0.734,0.67,1.001,1.116
			c0.268,0.447,0.441,0.962,0.523,1.548h-1.463C445.732-96.094,445.37-96.679,444.812-97.07z"/>
		<path d="M456.876-98.625v1.232h-6.129v3.497h5.714v1.231h-5.714v3.804h6.176v1.232h-7.639v-10.996H456.876z"/>
		<path d="M462.467-98.625c1.693,0,2.997,0.431,3.911,1.293s1.371,2.177,1.371,3.943c0,0.924-0.104,1.742-0.309,2.456
			s-0.523,1.314-0.955,1.802c-0.431,0.488-0.98,0.859-1.647,1.117c-0.667,0.256-1.458,0.385-2.371,0.385h-3.773v-10.996H462.467z
			 M462.59-88.861c0.164,0,0.369-0.013,0.616-0.039c0.246-0.025,0.508-0.086,0.785-0.184s0.552-0.239,0.823-0.424
			c0.272-0.186,0.517-0.437,0.732-0.755c0.215-0.318,0.393-0.716,0.531-1.193c0.138-0.478,0.207-1.056,0.207-1.733
			c0-0.656-0.063-1.244-0.192-1.763c-0.128-0.518-0.339-0.96-0.631-1.324c-0.293-0.364-0.67-0.642-1.132-0.832
			s-1.032-0.285-1.71-0.285h-2.464v8.532H462.59z"/>
		<path d="M474.481-97.393v-1.232h8.793v1.232h-3.665v9.764h-1.463v-9.764H474.481z"/>
		<path d="M485.953-98.625v4.729h5.791v-4.729h1.463v10.996h-1.463v-5.036h-5.791v5.036h-1.463v-10.996H485.953z"/>
		<path d="M503.201-98.625v1.232h-6.129v3.497h5.714v1.231h-5.714v3.804h6.176v1.232h-7.639v-10.996H503.201z"/>
		<path d="M509.965-97.393v-1.232h8.793v1.232h-3.665v9.764h-1.463v-9.764H509.965z"/>
		<path d="M527.565-98.625v1.232h-6.129v3.497h5.714v1.231h-5.714v3.804h6.176v1.232h-7.639v-10.996H527.565z"/>
		<path d="M534.558-98.625c1.047,0,1.865,0.257,2.456,0.77c0.59,0.514,0.886,1.217,0.886,2.11c0,0.667-0.152,1.253-0.455,1.755
			c-0.303,0.504-0.788,0.848-1.455,1.032v0.031c0.318,0.062,0.578,0.164,0.778,0.308c0.2,0.145,0.358,0.316,0.477,0.516
			c0.118,0.201,0.206,0.424,0.262,0.67c0.057,0.246,0.101,0.504,0.132,0.771c0.02,0.267,0.035,0.539,0.046,0.815
			c0.01,0.277,0.036,0.55,0.077,0.816c0.041,0.268,0.1,0.521,0.177,0.763s0.192,0.454,0.347,0.64h-1.633
			c-0.103-0.113-0.172-0.268-0.208-0.463c-0.036-0.194-0.059-0.412-0.069-0.654c-0.01-0.24-0.021-0.5-0.03-0.777
			c-0.011-0.277-0.041-0.549-0.093-0.816c-0.041-0.267-0.092-0.521-0.153-0.762c-0.062-0.242-0.16-0.452-0.293-0.632
			c-0.134-0.18-0.308-0.323-0.523-0.431c-0.216-0.108-0.503-0.162-0.862-0.162h-3.573v4.697h-1.463v-10.996H534.558z
			 M534.865-93.635c0.308-0.052,0.577-0.152,0.809-0.301c0.23-0.148,0.416-0.35,0.555-0.601s0.208-0.578,0.208-0.978
			c0-0.554-0.154-1.006-0.463-1.355c-0.308-0.349-0.806-0.523-1.493-0.523h-3.635v3.834h3.05
			C534.233-93.559,534.558-93.584,534.865-93.635z"/>
		<path d="M541.966-98.625l3.465,9.24l3.48-9.24h2.002v10.996h-1.387v-9.148h-0.03l-3.435,9.148h-1.247l-3.435-9.148h-0.03v9.148
			h-1.386v-10.996H541.966z"/>
		<path d="M556.412-90.071v2.222c0,0.836-0.19,1.555-0.571,2.156c-0.382,0.602-0.998,1.026-1.849,1.275v-1.1
			c0.25-0.088,0.459-0.217,0.627-0.385c0.169-0.169,0.305-0.352,0.407-0.551c0.103-0.197,0.173-0.398,0.209-0.604
			s0.048-0.396,0.033-0.571h-1.298v-2.442H556.412z"/>
		<path d="M564.407-97.393v-1.232h8.793v1.232h-3.665v9.764h-1.463v-9.764H564.407z"/>
		<path d="M575.941-98.625v10.996h-1.463v-10.996H575.941z"/>
		<path d="M580.438-98.625l3.465,9.24l3.48-9.24h2.002v10.996h-1.387v-9.148h-0.03l-3.435,9.148h-1.247l-3.435-9.148h-0.03v9.148
			h-1.386v-10.996H580.438z"/>
		<path d="M599.41-98.625v1.232h-6.129v3.497h5.714v1.231h-5.714v3.804h6.176v1.232h-7.639v-10.996H599.41z"/>
		<path d="M607.484-94.625v1.76h-6.358v-1.76H607.484z"/>
		<path d="M613.773-98.625c0.236,0,0.49,0.002,0.763,0.008c0.271,0.005,0.541,0.021,0.809,0.046
			c0.267,0.026,0.516,0.064,0.747,0.116c0.23,0.051,0.429,0.128,0.593,0.231c0.359,0.216,0.664,0.514,0.916,0.893
			c0.252,0.38,0.377,0.847,0.377,1.401c0,0.585-0.141,1.091-0.423,1.517c-0.282,0.427-0.686,0.741-1.209,0.947v0.03
			c0.678,0.145,1.195,0.452,1.556,0.924c0.358,0.473,0.539,1.048,0.539,1.725c0,0.4-0.072,0.791-0.216,1.171
			c-0.145,0.38-0.357,0.716-0.64,1.009s-0.631,0.529-1.047,0.709s-0.896,0.27-1.439,0.27h-5.313v-10.996H613.773z M614.174-93.896
			c0.832,0,1.43-0.146,1.795-0.439c0.364-0.293,0.546-0.731,0.546-1.317c0-0.39-0.062-0.698-0.185-0.924
			c-0.123-0.226-0.293-0.4-0.508-0.524c-0.216-0.123-0.465-0.203-0.747-0.238c-0.282-0.036-0.583-0.054-0.901-0.054h-2.926v3.497
			H614.174z M614.913-88.861c0.647,0,1.152-0.174,1.518-0.523c0.364-0.35,0.546-0.832,0.546-1.447c0-0.359-0.066-0.657-0.2-0.894
			c-0.133-0.236-0.311-0.424-0.531-0.562c-0.221-0.138-0.475-0.235-0.762-0.292c-0.288-0.057-0.585-0.085-0.894-0.085h-3.342v3.804
			H614.913z"/>
		<path d="M624.938-98.625l4.297,10.996h-1.617l-1.201-3.312h-4.65l-1.232,3.312h-1.494l4.281-10.996H624.938z M625.955-92.172
			l-1.833-5.129h-0.03l-1.863,5.129H625.955z"/>
		<path d="M635.819-97.124c-0.488-0.354-1.111-0.531-1.871-0.531c-0.309,0-0.611,0.031-0.909,0.092s-0.562,0.165-0.793,0.308
			c-0.23,0.144-0.416,0.336-0.555,0.578s-0.207,0.542-0.207,0.901c0,0.339,0.1,0.613,0.3,0.824c0.2,0.21,0.467,0.383,0.801,0.517
			c0.334,0.133,0.711,0.243,1.132,0.33c0.421,0.088,0.85,0.183,1.286,0.285c0.437,0.104,0.864,0.224,1.286,0.361
			c0.421,0.139,0.798,0.326,1.132,0.562c0.333,0.236,0.601,0.534,0.801,0.894s0.3,0.812,0.3,1.354c0,0.586-0.131,1.086-0.393,1.502
			s-0.598,0.755-1.009,1.017c-0.41,0.262-0.87,0.452-1.378,0.569c-0.509,0.118-1.015,0.178-1.517,0.178
			c-0.616,0-1.199-0.077-1.748-0.23c-0.55-0.154-1.032-0.389-1.448-0.701c-0.415-0.313-0.744-0.714-0.985-1.201
			c-0.241-0.488-0.362-1.065-0.362-1.732h1.387c0,0.461,0.09,0.859,0.27,1.193s0.415,0.607,0.708,0.824
			c0.293,0.215,0.634,0.375,1.024,0.477c0.39,0.104,0.79,0.154,1.201,0.154c0.328,0,0.659-0.031,0.993-0.092
			c0.333-0.062,0.634-0.168,0.9-0.316c0.268-0.148,0.483-0.352,0.647-0.608s0.246-0.585,0.246-0.985c0-0.38-0.1-0.688-0.3-0.924
			s-0.468-0.429-0.801-0.578c-0.334-0.148-0.712-0.27-1.132-0.361c-0.422-0.093-0.851-0.188-1.286-0.285
			c-0.437-0.098-0.865-0.21-1.286-0.339c-0.421-0.128-0.799-0.298-1.132-0.508c-0.334-0.21-0.601-0.483-0.801-0.816
			s-0.301-0.752-0.301-1.255c0-0.555,0.113-1.035,0.339-1.44c0.226-0.406,0.526-0.739,0.901-1.001
			c0.375-0.262,0.801-0.457,1.278-0.585s0.968-0.192,1.471-0.192c0.564,0,1.088,0.067,1.57,0.2s0.906,0.344,1.271,0.631
			c0.364,0.288,0.652,0.649,0.862,1.085c0.211,0.437,0.326,0.958,0.347,1.563h-1.386C636.592-96.197,636.307-96.77,635.819-97.124z"
			/>
		<path d="M647.885-98.625v1.232h-6.129v3.497h5.714v1.231h-5.714v3.804h6.176v1.232h-7.639v-10.996H647.885z"/>
		<path d="M653.476-98.625c1.693,0,2.997,0.431,3.911,1.293s1.371,2.177,1.371,3.943c0,0.924-0.104,1.742-0.309,2.456
			s-0.523,1.314-0.955,1.802c-0.431,0.488-0.98,0.859-1.647,1.117c-0.667,0.256-1.458,0.385-2.371,0.385h-3.773v-10.996H653.476z
			 M653.599-88.861c0.164,0,0.369-0.013,0.616-0.039c0.246-0.025,0.508-0.086,0.785-0.184s0.552-0.239,0.823-0.424
			c0.272-0.186,0.517-0.437,0.732-0.755c0.215-0.318,0.393-0.716,0.531-1.193c0.138-0.478,0.207-1.056,0.207-1.733
			c0-0.656-0.063-1.244-0.192-1.763c-0.128-0.518-0.339-0.96-0.631-1.324c-0.293-0.364-0.67-0.642-1.132-0.832
			s-1.032-0.285-1.71-0.285h-2.464v8.532H653.599z"/>
		<path d="M668.692-98.625l3.465,9.24l3.48-9.24h2.002v10.996h-1.387v-9.148h-0.03l-3.435,9.148h-1.247l-3.435-9.148h-0.03v9.148
			h-1.386v-10.996H668.692z"/>
		<path d="M687.664-98.625v1.232h-6.129v3.497h5.714v1.231h-5.714v3.804h6.176v1.232h-7.639v-10.996H687.664z"/>
		<path d="M693.256-98.625c1.693,0,2.997,0.431,3.911,1.293s1.371,2.177,1.371,3.943c0,0.924-0.104,1.742-0.309,2.456
			s-0.523,1.314-0.955,1.802c-0.431,0.488-0.98,0.859-1.647,1.117c-0.667,0.256-1.458,0.385-2.371,0.385h-3.773v-10.996H693.256z
			 M693.379-88.861c0.164,0,0.369-0.013,0.616-0.039c0.246-0.025,0.508-0.086,0.785-0.184s0.552-0.239,0.823-0.424
			c0.272-0.186,0.517-0.437,0.732-0.755c0.215-0.318,0.393-0.716,0.531-1.193c0.138-0.478,0.207-1.056,0.207-1.733
			c0-0.656-0.063-1.244-0.192-1.763c-0.128-0.518-0.339-0.96-0.631-1.324c-0.293-0.364-0.67-0.642-1.132-0.832
			s-1.032-0.285-1.71-0.285h-2.464v8.532H693.379z"/>
		<path d="M701.848-98.625v10.996h-1.463v-10.996H701.848z"/>
		<path d="M708.916-98.625l4.297,10.996h-1.617l-1.201-3.312h-4.65l-1.232,3.312h-1.494l4.281-10.996H708.916z M709.933-92.172
			l-1.833-5.129h-0.03l-1.863,5.129H709.933z"/>
		<path d="M721.932-98.625v10.996h-1.463v-10.996H721.932z"/>
		<path d="M725.936-98.625l5.79,8.916h0.031v-8.916h1.386v10.996h-1.602l-5.744-8.825h-0.03v8.825h-1.387v-10.996H725.936z"/>
		<path d="M745.307-87.629v-9.145h-3.312v-1.224c0.432,0,0.852-0.033,1.26-0.099c0.407-0.066,0.776-0.189,1.106-0.369
			s0.609-0.426,0.837-0.738c0.229-0.312,0.385-0.708,0.469-1.188h1.17v12.763H745.307z"/>
		<path d="M753.604-89.268c0.443,0.336,0.972,0.504,1.584,0.504c0.937,0,1.638-0.404,2.106-1.215
			c0.468-0.811,0.726-2.049,0.773-3.717l-0.036-0.036c-0.288,0.54-0.695,0.97-1.224,1.287s-1.104,0.478-1.729,0.478
			c-0.647,0-1.224-0.105-1.728-0.315s-0.927-0.501-1.269-0.873c-0.343-0.372-0.601-0.821-0.774-1.351
			c-0.174-0.527-0.261-1.104-0.261-1.728c0-0.612,0.102-1.173,0.306-1.683c0.204-0.51,0.492-0.948,0.864-1.314
			c0.372-0.366,0.815-0.651,1.332-0.855c0.516-0.204,1.08-0.306,1.691-0.306c0.601,0,1.164,0.093,1.692,0.279
			s0.99,0.507,1.386,0.963c0.396,0.456,0.711,1.077,0.945,1.863c0.234,0.786,0.351,1.785,0.351,2.998
			c0,2.207-0.351,3.902-1.053,5.084c-0.702,1.183-1.827,1.773-3.375,1.773c-1.068,0-1.956-0.27-2.664-0.81s-1.11-1.362-1.206-2.466
			h1.53C752.908-90.084,753.16-89.604,753.604-89.268z M757.628-97.241c-0.114-0.348-0.282-0.657-0.505-0.927
			c-0.222-0.27-0.494-0.483-0.818-0.639c-0.324-0.156-0.702-0.234-1.134-0.234c-0.457,0-0.844,0.084-1.161,0.252
			c-0.318,0.168-0.576,0.394-0.774,0.675s-0.342,0.603-0.432,0.963s-0.135,0.738-0.135,1.134c0,0.348,0.062,0.684,0.188,1.008
			c0.126,0.324,0.3,0.612,0.522,0.864c0.222,0.252,0.485,0.453,0.792,0.603c0.306,0.15,0.645,0.226,1.017,0.226
			c0.396,0,0.756-0.075,1.08-0.226c0.324-0.149,0.6-0.354,0.828-0.611c0.228-0.258,0.401-0.559,0.521-0.9
			c0.12-0.342,0.181-0.699,0.181-1.071C757.799-96.521,757.741-96.893,757.628-97.241z"/>
		<path d="M767.788-96.593c-0.563,0.876-1.064,1.812-1.503,2.808s-0.795,2.021-1.071,3.078c-0.275,1.056-0.443,2.082-0.504,3.078
			H763c0.072-1.08,0.249-2.133,0.531-3.16c0.282-1.025,0.645-2.01,1.089-2.951s0.957-1.833,1.539-2.673
			c0.582-0.84,1.209-1.614,1.881-2.322h-6.695v-1.44h8.262v1.314C768.958-98.225,768.353-97.469,767.788-96.593z"/>
		<path d="M771.443-97.673c0.168-0.552,0.429-1.029,0.783-1.431c0.354-0.402,0.794-0.717,1.322-0.945s1.128-0.342,1.801-0.342
			c0.552,0,1.07,0.081,1.557,0.243s0.909,0.396,1.269,0.702c0.36,0.306,0.646,0.687,0.855,1.143s0.314,0.984,0.314,1.584
			c0,0.564-0.087,1.062-0.261,1.494c-0.174,0.433-0.405,0.819-0.692,1.161c-0.288,0.342-0.619,0.651-0.99,0.928
			c-0.372,0.275-0.756,0.539-1.152,0.791c-0.396,0.24-0.792,0.478-1.188,0.711c-0.396,0.234-0.76,0.483-1.09,0.748
			c-0.33,0.264-0.611,0.549-0.846,0.854c-0.233,0.306-0.387,0.657-0.459,1.053h6.552v1.351h-8.334
			c0.061-0.756,0.195-1.401,0.405-1.936c0.21-0.533,0.478-0.999,0.801-1.395c0.324-0.396,0.69-0.744,1.099-1.045
			c0.407-0.299,0.834-0.582,1.277-0.846c0.54-0.336,1.015-0.645,1.422-0.927c0.408-0.282,0.747-0.567,1.018-0.854
			c0.27-0.289,0.474-0.601,0.612-0.937c0.138-0.336,0.207-0.726,0.207-1.17c0-0.348-0.066-0.663-0.198-0.945
			c-0.133-0.282-0.31-0.524-0.531-0.729c-0.222-0.204-0.483-0.36-0.783-0.468s-0.618-0.162-0.954-0.162
			c-0.443,0-0.825,0.093-1.143,0.279c-0.318,0.186-0.579,0.429-0.783,0.729s-0.351,0.639-0.44,1.017
			c-0.091,0.378-0.13,0.759-0.117,1.143h-1.53C771.209-96.521,771.275-97.121,771.443-97.673z"/>
	</g>
	<g id="Layer_4_copy" display="inline">
		<g>
			<path d="M214.369-70.039c-1.552-2.701-2.325-6.9-2.325-12.601v-24.3c0-6.099-0.701-11.225-2.1-15.375
				c-1.402-4.148-4.301-7.674-8.7-10.575v-3c1.699-0.3,3.199-1.2,4.5-2.7c1.298-1.5,2.423-3.398,3.375-5.7
				c0.949-2.299,1.673-4.898,2.175-7.8c0.5-2.899,0.75-5.85,0.75-8.85v-24.75c0-5.7,0.773-9.849,2.325-12.45
				c1.549-2.599,4.425-3.9,8.625-3.9h7.5v3h-7.2c-3,0-5.125,1.125-6.375,3.375c-1.251,2.25-1.875,6.476-1.875,12.675v24.6
				c0,2.201-0.201,4.552-0.6,7.05c-0.401,2.501-1.05,4.901-1.95,7.2c-0.9,2.302-2.025,4.35-3.375,6.15
				c-1.35,1.8-2.977,3.101-4.875,3.9c3.3,1.601,5.925,4.676,7.875,9.225c1.95,4.552,2.925,9.675,2.925,15.375v24.15
				c0,3.301,0.174,6.023,0.525,8.176c0.349,2.148,0.848,3.824,1.5,5.024c0.649,1.2,1.5,2.024,2.55,2.476
				c1.05,0.449,2.273,0.674,3.675,0.674h7.2v3h-7.5C218.794-65.99,215.918-67.34,214.369-70.039z"/>
		</g>
		<g>
			<path d="M822.569-197.989c1.549,2.7,2.325,6.9,2.325,12.6v24.45c0,6.101,0.698,11.25,2.1,15.45c1.399,4.2,4.299,7.702,8.7,10.5v3
				c-1.601,0.3-3.075,1.2-4.425,2.7c-1.351,1.5-2.501,3.401-3.45,5.7c-0.952,2.302-1.676,4.901-2.175,7.8
				c-0.502,2.901-0.75,5.85-0.75,8.85v24.599c0,5.701-0.776,9.85-2.325,12.451c-1.552,2.599-4.425,3.899-8.625,3.899h-7.5v-3h7.2
				c3,0,5.123-1.125,6.375-3.375c1.249-2.25,1.875-6.476,1.875-12.675v-24.45c0-2.198,0.199-4.549,0.6-7.05
				c0.398-2.499,1.05-4.898,1.95-7.2c0.899-2.299,2.024-4.35,3.375-6.15c1.35-1.8,2.974-3.099,4.875-3.9
				c-3.3-1.599-5.925-4.673-7.875-9.225c-1.95-4.549-2.925-9.675-2.925-15.375v-24.3c0-3.3-0.176-6.023-0.525-8.175
				c-0.352-2.149-0.851-3.825-1.5-5.025c-0.651-1.2-1.5-2.025-2.55-2.475c-1.05-0.45-2.276-0.675-3.675-0.675h-7.2v-3h7.5
				C818.145-202.039,821.018-200.689,822.569-197.989z"/>
		</g>
	</g>
</g>
<g id="text3-ori" display="none">
	<text transform="matrix(1 0 0 1 84.4941 123.6113)" display="inline" font-family="'AGaramondPro-Regular'" font-size="52">Maidstone College of Art</text>
	
		<text transform="matrix(1 0 0 1 84.4941 70.3711)" display="inline" font-family="'HelveticaNeue'" font-size="12" letter-spacing="6">1</text>
	
		<text transform="matrix(0.583 0 0 0.583 98.126 66.375)" display="inline" font-family="'HelveticaNeue'" font-size="12" letter-spacing="6.861">st</text>
	
		<text transform="matrix(1 0 0 1 114.7905 70.3711)" display="inline" font-family="'HelveticaNeue'" font-size="12" letter-spacing="6"> Time-based Media    undergraduate course</text>
	
		<text transform="matrix(1 0 0 1 84.4941 90.7705)" display="inline" font-family="'HelveticaNeue'" font-size="22" letter-spacing="12"> </text>
	
		<text transform="matrix(0.4081 0 0 0.4081 359.8276 70.498)" display="inline" font-family="'Wingdings'" font-size="80" letter-spacing="53.908">h</text>
</g>
<g id="Layer_4_copy_2">
	<g>
		<path d="M45.263,158.961c-1.552-2.699-2.325-6.899-2.325-12.6v-24.3c0-6.099-0.701-11.225-2.1-15.375
			c-1.402-4.148-4.301-7.674-8.7-10.575v-3c1.699-0.3,3.199-1.2,4.5-2.7c1.298-1.5,2.423-3.398,3.375-5.7
			c0.949-2.299,1.673-4.898,2.175-7.8c0.5-2.899,0.75-5.85,0.75-8.85v-24.75c0-5.7,0.773-9.849,2.325-12.45
			c1.549-2.6,4.425-3.9,8.625-3.9h7.5v3h-7.2c-3,0-5.125,1.125-6.375,3.375c-1.251,2.25-1.875,6.477-1.875,12.676v24.6
			c0,2.201-0.201,4.552-0.6,7.05c-0.401,2.501-1.05,4.901-1.95,7.2c-0.9,2.302-2.025,4.35-3.375,6.15
			c-1.35,1.8-2.977,3.101-4.875,3.899c3.3,1.601,5.925,4.676,7.875,9.226c1.95,4.551,2.925,9.675,2.925,15.375v24.149
			c0,3.3,0.174,6.023,0.525,8.175c0.349,2.149,0.848,3.825,1.5,5.025c0.649,1.2,1.5,2.025,2.55,2.475
			c1.05,0.45,2.273,0.676,3.675,0.676h7.2v3h-7.5C49.688,163.012,46.812,161.661,45.263,158.961z"/>
	</g>
	<g>
		<path d="M712.463,31.012c1.549,2.7,2.324,6.9,2.324,12.6v24.451c0,6.1,0.699,11.25,2.101,15.449c1.399,4.2,4.298,7.701,8.7,10.5v3
			c-1.602,0.301-3.075,1.2-4.426,2.7c-1.35,1.5-2.5,3.401-3.449,5.7c-0.951,2.301-1.676,4.9-2.176,7.8
			c-0.501,2.901-0.75,5.851-0.75,8.851v24.6c0,5.699-0.775,9.848-2.324,12.449c-1.552,2.6-4.426,3.9-8.625,3.9h-7.5v-3h7.199
			c3,0,5.124-1.125,6.375-3.375c1.25-2.25,1.875-6.476,1.875-12.675v-24.45c0-2.198,0.199-4.549,0.601-7.05
			c0.398-2.499,1.05-4.898,1.95-7.2c0.9-2.299,2.025-4.35,3.375-6.15c1.35-1.799,2.975-3.098,4.875-3.899
			c-3.301-1.599-5.926-4.673-7.875-9.226c-1.95-4.549-2.926-9.674-2.926-15.375V46.312c0-3.301-0.176-6.023-0.524-8.176
			c-0.352-2.148-0.851-3.824-1.5-5.025c-0.651-1.199-1.5-2.024-2.55-2.475c-1.051-0.449-2.275-0.675-3.676-0.675h-7.199v-3h7.5
			C708.037,26.962,710.911,28.312,712.463,31.012z"/>
	</g>
</g>
<g id="text3-ori_copy">
	<g>
		<path d="M104.723,109.727c1.196,2.444,2.34,4.836,3.588,7.125h0.104c1.404-2.444,2.704-5.148,4.004-7.801l4.889-9.933
			c2.34-4.731,3.848-7.592,3.952-9.983c1.768,0.155,2.86,0.155,3.9,0.155c1.3,0,3.016-0.052,4.628-0.156
			c0.312,0.208,0.312,1.093,0.052,1.3l-1.092,0.104c-3.276,0.312-3.692,1.3-3.641,4.94c0.104,5.512,0.156,15.133,0.572,22.621
			c0.156,2.6,0.104,4.004,2.548,4.212l1.664,0.155c0.312,0.312,0.26,1.093-0.104,1.301c-2.132-0.104-4.264-0.156-6.136-0.156
			c-1.82,0-4.16,0.052-6.292,0.156c-0.364-0.26-0.416-0.988-0.104-1.301l1.508-0.155c2.548-0.261,2.548-1.093,2.548-4.421
			l-0.156-21.685h-0.104c-0.364,0.572-2.34,4.732-3.38,6.761l-4.628,9.1c-2.34,4.576-4.68,9.465-5.616,11.857
			c-0.104,0.155-0.312,0.207-0.52,0.207c-0.104,0-0.364-0.052-0.468-0.207c-0.884-2.757-3.38-7.853-4.576-10.4l-4.68-10.037
			c-1.092-2.392-2.184-5.096-3.328-7.488H93.75c-0.208,3.225-0.364,6.24-0.52,9.257c-0.156,3.172-0.364,7.8-0.364,12.22
			c0,3.849,0.312,4.681,2.34,4.837l1.976,0.155c0.364,0.312,0.312,1.145-0.052,1.301c-1.769-0.104-3.796-0.156-5.772-0.156
			c-1.664,0-3.536,0.052-5.304,0.156c-0.312-0.26-0.416-1.04-0.104-1.301l1.144-0.155c2.184-0.312,2.912-0.624,3.224-4.265
			c0.312-3.432,0.572-6.292,0.884-11.44c0.26-4.315,0.468-8.736,0.572-11.597c0.104-3.275-0.312-4.056-3.484-4.472l-0.832-0.104
			c-0.26-0.312-0.208-1.092,0.208-1.299c1.561,0.104,2.809,0.155,4.108,0.155c1.196,0,2.6,0,4.316-0.156
			c-0.208,2.028,1.092,5.253,2.704,8.581L104.723,109.727z"/>
		<path d="M140.394,115.551c-1.196,0-1.352,0.053-1.768,1.248l-1.196,3.328c-0.572,1.664-0.416,1.872,0.572,2.08l1.404,0.26
			c0.416,0.261,0.364,1.196-0.156,1.301c-1.3-0.104-2.652-0.156-4.108-0.156s-2.704,0.104-3.64,0.156
			c-0.468-0.208-0.468-1.04-0.104-1.301l1.196-0.26c1.612-0.363,2.184-0.936,3.224-3.432l4.992-11.961
			c0.884-2.132,1.248-3.38,1.353-4.368c0.936-0.364,1.924-1.352,2.184-1.976c0.416-0.156,0.729-0.053,0.832,0.26
			c0.208,0.52,1.04,3.225,2.236,6.396l4.68,12.428c0.624,1.717,1.092,2.393,2.964,2.757l0.832,0.155
			c0.468,0.261,0.364,1.196-0.156,1.301c-1.352-0.104-2.548-0.156-4.316-0.156c-1.872,0-3.38,0.052-4.68,0.156
			c-0.521-0.156-0.572-1.092-0.104-1.301l1.04-0.155c1.353-0.208,1.3-0.521,0.676-2.132l-1.248-3.381
			c-0.416-1.195-0.572-1.248-1.768-1.248H140.394z M144.502,113.887c1.352,0,1.508-0.104,0.936-1.611l-1.612-4.421
			c-0.416-1.196-0.624-1.612-0.78-1.872h-0.104c-0.156,0.208-0.364,0.676-0.832,1.769l-1.872,4.628
			c-0.572,1.404-0.468,1.508,0.676,1.508H144.502z"/>
		<path d="M161.141,106.503c0-3.589-0.208-3.796-2.444-4.16l-0.988-0.156c-0.364-0.26-0.312-1.144,0.104-1.3
			c2.028,0.104,3.641,0.156,5.305,0.156s3.276-0.053,5.304-0.156c0.416,0.156,0.468,1.04,0.104,1.3l-0.988,0.156
			c-2.236,0.364-2.444,0.571-2.444,4.16v11.648c0,3.588,0.208,3.796,2.444,4.16l0.988,0.155c0.364,0.261,0.312,1.145-0.104,1.301
			c-1.976-0.104-3.692-0.156-5.304-0.156c-1.664,0-3.276,0.052-5.305,0.156c-0.416-0.156-0.468-1.04-0.104-1.301l0.988-0.155
			c2.236-0.364,2.444-0.572,2.444-4.16V106.503z"/>
		<path d="M176.013,107.127c0-3.381-0.052-4.265-1.248-4.42l-1.56-0.209c-0.468-0.155-0.416-1.144,0.052-1.3
			c2.912-0.208,5.824-0.312,10.036-0.312c2.912,0,5.46,0.312,7.904,1.144c4.732,1.612,7.177,5.408,7.177,10.192
			c0,4.108-2.132,7.904-6.292,10.037c-2.34,1.195-5.252,1.611-7.852,1.611c-2.34,0-4.681-0.26-6.24-0.26
			c-1.664,0-3.276,0.052-5.305,0.156c-0.416-0.156-0.468-1.04-0.104-1.301l0.988-0.155c2.236-0.364,2.444-0.572,2.444-4.16V107.127z
			 M179.965,117.371c0,3.328,0.521,4.992,4.473,4.992c6.24,0,9.308-3.9,9.308-10.244c0-6.396-4.472-9.725-10.348-9.725
			c-1.716,0-2.704,0.208-3.12,0.572c-0.312,0.208-0.312,0.884-0.312,2.027V117.371z"/>
		<path d="M208.201,113.003c-2.496-1.3-4.628-3.328-4.628-6.24c0-3.796,2.912-6.448,8.165-6.448c1.819,0,3.067,0.468,4.836,0.78
			c0.416,0.884,0.78,2.86,0.728,5.096c-0.155,0.416-1.092,0.468-1.352,0.104c-0.416-1.82-1.768-4.473-4.836-4.473
			s-4.212,1.769-4.212,3.536c0,1.872,1.404,3.017,3.484,4.108l3.225,1.664c1.872,0.936,4.212,3.12,4.212,6.604
			c0,4.056-3.328,6.604-8.477,6.604c-3.172,0-5.252-1.093-5.98-1.612c-0.468-0.729-1.092-2.601-1.092-5.356
			c0.208-0.52,0.988-0.572,1.353-0.104c0.416,1.871,2.704,5.563,6.188,5.563c2.652,0,4.369-1.352,4.369-3.744
			c0-1.664-0.677-3.38-3.641-4.888L208.201,113.003z"/>
		<path d="M230.092,103.902c0-1.352-0.052-1.352-1.092-1.352h-1.611c-3.173,0-4.524,0.312-5.772,3.9
			c-0.521,0.312-1.093,0.155-1.3-0.261c0.571-2.235,1.144-4.836,1.403-6.136c0.208-0.208,0.729-0.208,0.937,0
			c0.052,1.04,0.779,0.988,2.859,0.988h14.457c1.924,0,2.288-0.053,2.704-0.988c0.364-0.208,0.78-0.104,0.937,0.156
			c-0.416,1.352-0.625,4.107-0.521,6.084c-0.208,0.416-1.092,0.468-1.3,0.052c-0.364-3.38-1.717-3.796-4.836-3.796h-1.769
			c-0.988,0-1.144,0-1.144,1.352v14.249c0,3.588,0.207,3.899,2.443,4.16l1.404,0.155c0.364,0.261,0.312,1.145-0.104,1.301
			c-2.133-0.104-4.108-0.156-5.721-0.156c-1.664,0-3.536,0.052-5.721,0.156c-0.416-0.156-0.468-1.04-0.104-1.301l1.404-0.155
			c2.236-0.261,2.443-0.572,2.443-4.16V103.902z"/>
		<path d="M270.653,112.223c0,7.021-5.304,12.117-12.637,12.117c-8.06,0-12.845-5.253-12.845-11.805
			c0-6.916,5.305-12.221,12.845-12.221C266.389,100.314,270.653,105.879,270.653,112.223z M249.801,111.703
			c0,5.355,2.443,11.128,8.477,11.128c3.951,0,7.748-2.704,7.748-9.828c0-5.564-2.652-11.181-8.373-11.181
			C253.908,101.822,249.801,104.371,249.801,111.703z"/>
		<path d="M295.977,109.051c0-5.2-0.312-6.553-2.236-6.708l-1.664-0.156c-0.363-0.312-0.312-1.04,0.104-1.3
			c1.924,0.104,3.12,0.156,4.628,0.156s2.652-0.053,4.316-0.156c0.416,0.26,0.416,1.04,0.052,1.3l-1.56,0.156
			c-1.353,0.155-1.769,1.56-1.769,6.708v8.736c0,1.04,0,5.252,0.156,6.032c-0.156,0.312-0.624,0.572-1.092,0.468
			c-0.572-0.728-1.612-1.82-4.837-5.304l-7.904-8.425c-1.976-2.08-3.328-3.432-4.004-4.004c-0.208,0-0.208,0.572-0.208,2.184v6.865
			c0,5.199,0.312,6.552,2.236,6.708l1.664,0.155c0.416,0.312,0.312,1.041-0.104,1.301c-1.924-0.104-3.119-0.156-4.628-0.156
			c-1.508,0-2.496,0.052-4.315,0.156c-0.416-0.208-0.416-1.04-0.053-1.301l1.561-0.155c1.352-0.156,1.768-1.561,1.768-6.708v-9.309
			c0-1.717-0.052-2.444-1.092-3.225c-0.416-0.312-1.404-0.624-1.924-0.728l-0.78-0.156c-0.364-0.312-0.364-1.092,0.104-1.3
			c1.976,0.156,3.38,0.156,4.472,0.156c0.728,0,1.456-0.053,2.08-0.156c1.04,1.976,2.964,4.212,5.097,6.396l4.888,5.044
			c1.144,1.144,4.16,4.42,4.732,4.836c0.312-0.104,0.312-0.832,0.312-2.08V109.051z"/>
		<path d="M308.195,106.503c0-3.589-0.208-3.744-2.184-4.16l-0.729-0.156c-0.363-0.208-0.312-1.092,0.104-1.3
			c1.508,0.104,3.12,0.156,4.836,0.156h7.384c2.289,0,4.369-0.053,4.837-0.156c0.052,0.624,0.312,3.068,0.571,5.304
			c-0.207,0.416-1.039,0.468-1.352,0.104c-0.312-1.353-0.624-2.028-0.936-2.496c-0.832-1.248-3.173-1.248-4.421-1.248h-2.288
			c-1.82,0-1.872,0.052-1.872,1.664v5.771c0,0.937,0,1.041,0.988,1.041h2.444c2.756,0,3.016-0.416,3.432-1.977l0.26-0.988
			c0.261-0.363,1.041-0.312,1.301,0.104c-0.104,1.508-0.104,2.444-0.104,3.64c0,1.301,0,2.236,0.104,3.744
			c-0.26,0.416-1.04,0.469-1.301,0.104l-0.26-0.988c-0.416-1.56-0.676-1.976-3.432-1.976h-2.444c-0.988,0-0.988,0.155-0.988,1.195
			v3.744c0,1.561,0.104,3.172,0.572,3.744c0.468,0.521,1.404,0.729,4.368,0.729c3.328,0,5.252-0.156,6.76-4.316
			c0.364-0.364,1.196-0.26,1.353,0.208c-0.26,2.185-0.988,4.784-1.56,5.772c-3.276-0.104-6.033-0.156-8.841-0.156h-4.576
			c-1.664,0-3.276,0.052-5.772,0.156c-0.416-0.156-0.468-1.04-0.104-1.301l1.404-0.155c2.235-0.261,2.443-0.572,2.443-4.16V106.503z
			"/>
		<path d="M347.871,92.878c3.797-2.964,8.633-4.42,14.041-4.42c2.809,0,6.76,0.572,9.204,1.248c0.624,0.156,0.988,0.26,1.456,0.208
			c0.053,1.196,0.312,4.473,0.729,7.645c-0.26,0.363-1.04,0.416-1.404,0.104c-0.78-3.536-3.12-7.592-10.66-7.592
			c-7.957,0-14.717,5.044-14.717,15.809c0,10.92,6.916,16.952,15.444,16.952c6.708,0,9.673-4.368,10.868-7.437
			c0.364-0.26,1.145-0.155,1.353,0.209c-0.364,2.703-1.716,6.136-2.496,7.124c-0.624,0.104-1.248,0.312-1.82,0.52
			c-1.144,0.416-4.888,1.196-8.216,1.196c-4.681,0-9.152-0.936-12.949-3.484c-4.16-2.859-7.384-7.592-7.384-14.301
			C341.319,100.887,343.92,95.946,347.871,92.878z"/>
		<path d="M402.68,112.223c0,7.021-5.305,12.117-12.637,12.117c-8.061,0-12.844-5.253-12.844-11.805
			c0-6.916,5.304-12.221,12.844-12.221C398.416,100.314,402.68,105.879,402.68,112.223z M381.827,111.703
			c0,5.355,2.444,11.128,8.476,11.128c3.953,0,7.749-2.704,7.749-9.828c0-5.564-2.652-11.181-8.372-11.181
			C385.936,101.822,381.827,104.371,381.827,111.703z"/>
		<path d="M410.115,106.503c0-3.589-0.208-3.796-2.443-4.16l-0.988-0.156c-0.364-0.26-0.312-1.144,0.104-1.3
			c2.028,0.104,3.641,0.156,5.305,0.156s3.275-0.053,4.992-0.156c0.416,0.156,0.468,1.04,0.104,1.3l-0.676,0.156
			c-2.184,0.52-2.444,0.571-2.444,4.16v11.181c0,1.611,0.104,3.067,0.572,3.588c0.468,0.468,1.3,0.832,4.004,0.832
			c3.173,0,5.097-0.156,6.604-4.316c0.364-0.364,1.196-0.26,1.352,0.208c-0.26,2.185-0.987,4.784-1.56,5.772
			c-3.276-0.104-6.032-0.156-8.685-0.156h-4.264c-1.664,0-3.276,0.052-5.305,0.156c-0.416-0.156-0.468-1.04-0.104-1.301l0.988-0.155
			c2.235-0.364,2.443-0.572,2.443-4.16V106.503z"/>
		<path d="M432.059,106.503c0-3.589-0.208-3.796-2.443-4.16l-0.988-0.156c-0.364-0.26-0.312-1.144,0.104-1.3
			c2.028,0.104,3.641,0.156,5.305,0.156s3.275-0.053,4.992-0.156c0.416,0.156,0.468,1.04,0.104,1.3l-0.676,0.156
			c-2.184,0.52-2.444,0.571-2.444,4.16v11.181c0,1.611,0.104,3.067,0.572,3.588c0.468,0.468,1.3,0.832,4.004,0.832
			c3.173,0,5.097-0.156,6.604-4.316c0.364-0.364,1.196-0.26,1.352,0.208c-0.26,2.185-0.987,4.784-1.56,5.772
			c-3.276-0.104-6.032-0.156-8.685-0.156h-4.264c-1.664,0-3.276,0.052-5.305,0.156c-0.416-0.156-0.468-1.04-0.104-1.301l0.988-0.155
			c2.235-0.364,2.443-0.572,2.443-4.16V106.503z"/>
		<path d="M454.003,106.503c0-3.589-0.208-3.744-2.184-4.16l-0.729-0.156c-0.364-0.208-0.312-1.092,0.104-1.3
			c1.508,0.104,3.12,0.156,4.836,0.156h7.385c2.287,0,4.367-0.053,4.836-0.156c0.052,0.624,0.312,3.068,0.572,5.304
			c-0.209,0.416-1.041,0.468-1.353,0.104c-0.312-1.353-0.624-2.028-0.937-2.496c-0.832-1.248-3.172-1.248-4.42-1.248h-2.288
			c-1.819,0-1.872,0.052-1.872,1.664v5.771c0,0.937,0,1.041,0.988,1.041h2.444c2.756,0,3.016-0.416,3.432-1.977l0.261-0.988
			c0.26-0.363,1.039-0.312,1.3,0.104c-0.104,1.508-0.104,2.444-0.104,3.64c0,1.301,0,2.236,0.104,3.744
			c-0.261,0.416-1.04,0.469-1.3,0.104l-0.261-0.988c-0.416-1.56-0.676-1.976-3.432-1.976h-2.444c-0.988,0-0.988,0.155-0.988,1.195
			v3.744c0,1.561,0.104,3.172,0.572,3.744c0.468,0.521,1.404,0.729,4.368,0.729c3.328,0,5.252-0.156,6.761-4.316
			c0.363-0.364,1.195-0.26,1.352,0.208c-0.26,2.185-0.988,4.784-1.561,5.772c-3.275-0.104-6.031-0.156-8.84-0.156h-4.576
			c-1.664,0-3.276,0.052-5.772,0.156c-0.416-0.156-0.468-1.04-0.104-1.301l1.403-0.155c2.236-0.261,2.444-0.572,2.444-4.16V106.503z
			"/>
		<path d="M491.808,118.932c0-2.393-0.052-2.705-2.392-3.121l-1.664-0.312c-0.364-0.26-0.364-0.988,0.052-1.3
			c2.08,0.104,4.368,0.156,5.876,0.156c1.456,0,3.172-0.053,4.42-0.156c0.416,0.26,0.469,0.988,0.156,1.3l-0.936,0.208
			c-1.353,0.312-1.561,0.624-1.561,2.86v1.456c0,1.248,0.104,2.027,0.832,2.392c0.208,0.156,0.208,0.624-0.052,0.729
			c-0.572,0-1.664,0.312-3.12,0.571c-1.404,0.261-3.225,0.625-5.2,0.625c-4.628,0-8.425-1.093-11.181-3.849
			c-2.184-2.185-3.225-5.2-3.225-7.904c0-2.912,1.041-5.876,3.276-8.164c2.393-2.444,5.929-4.108,11.493-4.108
			c2.859,0,5.408,0.729,6.968,1.04c0.052,1.04,0.156,3.12,0.468,5.876c-0.26,0.469-1.04,0.521-1.352,0.053
			c-1.353-4.108-3.588-5.461-7.385-5.461c-5.46,0-8.84,4.213-8.84,10.297c0,6.396,3.952,10.712,10.244,10.712
			c2.756,0,3.12-0.52,3.12-2.6V118.932z"/>
		<path d="M504.806,106.503c0-3.589-0.208-3.744-2.184-4.16l-0.729-0.156c-0.364-0.208-0.312-1.092,0.104-1.3
			c1.508,0.104,3.12,0.156,4.836,0.156h7.385c2.287,0,4.367-0.053,4.836-0.156c0.052,0.624,0.312,3.068,0.572,5.304
			c-0.209,0.416-1.041,0.468-1.353,0.104c-0.312-1.353-0.624-2.028-0.937-2.496c-0.832-1.248-3.172-1.248-4.42-1.248h-2.288
			c-1.819,0-1.872,0.052-1.872,1.664v5.771c0,0.937,0,1.041,0.988,1.041h2.444c2.756,0,3.016-0.416,3.432-1.977l0.261-0.988
			c0.26-0.363,1.039-0.312,1.3,0.104c-0.104,1.508-0.104,2.444-0.104,3.64c0,1.301,0,2.236,0.104,3.744
			c-0.261,0.416-1.04,0.469-1.3,0.104l-0.261-0.988c-0.416-1.56-0.676-1.976-3.432-1.976h-2.444c-0.988,0-0.988,0.155-0.988,1.195
			v3.744c0,1.561,0.104,3.172,0.572,3.744c0.468,0.521,1.404,0.729,4.368,0.729c3.328,0,5.252-0.156,6.761-4.316
			c0.363-0.364,1.195-0.26,1.352,0.208c-0.26,2.185-0.988,4.784-1.561,5.772c-3.275-0.104-6.031-0.156-8.84-0.156h-4.576
			c-1.664,0-3.276,0.052-5.772,0.156c-0.416-0.156-0.468-1.04-0.104-1.301l1.403-0.155c2.236-0.261,2.444-0.572,2.444-4.16V106.503z
			"/>
		<path d="M563.099,112.223c0,7.021-5.304,12.117-12.637,12.117c-8.06,0-12.845-5.253-12.845-11.805
			c0-6.916,5.305-12.221,12.845-12.221C558.834,100.314,563.099,105.879,563.099,112.223z M542.246,111.703
			c0,5.355,2.443,11.128,8.477,11.128c3.951,0,7.748-2.704,7.748-9.828c0-5.564-2.652-11.181-8.373-11.181
			C546.354,101.822,542.246,104.371,542.246,111.703z"/>
		<path d="M570.533,106.503c0-3.589-0.26-3.692-2.184-4.16l-0.624-0.156c-0.364-0.26-0.312-1.144,0.104-1.3
			c1.404,0.104,3.017,0.156,4.681,0.156h7.229c2.287,0,4.264-0.053,4.992-0.156c0.052,0.624,0.104,3.068,0.26,5.304
			c-0.208,0.521-1.04,0.572-1.353,0.104c-0.312-1.353-0.624-2.028-0.936-2.496c-0.884-1.301-3.173-1.248-4.421-1.248h-2.027
			c-1.612,0-1.769,0-1.769,1.82v6.031c0,0.937,0,1.041,0.988,1.041h2.808c2.757,0,3.017-0.416,3.433-1.977l0.26-0.988
			c0.261-0.363,1.04-0.312,1.3,0.104c-0.104,1.508-0.104,2.444-0.104,3.64c0,1.301,0,2.236,0.104,3.744
			c-0.26,0.416-1.039,0.469-1.3,0.104l-0.26-0.988c-0.416-1.56-0.676-1.976-3.433-1.976h-2.808c-0.988,0-0.988,0.155-0.988,1.195
			v3.849c0,3.588,0.208,3.952,2.444,4.16l1.612,0.155c0.364,0.261,0.312,1.145-0.104,1.301c-2.6-0.104-4.316-0.156-5.928-0.156
			c-1.664,0-3.276,0.052-5.305,0.156c-0.416-0.156-0.468-1.04-0.104-1.301l0.988-0.155c2.235-0.364,2.443-0.572,2.443-4.16V106.503z
			"/>
		<path d="M620.558,111.547c-0.364-1.145-0.572-1.3-2.132-1.3h-7.853c-1.3,0-1.612,0.155-1.977,1.248l-1.819,5.46
			c-0.78,2.34-1.145,3.744-1.145,4.316c0,0.624,0.26,0.936,1.508,1.04l1.717,0.155c0.363,0.261,0.363,1.093-0.104,1.301
			c-1.353-0.104-2.964-0.104-5.408-0.156c-1.716,0-3.588,0.104-4.992,0.156c-0.312-0.208-0.416-1.04-0.104-1.301l1.717-0.155
			c1.248-0.104,2.392-0.677,3.12-2.548c0.936-2.393,2.392-5.772,4.576-11.597l5.304-14.041c0.729-1.872,1.04-2.86,0.885-3.692
			c1.248-0.363,2.132-1.3,2.703-1.976c0.312,0,0.677,0.104,0.78,0.468c0.677,2.288,1.509,4.681,2.288,6.969l7.125,20.904
			c1.508,4.473,2.184,5.252,4.42,5.513l1.404,0.155c0.363,0.261,0.26,1.093-0.001,1.301c-2.132-0.104-3.952-0.156-6.292-0.156
			c-2.496,0-4.472,0.104-5.98,0.156c-0.416-0.208-0.468-1.04-0.104-1.301l1.508-0.155c1.092-0.104,1.82-0.416,1.82-0.937
			c0-0.572-0.26-1.508-0.676-2.756L620.558,111.547z M610.261,106.919c-0.416,1.196-0.364,1.248,1.093,1.248h6.396
			c1.509,0,1.612-0.208,1.145-1.612l-2.809-8.477c-0.416-1.248-0.884-2.652-1.196-3.275h-0.104c-0.156,0.26-0.676,1.508-1.248,3.067
			L610.261,106.919z"/>
		<path d="M637.248,107.127c0-3.381-0.052-4.265-1.248-4.42l-1.456-0.209c-0.416-0.052-0.52-1.144,0-1.3
			c2.86-0.208,5.772-0.312,8.633-0.312c4.836,0,10.088,0.779,10.088,6.24c0,3.328-2.6,4.836-4.628,5.564
			c-0.208,0.207-0.156,0.52,0,0.779c2.6,4.368,4.889,6.916,6.604,8.32c0.936,0.78,1.924,1.04,2.756,1.092
			c0.208,0.209,0.208,0.677,0,0.832c-0.468,0.156-1.196,0.261-2.185,0.261c-3.119,0-4.992-0.988-7.279-3.9
			c-1.301-1.664-2.705-3.952-3.797-5.616c-0.416-0.624-1.248-0.832-2.08-0.832c-1.352,0-1.456,0.104-1.456,0.832v3.692
			c0,3.588,0.208,3.848,2.444,4.16l1.196,0.155c0.364,0.261,0.312,1.145-0.104,1.301c-2.184-0.104-3.9-0.156-5.512-0.156
			c-1.664,0-3.276,0.052-5.097,0.156c-0.52-0.156-0.571-1.092-0.104-1.301l0.78-0.155c2.235-0.468,2.443-0.572,2.443-4.16V107.127z
			 M641.2,110.923c0,1.3,0.052,1.3,2.601,1.3c3.38,0,5.148-1.352,5.148-4.939c0-2.601-1.82-4.889-5.461-4.889
			c-1.924,0-2.288,0.104-2.288,1.456V110.923z"/>
		<path d="M665.797,103.902c0-1.352-0.053-1.352-1.093-1.352h-1.612c-3.172,0-4.523,0.312-5.771,3.9
			c-0.521,0.312-1.092,0.155-1.301-0.261c0.572-2.235,1.145-4.836,1.404-6.136c0.208-0.208,0.729-0.208,0.937,0
			c0.052,1.04,0.78,0.988,2.86,0.988h14.456c1.924,0,2.288-0.053,2.704-0.988c0.364-0.208,0.78-0.104,0.936,0.156
			c-0.416,1.352-0.623,4.107-0.52,6.084c-0.208,0.416-1.092,0.468-1.3,0.052c-0.364-3.38-1.716-3.796-4.837-3.796h-1.768
			c-0.988,0-1.145,0-1.145,1.352v14.249c0,3.588,0.209,3.899,2.444,4.16l1.404,0.155c0.364,0.261,0.312,1.145-0.104,1.301
			c-2.132-0.104-4.107-0.156-5.72-0.156c-1.664,0-3.536,0.052-5.72,0.156c-0.416-0.156-0.469-1.04-0.104-1.301l1.404-0.155
			c2.235-0.261,2.444-0.572,2.444-4.16V103.902z"/>
	</g>
	<g>
		<path d="M87.746,70.371v-6.097h-2.208v-0.815c0.288,0,0.568-0.022,0.84-0.066s0.518-0.126,0.738-0.246
			c0.22-0.12,0.406-0.283,0.558-0.492c0.152-0.207,0.256-0.472,0.312-0.791h0.78v8.508H87.746z"/>
		<path d="M101.173,62.062c-0.222-0.161-0.505-0.241-0.85-0.241c-0.14,0-0.277,0.014-0.413,0.042
			c-0.136,0.028-0.255,0.074-0.36,0.14s-0.189,0.152-0.252,0.262c-0.063,0.11-0.095,0.246-0.095,0.41
			c0,0.154,0.046,0.278,0.137,0.374s0.212,0.174,0.364,0.234c0.151,0.061,0.323,0.11,0.514,0.15s0.386,0.083,0.584,0.13
			s0.393,0.102,0.584,0.164c0.191,0.062,0.362,0.148,0.514,0.256c0.151,0.107,0.273,0.242,0.364,0.405s0.136,0.368,0.136,0.616
			c0,0.266-0.059,0.492-0.178,0.682s-0.272,0.343-0.458,0.461c-0.187,0.119-0.395,0.206-0.626,0.26
			c-0.231,0.053-0.46,0.08-0.689,0.08c-0.28,0-0.544-0.035-0.794-0.105c-0.25-0.069-0.469-0.176-0.658-0.318
			c-0.189-0.142-0.338-0.323-0.448-0.545c-0.11-0.222-0.165-0.484-0.165-0.787h0.63c0,0.21,0.041,0.391,0.122,0.542
			s0.189,0.276,0.322,0.374c0.133,0.098,0.288,0.171,0.465,0.217c0.177,0.047,0.359,0.07,0.546,0.07
			c0.149,0,0.299-0.014,0.451-0.042c0.151-0.028,0.288-0.075,0.409-0.144c0.121-0.067,0.219-0.159,0.294-0.275
			c0.075-0.117,0.112-0.267,0.112-0.448c0-0.173-0.045-0.312-0.136-0.42c-0.091-0.107-0.212-0.194-0.364-0.263
			c-0.152-0.067-0.323-0.122-0.514-0.164c-0.191-0.042-0.386-0.085-0.584-0.129c-0.198-0.045-0.393-0.096-0.584-0.154
			c-0.191-0.059-0.363-0.135-0.514-0.23c-0.152-0.096-0.273-0.22-0.364-0.371c-0.091-0.152-0.137-0.342-0.137-0.57
			c0-0.252,0.051-0.47,0.154-0.654c0.103-0.184,0.239-0.336,0.409-0.455c0.17-0.119,0.364-0.207,0.581-0.266
			s0.439-0.088,0.668-0.088c0.256,0,0.495,0.031,0.714,0.092s0.412,0.156,0.577,0.287s0.296,0.295,0.392,0.492
			c0.096,0.199,0.148,0.436,0.157,0.711h-0.629C101.523,62.482,101.394,62.223,101.173,62.062z"/>
		<path d="M106.731,61.939v-0.561h3.995v0.561h-1.665v4.436h-0.665v-4.436H106.731z"/>
		<path d="M125.11,62.763v-0.96h6.852v0.96h-2.856v7.608h-1.14v-7.608H125.11z"/>
		<path d="M141.059,61.803v8.568h-1.14v-8.568H141.059z"/>
		<path d="M151.521,61.803l2.7,7.199l2.712-7.199h1.561v8.568h-1.08v-7.129h-0.024l-2.676,7.129h-0.972l-2.676-7.129h-0.024v7.129
			h-1.08v-8.568H151.521z"/>
		<path d="M173.266,61.803v0.96h-4.775v2.724h4.452v0.961h-4.452v2.963h4.812v0.961h-5.952v-8.568H173.266z"/>
		<path d="M184.774,66.555v0.96h-3.469v-0.96H184.774z"/>
		<path d="M196.378,61.803c0.184,0,0.382,0.002,0.594,0.006s0.422,0.016,0.63,0.036s0.402,0.05,0.582,0.09
			c0.181,0.04,0.334,0.101,0.462,0.181c0.28,0.168,0.519,0.399,0.715,0.695c0.195,0.296,0.294,0.66,0.294,1.092
			c0,0.456-0.11,0.851-0.33,1.182c-0.221,0.332-0.534,0.578-0.942,0.738v0.024c0.528,0.112,0.932,0.353,1.212,0.72
			c0.28,0.368,0.42,0.816,0.42,1.344c0,0.312-0.056,0.617-0.168,0.912c-0.112,0.297-0.277,0.559-0.498,0.786
			c-0.22,0.228-0.491,0.412-0.815,0.552c-0.324,0.141-0.698,0.211-1.122,0.211h-4.141v-8.568H196.378z M196.69,65.486
			c0.647,0,1.113-0.113,1.397-0.342s0.426-0.57,0.426-1.025c0-0.305-0.048-0.545-0.144-0.721s-0.229-0.312-0.396-0.408
			s-0.361-0.158-0.582-0.186c-0.22-0.027-0.454-0.042-0.701-0.042h-2.28v2.724H196.69z M197.266,69.41
			c0.504,0,0.898-0.135,1.183-0.408c0.283-0.271,0.426-0.647,0.426-1.127c0-0.28-0.052-0.512-0.156-0.696
			c-0.104-0.185-0.242-0.33-0.414-0.438c-0.172-0.107-0.37-0.184-0.594-0.228s-0.456-0.065-0.696-0.065h-2.604v2.963H197.266z"/>
		<path d="M212.038,61.803l3.348,8.568h-1.26l-0.937-2.58h-3.624l-0.96,2.58h-1.164l3.336-8.568H212.038z M212.83,66.83
			l-1.429-3.996h-0.023l-1.452,3.996H212.83z"/>
		<path d="M227.476,62.973c-0.38-0.275-0.865-0.414-1.458-0.414c-0.239,0-0.476,0.023-0.708,0.072
			c-0.231,0.048-0.438,0.128-0.617,0.24c-0.181,0.111-0.324,0.262-0.433,0.449c-0.107,0.188-0.162,0.422-0.162,0.702
			c0,0.265,0.078,0.478,0.234,0.642s0.364,0.299,0.624,0.402c0.26,0.104,0.554,0.19,0.882,0.258
			c0.328,0.068,0.662,0.143,1.002,0.223s0.674,0.174,1.002,0.281c0.328,0.108,0.622,0.254,0.882,0.438s0.469,0.416,0.624,0.696
			c0.156,0.279,0.234,0.632,0.234,1.056c0,0.456-0.102,0.847-0.306,1.17c-0.204,0.324-0.467,0.588-0.786,0.792
			c-0.32,0.204-0.679,0.352-1.074,0.444c-0.396,0.092-0.79,0.138-1.182,0.138c-0.48,0-0.935-0.061-1.362-0.18
			c-0.428-0.12-0.804-0.303-1.128-0.547c-0.324-0.243-0.58-0.555-0.769-0.936c-0.188-0.38-0.281-0.83-0.281-1.35h1.08
			c0,0.359,0.069,0.67,0.21,0.93c0.14,0.26,0.323,0.475,0.552,0.643c0.228,0.168,0.494,0.291,0.798,0.371s0.616,0.121,0.936,0.121
			c0.257,0,0.515-0.024,0.774-0.072c0.26-0.049,0.494-0.131,0.702-0.246c0.208-0.116,0.376-0.274,0.504-0.475
			c0.128-0.199,0.192-0.455,0.192-0.768c0-0.296-0.078-0.536-0.234-0.721c-0.156-0.184-0.364-0.334-0.624-0.449
			c-0.26-0.116-0.554-0.21-0.882-0.282c-0.328-0.071-0.662-0.146-1.002-0.222s-0.674-0.164-1.002-0.264
			c-0.328-0.101-0.622-0.232-0.882-0.396c-0.261-0.164-0.469-0.376-0.624-0.637c-0.156-0.26-0.234-0.586-0.234-0.978
			c0-0.432,0.088-0.806,0.264-1.122s0.41-0.576,0.702-0.779c0.292-0.205,0.624-0.356,0.996-0.457c0.372-0.1,0.754-0.149,1.146-0.149
			c0.439,0,0.848,0.052,1.224,0.155c0.376,0.105,0.706,0.27,0.99,0.492c0.283,0.225,0.508,0.506,0.672,0.847
			c0.164,0.34,0.254,0.746,0.27,1.218h-1.08C228.078,63.695,227.855,63.248,227.476,62.973z"/>
		<path d="M243.837,61.803v0.96h-4.775v2.724h4.452v0.961h-4.452v2.963h4.812v0.961h-5.952v-8.568H243.837z"/>
		<path d="M255.153,61.803c1.32,0,2.336,0.336,3.048,1.008s1.068,1.696,1.068,3.072c0,0.72-0.08,1.357-0.24,1.914
			c-0.16,0.556-0.408,1.023-0.744,1.404c-0.336,0.379-0.764,0.67-1.284,0.869c-0.52,0.2-1.136,0.301-1.848,0.301h-2.94v-8.568
			H255.153z M255.249,69.41c0.128,0,0.288-0.01,0.48-0.029c0.191-0.02,0.396-0.068,0.612-0.145c0.216-0.076,0.43-0.186,0.642-0.33
			c0.212-0.144,0.402-0.34,0.57-0.588s0.306-0.558,0.414-0.93c0.107-0.372,0.161-0.822,0.161-1.35c0-0.512-0.05-0.971-0.149-1.375
			c-0.101-0.403-0.264-0.748-0.492-1.031c-0.228-0.284-0.521-0.5-0.882-0.648s-0.804-0.222-1.332-0.222h-1.92v6.647H255.249z"/>
		<path d="M279.501,61.803l2.7,7.199l2.712-7.199h1.561v8.568h-1.08v-7.129h-0.024l-2.676,7.129h-0.972l-2.676-7.129h-0.024v7.129
			h-1.08v-8.568H279.501z"/>
		<path d="M301.245,61.803v0.96h-4.775v2.724h4.452v0.961h-4.452v2.963h4.812v0.961h-5.952v-8.568H301.245z"/>
		<path d="M312.562,61.803c1.32,0,2.336,0.336,3.048,1.008s1.068,1.696,1.068,3.072c0,0.72-0.08,1.357-0.24,1.914
			c-0.16,0.556-0.408,1.023-0.744,1.404c-0.336,0.379-0.764,0.67-1.284,0.869c-0.52,0.2-1.136,0.301-1.848,0.301h-2.94v-8.568
			H312.562z M312.657,69.41c0.128,0,0.288-0.01,0.48-0.029c0.191-0.02,0.396-0.068,0.612-0.145c0.216-0.076,0.43-0.186,0.642-0.33
			c0.212-0.144,0.402-0.34,0.57-0.588s0.306-0.558,0.414-0.93c0.107-0.372,0.161-0.822,0.161-1.35c0-0.512-0.05-0.971-0.149-1.375
			c-0.101-0.403-0.264-0.748-0.492-1.031c-0.228-0.284-0.521-0.5-0.882-0.648s-0.804-0.222-1.332-0.222h-1.92v6.647H312.657z"/>
		<path d="M326.218,61.803v8.568h-1.14v-8.568H326.218z"/>
		<path d="M338.686,61.803l3.348,8.568h-1.26l-0.937-2.58h-3.624l-0.96,2.58h-1.164l3.336-8.568H338.686z M339.478,66.83
			l-1.429-3.996h-0.023l-1.452,3.996H339.478z"/>
		<path d="M396.981,69.74c-0.584,0.549-1.416,0.822-2.496,0.822c-1.104,0-1.967-0.262-2.586-0.786
			c-0.62-0.523-0.931-1.357-0.931-2.502v-5.472h1.141v5.472c0,0.769,0.204,1.351,0.611,1.746c0.408,0.396,0.996,0.595,1.765,0.595
			c0.728,0,1.281-0.199,1.662-0.595c0.38-0.396,0.569-0.978,0.569-1.746v-5.472h1.141v5.472
			C397.857,68.371,397.564,69.193,396.981,69.74z"/>
		<path d="M407.841,61.803l4.513,6.947h0.023v-6.947h1.08v8.568h-1.248l-4.476-6.877h-0.024v6.877h-1.08v-8.568H407.841z"/>
		<path d="M425.205,61.803c1.32,0,2.336,0.336,3.048,1.008s1.068,1.696,1.068,3.072c0,0.72-0.08,1.357-0.24,1.914
			c-0.16,0.556-0.408,1.023-0.744,1.404c-0.336,0.379-0.764,0.67-1.284,0.869c-0.52,0.2-1.136,0.301-1.848,0.301h-2.94v-8.568
			H425.205z M425.301,69.41c0.128,0,0.288-0.01,0.48-0.029c0.191-0.02,0.396-0.068,0.612-0.145c0.216-0.076,0.43-0.186,0.642-0.33
			c0.212-0.144,0.402-0.34,0.57-0.588s0.306-0.558,0.414-0.93c0.107-0.372,0.161-0.822,0.161-1.35c0-0.512-0.05-0.971-0.149-1.375
			c-0.101-0.403-0.264-0.748-0.492-1.031c-0.228-0.284-0.521-0.5-0.882-0.648s-0.804-0.222-1.332-0.222h-1.92v6.647H425.301z"/>
		<path d="M443.588,61.803v0.96h-4.775v2.724h4.452v0.961h-4.452v2.963h4.812v0.961h-5.952v-8.568H443.588z"/>
		<path d="M455.996,61.803c0.816,0,1.454,0.199,1.914,0.6s0.69,0.948,0.69,1.645c0,0.52-0.118,0.977-0.354,1.367
			c-0.235,0.393-0.614,0.66-1.134,0.805v0.023c0.248,0.049,0.45,0.129,0.606,0.24c0.155,0.112,0.279,0.246,0.371,0.402
			c0.093,0.156,0.16,0.33,0.204,0.521c0.044,0.192,0.078,0.393,0.103,0.601c0.016,0.208,0.027,0.42,0.036,0.636
			c0.008,0.216,0.027,0.428,0.06,0.637c0.032,0.207,0.078,0.405,0.138,0.594c0.061,0.188,0.15,0.354,0.271,0.498h-1.272
			c-0.08-0.088-0.134-0.209-0.161-0.36c-0.028-0.151-0.047-0.322-0.055-0.511c-0.008-0.188-0.016-0.389-0.023-0.605
			c-0.009-0.216-0.032-0.428-0.072-0.636c-0.032-0.208-0.072-0.406-0.12-0.595c-0.048-0.188-0.124-0.352-0.228-0.492
			c-0.104-0.139-0.24-0.252-0.408-0.336s-0.393-0.125-0.672-0.125h-2.784v3.66h-1.141v-8.568H455.996z M456.236,65.69
			c0.24-0.04,0.45-0.118,0.63-0.233c0.18-0.116,0.324-0.272,0.432-0.469c0.108-0.195,0.162-0.449,0.162-0.762
			c0-0.432-0.12-0.783-0.359-1.057c-0.24-0.271-0.628-0.407-1.164-0.407h-2.832v2.987h2.376
			C455.744,65.75,455.996,65.73,456.236,65.69z"/>
		<path d="M472.305,70.269c-0.496,0.196-0.996,0.294-1.5,0.294c-0.64,0-1.212-0.118-1.716-0.354
			c-0.504-0.236-0.932-0.555-1.284-0.955c-0.352-0.399-0.62-0.859-0.804-1.379c-0.185-0.521-0.276-1.061-0.276-1.621
			c0-0.623,0.086-1.217,0.259-1.781c0.172-0.564,0.428-1.059,0.768-1.482s0.764-0.762,1.272-1.014
			c0.508-0.252,1.102-0.378,1.781-0.378c0.464,0,0.902,0.054,1.314,0.162s0.78,0.278,1.104,0.51
			c0.324,0.232,0.597,0.526,0.816,0.882c0.22,0.356,0.37,0.786,0.45,1.29h-1.141c-0.056-0.327-0.16-0.61-0.312-0.846
			c-0.152-0.235-0.34-0.431-0.564-0.582c-0.224-0.151-0.478-0.267-0.762-0.343c-0.284-0.075-0.586-0.113-0.906-0.113
			c-0.52,0-0.966,0.104-1.338,0.312c-0.372,0.207-0.676,0.481-0.912,0.821c-0.235,0.341-0.41,0.729-0.521,1.164
			c-0.112,0.437-0.168,0.882-0.168,1.339c0,0.447,0.063,0.877,0.191,1.289s0.316,0.776,0.564,1.092
			c0.248,0.316,0.554,0.568,0.918,0.756c0.364,0.188,0.786,0.283,1.266,0.283c0.448,0,0.844-0.072,1.188-0.217
			c0.344-0.145,0.634-0.342,0.87-0.594c0.235-0.252,0.414-0.548,0.534-0.889c0.119-0.34,0.172-0.705,0.155-1.098h-2.735v-0.96h3.756
			v4.513h-0.721l-0.3-1.068C473.217,69.75,472.801,70.072,472.305,70.269z"/>
		<path d="M487.244,61.803c0.816,0,1.454,0.199,1.914,0.6s0.69,0.948,0.69,1.645c0,0.52-0.118,0.977-0.354,1.367
			c-0.235,0.393-0.614,0.66-1.134,0.805v0.023c0.248,0.049,0.45,0.129,0.606,0.24c0.155,0.112,0.279,0.246,0.371,0.402
			c0.093,0.156,0.16,0.33,0.204,0.521c0.044,0.192,0.078,0.393,0.103,0.601c0.016,0.208,0.027,0.42,0.036,0.636
			c0.008,0.216,0.027,0.428,0.06,0.637c0.032,0.207,0.078,0.405,0.138,0.594c0.061,0.188,0.15,0.354,0.271,0.498h-1.272
			c-0.08-0.088-0.134-0.209-0.161-0.36c-0.028-0.151-0.047-0.322-0.055-0.511c-0.008-0.188-0.016-0.389-0.023-0.605
			c-0.009-0.216-0.032-0.428-0.072-0.636c-0.032-0.208-0.072-0.406-0.12-0.595c-0.048-0.188-0.124-0.352-0.228-0.492
			c-0.104-0.139-0.24-0.252-0.408-0.336s-0.393-0.125-0.672-0.125h-2.784v3.66h-1.141v-8.568H487.244z M487.484,65.69
			c0.24-0.04,0.45-0.118,0.63-0.233c0.18-0.116,0.324-0.272,0.432-0.469c0.108-0.195,0.162-0.449,0.162-0.762
			c0-0.432-0.12-0.783-0.359-1.057c-0.24-0.271-0.628-0.407-1.164-0.407h-2.832v2.987h2.376
			C486.992,65.75,487.244,65.73,487.484,65.69z"/>
		<path d="M501.98,61.803l3.348,8.568h-1.26l-0.937-2.58h-3.624l-0.96,2.58h-1.164l3.336-8.568H501.98z M502.772,66.83l-1.429-3.996
			h-0.023l-1.452,3.996H502.772z"/>
		<path d="M516.068,61.803c1.32,0,2.336,0.336,3.048,1.008s1.068,1.696,1.068,3.072c0,0.72-0.08,1.357-0.24,1.914
			c-0.16,0.556-0.408,1.023-0.744,1.404c-0.336,0.379-0.764,0.67-1.284,0.869c-0.52,0.2-1.136,0.301-1.848,0.301h-2.94v-8.568
			H516.068z M516.164,69.41c0.128,0,0.288-0.01,0.48-0.029c0.191-0.02,0.396-0.068,0.612-0.145c0.216-0.076,0.43-0.186,0.642-0.33
			c0.212-0.144,0.402-0.34,0.57-0.588s0.306-0.558,0.414-0.93c0.107-0.372,0.161-0.822,0.161-1.35c0-0.512-0.05-0.971-0.149-1.375
			c-0.101-0.403-0.264-0.748-0.492-1.031c-0.228-0.284-0.521-0.5-0.882-0.648s-0.804-0.222-1.332-0.222h-1.92v6.647H516.164z"/>
		<path d="M534.501,69.74c-0.584,0.549-1.416,0.822-2.496,0.822c-1.104,0-1.967-0.262-2.586-0.786
			c-0.62-0.523-0.931-1.357-0.931-2.502v-5.472h1.141v5.472c0,0.769,0.204,1.351,0.611,1.746c0.408,0.396,0.996,0.595,1.765,0.595
			c0.728,0,1.281-0.199,1.662-0.595c0.38-0.396,0.569-0.978,0.569-1.746v-5.472h1.141v5.472
			C535.377,68.371,535.084,69.193,534.501,69.74z"/>
		<path d="M547.748,61.803l3.348,8.568h-1.26l-0.937-2.58h-3.624l-0.96,2.58h-1.164l3.336-8.568H547.748z M548.54,66.83
			l-1.429-3.996h-0.023l-1.452,3.996H548.54z"/>
		<path d="M556.881,62.763v-0.96h6.852v0.96h-2.856v7.608h-1.14v-7.608H556.881z"/>
		<path d="M577.556,61.803v0.96h-4.775v2.724h4.452v0.961h-4.452v2.963h4.812v0.961h-5.952v-8.568H577.556z"/>
		<path d="M601.406,63.015c-0.437-0.304-0.954-0.456-1.555-0.456c-0.512,0-0.949,0.096-1.313,0.288s-0.664,0.45-0.9,0.774
			c-0.235,0.324-0.41,0.693-0.521,1.109c-0.112,0.416-0.168,0.848-0.168,1.296c0,0.488,0.056,0.95,0.168,1.386
			c0.111,0.437,0.286,0.816,0.521,1.141c0.236,0.324,0.538,0.582,0.906,0.773c0.368,0.192,0.808,0.289,1.32,0.289
			c0.376,0,0.71-0.062,1.002-0.187s0.544-0.296,0.756-0.517c0.212-0.219,0.378-0.481,0.498-0.785
			c0.12-0.305,0.191-0.633,0.216-0.984h1.14c-0.111,1.08-0.483,1.92-1.115,2.52c-0.633,0.601-1.496,0.9-2.593,0.9
			c-0.664,0-1.243-0.113-1.739-0.342s-0.908-0.542-1.236-0.941c-0.328-0.4-0.574-0.873-0.738-1.416
			c-0.164-0.545-0.246-1.129-0.246-1.752c0-0.625,0.088-1.211,0.265-1.759c0.176-0.548,0.434-1.026,0.773-1.435
			c0.34-0.407,0.765-0.729,1.272-0.965c0.508-0.236,1.09-0.354,1.746-0.354c0.447,0,0.872,0.06,1.271,0.181
			c0.4,0.119,0.756,0.295,1.068,0.527c0.312,0.232,0.571,0.521,0.78,0.87c0.208,0.348,0.344,0.75,0.407,1.206h-1.14
			C602.124,63.775,601.842,63.318,601.406,63.015z"/>
		<path d="M611.63,64.4c0.172-0.539,0.43-1.018,0.774-1.434c0.344-0.416,0.771-0.748,1.284-0.996
			c0.512-0.248,1.107-0.372,1.787-0.372c0.681,0,1.276,0.124,1.788,0.372c0.513,0.248,0.94,0.58,1.284,0.996
			s0.602,0.895,0.774,1.434c0.172,0.54,0.258,1.103,0.258,1.686c0,0.585-0.086,1.146-0.258,1.687
			c-0.173,0.54-0.431,1.019-0.774,1.435s-0.771,0.746-1.284,0.99c-0.512,0.243-1.107,0.365-1.788,0.365
			c-0.68,0-1.275-0.122-1.787-0.365c-0.513-0.244-0.94-0.574-1.284-0.99c-0.345-0.416-0.603-0.895-0.774-1.435
			s-0.258-1.102-0.258-1.687C611.372,65.503,611.458,64.94,611.63,64.4z M612.68,67.365c0.112,0.42,0.288,0.797,0.528,1.133
			s0.548,0.606,0.924,0.811s0.824,0.307,1.344,0.307c0.521,0,0.969-0.103,1.345-0.307s0.684-0.475,0.924-0.811
			s0.416-0.713,0.528-1.133c0.111-0.42,0.168-0.847,0.168-1.279c0-0.432-0.057-0.857-0.168-1.277
			c-0.112-0.42-0.288-0.798-0.528-1.134c-0.24-0.337-0.548-0.606-0.924-0.81c-0.376-0.205-0.824-0.307-1.345-0.307
			c-0.52,0-0.968,0.102-1.344,0.307c-0.376,0.203-0.684,0.473-0.924,0.81c-0.24,0.336-0.416,0.714-0.528,1.134
			c-0.111,0.42-0.168,0.846-0.168,1.277C612.512,66.519,612.568,66.945,612.68,67.365z"/>
		<path d="M633.896,69.74c-0.584,0.549-1.416,0.822-2.496,0.822c-1.104,0-1.967-0.262-2.586-0.786
			c-0.62-0.523-0.931-1.357-0.931-2.502v-5.472h1.141v5.472c0,0.769,0.204,1.351,0.611,1.746c0.408,0.396,0.996,0.595,1.765,0.595
			c0.728,0,1.281-0.199,1.662-0.595c0.38-0.396,0.569-0.978,0.569-1.746v-5.472h1.141v5.472
			C634.772,68.371,634.479,69.193,633.896,69.74z"/>
		<path d="M647.587,61.803c0.816,0,1.454,0.199,1.914,0.6s0.69,0.948,0.69,1.645c0,0.52-0.118,0.977-0.354,1.367
			c-0.235,0.393-0.614,0.66-1.134,0.805v0.023c0.248,0.049,0.45,0.129,0.606,0.24c0.155,0.112,0.279,0.246,0.371,0.402
			c0.093,0.156,0.16,0.33,0.204,0.521c0.044,0.192,0.078,0.393,0.103,0.601c0.016,0.208,0.027,0.42,0.036,0.636
			c0.008,0.216,0.027,0.428,0.06,0.637c0.032,0.207,0.078,0.405,0.138,0.594c0.061,0.188,0.15,0.354,0.271,0.498h-1.272
			c-0.08-0.088-0.134-0.209-0.161-0.36c-0.028-0.151-0.047-0.322-0.055-0.511c-0.008-0.188-0.016-0.389-0.023-0.605
			c-0.009-0.216-0.032-0.428-0.072-0.636c-0.032-0.208-0.072-0.406-0.12-0.595c-0.048-0.188-0.124-0.352-0.228-0.492
			c-0.104-0.139-0.24-0.252-0.408-0.336s-0.393-0.125-0.672-0.125h-2.784v3.66h-1.141v-8.568H647.587z M647.827,65.69
			c0.24-0.04,0.45-0.118,0.63-0.233c0.18-0.116,0.324-0.272,0.432-0.469c0.108-0.195,0.162-0.449,0.162-0.762
			c0-0.432-0.12-0.783-0.359-1.057c-0.24-0.271-0.628-0.407-1.164-0.407h-2.832v2.987h2.376
			C647.335,65.75,647.587,65.73,647.827,65.69z"/>
		<path d="M663.025,62.973c-0.38-0.275-0.865-0.414-1.458-0.414c-0.239,0-0.476,0.023-0.708,0.072
			c-0.231,0.048-0.438,0.128-0.617,0.24c-0.181,0.111-0.324,0.262-0.433,0.449c-0.107,0.188-0.162,0.422-0.162,0.702
			c0,0.265,0.078,0.478,0.234,0.642s0.364,0.299,0.624,0.402c0.26,0.104,0.554,0.19,0.882,0.258
			c0.328,0.068,0.662,0.143,1.002,0.223s0.674,0.174,1.002,0.281c0.328,0.108,0.622,0.254,0.882,0.438s0.469,0.416,0.624,0.696
			c0.156,0.279,0.234,0.632,0.234,1.056c0,0.456-0.102,0.847-0.306,1.17c-0.204,0.324-0.467,0.588-0.786,0.792
			c-0.32,0.204-0.679,0.352-1.074,0.444c-0.396,0.092-0.79,0.138-1.182,0.138c-0.48,0-0.935-0.061-1.362-0.18
			c-0.428-0.12-0.804-0.303-1.128-0.547c-0.324-0.243-0.58-0.555-0.769-0.936c-0.188-0.38-0.281-0.83-0.281-1.35h1.08
			c0,0.359,0.069,0.67,0.21,0.93c0.14,0.26,0.323,0.475,0.552,0.643c0.228,0.168,0.494,0.291,0.798,0.371s0.616,0.121,0.936,0.121
			c0.257,0,0.515-0.024,0.774-0.072c0.26-0.049,0.494-0.131,0.702-0.246c0.208-0.116,0.376-0.274,0.504-0.475
			c0.128-0.199,0.192-0.455,0.192-0.768c0-0.296-0.078-0.536-0.234-0.721c-0.156-0.184-0.364-0.334-0.624-0.449
			c-0.26-0.116-0.554-0.21-0.882-0.282c-0.328-0.071-0.662-0.146-1.002-0.222s-0.674-0.164-1.002-0.264
			c-0.328-0.101-0.622-0.232-0.882-0.396c-0.261-0.164-0.469-0.376-0.624-0.637c-0.156-0.26-0.234-0.586-0.234-0.978
			c0-0.432,0.088-0.806,0.264-1.122s0.41-0.576,0.702-0.779c0.292-0.205,0.624-0.356,0.996-0.457c0.372-0.1,0.754-0.149,1.146-0.149
			c0.439,0,0.848,0.052,1.224,0.155c0.376,0.105,0.706,0.27,0.99,0.492c0.283,0.225,0.508,0.506,0.672,0.847
			c0.164,0.34,0.254,0.746,0.27,1.218h-1.08C663.628,63.695,663.405,63.248,663.025,62.973z"/>
		<path d="M679.387,61.803v0.96h-4.775v2.724h4.452v0.961h-4.452v2.963h4.812v0.961h-5.952v-8.568H679.387z"/>
	</g>
	<g>
		<path d="M372.119,46.634v2.279c1.336,1.223,2.271,2.413,2.806,3.571c0.053,0.436,0.08,0.755,0.08,0.956
			c0,0.585-0.106,1.212-0.319,1.882l0.255,0.59l0.032,0.555c0,1.586-0.574,2.378-1.722,2.378c-0.054,0-0.139-0.003-0.255-0.009
			c-0.085,0.599-0.273,1.047-0.566,1.346s-0.693,0.448-1.204,0.448c-0.223,0-0.483-0.058-0.781-0.175
			c-0.127,0.468-0.329,0.818-0.604,1.052c-0.275,0.234-0.62,0.351-1.034,0.351c-0.307,0-0.575-0.065-0.803-0.199
			c-0.228-0.133-0.421-0.332-0.58-0.598l-0.136,0.574l-0.063,5.738c0,1.233-0.144,2.16-0.431,2.782
			c-0.287,0.622-0.712,0.933-1.275,0.933c-0.659,0-1.121-0.297-1.387-0.89c-0.266-0.594-0.398-1.638-0.398-3.131l-0.144-6.501
			l-0.606-0.653l-0.398-4.4c0.584-2.019,1.27-3.814,2.057-5.388v-3.411c1.198-0.563,2.481-0.846,3.85-0.846
			C369.701,45.868,370.909,46.124,372.119,46.634z M371.29,47.176c-0.986-0.329-1.95-0.494-2.894-0.494
			c-0.996,0-1.987,0.186-2.973,0.558v2.901c-1.084,2.7-1.759,4.507-2.024,5.42l0.351,4.048l2.296,2.473
			c0.415-0.466,0.622-0.995,0.622-1.588c0-0.911-0.473-1.816-1.419-2.717c0.553-0.967,0.829-1.971,0.829-3.013l-0.016-0.271
			l0.781,0.031l0.032,0.367c0,0.956-0.229,1.865-0.685,2.726c0.488,0.632,0.834,1.215,1.036,1.75l0.016-1.447
			c-0.159-0.286-0.276-0.568-0.351-0.845s-0.111-0.547-0.111-0.812c0-1.223,0.707-2.194,2.12-2.918l0.478,1.116
			c0.222-0.701,0.828-1.345,1.82-1.929l0.444,0.988c0.494-0.595,1.057-1.025,1.69-1.291l0.845,1.992
			c0.074-0.542,0.112-0.893,0.112-1.052c0-0.106-0.021-0.292-0.064-0.559c-0.727-1.232-1.705-2.327-2.933-3.283V47.176z
			 M364.371,61.363l0.144,5.835c0,2.072,0.34,3.108,1.02,3.108c0.297,0,0.523-0.321,0.678-0.964
			c0.154-0.644,0.231-1.607,0.231-2.894l0.016-3.619c-0.096,0.106-0.229,0.234-0.399,0.383L364.371,61.363z M368.58,54.445
			c-0.68,0.403-1.021,1.01-1.021,1.817c0,0.233,0.041,0.47,0.124,0.709s0.206,0.481,0.371,0.726v2.047
			c0,0.434,0.061,0.759,0.184,0.976c0.122,0.217,0.305,0.325,0.55,0.325c0.34,0,0.598-0.159,0.773-0.477
			c0.175-0.317,0.263-0.788,0.263-1.412l-0.016-1.683L368.58,54.445z M370.869,53.696c-0.56,0.372-0.898,0.993-1.014,1.864
			l0.733,1.658l-0.016,2.341c0.255,0.161,0.478,0.242,0.669,0.242c0.329,0,0.579-0.131,0.749-0.393s0.255-0.654,0.255-1.179
			l-0.037-1.442L370.869,53.696z M372.947,53.345c-0.313,0.234-0.617,0.58-0.909,1.036l0.957,2.137v1.546
			c0.797,0,1.196-0.494,1.196-1.482l-0.016-0.621L372.947,53.345z"/>
	</g>
</g>
</svg>
