<?xml version="1.0" encoding="utf-8"?>
<!-- Generator: Adobe Illustrator 19.2.1, SVG Export Plug-In . SVG Version: 6.00 Build 0)  -->
<svg version="1.1" id="Layer_1" xmlns="http://www.w3.org/2000/svg" xmlns:xlink="http://www.w3.org/1999/xlink" x="0px" y="0px"
	 viewBox="0 0 324 90" style="enable-background:new 0 0 324 90;" xml:space="preserve">
<style type="text/css">
	.st0{fill:none;}
	.st1{fill:#E27D3C;}
	.st2{display:none;}
	.st3{display:inline;fill:none;}
	.st4{display:inline;}
</style>
<g>
	<rect x="7.5" y="9.9" class="st0" width="358" height="116"/>
	<path d="M25.1,12c0,0.3-0.1,0.6-0.2,0.8c-0.1,0-0.2,0-0.2,0c-0.2,0-0.5,0-0.9,0c-0.3,0-0.5,0-0.7,0c-0.1,0-0.2,0-0.2,0
		c-0.1-0.1-0.6-0.2-1.4-0.2l-1.7,0.1h-0.1c-0.1,0-0.1,0-0.2,0.1c-0.2,0.6-0.3,1.4-0.3,2.4s-0.1,1.8-0.1,2.4l0.1,1.2l-0.1,0.7
		c0,0.2-0.1,0.5-0.1,0.7c0,0.2,0,0.5,0,0.8l0.1,2.2c0,0.3,0,0.4-0.1,0.4c0.1,0,0.1,0.2,0.2,0.6s0.1,0.7,0.2,0.9
		c0.1,0.2,0.1,0.3,0.1,0.4c0,0.1-0.2,0.2-0.5,0.3c0,0,0,0.1,0,0.1c0,0.1,0,0.1-0.1,0.1s-0.1,0-0.1-0.1c-0.1,0.1-0.3,0.2-0.4,0.2
		c0-0.1-0.1-0.2-0.3-0.2c-0.1,0-0.2,0-0.3,0c-0.1,0-0.2,0-0.3,0h-0.1c0.1-0.1,0.2-0.3,0.2-0.8c0-0.2,0-0.4,0-0.5c0,0,0,0,0-0.1
		c0.2-0.6,0.3-1.9,0.3-3.8L18,16c0-1.5-0.1-2.4-0.2-2.8c0,0,0-0.1,0-0.1c0-0.1,0-0.1,0-0.2c0,0-0.1-0.1-0.2-0.1L17,12.7
		c-0.3,0-0.5,0-0.6,0c-0.5,0-0.9,0.1-1,0.3c-0.1-0.1-0.2-0.1-0.3-0.1c-0.1,0-0.2,0-0.3,0.1C14.6,13,14.4,13,14.2,13
		c-0.3,0-0.5-0.1-0.7-0.2c0,0,0-0.1,0-0.2c0-0.1,0-0.2,0.1-0.4c0.1-0.2,0.1-0.3,0.1-0.4v0c0.1-0.1,0.2-0.1,0.4-0.1
		c0.1,0,0.4,0,0.8,0.1s1,0.1,1.5,0.1h1.5c0.4,0,0.7,0,1-0.1l0.1-0.1c0.1,0,0.1,0.1,0.1,0.1l0.2,0c0.1,0,0.2,0.1,0.3,0.2
		c0.1,0.1,0.2,0.2,0.3,0.2c0.1,0,0.2,0,0.5-0.1c0.2,0,0.5-0.1,0.7-0.1l1.7,0l0.3,0H23c0.1,0,0.3,0,0.6-0.1c0.3,0,0.5-0.1,0.7-0.1
		C24.8,11.8,25.1,11.9,25.1,12z"/>
	<path d="M26.2,8.5c0.1,0,0.2-0.1,0.3-0.1c0.1,0,0.2,0,0.4-0.1l0.4-0.1c0.3,0,0.4,0.2,0.4,0.6c0,0.1,0,0.3,0,0.5
		c-0.1,0.4-0.1,0.8-0.1,1.4l0,1.5l0,2.3c0,1.4,0,2.2,0.1,2.5s0.2,0.4,0.4,0.4c0.1,0,0.3-0.1,0.6-0.2c0.3-0.2,0.5-0.3,0.7-0.4
		c0.2-0.1,0.4-0.2,0.6-0.3c0.2-0.1,0.5-0.1,0.7-0.2l0.6-0.1c0.2,0,0.3,0,0.5,0h0.2c0.5,0.1,1,0.3,1.3,0.7s0.5,0.7,0.6,1.2
		c0.1,0.5,0.1,1.3,0.1,2.5c0,0.9-0.1,1.8-0.3,2.7c-0.2,0.9-0.3,1.5-0.3,1.5V25c0,0.1,0,0.2,0.1,0.4c0.1,0.2,0.1,0.3,0.1,0.3
		c-0.2,0.3-0.4,0.5-0.7,0.5h-0.2c-0.1,0-0.1,0-0.2,0c-0.1,0-0.1,0-0.2,0c0,0-0.1,0-0.3-0.1c-0.2-0.1-0.3-0.2-0.3-0.3
		c0,0,0-0.1,0.1-0.3c0.3-0.6,0.6-1.4,0.8-2.4c0.2-1,0.4-2,0.4-2.9v-0.7c0-0.7-0.2-1.3-0.5-1.7c-0.4-0.4-0.8-0.6-1.4-0.6
		c-0.3,0-0.7,0.1-1.2,0.3s-0.8,0.3-0.9,0.5c-0.1,0-0.2,0-0.3,0.1c-0.1,0.1-0.2,0.1-0.3,0.1c0,0-0.1,0.1-0.1,0.2c0,0.1,0,0.2-0.1,0.2
		c-0.1,0-0.1,0-0.2,0c0,0-0.1,0-0.2,0.1c0,0.1,0,0.2,0,0.3c0,0.1-0.1,0.6-0.1,1.4c0,0.8-0.1,1.4-0.1,1.8c0,0.4,0,0.8,0.1,1.3
		l0.1,0.5v0c0,0.1,0,0.2,0.1,0.4c0.1,0.2,0.1,0.3,0.1,0.4c0,0,0,0.1-0.1,0.2c0,0.1-0.1,0.2-0.1,0.2v0h0c0.1,0,0.2,0.1,0.2,0.3
		c0,0,0,0-0.1,0.1c-0.2,0-0.3,0.1-0.5,0.2S27,25.8,27,25.8c-0.2,0-0.3-0.1-0.3-0.2c-0.3,0-0.6-0.1-0.7-0.1s-0.2-0.2-0.2-0.3
		c0-0.1,0-0.1,0-0.2c0,0,0-0.1,0-0.1s0,0,0-0.1c0,0,0-0.1,0-0.1c0,0,0-0.1,0.1-0.2c0.4-0.7,0.6-1.6,0.6-2.6l-0.1-2
		c0-0.3,0-0.5,0-0.7c-0.3-0.1-0.4-0.3-0.4-0.6c0-0.3,0.2-0.7,0.5-1.1c0-0.7,0-1.8,0-3.1c0-3.4-0.2-5.1-0.5-5.1
		c0-0.1-0.1-0.2-0.1-0.3C25.9,8.7,26,8.5,26.2,8.5z"/>
	<path d="M44.3,19.3c0.1,0.1,0.1,0.1,0.1,0.2c0,0.2-0.1,0.3-0.2,0.4c0,0,0,0,0,0.1c0,0.1-0.1,0.2-0.4,0.2h-0.1c0,0-0.1,0-0.1,0.1
		s-0.1,0.1-0.1,0.1c0,0,0,0-0.1-0.1s-0.1-0.1-0.3-0.1L43,20.1c-0.2,0-0.3,0.1-0.4,0.1c-0.1,0-0.3,0-0.5,0c-0.2,0-0.3,0-0.4,0
		c-0.1,0-0.2,0-0.5,0.1c-0.2,0-0.5,0.1-0.6,0.1l-1,0c-0.5,0-1,0-1.5,0.1c-0.1,0-0.2,0.1-0.3,0.1c-0.1,0-0.2,0.1-0.2,0.2
		c0,0.1-0.1,0.2-0.2,0.2c-0.1,0.3-0.1,0.5-0.1,0.8c0,0.2,0.1,0.5,0.2,1c0.1,0.5,0.2,0.9,0.4,1.1c0,0,0.3,0.3,0.9,0.7
		c0.3,0.3,0.7,0.5,1.1,0.6c0.4,0.1,0.9,0.2,1.4,0.2c0.2,0,0.5,0,0.8-0.1l0.4-0.1h0.7c0.1,0,0.2-0.1,0.4-0.2s0.4-0.2,0.6-0.2
		c0.1,0.2,0.1,0.4,0.1,0.5c0,0.3-0.1,0.6-0.3,0.8c-0.2,0.2-0.4,0.4-0.7,0.4l-0.2,0l-0.6,0h-0.6c-0.3,0-0.9-0.1-1.9-0.3
		c-1-0.2-1.8-0.5-2.3-0.9c-0.5-0.4-0.8-0.8-1.1-1.4c-0.2-0.6-0.3-1.1-0.3-1.6c0-0.7,0.1-1.4,0.4-2.2c0.3-0.7,0.6-1.3,0.9-1.7
		c0.3-0.4,0.9-0.8,1.6-1.3c0.1,0,0.2-0.1,0.3-0.2c0.1-0.1,0.3-0.2,0.4-0.2l0.3,0c0.1-0.1,0.4-0.2,0.8-0.2c0.4-0.1,0.7-0.1,0.9-0.1
		c0.4,0,0.9,0.2,1.4,0.5c0.5,0.3,0.8,1,0.9,1.9c0,0.2,0,0.3,0.1,0.4c0,0.1,0.1,0.2,0.1,0.2C44.3,19.2,44.3,19.2,44.3,19.3z M40.1,17
		c0,0.1-0.2,0.2-0.6,0.3c-0.2,0.1-0.3,0.3-0.5,0.4c-0.2,0.2-0.3,0.3-0.5,0.5c-0.2,0.2-0.3,0.3-0.4,0.5C38,18.9,38,19,37.9,19.1
		c-0.1,0.1-0.1,0.1-0.1,0.2c0,0.1,0,0.1,0.1,0.2l0.1,0.1h0.8l3.6-0.1c0.5,0,0.7-0.2,0.7-0.6c0-0.4-0.1-0.8-0.3-1.1
		c-0.2-0.3-0.6-0.6-1.3-0.8c-0.1,0-0.2,0-0.3,0s-0.3,0-0.3,0C40.8,16.9,40.5,16.9,40.1,17z"/>
	<path d="M65.9,11.1c0.1,0.2,0.2,0.3,0.2,0.4l0,0.4c0,0.7,0.1,1.7,0.2,3s0.3,2.7,0.5,4.1c0.2,1.4,0.4,2.6,0.6,3.7
		c0.2,1.1,0.3,1.8,0.3,2c0,0.2,0.1,0.3,0.2,0.5c0.1,0.2,0.2,0.4,0.2,0.4c0,0.1-0.1,0.2-0.4,0.2h-0.1l-0.2,0.3
		c-0.2,0-0.3,0.1-0.6,0.1c-0.2,0-0.4,0.1-0.4,0.1c0,0,0,0-0.1-0.1c0-0.1,0-0.2-0.1-0.4c0-0.2,0-0.4-0.1-0.6l-0.1-1.9
		c0-0.8,0-1.3-0.1-1.5c-0.1-0.8-0.2-1.6-0.3-2.5l-0.2-2c-0.1-1.2-0.2-2-0.3-2.5c-0.1-0.5-0.2-0.7-0.4-0.8c-2.6,5.1-3.9,7.7-3.9,7.9
		c0,0,0,0.1,0,0.3c-0.1,0.1-0.1,0.2-0.2,0.3c0.1,0.1,0.1,0.2,0.1,0.2c-0.4,0.4-0.7,0.8-0.7,1.1C60,24,59.9,24,59.8,24
		c0,0-0.2-0.1-0.4-0.3c-0.2-0.2-0.4-0.5-0.5-0.9c0,0-0.1-0.1-0.1-0.1s-0.1-0.1-0.1-0.2c0-0.1-0.1-0.1-0.1-0.2L58.5,22
		c0-0.1,0-0.2-0.1-0.3L58,20.6l-1-2.3c-0.7-1.7-1.3-3-1.7-3.8c-0.1,0-0.1,0.1-0.2,0.2c0,0.1-0.1,0.3-0.2,0.6
		c-0.2,0.9-0.4,1.9-0.6,3.1l-0.5,2.5c-0.2,0.9-0.3,1.8-0.3,2.6c0,0.1,0,0.2-0.1,0.4c-0.1,0.2-0.1,0.3-0.1,0.4c0,0,0,0.1,0,0.2
		s0,0.3,0,0.4c0,0.5-0.1,0.8-0.3,1c-0.1,0-0.3,0.1-0.4,0.2s-0.2,0.2-0.3,0.2h0c-0.1,0-0.2-0.1-0.4-0.2c-0.1-0.1-0.2-0.2-0.3-0.3
		c0.5-0.6,1.1-2.8,1.7-6.8c0.1-0.6,0.3-1.4,0.6-2.6s0.4-2,0.4-2.5l0-0.9c0-0.5,0.1-0.9,0.2-1.1c0.1-0.3,0.3-0.4,0.6-0.4
		c0.3,0,0.6,0.3,0.7,1c0.2,0.1,0.3,0.2,0.3,0.3c0,0.1,0,0.4,0.1,0.7c0.1,0.3,0.3,0.9,0.7,1.8l0.6,1.2v0.4c0.1,0.4,0.4,1.1,0.9,2.1
		c0.5,1.1,0.8,1.7,1,2c0.2,0.3,0.4,0.4,0.5,0.4c0.4,0,0.9-0.7,1.5-2.2c0.1-0.3,0.4-0.8,0.8-1.7c0.4-0.9,0.7-1.6,0.9-2.2
		c0.2-0.6,0.5-1.1,0.7-1.5c0.1-0.2,0.3-0.5,0.4-1.1s0.4-1,0.6-1.2c0.2-0.2,0.4-0.4,0.7-0.4C65.7,11.1,65.8,11.1,65.9,11.1z"/>
	<path d="M77,20.3c0,0.1,0,0.1-0.1,0.2c-0.1,0.1-0.2,0.2-0.2,0.3c0,0.1-0.1,0.3-0.1,0.6c0,0.3,0,0.8,0,1.4l0,1.4
		c0,0.1,0,0.1-0.1,0.2c0,0.1,0,0.2,0,0.4c0,0.3,0,0.6,0.1,1l0.1,0.5l0,0.5l0,0.4c-0.5,0.5-0.9,0.7-1.1,0.7c0,0-0.1,0-0.2-0.1
		s-0.2-0.1-0.3-0.1h-0.1C75,27.6,75,27.4,75,27.3c0-0.3,0.1-0.7,0.2-1c0.1-0.1,0.1-0.2,0.2-0.2c0-0.1,0.1-0.3,0.1-0.6
		c0-0.4,0-0.6-0.1-0.6c0,0-0.1,0-0.1,0c-0.1,0-0.1,0-0.2,0h-0.1c-0.1,0.1-0.1,0.1-0.2,0.2c-0.1,0-0.5,0.1-1.3,0.5
		c-0.4,0.1-0.8,0.2-1.1,0.2c-0.4,0-0.8-0.1-1.1-0.2c-0.3-0.1-0.6-0.3-0.8-0.5c-0.2-0.2-0.4-0.4-0.4-0.5c-0.1-0.1-0.1-0.3-0.1-0.7
		l0-0.3v-0.1c0-0.7,0.5-1.4,1.6-2.2c1.1-0.8,2.1-1.2,3-1.4c0.2,0,0.4-0.1,0.6-0.1c0.1,0,0.3-0.1,0.3-0.2s0.1-0.3,0.1-0.7
		c0-1.2-0.6-2-1.9-2.5c0,0-0.1,0-0.2-0.1s-0.1-0.1-0.2-0.1c-0.7,0-1.2,0-1.7,0.1c-0.2,0.3-0.5,0.4-0.8,0.4c-0.2,0-0.3-0.1-0.3-0.2
		c0,0,0-0.2,0.1-0.4c0.1-0.3,0.3-0.4,0.7-0.4c0.4-0.2,1.2-0.3,2.4-0.3c0.9,0,1.6,0.4,2.1,1.1c0.5,0.7,0.8,1.7,0.8,3v0.1
		c0.1,0.1,0.2,0.2,0.3,0.2S77,20.2,77,20.3L77,20.3z M74.9,23.9c0.4-0.6,0.6-1.1,0.6-1.6c0-0.3-0.1-0.6-0.2-0.9S75,21,74.5,21
		c-0.8,0-1.5,0.2-2,0.6h-0.3c-1.1,0.6-1.6,1.2-1.6,1.8c0,0.5,0.2,0.8,0.7,1.2c0.4,0.3,0.9,0.5,1.5,0.5c0.2,0,0.4-0.1,0.9-0.2
		s0.8-0.4,1.2-0.7V23.9z"/>
	<path d="M82.1,25.2c-0.1,0.2-0.1,0.3-0.2,0.4s-0.2,0.1-0.3,0.1c-0.1,0.1-0.2,0.1-0.2,0.1c-0.1,0-0.1,0-0.2-0.1
		c-0.1,0.1-0.2,0.2-0.3,0.2c-0.5-0.2-0.8-0.3-0.8-0.6v0c0.1,0,0.2-0.1,0.2-0.3v-0.2l0-0.3c0,0,0-0.2,0.1-0.5
		c0.1-0.7,0.2-1.7,0.2-2.9V19l0-0.8l0-0.7l-0.1-2.4l0.1-1.6l-0.1-2.1V11c-0.1-0.2-0.1-0.5-0.1-0.7l0-0.4c0,0,0-0.1-0.1-0.2
		c0-0.4,0.1-0.7,0.2-0.9c0.1-0.2,0.3-0.4,0.4-0.5c0.2-0.1,0.3-0.2,0.5-0.2c0.3,0,0.5,0.3,0.8,0.9c-0.2,0.2-0.3,0.4-0.4,0.6
		c-0.1,0.2-0.1,0.5-0.1,0.9l0,1.2l0,2.9l0,4l0,4.6l0,0.2c0,0.1,0,0.2-0.1,0.2c0.1,0.1,0.2,0.3,0.2,0.6c0,0.3,0.1,0.6,0.2,0.7
		S82.1,25.2,82.1,25.2z"/>
	<path d="M93.3,27.1l-0.9,1.3h-0.3c-0.1-0.1-0.2-0.1-0.3-0.1c-0.1-0.2-0.2-0.5-0.3-0.8c0.1-0.2,0.1-0.4,0.1-0.6l0-1.1
		c0-0.4-0.1-0.8-0.2-1.2c0,0-0.1,0-0.2,0.1s-0.2,0-0.2,0.1c-0.7,0.5-1.3,0.8-1.7,0.9c-0.5,0.1-1,0.2-1.4,0.2c-0.8,0-1.4-0.2-2-0.5
		c-0.6-0.4-0.9-0.8-1.1-1.4c-0.2-0.6-0.3-1-0.3-1.3c0-0.5,0-0.9,0.1-1.1c0-0.2,0.2-0.5,0.4-1c0.2-0.4,0.4-0.8,0.5-1
		c0.1-0.2,0.4-0.5,0.8-0.9s0.8-0.7,1.3-1c0.4-0.1,0.9-0.3,1.3-0.5c0.5-0.2,0.8-0.3,1-0.3l0.1,0.1c0.3-0.2,0.6-0.3,0.8-0.3h0
		c0.2,0,0.3-0.1,0.3-0.4c0-0.9,0-1.8-0.1-2.8c-0.1-1-0.1-1.5-0.2-1.6c0-0.1-0.1-0.2-0.3-0.3c0-0.1-0.1-0.3-0.1-0.5
		c0-0.5,0.2-0.8,0.5-0.8c0.3-0.2,0.6-0.3,0.7-0.3c0.1,0,0.2,0.1,0.4,0.2c0.2,0.1,0.2,0.2,0.3,0.2c0,0,0,0,0,0.1c0,0,0,0.2-0.1,0.3
		c-0.1,0.2-0.1,0.4-0.1,0.6c-0.1,0.1-0.2,0.3-0.2,0.5l0,0.5c0,1.1,0,1.9,0.1,2.6c0.1,0.6,0.1,1,0.1,1c0,0,0,0.1,0,0.1s0,0.1,0,0.1
		c0,0.1,0.1,0.3,0.2,0.4l0.2-0.1c0,0.1,0.1,0.2,0.3,0.2c0.3,0.1,0.5,0.2,0.4,0.4c0,0.2-0.1,0.4-0.1,0.5H93c-0.1,0-0.2,0-0.3,0.1
		c-0.1,0-0.2,0.1-0.2,0.1c-0.1,0-0.1,0-0.2,0c0,0,0,0,0,0c-0.1,0-0.1,0.7-0.1,2c0,0.8,0.1,1.7,0.2,2.8c0.1,0.2,0.2,0.3,0.3,0.4
		c0,0.3-0.1,0.5-0.1,0.7c0,0.3,0,0.6,0.1,1c0.1,0.4,0.1,0.7,0.1,0.9l0,0.3c0,0.1,0,0.1,0.1,0.1C92.9,26,93,26,93,26v0l0,0.1
		L93.3,27.1z M90.8,17.6c-0.2,0-0.3-0.1-0.5-0.1l-0.4-0.1c-0.1,0-0.3,0-0.4,0.1l-0.2,0.1h-0.5c-0.9,0.3-1.7,0.8-2.3,1.7
		c-0.6,0.8-0.9,1.7-0.9,2.5c0,0.9,0.3,1.6,0.8,2.1c0.5,0.6,1.2,0.8,2,0.8c0.7,0,1.3-0.1,1.9-0.3c0.5-0.2,0.9-0.5,1-0.7
		c0.1-0.3,0.1-0.9,0.1-1.8c0-1-0.1-2.3-0.2-4.1c-0.2-0.1-0.3-0.1-0.3-0.1V17.6z"/>
	<path d="M98.5,25.8c0,0-0.1,0.1-0.4,0.2c-0.3,0.1-0.5,0.2-0.6,0.2h-0.1c-0.1,0-0.2,0-0.3,0c-0.1,0-0.2,0-0.2,0
		c-0.1,0-0.2,0-0.3-0.1c-0.1-0.1-0.2-0.2-0.2-0.2c0-0.1,0-0.4,0.1-0.7c0.1-0.3,0.1-0.5,0.3-0.7c0.1-0.4,0.1-1.2,0.1-2.4l-0.1-3.7
		l0-0.6c0-0.1-0.1-0.2-0.2-0.4c-0.1-0.2-0.2-0.4-0.2-0.7c0-0.2,0-0.3,0.1-0.3c0.1-0.1,0.3-0.2,0.6-0.3l0.6-0.3c0,0,0.1,0,0.1,0
		c0.2,0,0.3,0.3,0.3,0.8c0,0.3-0.1,1.1-0.2,2.3c-0.1,1.3-0.2,2.3-0.2,3.1c0,0.4,0,0.9,0,1.3c0,0.4,0,0.7,0.1,0.9s0.1,0.4,0.2,0.6
		C98.4,25.1,98.5,25.4,98.5,25.8C98.5,25.7,98.5,25.8,98.5,25.8z M98.1,12.7c0.1,0.1,0.3,0.2,0.5,0.3c0.2,0.1,0.4,0.3,0.4,0.4
		c0,0.2-0.1,0.3-0.3,0.5c-0.2,0.2-0.4,0.3-0.5,0.3c-0.2,0-0.4-0.1-0.6-0.3c-0.2-0.2-0.3-0.4-0.3-0.4c0-0.1,0.1-0.3,0.3-0.5
		C97.7,12.8,97.9,12.7,98.1,12.7L98.1,12.7z"/>
	<path d="M109.9,16.4l0,0.2c0,0.1,0,0.3-0.1,0.4c-0.1,0.1-0.2,0.2-0.4,0.3c-0.6,0.9-1.2,2-1.9,3.4s-1.2,2.7-1.5,3.9
		c-0.1,0.3-0.2,0.6-0.3,0.8c-0.1,0.2-0.2,0.4-0.2,0.5c0,0.1,0,0.1,0,0.1c-0.2,0.1-0.3,0.2-0.3,0.3c-0.1-0.1-0.2-0.1-0.3-0.1
		c-0.1,0-0.3,0-0.5,0.1c0-0.1-0.1-0.2-0.2-0.3s-0.2-0.2-0.2-0.3c0-0.1-0.1-0.2-0.2-0.4c-0.1-0.2-0.2-0.4-0.2-0.5l0.1-0.1
		c-1.6-4.2-2.6-6.5-2.9-6.7c-0.2-0.3-0.4-0.5-0.4-0.6c0-0.2,0.1-0.4,0.3-0.7c0.2-0.3,0.4-0.4,0.6-0.4c0.1,0,0.1,0,0.2,0.1
		c0.1,0.1,0.2,0.1,0.3,0.2c0.1,0.1,0.2,0.1,0.3,0.2l0,0c0.1,0,0.1,0.4,0.1,1.1c0,0.4,0.2,1.2,0.6,2.1c0.4,1,0.6,1.5,0.7,1.6
		s0.2,0.2,0.2,0.2c0.2,0.7,0.4,1.2,0.7,1.5c0.3,0.4,0.5,0.5,0.5,0.5c0.1,0,0.2-0.1,0.2-0.4h0c0.1,0,0.2-0.1,0.3-0.3
		c0.1-0.2,0.2-0.5,0.4-1l0.5-1.3c0.4-0.9,0.6-1.5,0.7-1.6c0.1-0.2,0.2-0.3,0.2-0.3c0,0,0-0.1,0.1-0.2c0-0.1,0-0.2,0-0.2
		c0.1-0.2,0.2-0.6,0.3-1.1l0.2-0.2v0l0.1-0.5l0-0.1c0-0.5,0.2-0.7,0.6-0.7C109.2,16,109.6,16.1,109.9,16.4z"/>
	<path d="M118.5,19.3c0.1,0.1,0.1,0.1,0.1,0.2c0,0.2-0.1,0.3-0.2,0.4c0,0,0,0,0,0.1c0,0.1-0.1,0.2-0.4,0.2h-0.1c0,0-0.1,0-0.1,0.1
		s-0.1,0.1-0.1,0.1c0,0,0,0-0.1-0.1c-0.1,0-0.1-0.1-0.3-0.1l-0.1-0.1c-0.2,0-0.3,0.1-0.4,0.1c-0.1,0-0.3,0-0.5,0c-0.2,0-0.3,0-0.4,0
		c-0.1,0-0.2,0-0.5,0.1c-0.2,0-0.5,0.1-0.6,0.1l-1,0c-0.5,0-1,0-1.5,0.1c-0.1,0-0.2,0.1-0.3,0.1c-0.1,0-0.2,0.1-0.2,0.2
		c0,0.1-0.1,0.2-0.2,0.2c-0.1,0.3-0.1,0.5-0.1,0.8c0,0.2,0.1,0.5,0.2,1s0.2,0.9,0.4,1.1c0,0,0.3,0.3,0.9,0.7
		c0.3,0.3,0.7,0.5,1.1,0.6c0.4,0.1,0.9,0.2,1.4,0.2c0.2,0,0.5,0,0.8-0.1l0.4-0.1h0.7c0.1,0,0.2-0.1,0.4-0.2c0.2-0.1,0.4-0.2,0.6-0.2
		c0.1,0.2,0.1,0.4,0.1,0.5c0,0.3-0.1,0.6-0.3,0.8s-0.4,0.4-0.7,0.4l-0.2,0l-0.6,0h-0.6c-0.3,0-0.9-0.1-1.9-0.3
		c-1-0.2-1.8-0.5-2.3-0.9s-0.8-0.8-1.1-1.4c-0.2-0.6-0.3-1.1-0.3-1.6c0-0.7,0.1-1.4,0.4-2.2c0.3-0.7,0.6-1.3,0.9-1.7
		c0.3-0.4,0.9-0.8,1.6-1.3c0.1,0,0.2-0.1,0.3-0.2c0.1-0.1,0.3-0.2,0.4-0.2l0.3,0c0.1-0.1,0.4-0.2,0.8-0.2c0.4-0.1,0.7-0.1,0.9-0.1
		c0.4,0,0.9,0.2,1.4,0.5c0.5,0.3,0.8,1,0.9,1.9c0,0.2,0,0.3,0.1,0.4c0,0.1,0.1,0.2,0.1,0.2C118.6,19.2,118.6,19.2,118.5,19.3z
		 M114.3,17c0,0.1-0.2,0.2-0.6,0.3c-0.2,0.1-0.3,0.3-0.5,0.4s-0.3,0.3-0.5,0.5c-0.2,0.2-0.3,0.3-0.4,0.5c-0.1,0.1-0.2,0.3-0.3,0.3
		c-0.1,0.1-0.1,0.1-0.1,0.2c0,0.1,0,0.1,0.1,0.2l0.1,0.1h0.8l3.6-0.1c0.5,0,0.7-0.2,0.7-0.6c0-0.4-0.1-0.8-0.3-1.1
		c-0.2-0.3-0.6-0.6-1.3-0.8c-0.1,0-0.2,0-0.3,0s-0.3,0-0.3,0C115,16.9,114.8,16.9,114.3,17z"/>
	<path d="M124.9,20.6c0.5,0.5,0.8,1.1,0.8,1.7c0,0.9-0.3,1.7-0.8,2.4c-0.5,0.7-1.2,1.1-2.1,1.3c-0.2,0-0.4,0-0.8,0
		c-0.3,0.1-0.5,0.2-0.8,0.2c-0.4,0-0.7-0.1-0.9-0.2c-0.2-0.2-0.3-0.4-0.3-0.9c0-0.1,0-0.2,0-0.3h0.1c0.1,0,0.3,0,0.4,0.1
		c0.1,0.1,0.2,0.1,0.2,0.1l0.1,0c0.2,0.2,0.6,0.3,1.2,0.3c0.5,0,1-0.1,1.4-0.3c0.4-0.2,0.8-0.5,1-0.9c0.2-0.4,0.3-0.8,0.3-1.2
		c0-0.5-0.2-0.9-0.6-1.3c-0.4-0.3-1.3-0.7-2.6-1.1c-0.2,0-0.3-0.1-0.4-0.1l-0.5-0.4c-0.3-0.2-0.4-0.4-0.5-0.6l-0.1-0.3
		c0-1.1,0.3-1.8,0.9-2.3c0.6-0.5,1.7-0.7,3.2-0.7l0.6,0c0,0,0.1,0,0.2-0.1c0.1,0.1,0.2,0.3,0.2,0.5c0,0.2,0,0.4-0.1,0.6
		c-0.1,0.2-0.2,0.3-0.2,0.4c-0.1-0.1-0.1-0.2-0.2-0.3h0c0,0-0.1,0-0.1,0c0,0-0.1,0-0.1,0c-0.3-0.4-0.7-0.5-1.2-0.5
		c-0.9,0-1.5,0.2-1.8,0.5s-0.4,0.7-0.4,1.2c0,0.6,0.5,1,1.5,1.3c0.7,0.2,1.3,0.4,1.8,0.5C124.7,20.4,124.9,20.5,124.9,20.6z"/>
	<path d="M135.6,25.8c0,0-0.1,0.1-0.4,0.2c-0.3,0.1-0.5,0.2-0.6,0.2h-0.1c-0.1,0-0.2,0-0.3,0c-0.1,0-0.2,0-0.2,0
		c-0.1,0-0.2,0-0.4-0.1c-0.1-0.1-0.2-0.2-0.2-0.2c0-0.1,0-0.4,0.1-0.7c0.1-0.3,0.1-0.5,0.3-0.7c0.1-0.4,0.1-1.2,0.1-2.4l-0.1-3.7
		l0-0.6c0-0.1-0.1-0.2-0.2-0.4c-0.1-0.2-0.2-0.4-0.2-0.7c0-0.2,0-0.3,0.1-0.3c0.1-0.1,0.3-0.2,0.6-0.3l0.6-0.3c0,0,0.1,0,0.1,0
		c0.2,0,0.3,0.3,0.3,0.8c0,0.3-0.1,1.1-0.2,2.3c-0.1,1.3-0.2,2.3-0.2,3.1c0,0.4,0,0.9,0,1.3c0,0.4,0,0.7,0.1,0.9s0.1,0.4,0.2,0.6
		C135.5,25.1,135.6,25.4,135.6,25.8C135.6,25.7,135.6,25.8,135.6,25.8z M135.2,12.7c0.1,0.1,0.3,0.2,0.5,0.3
		c0.2,0.1,0.4,0.3,0.4,0.4c0,0.2-0.1,0.3-0.3,0.5c-0.2,0.2-0.4,0.3-0.5,0.3c-0.2,0-0.4-0.1-0.6-0.3c-0.2-0.2-0.3-0.4-0.3-0.4
		c0-0.1,0.1-0.3,0.3-0.5S135,12.7,135.2,12.7L135.2,12.7z"/>
	<path d="M142.8,20.6c0.5,0.5,0.8,1.1,0.8,1.7c0,0.9-0.3,1.7-0.8,2.4c-0.5,0.7-1.2,1.1-2.1,1.3c-0.2,0-0.4,0-0.8,0
		c-0.3,0.1-0.5,0.2-0.8,0.2c-0.4,0-0.7-0.1-0.9-0.2c-0.2-0.2-0.3-0.4-0.3-0.9c0-0.1,0-0.2,0-0.3h0.1c0.1,0,0.3,0,0.4,0.1
		c0.1,0.1,0.2,0.1,0.2,0.1l0.1,0c0.2,0.2,0.6,0.3,1.2,0.3c0.5,0,1-0.1,1.4-0.3c0.4-0.2,0.8-0.5,1-0.9c0.2-0.4,0.3-0.8,0.3-1.2
		c0-0.5-0.2-0.9-0.6-1.3c-0.4-0.3-1.3-0.7-2.6-1.1c-0.2,0-0.3-0.1-0.4-0.1l-0.5-0.4c-0.3-0.2-0.4-0.4-0.5-0.6L138,19
		c0-1.1,0.3-1.8,0.9-2.3c0.6-0.5,1.7-0.7,3.2-0.7l0.6,0c0,0,0.1,0,0.2-0.1c0.1,0.1,0.2,0.3,0.2,0.5c0,0.2,0,0.4-0.1,0.6
		c-0.1,0.2-0.2,0.3-0.2,0.4c-0.1-0.1-0.1-0.2-0.2-0.3h0c0,0-0.1,0-0.1,0c0,0-0.1,0-0.1,0c-0.3-0.4-0.7-0.5-1.2-0.5
		c-0.9,0-1.5,0.2-1.8,0.5s-0.4,0.7-0.4,1.2c0,0.6,0.5,1,1.5,1.3c0.7,0.2,1.3,0.4,1.8,0.5C142.6,20.4,142.8,20.5,142.8,20.6z"/>
	<path d="M157.5,20.3c0,0.1,0,0.1-0.1,0.2c-0.1,0.1-0.2,0.2-0.2,0.3c0,0.1-0.1,0.3-0.1,0.6c0,0.3,0,0.8,0,1.4l0,1.4
		c0,0.1,0,0.1-0.1,0.2c0,0.1,0,0.2,0,0.4c0,0.3,0,0.6,0.1,1l0.1,0.5l0,0.5l0,0.4c-0.5,0.5-0.9,0.7-1.1,0.7c0,0-0.1,0-0.2-0.1
		s-0.2-0.1-0.3-0.1h-0.1c-0.1-0.2-0.1-0.4-0.1-0.5c0-0.3,0.1-0.7,0.2-1c0.1-0.1,0.1-0.2,0.2-0.2c0-0.1,0.1-0.3,0.1-0.6
		c0-0.4,0-0.6-0.1-0.6c0,0-0.1,0-0.1,0s-0.1,0-0.2,0h-0.1c-0.1,0.1-0.1,0.1-0.2,0.2c-0.1,0-0.5,0.1-1.3,0.5
		c-0.4,0.1-0.8,0.2-1.1,0.2c-0.4,0-0.8-0.1-1.1-0.2c-0.3-0.1-0.6-0.3-0.8-0.5c-0.2-0.2-0.4-0.4-0.4-0.5c-0.1-0.1-0.1-0.3-0.1-0.7
		l0-0.3v-0.1c0-0.7,0.5-1.4,1.6-2.2c1.1-0.8,2.1-1.2,3-1.4c0.2,0,0.4-0.1,0.6-0.1c0.1,0,0.3-0.1,0.3-0.2c0.1-0.1,0.1-0.3,0.1-0.7
		c0-1.2-0.6-2-1.9-2.5c0,0-0.1,0-0.2-0.1c-0.1,0-0.1-0.1-0.2-0.1c-0.7,0-1.2,0-1.7,0.1c-0.2,0.3-0.5,0.4-0.8,0.4
		c-0.2,0-0.3-0.1-0.3-0.2c0,0,0-0.2,0.1-0.4c0.1-0.3,0.3-0.4,0.7-0.4c0.4-0.2,1.2-0.3,2.4-0.3c0.9,0,1.6,0.4,2.1,1.1
		c0.5,0.7,0.8,1.7,0.8,3v0.1c0.1,0.1,0.2,0.2,0.3,0.2S157.5,20.2,157.5,20.3L157.5,20.3z M155.5,23.9c0.4-0.6,0.6-1.1,0.6-1.6
		c0-0.3-0.1-0.6-0.2-0.9c-0.1-0.3-0.4-0.5-0.8-0.5c-0.8,0-1.5,0.2-2,0.6h-0.3c-1.1,0.6-1.6,1.2-1.6,1.8c0,0.5,0.2,0.8,0.7,1.2
		c0.4,0.3,0.9,0.5,1.5,0.5c0.2,0,0.4-0.1,0.9-0.2s0.8-0.4,1.2-0.7V23.9z"/>
	<path d="M167.5,16.9c1.3-0.5,2.1-0.7,2.5-0.8s0.6-0.1,0.7-0.1c0.2,0,0.6,0.1,1.3,0.4s1,0.4,1.1,0.5c0,0,0.2,0.2,0.4,0.5
		c0.4,0.4,0.6,1.1,0.6,1.9c0,0.7-0.2,1.5-0.6,2.2c-0.4,0.8-0.9,1.3-1.4,1.7c-0.1,0.1-0.1,0.2-0.2,0.3c-0.8,0.7-1.4,1.1-1.6,1.2
		l-0.3,0.1c-0.3,0.3-0.5,0.5-0.6,0.5c-0.1,0-0.1,0-0.1,0c-0.3,0.2-0.6,0.4-0.7,0.5c-0.2,0.1-0.4,0.2-0.6,0.2c-0.3,0-0.4,0.1-0.5,0.1
		c-0.1,0-0.1,0.2-0.2,0.4c0,0.2-0.1,0.6-0.1,1c0,0.8,0,1.6,0.1,2.2c0.1,0.7,0.1,1,0.1,1.1c0,0.1,0.1,0.2,0.1,0.3
		c0.1,0.1,0.1,0.1,0.1,0.2c0,0.1,0,0.1-0.1,0.1c-0.1,0-0.1,0.1-0.2,0.1c-0.1,0-0.1,0.1-0.2,0.1c0,0,0,0,0,0
		c-0.3,0.1-0.6,0.2-0.8,0.2c-0.1,0-0.2,0-0.3-0.1c-0.1-0.1-0.2-0.2-0.2-0.3c0-0.2,0-0.4,0.1-0.6c0.1-0.2,0.1-0.4,0.1-0.5l0-0.4
		l0.1-2.8c0-0.4,0-0.8-0.1-0.9c0-0.2-0.1-0.4-0.3-0.6l0.1-0.5l0-0.1c0-0.1,0-0.2,0.1-0.3c0.1-0.1,0.1-0.3,0.1-0.5l0-0.6v-0.2
		c0.1-0.2,0.1-0.4,0.1-0.6v-1.3c0-0.1,0-0.3,0-0.6c0-0.3,0-0.5,0-0.6c0-0.7,0-1.1-0.1-1.4c0-0.2-0.1-0.3-0.2-0.3
		c-0.1,0-0.2,0-0.3,0.1c-0.2,0.1-0.3,0.1-0.4,0.1l-0.1,0l-0.2-0.3c0.1-0.1,0.3-0.3,0.7-0.5c0.4-0.2,0.5-0.4,0.5-0.5c0,0,0-0.1,0-0.2
		c0-0.1,0-0.2,0-0.3l0-0.2c0-0.1-0.1-0.2-0.2-0.3l0-0.4c0-0.3,0.1-0.4,0.2-0.5s0.3-0.2,0.5-0.2c0.2-0.1,0.3-0.1,0.4-0.1h0.3
		c0.2,0,0.2,0.1,0.2,0.2l-0.1,0.3c-0.1,0.2-0.1,0.4-0.1,0.5l0,0.3l0,0.3C167.3,16.9,167.4,16.9,167.5,16.9z M167.5,24.6
		c0.3,0.1,0.7,0.2,1,0.2c0.2,0,0.3,0,0.5,0c0.1,0,0.4-0.1,0.7-0.4c0.3-0.2,0.8-0.5,1.2-0.8c0.2-0.1,0.3-0.3,0.5-0.4s0.4-0.5,0.7-1.1
		c0.2-0.3,0.3-0.6,0.4-1.1s0.2-0.8,0.2-1.1c0-0.2-0.1-0.6-0.2-1s-0.4-0.9-0.7-1.2s-0.6-0.5-0.7-0.5h-0.1c-0.2,0-0.3-0.1-0.5-0.2
		h-0.4l-0.7,0c-0.8,0-1.4,0.1-1.8,0.4c-0.4,0.3-0.6,0.8-0.6,1.5l0,0.9l-0.1,4.4c0,0.1,0.1,0.2,0.2,0.2S167.5,24.5,167.5,24.6z"/>
	<path d="M183.6,19.3c0.1,0.1,0.1,0.1,0.1,0.2c0,0.2-0.1,0.3-0.2,0.4c0,0,0,0,0,0.1c0,0.1-0.1,0.2-0.4,0.2h-0.1c0,0-0.1,0-0.1,0.1
		s-0.1,0.1-0.1,0.1c0,0,0,0-0.1-0.1s-0.1-0.1-0.3-0.1l-0.1-0.1c-0.2,0-0.3,0.1-0.4,0.1c-0.1,0-0.3,0-0.5,0c-0.2,0-0.3,0-0.4,0
		c-0.1,0-0.2,0-0.5,0.1c-0.2,0-0.5,0.1-0.6,0.1l-1,0c-0.5,0-1,0-1.5,0.1c-0.1,0-0.2,0.1-0.3,0.1c-0.1,0-0.2,0.1-0.2,0.2
		c0,0.1-0.1,0.2-0.2,0.2c-0.1,0.3-0.1,0.5-0.1,0.8c0,0.2,0.1,0.5,0.2,1c0.1,0.5,0.2,0.9,0.4,1.1c0,0,0.3,0.3,0.9,0.7
		c0.3,0.3,0.7,0.5,1.1,0.6c0.4,0.1,0.9,0.2,1.4,0.2c0.2,0,0.5,0,0.8-0.1l0.4-0.1h0.7c0.1,0,0.2-0.1,0.4-0.2s0.4-0.2,0.6-0.2
		c0.1,0.2,0.1,0.4,0.1,0.5c0,0.3-0.1,0.6-0.3,0.8c-0.2,0.2-0.4,0.4-0.7,0.4l-0.2,0l-0.6,0h-0.6c-0.3,0-0.9-0.1-1.9-0.3
		c-1-0.2-1.8-0.5-2.3-0.9c-0.5-0.4-0.8-0.8-1.1-1.4c-0.2-0.6-0.3-1.1-0.3-1.6c0-0.7,0.1-1.4,0.4-2.2c0.3-0.7,0.6-1.3,0.9-1.7
		c0.3-0.4,0.9-0.8,1.6-1.3c0.1,0,0.2-0.1,0.3-0.2c0.1-0.1,0.3-0.2,0.4-0.2l0.3,0c0.1-0.1,0.4-0.2,0.8-0.2c0.4-0.1,0.7-0.1,0.9-0.1
		c0.4,0,0.9,0.2,1.4,0.5c0.5,0.3,0.8,1,0.9,1.9c0,0.2,0,0.3,0.1,0.4c0,0.1,0.1,0.2,0.1,0.2C183.6,19.2,183.6,19.2,183.6,19.3z
		 M179.4,17c0,0.1-0.2,0.2-0.6,0.3c-0.2,0.1-0.3,0.3-0.5,0.4c-0.2,0.2-0.3,0.3-0.5,0.5c-0.2,0.2-0.3,0.3-0.4,0.5
		c-0.1,0.1-0.2,0.3-0.3,0.3c-0.1,0.1-0.1,0.1-0.1,0.2c0,0.1,0,0.1,0.1,0.2l0.1,0.1h0.8l3.6-0.1c0.5,0,0.7-0.2,0.7-0.6
		c0-0.4-0.1-0.8-0.3-1.1c-0.2-0.3-0.6-0.6-1.3-0.8c-0.1,0-0.2,0-0.3,0s-0.3,0-0.3,0C180.1,16.9,179.8,16.9,179.4,17z"/>
	<path d="M192.1,20.3c0,0.1,0,0.1-0.1,0.2c-0.1,0.1-0.2,0.2-0.2,0.3s-0.1,0.3-0.1,0.6c0,0.3,0,0.8,0,1.4l0,1.4c0,0.1,0,0.1-0.1,0.2
		c0,0.1,0,0.2,0,0.4c0,0.3,0,0.6,0.1,1l0.1,0.5l0,0.5l0,0.4c-0.5,0.5-0.9,0.7-1.1,0.7c0,0-0.1,0-0.2-0.1s-0.2-0.1-0.3-0.1h-0.1
		c-0.1-0.2-0.1-0.4-0.1-0.5c0-0.3,0.1-0.7,0.2-1c0.1-0.1,0.1-0.2,0.2-0.2c0-0.1,0.1-0.3,0.1-0.6c0-0.4,0-0.6-0.1-0.6
		c0,0-0.1,0-0.1,0c-0.1,0-0.1,0-0.2,0H190c-0.1,0.1-0.1,0.1-0.2,0.2c-0.1,0-0.5,0.1-1.3,0.5c-0.4,0.1-0.8,0.2-1.1,0.2
		c-0.4,0-0.8-0.1-1.1-0.2c-0.3-0.1-0.6-0.3-0.8-0.5c-0.2-0.2-0.4-0.4-0.4-0.5c-0.1-0.1-0.1-0.3-0.1-0.7l0-0.3v-0.1
		c0-0.7,0.5-1.4,1.6-2.2c1.1-0.8,2.1-1.2,3-1.4c0.2,0,0.4-0.1,0.6-0.1c0.1,0,0.3-0.1,0.3-0.2c0.1-0.1,0.1-0.3,0.1-0.7
		c0-1.2-0.6-2-1.9-2.5c0,0-0.1,0-0.2-0.1c-0.1,0-0.1-0.1-0.2-0.1c-0.7,0-1.2,0-1.7,0.1c-0.2,0.3-0.5,0.4-0.8,0.4
		c-0.2,0-0.3-0.1-0.3-0.2c0,0,0-0.2,0.1-0.4c0.1-0.3,0.3-0.4,0.7-0.4c0.4-0.2,1.2-0.3,2.4-0.3c0.9,0,1.6,0.4,2.1,1.1
		c0.5,0.7,0.8,1.7,0.8,3v0.1c0.1,0.1,0.2,0.2,0.3,0.2S192.1,20.2,192.1,20.3L192.1,20.3z M190.1,23.9c0.4-0.6,0.6-1.1,0.6-1.6
		c0-0.3-0.1-0.6-0.2-0.9c-0.1-0.3-0.4-0.5-0.8-0.5c-0.8,0-1.5,0.2-2,0.6h-0.3c-1.1,0.6-1.6,1.2-1.6,1.8c0,0.5,0.2,0.8,0.7,1.2
		c0.4,0.3,0.9,0.5,1.5,0.5c0.2,0,0.4-0.1,0.9-0.2s0.8-0.4,1.2-0.7V23.9z"/>
	<path d="M201.6,24.3c0.3,0.2,0.5,0.5,0.5,0.8c0,0.4-0.1,0.7-0.3,0.7h-0.1c-0.1,0-0.3,0-0.7,0.1c-0.4,0.1-0.8,0.1-1.2,0.1h-0.3
		l-0.7,0c-0.3,0-0.5,0-0.7-0.1c-0.1,0-0.4-0.1-0.8-0.3c-0.4-0.1-0.7-0.2-0.8-0.3c-0.2-0.1-0.3-0.2-0.6-0.5c-0.2-0.2-0.4-0.4-0.6-0.7
		s-0.3-0.5-0.4-0.8c-0.1-0.3-0.2-0.6-0.3-0.9c-0.1-0.3-0.1-0.6-0.1-0.9c0-1,0.2-1.8,0.5-2.4c0.3-0.7,0.9-1.3,1.7-1.8
		c0.1-0.1,0.3-0.2,0.5-0.3c0.2-0.1,0.4-0.2,0.5-0.3c0.1-0.1,0.5-0.1,1.1-0.2s1.2-0.2,1.8-0.2h0.4c0.1,0,0.3,0,0.4,0
		c0.3,0,0.5,0.1,0.5,0.4c0,0,0,0.1,0,0.2c0,0.1,0,0.2,0,0.2l0,0.8c-0.1,0-0.2,0-0.2,0c-0.2,0-0.4-0.1-0.6-0.2
		c-0.3-0.2-0.5-0.4-0.7-0.4h-0.1c-0.1,0-0.3,0-0.6-0.1c-0.3-0.1-0.6-0.1-0.8-0.1c-0.2,0-0.4,0.1-0.7,0.2c-0.1,0-0.2-0.1-0.2-0.1h0
		c0,0-0.1,0-0.1,0.1c-0.2,0.2-0.5,0.4-0.9,0.5c-0.3,0.1-0.6,0.4-0.8,0.8c-0.2,0.4-0.4,0.7-0.6,0.9c-0.1,0.4-0.1,0.8-0.1,1.2
		c0,0.8,0.1,1.4,0.3,1.8c0.2,0.4,0.4,0.7,0.8,1s0.6,0.5,0.7,0.7h0.3c0.1,0.2,0.2,0.3,0.5,0.3c0.1,0,0.4,0,0.6,0.1
		c0.3,0.1,0.5,0.1,0.6,0.1l0.3,0h0.2c0.3,0,0.6,0,0.8-0.1c0.2-0.1,0.4-0.1,0.7-0.2S201.5,24.5,201.6,24.3z"/>
	<path d="M211.3,19.3c0.1,0.1,0.1,0.1,0.1,0.2c0,0.2-0.1,0.3-0.2,0.4c0,0,0,0,0,0.1c0,0.1-0.1,0.2-0.4,0.2h-0.1c0,0-0.1,0-0.1,0.1
		s-0.1,0.1-0.1,0.1c0,0,0,0-0.1-0.1c-0.1,0-0.1-0.1-0.3-0.1l-0.1-0.1c-0.2,0-0.3,0.1-0.4,0.1c-0.1,0-0.3,0-0.5,0c-0.2,0-0.3,0-0.4,0
		c-0.1,0-0.2,0-0.5,0.1c-0.2,0-0.5,0.1-0.6,0.1l-1,0c-0.5,0-1,0-1.5,0.1c-0.1,0-0.2,0.1-0.3,0.1c-0.1,0-0.2,0.1-0.2,0.2
		c0,0.1-0.1,0.2-0.2,0.2c-0.1,0.3-0.1,0.5-0.1,0.8c0,0.2,0.1,0.5,0.2,1s0.2,0.9,0.4,1.1c0,0,0.3,0.3,0.9,0.7
		c0.3,0.3,0.7,0.5,1.1,0.6c0.4,0.1,0.9,0.2,1.4,0.2c0.2,0,0.5,0,0.8-0.1l0.4-0.1h0.7c0.1,0,0.2-0.1,0.4-0.2c0.2-0.1,0.4-0.2,0.6-0.2
		c0.1,0.2,0.1,0.4,0.1,0.5c0,0.3-0.1,0.6-0.3,0.8s-0.4,0.4-0.7,0.4l-0.2,0l-0.6,0h-0.6c-0.3,0-0.9-0.1-1.9-0.3
		c-1-0.2-1.8-0.5-2.3-0.9s-0.8-0.8-1.1-1.4c-0.2-0.6-0.3-1.1-0.3-1.6c0-0.7,0.1-1.4,0.4-2.2c0.3-0.7,0.6-1.3,0.9-1.7
		c0.3-0.4,0.9-0.8,1.6-1.3c0.1,0,0.2-0.1,0.3-0.2c0.1-0.1,0.3-0.2,0.4-0.2l0.3,0c0.1-0.1,0.4-0.2,0.8-0.2c0.4-0.1,0.7-0.1,0.9-0.1
		c0.4,0,0.9,0.2,1.4,0.5c0.5,0.3,0.8,1,0.9,1.9c0,0.2,0,0.3,0.1,0.4c0,0.1,0.1,0.2,0.1,0.2C211.3,19.2,211.3,19.2,211.3,19.3z
		 M207.1,17c0,0.1-0.2,0.2-0.6,0.3c-0.2,0.1-0.3,0.3-0.5,0.4s-0.3,0.3-0.5,0.5c-0.2,0.2-0.3,0.3-0.4,0.5c-0.1,0.1-0.2,0.3-0.3,0.3
		c-0.1,0.1-0.1,0.1-0.1,0.2c0,0.1,0,0.1,0.1,0.2l0.1,0.1h0.8l3.6-0.1c0.5,0,0.7-0.2,0.7-0.6c0-0.4-0.1-0.8-0.3-1.1
		c-0.2-0.3-0.6-0.6-1.3-0.8c-0.1,0-0.2,0-0.3,0s-0.3,0-0.3,0C207.8,16.9,207.5,16.9,207.1,17z"/>
	<path d="M221.3,7.2c0.2,0,0.3,0.1,0.4,0.3c0.1,0.2,0.1,0.3,0.1,0.4c0,0.2-0.1,0.3-0.3,0.4v0c0,0.2-0.2,0.4-0.5,0.4
		c-0.1-0.1-0.3-0.2-0.5-0.2c-0.1,0-0.1,0.1-0.1,0.2c-0.2,0-0.3,0-0.4,0c-0.3,0-0.5,0.1-0.5,0.2h-0.2c-0.5,0-0.7,0.1-0.8,0.3
		c0,0-0.2,0.1-0.5,0.3s-0.5,0.3-0.6,0.4c-0.2,0.1-0.4,0.4-0.6,0.8c-0.2,0.4-0.5,0.8-0.7,1.4c-0.2,0.6-0.4,1-0.4,1.4
		c-0.1,0.4-0.1,0.8-0.3,1.3c-0.1,0.5-0.2,0.8-0.2,0.9c0,0.6,0.2,0.9,0.5,0.9c0.1,0,0.1,0,0.2,0c0.1,0.1,0.1,0.1,0.2,0.1
		c0,0,0.1,0,0.1,0c0.1,0,0.1,0,0.2,0c0.1,0,0.2,0,0.3,0c0.2,0,0.4,0,0.8-0.1c0.4-0.1,0.7-0.1,0.9-0.1c0,0,0.1,0,0.3,0
		c0.1,0,0.2,0.1,0.2,0.1c0,0.1,0,0.2,0.1,0.4h0c-0.1,0-0.2,0.1-0.4,0.3c0,0-0.1-0.1-0.1-0.1c0,0.1-0.1,0.2-0.3,0.2
		c-0.1,0-0.3,0-0.7-0.1c-0.4,0-0.7-0.1-0.9-0.1c-0.1,0-0.2,0-0.3,0c-0.1,0-0.2,0-0.3,0c0,0-0.2,0-0.3,0c-0.1,0-0.1,0-0.2,0
		c0,0-0.1,0-0.2,0c0,0.1,0,0.1-0.1,0.1l0,0c-0.1,0-0.2,0.8-0.2,2.3v1.1c0,0.7,0,1.5,0.1,2.4c0.1,0.9,0.2,1.4,0.2,1.5
		c0,0.1,0.1,0.2,0.2,0.3c0,0,0,0.1,0,0.2c0,0.1,0,0.3,0.1,0.5c0.1,0.2,0.1,0.3,0.1,0.4v0.1c-0.2,0.1-0.4,0.3-0.7,0.5
		c-0.1,0.2-0.3,0.3-0.5,0.3h0c-0.1-0.1-0.1-0.2-0.3-0.3c-0.1-0.1-0.2-0.2-0.3-0.2l-0.1,0c-0.1-0.2-0.1-0.3-0.1-0.4
		c0,0,0.1-0.1,0.2-0.3c0.1-0.1,0.2-0.3,0.2-0.6l0-0.2l0-1c0-0.7,0-1.4,0-2.2c0-0.7,0-1.5-0.1-2.3c-0.1-0.8-0.1-1.3-0.1-1.5l0-0.4
		c0-0.1-0.1-0.1-0.3-0.1c0,0-0.1,0-0.1,0s-0.1,0-0.2,0c-0.1,0-0.1,0-0.1,0c-0.1,0-0.1,0.1-0.1,0.1c0-0.1-0.1-0.1-0.1-0.1l-0.2,0
		c0,0,0,0-0.1-0.1v0c0-0.1,0.1-0.2,0.2-0.3s0.3-0.2,0.3-0.2h0.2c0.1-0.1,0.1-0.2,0.1-0.3h0.1c0.1,0,0.2,0,0.3-0.1
		c0.1-0.1,0.1-0.4,0.2-0.9c0.1-0.5,0.1-0.9,0.1-1.2c0.2-1.1,0.5-2,0.9-2.8c0.4-0.8,0.7-1.3,1.1-1.7s0.7-0.7,1.2-1.1
		c0.5-0.3,0.8-0.5,1-0.5h0.1c0.2-0.2,0.5-0.3,0.8-0.3l0.3-0.2C220.8,7.4,221.3,7.4,221.3,7.2z"/>
	<path d="M227.3,16.4c0.1-0.1,0.3-0.2,0.5-0.2l0.6-0.1h0.1c0.1,0,0.2,0.2,0.2,0.5l-0.3,1.1c-0.1,0.4-0.2,0.7-0.2,1.1
		c0,0.3-0.1,0.7-0.1,1c0,0.3,0,0.6,0.1,1c0,0.4,0.2,0.7,0.4,0.9c0,0,0,0.1,0,0.1c0,0.1-0.1,0.2-0.2,0.4c-0.1,0.2-0.2,0.4-0.2,0.7
		c0,0.2,0,0.4,0.1,0.7c0.1,0.3,0.1,0.5,0.1,0.6c0,0.1,0.1,0.2,0.2,0.2c0.1,0.1,0.1,0.1,0.1,0.2c0,0.1-0.1,0.1-0.2,0.1
		c0,0.3,0,0.5,0,0.6c0,0.3,0,0.4,0.1,0.4c-0.5,0.2-0.8,0.3-1.1,0.3c-0.3,0-0.4-0.1-0.4-0.3c0-0.1,0-0.2,0.1-0.3c0,0,0-0.1,0-0.2
		c0-0.1,0-0.2,0.1-0.3s0.1-0.2,0.1-0.2c0-0.1,0-0.3-0.1-0.6s-0.2-0.4-0.4-0.4c-0.2,0-0.5,0.2-0.9,0.6c-0.7,0.6-1.2,1-1.7,1.2
		c-0.2,0.1-0.4,0.1-0.4,0.2c-1,0.2-1.5,0.2-1.5,0.2c-0.2,0-0.4-0.1-0.7-0.3c-0.3-0.2-0.5-0.4-0.7-0.6c-0.2-0.2-0.3-0.5-0.4-0.9
		c-0.1-0.4-0.2-0.8-0.2-1.3c0-0.2,0.1-1,0.3-2.3c0.2-1.3,0.3-2.2,0.4-2.8c0.1-0.6,0.1-0.8,0.1-0.9c0-0.1,0-0.1-0.1-0.3l-0.1-0.2v0
		c0,0,0-0.1,0.1-0.1c0.1,0,0.2-0.1,0.4-0.2c0.2-0.1,0.3-0.1,0.5-0.1c0,0,0.1,0,0.3,0.1c0.1,0,0.3,0.1,0.4,0.1h0.1
		c0.1,0.1,0.2,0.2,0.3,0.3l-0.2,0.2c-0.4,0.4-0.6,0.9-0.7,1.6l-0.3,2.2c-0.1,0.8-0.2,1.3-0.2,1.6c0,1,0.2,1.7,0.6,2.1
		s0.7,0.7,1.1,0.7l0.2,0l0.3,0c0.1,0,0.3-0.1,0.6-0.2c0.3-0.2,0.7-0.4,1.3-0.8c0.6-0.4,0.9-0.7,1.1-0.9c0.1-0.2,0.2-0.4,0.3-0.7
		c0.1-0.3,0.2-0.6,0.2-1c0-0.4,0.1-0.8,0.1-1.3c0-1.1,0-1.9-0.1-2.3c-0.1-0.4-0.1-0.6-0.3-0.7c-0.1-0.1-0.1-0.2-0.1-0.5
		c0.1,0,0.2-0.1,0.2-0.1c0,0,0.1,0,0.1,0C227.1,16.4,227.2,16.4,227.3,16.4z"/>
	<path d="M234.1,25.2c-0.1,0.2-0.1,0.3-0.2,0.4c0,0.1-0.2,0.1-0.3,0.1c-0.1,0.1-0.2,0.1-0.2,0.1c-0.1,0-0.1,0-0.2-0.1
		c-0.1,0.1-0.2,0.2-0.3,0.2c-0.5-0.2-0.8-0.3-0.8-0.6v0c0.1,0,0.2-0.1,0.2-0.3v-0.2l0-0.3c0,0,0-0.2,0.1-0.5
		c0.1-0.7,0.2-1.7,0.2-2.9V19l0-0.8l0-0.7l-0.1-2.4l0.1-1.6l-0.1-2.1V11c-0.1-0.2-0.1-0.5-0.1-0.7l0-0.4c0,0,0-0.1-0.1-0.2
		c0-0.4,0.1-0.7,0.2-0.9c0.1-0.2,0.3-0.4,0.4-0.5c0.2-0.1,0.3-0.2,0.5-0.2c0.3,0,0.5,0.3,0.8,0.9c-0.2,0.2-0.3,0.4-0.4,0.6
		c-0.1,0.2-0.1,0.5-0.1,0.9l0,1.2l0,2.9l0,4l0,4.6l0,0.2c0,0.1,0,0.2-0.1,0.2c0.1,0.1,0.2,0.3,0.2,0.6c0,0.3,0.1,0.6,0.2,0.7
		C234,25.1,234.1,25.2,234.1,25.2z"/>
	<path d="M250.2,15.8c-0.2,0.7-0.2,1.9-0.2,3.6c0,0.5,0,1.4,0.1,2.6s0.1,2.2,0.1,3.1c0,1.7-0.2,3.1-0.5,4.1c-0.3,1-0.6,1.5-0.8,1.5
		l-0.1,0c-0.2,0.5-0.6,0.8-1.3,1c-0.7,0.2-1.2,0.3-1.6,0.3c-0.1,0-0.3,0-0.6-0.1s-0.5-0.1-0.6-0.1c-0.1,0-0.2,0-0.3,0
		c-0.1,0.1-0.2,0.1-0.3,0.1c-0.1,0-0.1,0-0.2-0.1c-0.1,0.1-0.2,0.1-0.3,0.1l-0.2,0c0,0-0.1,0-0.1,0c-0.1,0-0.1,0-0.1,0
		c-0.1,0-0.2,0-0.3-0.1c-0.1-0.1-0.1-0.2-0.1-0.4c0-0.1,0-0.3,0-0.4c0-0.2,0-0.3,0-0.3v-0.2c0-0.1,0-0.2,0.1-0.3h0.1
		c0.1,0,0.4,0.1,0.7,0.3c0.7,0.4,1.5,0.6,2.2,0.6c0.6,0,1.1-0.1,1.4-0.4c0.4,0,0.6-0.2,0.7-0.4c0.1,0,0.3-0.4,0.6-1
		c0.3-0.6,0.4-1.6,0.4-3V26c-0.1-0.2-0.3-0.3-0.5-0.3c-0.1,0-0.3,0-0.5,0.1c-0.2,0-0.4,0.1-0.6,0.1c-0.3,0-0.7,0-1.3-0.1
		c-0.6-0.1-1-0.2-1.3-0.2c-0.3-0.1-0.7-0.3-1.2-0.6c-0.5-0.3-0.8-0.6-1-0.9s-0.4-0.6-0.5-1c-0.1-0.4-0.2-0.8-0.2-1.2
		c0-0.8,0.2-1.5,0.6-2.2c0.4-0.7,1-1.3,1.9-1.8c0.1,0,0.1-0.1,0.2-0.2c0.1-0.2,0.7-0.5,1.6-0.7l1.2-0.3h0c0.1,0,0.5-0.1,1.2-0.4
		l0.1,0.2c0-0.1,0.1-0.3,0.1-0.7v-0.5h0.2C249.7,15.4,250,15.5,250.2,15.8z M248.2,24.4c0,0.1,0.1,0.1,0.2,0.1
		c0.4,0,0.6-0.4,0.6-1.3l-0.2-4.7l0.1-0.3c0-0.5-0.3-0.7-1-0.7c-0.5,0-1.1,0.1-1.7,0.3c-0.7,0.2-1.3,0.5-1.8,1
		c-0.5,0.5-0.9,1-1.1,1.5c-0.2,0.5-0.3,1-0.3,1.4c0,0.6,0.2,1.2,0.6,1.6s0.9,0.9,1.5,1.1s1.4,0.4,2.6,0.4c0.1,0,0.2,0,0.2,0
		S248,24.6,248.2,24.4z"/>
	<path d="M260.6,19.3c0.1,0.1,0.1,0.1,0.1,0.2c0,0.2-0.1,0.3-0.2,0.4c0,0,0,0,0,0.1c0,0.1-0.1,0.2-0.4,0.2H260c0,0-0.1,0-0.1,0.1
		s-0.1,0.1-0.1,0.1c0,0,0,0-0.1-0.1c-0.1,0-0.1-0.1-0.3-0.1l-0.1-0.1c-0.2,0-0.3,0.1-0.4,0.1c-0.1,0-0.3,0-0.5,0c-0.2,0-0.3,0-0.4,0
		c-0.1,0-0.2,0-0.5,0.1c-0.2,0-0.5,0.1-0.6,0.1l-1,0c-0.5,0-1,0-1.5,0.1c-0.1,0-0.2,0.1-0.3,0.1c-0.1,0-0.2,0.1-0.2,0.2
		c0,0.1-0.1,0.2-0.2,0.2c-0.1,0.3-0.1,0.5-0.1,0.8c0,0.2,0.1,0.5,0.2,1s0.2,0.9,0.4,1.1c0,0,0.3,0.3,0.9,0.7
		c0.3,0.3,0.7,0.5,1.1,0.6c0.4,0.1,0.9,0.2,1.4,0.2c0.2,0,0.5,0,0.8-0.1l0.4-0.1h0.7c0.1,0,0.2-0.1,0.4-0.2c0.2-0.1,0.4-0.2,0.6-0.2
		c0.1,0.2,0.1,0.4,0.1,0.5c0,0.3-0.1,0.6-0.3,0.8s-0.4,0.4-0.7,0.4l-0.2,0l-0.6,0h-0.6c-0.3,0-0.9-0.1-1.9-0.3
		c-1-0.2-1.8-0.5-2.3-0.9s-0.8-0.8-1.1-1.4c-0.2-0.6-0.3-1.1-0.3-1.6c0-0.7,0.1-1.4,0.4-2.2c0.3-0.7,0.6-1.3,0.9-1.7
		c0.3-0.4,0.9-0.8,1.6-1.3c0.1,0,0.2-0.1,0.3-0.2c0.1-0.1,0.3-0.2,0.4-0.2l0.3,0c0.1-0.1,0.4-0.2,0.8-0.2c0.4-0.1,0.7-0.1,0.9-0.1
		c0.4,0,0.9,0.2,1.4,0.5c0.5,0.3,0.8,1,0.9,1.9c0,0.2,0,0.3,0.1,0.4c0,0.1,0.1,0.2,0.1,0.2C260.6,19.2,260.6,19.2,260.6,19.3z
		 M256.4,17c0,0.1-0.2,0.2-0.6,0.3c-0.2,0.1-0.3,0.3-0.5,0.4s-0.3,0.3-0.5,0.5c-0.2,0.2-0.3,0.3-0.4,0.5c-0.1,0.1-0.2,0.3-0.3,0.3
		c-0.1,0.1-0.1,0.1-0.1,0.2c0,0.1,0,0.1,0.1,0.2l0.1,0.1h0.8l3.6-0.1c0.5,0,0.7-0.2,0.7-0.6c0-0.4-0.1-0.8-0.3-1.1
		c-0.2-0.3-0.6-0.6-1.3-0.8c-0.1,0-0.2,0-0.3,0s-0.3,0-0.3,0C257.1,16.9,256.8,16.9,256.4,17z"/>
	<path d="M267.4,16.8c0,0,0,0.1,0.1,0.1c0.1,0,0.1,0,0.1,0h0.1c0.2,0,0.4,0.1,0.6,0.2s0.2,0.2,0.2,0.3c0,0.1-0.1,0.3-0.3,0.4
		l-0.1-0.1c-0.1,0.2-0.3,0.3-0.5,0.3l-0.1-0.1l-0.1,0c-0.3-0.1-0.6-0.2-0.9-0.2l-1,0c-0.1,0-0.3,0-0.6,0c-0.2,1.3-0.3,2.4-0.3,3.1
		c0,0.3,0,0.6,0,1s0.1,0.7,0.2,0.9c0.1,0.2,0.2,0.5,0.3,0.7c0.1,0.2,0.2,0.4,0.5,0.6c0.2,0.2,0.4,0.3,0.6,0.4s0.3,0.2,0.5,0.3
		c0.1,0.1,0.5,0.2,1,0.2h0.2c0.1,0.1,0.2,0.2,0.2,0.3c0,0.1,0,0.2-0.1,0.3c-0.1,0.2-0.2,0.3-0.2,0.4c-0.1,0.1-0.2,0.2-0.3,0.4h0
		c0,0-0.1,0-0.1-0.1c-0.2,0-0.5,0-0.6-0.1c0,0,0,0,0,0s0,0-0.1-0.1c-0.1,0-0.1-0.1-0.1-0.1c0-0.1-0.1-0.2-0.3-0.3
		c-0.3-0.1-0.6-0.3-0.9-0.5c-0.3-0.2-0.5-0.5-0.8-0.9c-0.3-0.4-0.5-0.7-0.5-1.1c-0.1-0.3-0.1-0.7-0.2-1.2s-0.1-1-0.1-1.5
		c0-0.9,0.1-1.9,0.2-2.9l-0.2-0.1l-0.1,0.1h-0.1l0-0.1c-1.6-0.1-2.4-0.2-2.4-0.5c0-0.1,0-0.2,0.1-0.2c0.1-0.1,0.4-0.1,0.9-0.1h0.4
		l0.4-0.1c0.2,0,0.3-0.1,0.5-0.2s0.3-0.2,0.4-0.3s0.2-0.6,0.3-1.4c0.1-0.5,0.1-1,0.1-1.5V13c0-0.1,0-0.3,0.1-0.6s0.2-0.4,0.4-0.6
		c0.1-0.1,0.2-0.2,0.3-0.2c0.1,0,0.3,0,0.4,0.1c0.2,0.1,0.2,0.1,0.3,0.1s0,0.1,0.1,0.2c0,0.1,0.1,0.2,0.1,0.2v0c0,0,0,0-0.1,0.1
		c-0.1,0-0.1,0-0.1,0s0,0,0,0s-0.1,0.2-0.1,0.6c-0.1,0.4-0.2,0.7-0.2,1.1c-0.1,0.4-0.1,0.7-0.1,1s-0.1,0.7-0.1,1
		c0,0.5,0,0.7,0.1,0.8c0,0.1,0.1,0.1,0.2,0.1c0,0,0.1,0,0.3-0.1c0.1,0,0.3-0.1,0.4-0.1c0.1,0,0.1,0,0.2,0l0.1,0.3c0,0,0.1,0,0.2,0
		c0.1,0,0.2,0,0.4-0.1C267.1,16.9,267.3,16.8,267.4,16.8z"/>
	<path d="M276.5,20.3c0,0.1,0,0.1-0.1,0.2c-0.1,0.1-0.2,0.2-0.2,0.3s-0.1,0.3-0.1,0.6c0,0.3,0,0.8,0,1.4l0,1.4c0,0.1,0,0.1-0.1,0.2
		c0,0.1,0,0.2,0,0.4c0,0.3,0,0.6,0.1,1l0.1,0.5l0,0.5l0,0.4c-0.5,0.5-0.9,0.7-1.1,0.7c0,0-0.1,0-0.2-0.1s-0.2-0.1-0.3-0.1h-0.1
		c-0.1-0.2-0.1-0.4-0.1-0.5c0-0.3,0.1-0.7,0.2-1c0.1-0.1,0.1-0.2,0.2-0.2c0-0.1,0.1-0.3,0.1-0.6c0-0.4,0-0.6-0.1-0.6
		c0,0-0.1,0-0.1,0c-0.1,0-0.1,0-0.2,0h-0.1c-0.1,0.1-0.1,0.1-0.2,0.2c-0.1,0-0.5,0.1-1.3,0.5c-0.4,0.1-0.8,0.2-1.1,0.2
		c-0.4,0-0.8-0.1-1.1-0.2c-0.3-0.1-0.6-0.3-0.8-0.5c-0.2-0.2-0.4-0.4-0.4-0.5c-0.1-0.1-0.1-0.3-0.1-0.7l0-0.3v-0.1
		c0-0.7,0.5-1.4,1.6-2.2c1.1-0.8,2.1-1.2,3-1.4c0.2,0,0.4-0.1,0.6-0.1c0.1,0,0.3-0.1,0.3-0.2c0.1-0.1,0.1-0.3,0.1-0.7
		c0-1.2-0.6-2-1.9-2.5c0,0-0.1,0-0.2-0.1c-0.1,0-0.1-0.1-0.2-0.1c-0.7,0-1.2,0-1.7,0.1c-0.2,0.3-0.5,0.4-0.8,0.4
		c-0.2,0-0.3-0.1-0.3-0.2c0,0,0-0.2,0.1-0.4c0.1-0.3,0.3-0.4,0.7-0.4c0.4-0.2,1.2-0.3,2.4-0.3c0.9,0,1.6,0.4,2.1,1.1
		c0.5,0.7,0.8,1.7,0.8,3v0.1c0.1,0.1,0.2,0.2,0.3,0.2S276.5,20.2,276.5,20.3L276.5,20.3z M274.5,23.9c0.4-0.6,0.6-1.1,0.6-1.6
		c0-0.3-0.1-0.6-0.2-0.9c-0.1-0.3-0.4-0.5-0.8-0.5c-0.8,0-1.5,0.2-2,0.6h-0.3c-1.1,0.6-1.6,1.2-1.6,1.8c0,0.5,0.2,0.8,0.7,1.2
		c0.4,0.3,0.9,0.5,1.5,0.5c0.2,0,0.4-0.1,0.9-0.2s0.8-0.4,1.2-0.7V23.9z"/>
	<path d="M291.2,16.2l0.1,0.1c0.2,0.1,0.2,0.2,0.2,0.4c0,0.3-0.1,0.5-0.2,0.7c-0.1,0.2-0.3,0.8-0.6,1.7c-0.3,0.9-0.6,1.8-0.9,2.8
		c-0.3,1-0.4,1.7-0.5,2.2c-0.1,0.5-0.2,0.9-0.3,1.2c-0.1,0.3-0.3,0.6-0.7,0.9h-0.2c0,0-0.1,0-0.1,0.1l-0.1,0c-0.2,0-0.3-0.2-0.4-0.5
		c0-0.4-0.3-1.3-1-2.7c-0.7-1.4-1.2-2.5-1.5-3.3c-0.2-0.6-0.4-0.9-0.6-0.9c0,0-0.1,0-0.2,0c-0.4,1-0.8,2.1-1.3,3.4l-1,2.9
		c0,0,0.1,0.1,0.1,0.1c0,0,0,0-0.1,0.1c0,0-0.1,0.1-0.1,0.1c0,0.1,0,0.1,0.1,0.3c0,0-0.1,0-0.1-0.1c0,0-0.1,0-0.1,0
		c-0.4,0.3-0.7,0.5-1,0.5c-0.1,0-0.2-0.1-0.2-0.2c0-0.1-0.1-0.4-0.1-0.8c-0.2-2.1-0.6-3.8-1.1-5c0-0.1-0.1-0.2-0.1-0.5
		c0-0.3-0.1-0.5-0.1-0.6s-0.1-0.3-0.2-0.5c-0.1-0.2-0.2-0.4-0.3-0.6c-0.1-0.2-0.2-0.3-0.2-0.5c0-0.5,0.5-0.8,1.6-0.8
		c0.1,0.2,0.1,0.4,0.1,0.6c0,0.1,0,0.2,0,0.4c0,0.2,0,0.3,0,0.4c0,0.5,0.2,1.3,0.5,2.5l0.9,3.4c0.8-1.8,1.5-3.3,1.9-4.4
		c0.4-1.1,0.6-1.7,0.6-1.9l0-0.3c0-0.2,0.1-0.3,0.2-0.6s0.3-0.3,0.5-0.3c0.2,0,0.3,0,0.3,0.1c0.1,0.1,0.2,0.3,0.3,0.6
		c0,0.1,0,0.2,0.1,0.4c0,0.2,0.1,0.4,0.1,0.6c0.1,0.2,0.2,0.5,0.4,0.9c0.2,0.4,0.4,0.8,0.5,1.3c0.2,0.5,0.4,0.9,0.5,1.2
		c0.2,0.3,0.4,0.8,0.6,1.3c0.3,0.5,0.5,0.8,0.6,0.9c0.1,0.1,0.2,0.2,0.3,0.2c0.5-1.4,0.9-2.6,1.1-3.6c0.3-1,0.4-1.8,0.4-2.3
		c0-0.3-0.1-0.6-0.2-0.8c0.2-0.1,0.3-0.2,0.3-0.4c0-0.2,0.1-0.3,0.1-0.3h0.1c0.1,0,0.2,0,0.4-0.1S291.1,16.2,291.2,16.2z"/>
	<path d="M299.6,20.3c0,0.1,0,0.1-0.1,0.2c-0.1,0.1-0.2,0.2-0.2,0.3c0,0.1-0.1,0.3-0.1,0.6c0,0.3,0,0.8,0,1.4l0,1.4
		c0,0.1,0,0.1-0.1,0.2c0,0.1,0,0.2,0,0.4c0,0.3,0,0.6,0.1,1l0.1,0.5l0,0.5l0,0.4c-0.5,0.5-0.9,0.7-1.1,0.7c0,0-0.1,0-0.2-0.1
		s-0.2-0.1-0.3-0.1h-0.1c-0.1-0.2-0.1-0.4-0.1-0.5c0-0.3,0.1-0.7,0.2-1c0.1-0.1,0.1-0.2,0.2-0.2c0-0.1,0.1-0.3,0.1-0.6
		c0-0.4,0-0.6-0.1-0.6c0,0-0.1,0-0.1,0s-0.1,0-0.2,0h-0.1c-0.1,0.1-0.1,0.1-0.2,0.2c-0.1,0-0.5,0.1-1.3,0.5
		c-0.4,0.1-0.8,0.2-1.1,0.2c-0.4,0-0.8-0.1-1.1-0.2c-0.3-0.1-0.6-0.3-0.8-0.5c-0.2-0.2-0.4-0.4-0.4-0.5c-0.1-0.1-0.1-0.3-0.1-0.7
		l0-0.3v-0.1c0-0.7,0.5-1.4,1.6-2.2c1.1-0.8,2.1-1.2,3-1.4c0.2,0,0.4-0.1,0.6-0.1c0.1,0,0.3-0.1,0.3-0.2c0.1-0.1,0.1-0.3,0.1-0.7
		c0-1.2-0.6-2-1.9-2.5c0,0-0.1,0-0.2-0.1c-0.1,0-0.1-0.1-0.2-0.1c-0.7,0-1.2,0-1.7,0.1c-0.2,0.3-0.5,0.4-0.8,0.4
		c-0.2,0-0.3-0.1-0.3-0.2c0,0,0-0.2,0.1-0.4c0.1-0.3,0.3-0.4,0.7-0.4c0.4-0.2,1.2-0.3,2.4-0.3c0.9,0,1.6,0.4,2.1,1.1
		c0.5,0.7,0.8,1.7,0.8,3v0.1c0.1,0.1,0.2,0.2,0.3,0.2S299.6,20.2,299.6,20.3L299.6,20.3z M297.5,23.9c0.4-0.6,0.6-1.1,0.6-1.6
		c0-0.3-0.1-0.6-0.2-0.9c-0.1-0.3-0.4-0.5-0.8-0.5c-0.8,0-1.5,0.2-2,0.6h-0.3c-1.1,0.6-1.6,1.2-1.6,1.8c0,0.5,0.2,0.8,0.7,1.2
		c0.4,0.3,0.9,0.5,1.5,0.5c0.2,0,0.4-0.1,0.9-0.2s0.8-0.4,1.2-0.7V23.9z"/>
	<path d="M310.1,16.6c0.1-0.1,0.2-0.1,0.3-0.1c0.1,0,0.3,0,0.6,0.1c0.3,0.1,0.4,0.2,0.4,0.3c0,0.2-0.1,0.4-0.4,0.5
		c-0.1,0-0.4,0.6-1.1,1.7l-1.7,3.1c-0.5,0.9-0.8,1.7-0.9,2.3c-0.1,0.5-0.2,0.9-0.5,1l-0.1,0.3c-0.1,0-0.2,0.1-0.3,0.2
		c-1,2.3-1.6,3.7-1.8,4.2s-0.3,1-0.4,1.3s-0.2,0.4-0.4,0.4h-0.1c-0.2-0.1-0.5-0.1-0.9-0.1l-0.1,0c-0.1,0-0.2-0.1-0.2-0.2
		c0,0,0-0.1,0.1-0.1c0-0.1,0.3-0.4,0.8-1.1c-0.1,0-0.1-0.1-0.1-0.1c0-0.1,0.2-0.4,0.5-0.9c0.8-1.2,1.5-2.4,2-3.5
		c0-0.1-0.1-0.1-0.1-0.2c0,0-0.1,0-0.2,0h-0.1c-0.1,0-0.2-0.2-0.3-0.5c-0.1-0.4-0.1-0.6-0.1-0.6c-0.3-0.5-0.6-1.2-0.9-1.9
		s-0.7-1.5-1-2.2c-0.3-0.7-0.6-1.2-0.7-1.6c-0.1-0.4-0.3-0.7-0.6-0.9c-0.2-0.3-0.3-0.5-0.3-0.7v-0.1c0,0-0.1,0-0.1,0
		c-0.1,0-0.1,0-0.1-0.1s0.1-0.2,0.3-0.5c0.2-0.3,0.5-0.5,0.7-0.7c0.2,0.1,0.4,0.2,0.5,0.2s0.2,0.4,0.4,1l0.2,0.8v0.3
		c0.3,0.5,0.6,1.2,1,2.1l0.3,0.7c0.1,0.2,0.2,0.4,0.3,0.6c0.1,0.2,0.2,0.4,0.3,0.6c0.1,0.2,0.2,0.3,0.3,0.5c0.2,0.2,0.3,0.4,0.3,0.4
		c0,0.1,0.1,0.2,0.2,0.3c0.1,0.1,0.1,0.2,0.2,0.2c0.1,0.1,0.2,0.1,0.2,0.2l0.8-1.8c0.7-1.5,1.1-2.5,1.3-2.8c0.2-0.3,0.4-0.7,0.5-0.9
		c0.1-0.3,0.2-0.6,0.3-1s0.1-0.6,0.2-0.7c0.1-0.1,0.1-0.2,0.3-0.2L310.1,16.6z"/>
	<path d="M59.5,32.4c0.2,0,0.3,0.1,0.4,0.3C60,32.9,60,33,60,33.1c0,0.2-0.1,0.3-0.3,0.4v0c0,0.2-0.2,0.4-0.5,0.4
		c-0.1-0.1-0.3-0.2-0.5-0.2c-0.1,0-0.1,0.1-0.1,0.2c-0.2,0-0.3,0-0.4,0c-0.3,0-0.5,0.1-0.5,0.2h-0.2c-0.5,0-0.7,0.1-0.8,0.3
		c0,0-0.2,0.1-0.5,0.3c-0.3,0.1-0.5,0.3-0.6,0.4c-0.2,0.1-0.4,0.4-0.6,0.8s-0.5,0.8-0.7,1.4c-0.2,0.6-0.4,1-0.4,1.4
		c-0.1,0.4-0.1,0.8-0.3,1.3c-0.1,0.5-0.2,0.8-0.2,0.9c0,0.6,0.2,0.9,0.5,0.9c0.1,0,0.1,0,0.2,0c0.1,0.1,0.1,0.1,0.2,0.1
		c0,0,0.1,0,0.1,0c0.1,0,0.1,0,0.2,0c0.1,0,0.2,0,0.3,0c0.2,0,0.4,0,0.8-0.1c0.4-0.1,0.7-0.1,0.9-0.1c0,0,0.1,0,0.3,0
		c0.1,0,0.2,0.1,0.2,0.1c0,0.1,0,0.2,0.1,0.4h0c-0.1,0-0.2,0.1-0.4,0.3c0,0-0.1-0.1-0.1-0.1c0,0.1-0.1,0.2-0.3,0.2
		c-0.1,0-0.3,0-0.7-0.1s-0.7-0.1-0.9-0.1c-0.1,0-0.2,0-0.3,0s-0.2,0-0.3,0c0,0-0.2,0-0.3,0c-0.1,0-0.1,0-0.2,0c0,0-0.1,0-0.2,0
		c0,0.1,0,0.1-0.1,0.1l0,0c-0.1,0-0.2,0.8-0.2,2.3v1.1c0,0.7,0,1.5,0.1,2.4c0.1,0.9,0.2,1.4,0.2,1.5c0,0.1,0.1,0.2,0.2,0.3
		c0,0,0,0.1,0,0.2c0,0.1,0,0.3,0.1,0.5c0.1,0.2,0.1,0.3,0.1,0.4V51c-0.2,0.1-0.4,0.3-0.7,0.5c-0.1,0.2-0.3,0.3-0.5,0.3h0
		c-0.1-0.1-0.1-0.2-0.3-0.3s-0.2-0.2-0.3-0.2l-0.1,0c-0.1-0.2-0.1-0.3-0.1-0.4c0,0,0.1-0.1,0.2-0.3c0.1-0.1,0.2-0.3,0.2-0.6l0-0.2
		l0-1c0-0.7,0-1.4,0-2.2c0-0.7,0-1.5-0.1-2.3c-0.1-0.8-0.1-1.3-0.1-1.5l0-0.4c0-0.1-0.1-0.1-0.3-0.1c0,0-0.1,0-0.1,0s-0.1,0-0.2,0
		c-0.1,0-0.1,0-0.1,0c-0.1,0-0.1,0.1-0.1,0.1c0-0.1-0.1-0.1-0.1-0.1l-0.2,0c0,0,0,0-0.1-0.1v0c0-0.1,0.1-0.2,0.2-0.3
		s0.3-0.2,0.3-0.2H52c0.1-0.1,0.1-0.2,0.1-0.3h0.1c0.1,0,0.2,0,0.3-0.1c0.1-0.1,0.1-0.4,0.2-0.9c0.1-0.5,0.1-0.9,0.1-1.2
		c0.2-1.1,0.5-2,0.9-2.8c0.4-0.8,0.7-1.3,1.1-1.7s0.7-0.7,1.2-1.1c0.5-0.3,0.8-0.5,1-0.5h0.1c0.2-0.2,0.5-0.3,0.8-0.3l0.3-0.2
		C59,32.6,59.5,32.6,59.5,32.4z"/>
	<path d="M58.2,44.7c1.1-2,3-3,5.8-3c0.4,0,0.8,0,1.2,0.1s0.7,0.1,0.9,0.2c0.3,0.1,0.6,0.3,0.8,0.4c0.2,0.2,0.5,0.4,0.7,0.7
		c0.2,0.3,0.5,0.6,0.7,1c0.1,0.2,0.2,0.6,0.2,1.3c0,1.6-0.5,2.9-1.6,4c-1.1,1.1-2.4,1.7-3.9,1.7h-0.1C62.4,51,62.3,51,62.2,51
		c0,0,0,0-0.1,0c-0.1,0.1-0.3,0.1-0.6,0.1c-0.5,0-1.1-0.1-1.7-0.4s-1.2-0.7-1.6-1.3c-0.4-0.6-0.6-1.2-0.6-1.8c0-0.2,0-0.5,0-0.7
		c0-0.2,0.1-0.5,0.1-0.7s0.1-0.4,0.2-0.6l0.2-0.6V44.7z M67.2,46.4v-0.3c0-1.1-0.4-2.1-1.1-2.7c-0.7-0.7-1.7-1-2.8-1
		c-0.3,0-0.5,0-0.7,0.1c-0.2,0.1-0.4,0.1-0.4,0.1c0,0-0.1,0.1-0.2,0.2c-0.1,0.1-0.1,0.2-0.2,0.2c0,0-0.1,0-0.2,0l-0.5-0.1
		C61,42.9,61,43,61,43.1c-0.5,0-1,0.4-1.5,1.2c-0.5,0.7-0.7,1.5-0.7,2.3c0,0.2,0,0.5,0.1,1.1c0.1,0.6,0.3,1,0.6,1.4s0.8,0.7,1.3,0.9
		s0.9,0.4,1.2,0.4c0.1,0,0.2,0,0.2,0l0.1,0h0.4c0.9,0,1.5-0.1,1.9-0.4c0,0,0.1,0,0.1,0c0,0,0.1,0,0.2,0.1c0.8-0.7,1.3-1.3,1.7-2
		C67,47.1,67.2,46.6,67.2,46.4z"/>
	<path d="M76.3,43.1c0,0.1,0,0.2-0.1,0.3c-0.1,0.2-0.2,0.3-0.2,0.5c0,0.1-0.1,0.3-0.3,0.4h-0.3c-0.4-0.2-0.6-0.3-0.8-0.3
		c-0.1,0-0.3,0.1-0.6,0.2c-0.3,0.1-0.6,0.4-0.8,0.8c-0.3,0.4-0.4,0.7-0.5,0.9c0,0.2-0.1,0.5-0.3,0.7v0.3c-0.1,0.3-0.2,0.6-0.2,0.7
		c0,0.2,0,0.3,0,0.4c0,0.1,0,0.2,0,0.2c-0.1,0.1-0.1,0.2-0.1,0.2c0,0.2,0,0.5,0.1,0.9s0.2,0.8,0.4,1v0.1c0,0.3-0.1,0.5-0.4,0.5
		L72,51.1c-0.2,0-0.4,0-0.6,0c-0.3,0-0.5,0-0.7-0.1v0c0-0.2,0.1-0.5,0.2-0.8c0.1-0.4,0.2-0.6,0.2-0.8l0.1-2.4c0-1.9-0.1-3.5-0.3-5
		c0-0.2,0-0.2,0-0.3c0-0.3,0.1-0.5,0.4-0.6c0.2-0.1,0.5-0.2,0.7-0.2c0.2,0,0.3,0,0.5,0.1c0,0,0,0.1,0.1,0.1c0,0.1,0.1,0.1,0.1,0.1
		v0.1c0,0.1-0.1,0.3-0.2,0.7c-0.1,0.4-0.2,0.8-0.2,1.4l0,1.3V45c0,0.1,0.1,0.2,0.3,0.2c0.3-0.6,0.6-1.1,1-1.5
		c0.4-0.4,0.9-0.6,1.5-0.8s1-0.2,1.1-0.2c0.2,0.1,0.3,0.2,0.3,0.3V43.1z"/>
	<path d="M87.7,42c0,0,0,0.1,0.1,0.1c0.1,0,0.1,0,0.1,0H88c0.2,0,0.4,0.1,0.6,0.2s0.2,0.2,0.2,0.3c0,0.1-0.1,0.3-0.3,0.4l-0.1-0.1
		c-0.1,0.2-0.3,0.3-0.5,0.3l-0.1-0.1l-0.1,0c-0.3-0.1-0.6-0.2-0.9-0.2l-1,0c-0.1,0-0.3,0-0.6,0c-0.2,1.3-0.3,2.4-0.3,3.1
		c0,0.3,0,0.6,0,1c0,0.4,0.1,0.7,0.2,0.9c0.1,0.2,0.2,0.5,0.3,0.7c0.1,0.2,0.2,0.4,0.5,0.6c0.2,0.2,0.4,0.3,0.6,0.4
		c0.2,0.1,0.3,0.2,0.5,0.3s0.5,0.2,1,0.2h0.2c0.1,0.1,0.2,0.2,0.2,0.3c0,0.1-0.1,0.2-0.1,0.3c-0.1,0.2-0.2,0.3-0.2,0.4
		c-0.1,0.1-0.2,0.2-0.3,0.4h0c0,0-0.1,0-0.1-0.1c-0.2,0-0.5,0-0.6-0.1c0,0,0,0,0,0s0,0-0.1-0.1c-0.1,0-0.1-0.1-0.1-0.1
		c0-0.1-0.1-0.2-0.3-0.3c-0.3-0.1-0.6-0.3-0.9-0.5c-0.3-0.2-0.5-0.5-0.8-0.9c-0.3-0.4-0.5-0.7-0.5-1.1c-0.1-0.3-0.1-0.7-0.2-1.2
		c0-0.5-0.1-1-0.1-1.5c0-0.9,0.1-1.9,0.2-2.9L84,42.9L83.9,43h-0.1l0-0.1c-1.6-0.1-2.4-0.2-2.4-0.5c0-0.1,0-0.2,0.1-0.2
		c0.1-0.1,0.4-0.1,0.9-0.1h0.4l0.4-0.1c0.2,0,0.3-0.1,0.5-0.2s0.3-0.2,0.4-0.3c0.1-0.1,0.2-0.6,0.3-1.4c0.1-0.5,0.1-1,0.1-1.5v-0.4
		c0-0.1,0-0.3,0.1-0.6s0.2-0.4,0.4-0.6c0.1-0.1,0.2-0.2,0.3-0.2c0.1,0,0.3,0,0.4,0.1C85.9,37,85.9,37,86,37s0,0.1,0.1,0.2
		c0,0.1,0.1,0.2,0.1,0.2v0c0,0,0,0-0.1,0.1s-0.1,0-0.1,0s0,0,0,0c0,0-0.1,0.2-0.1,0.6c-0.1,0.4-0.2,0.7-0.2,1.1
		c-0.1,0.4-0.1,0.7-0.1,1s-0.1,0.7-0.1,1c0,0.5,0,0.7,0.1,0.8c0,0.1,0.1,0.1,0.2,0.1c0,0,0.1,0,0.3-0.1c0.1,0,0.3-0.1,0.4-0.1
		c0.1,0,0.1,0,0.2,0l0.1,0.3c0,0,0.1,0,0.2,0c0.1,0,0.2,0,0.4-0.1C87.3,42.1,87.5,42,87.7,42z"/>
	<path d="M91.1,33.7c0.1,0,0.2-0.1,0.3-0.1c0.1,0,0.2,0,0.4-0.1l0.4-0.1c0.3,0,0.4,0.2,0.4,0.6c0,0.1,0,0.3,0,0.5
		c-0.1,0.4-0.1,0.8-0.1,1.4l0,1.5l0,2.3c0,1.4,0,2.2,0.1,2.5s0.2,0.4,0.4,0.4c0.1,0,0.3-0.1,0.6-0.2c0.3-0.2,0.5-0.3,0.7-0.4
		c0.2-0.1,0.4-0.2,0.6-0.3c0.2-0.1,0.5-0.1,0.7-0.2l0.6-0.1c0.2,0,0.3,0,0.5,0h0.2c0.5,0.1,1,0.3,1.3,0.7s0.5,0.7,0.6,1.2
		c0.1,0.5,0.1,1.3,0.1,2.5c0,0.9-0.1,1.8-0.3,2.7c-0.2,0.9-0.3,1.5-0.3,1.5v0.1c0,0.1,0,0.2,0.1,0.4c0.1,0.2,0.1,0.3,0.1,0.3
		c-0.2,0.3-0.4,0.5-0.7,0.5h-0.2c-0.1,0-0.1,0-0.2,0c-0.1,0-0.1,0-0.2,0c0,0-0.1,0-0.3-0.1c-0.2-0.1-0.3-0.2-0.3-0.3
		c0,0,0-0.1,0.1-0.3c0.3-0.6,0.6-1.4,0.8-2.4c0.2-1,0.4-2,0.4-2.9v-0.7c0-0.7-0.2-1.3-0.5-1.7c-0.4-0.4-0.8-0.6-1.4-0.6
		c-0.3,0-0.7,0.1-1.2,0.3s-0.8,0.3-0.9,0.5c-0.1,0-0.2,0-0.3,0.1c-0.1,0.1-0.2,0.1-0.3,0.1c0,0-0.1,0.1-0.1,0.2c0,0.1,0,0.2-0.1,0.2
		c-0.1,0-0.1,0-0.2,0c0,0-0.1,0-0.2,0.1c0,0.1,0,0.2,0,0.3c0,0.1-0.1,0.6-0.1,1.4c0,0.8-0.1,1.4-0.1,1.8c0,0.4,0,0.8,0.1,1.3
		l0.1,0.5v0c0,0.1,0,0.2,0.1,0.4c0.1,0.2,0.1,0.3,0.1,0.4c0,0,0,0.1-0.1,0.2c0,0.1-0.1,0.2-0.1,0.2v0h0c0.1,0,0.2,0.1,0.2,0.3
		c0,0,0,0-0.1,0.1c-0.2,0-0.3,0.1-0.5,0.2S92,51,92,51c-0.2,0-0.3-0.1-0.3-0.2c-0.3,0-0.6-0.1-0.7-0.1s-0.2-0.2-0.2-0.3
		c0-0.1,0-0.1,0-0.2c0,0,0-0.1,0-0.1s0,0,0-0.1c0,0,0-0.1,0-0.1c0,0,0-0.1,0.1-0.2c0.4-0.7,0.6-1.6,0.6-2.6l-0.1-2
		c0-0.3,0-0.5,0-0.7c-0.3-0.1-0.4-0.3-0.4-0.6c0-0.3,0.2-0.7,0.5-1.1c0-0.7,0-1.8,0-3.1c0-3.4-0.2-5.1-0.5-5.1
		c0-0.1-0.1-0.2-0.1-0.3C90.8,33.9,90.9,33.7,91.1,33.7z"/>
	<path d="M109.2,44.5c0.1,0.1,0.1,0.1,0.1,0.2c0,0.2-0.1,0.3-0.2,0.4c0,0,0,0,0,0.1c0,0.1-0.1,0.2-0.4,0.2h-0.1c0,0-0.1,0-0.1,0.1
		s-0.1,0.1-0.1,0.1c0,0,0,0-0.1-0.1s-0.1-0.1-0.3-0.1l-0.1-0.1c-0.2,0-0.3,0.1-0.4,0.1c-0.1,0-0.3,0-0.5,0c-0.2,0-0.3,0-0.4,0
		c-0.1,0-0.2,0-0.5,0.1c-0.2,0-0.5,0.1-0.6,0.1l-1,0c-0.5,0-1,0-1.5,0.1c-0.1,0-0.2,0.1-0.3,0.1c-0.1,0-0.2,0.1-0.2,0.2
		c0,0.1-0.1,0.2-0.2,0.2c-0.1,0.3-0.1,0.5-0.1,0.8c0,0.2,0.1,0.5,0.2,1c0.1,0.5,0.2,0.9,0.4,1.1c0,0,0.3,0.3,0.9,0.7
		c0.3,0.3,0.7,0.5,1.1,0.6c0.4,0.1,0.9,0.2,1.4,0.2c0.2,0,0.5,0,0.8-0.1l0.4-0.1h0.7c0.1,0,0.2-0.1,0.4-0.2s0.4-0.2,0.6-0.2
		c0.1,0.2,0.1,0.4,0.1,0.5c0,0.3-0.1,0.6-0.3,0.8c-0.2,0.2-0.4,0.4-0.7,0.4l-0.2,0l-0.6,0h-0.6c-0.3,0-0.9-0.1-1.9-0.3
		c-1-0.2-1.8-0.5-2.3-0.9c-0.5-0.4-0.8-0.8-1.1-1.4c-0.2-0.6-0.3-1.1-0.3-1.6c0-0.7,0.1-1.4,0.4-2.2c0.3-0.7,0.6-1.3,0.9-1.7
		c0.3-0.4,0.9-0.8,1.6-1.3c0.1,0,0.2-0.1,0.3-0.2c0.1-0.1,0.3-0.2,0.4-0.2l0.3,0c0.1-0.1,0.4-0.2,0.8-0.2c0.4-0.1,0.7-0.1,0.9-0.1
		c0.4,0,0.9,0.2,1.4,0.5c0.5,0.3,0.8,1,0.9,1.9c0,0.2,0,0.3,0.1,0.4c0,0.1,0.1,0.2,0.1,0.2C109.3,44.4,109.3,44.4,109.2,44.5z
		 M105,42.2c0,0.1-0.2,0.2-0.6,0.3c-0.2,0.1-0.3,0.3-0.5,0.4c-0.2,0.2-0.3,0.3-0.5,0.5c-0.2,0.2-0.3,0.3-0.4,0.5
		c-0.1,0.1-0.2,0.3-0.3,0.3c-0.1,0.1-0.1,0.1-0.1,0.2c0,0.1,0,0.1,0.1,0.2l0.1,0.1h0.8l3.6-0.1c0.5,0,0.7-0.2,0.7-0.6
		c0-0.4-0.1-0.8-0.3-1.1c-0.2-0.3-0.6-0.6-1.3-0.8c-0.1,0-0.2,0-0.3,0s-0.3,0-0.3,0C105.7,42.1,105.5,42.1,105,42.2z"/>
	<path d="M121.4,42c0,0,0,0.1,0.1,0.1s0.1,0,0.1,0h0.1c0.2,0,0.4,0.1,0.6,0.2s0.2,0.2,0.2,0.3c0,0.1-0.1,0.3-0.3,0.4l-0.1-0.1
		c-0.1,0.2-0.3,0.3-0.5,0.3l-0.1-0.1l-0.1,0c-0.3-0.1-0.6-0.2-0.9-0.2l-1,0c-0.1,0-0.3,0-0.6,0c-0.2,1.3-0.3,2.4-0.3,3.1
		c0,0.3,0,0.6,0,1c0,0.4,0.1,0.7,0.2,0.9c0.1,0.2,0.2,0.5,0.3,0.7c0.1,0.2,0.2,0.4,0.5,0.6s0.4,0.3,0.6,0.4c0.2,0.1,0.3,0.2,0.5,0.3
		c0.1,0.1,0.5,0.2,1,0.2h0.2c0.1,0.1,0.2,0.2,0.2,0.3c0,0.1,0,0.2-0.1,0.3c-0.1,0.2-0.2,0.3-0.2,0.4s-0.2,0.2-0.3,0.4h0
		c0,0-0.1,0-0.1-0.1c-0.2,0-0.5,0-0.6-0.1c0,0,0,0,0,0s0,0-0.1-0.1c-0.1,0-0.1-0.1-0.1-0.1c0-0.1-0.1-0.2-0.3-0.3
		c-0.3-0.1-0.6-0.3-0.9-0.5c-0.3-0.2-0.5-0.5-0.8-0.9c-0.3-0.4-0.5-0.7-0.5-1.1c-0.1-0.3-0.1-0.7-0.2-1.2c0-0.5-0.1-1-0.1-1.5
		c0-0.9,0.1-1.9,0.2-2.9l-0.2-0.1l-0.1,0.1h-0.1l0-0.1c-1.6-0.1-2.4-0.2-2.4-0.5c0-0.1,0-0.2,0.1-0.2c0.1-0.1,0.4-0.1,0.9-0.1h0.4
		L117,42c0.2,0,0.3-0.1,0.5-0.2s0.3-0.2,0.4-0.3c0.1-0.1,0.2-0.6,0.3-1.4c0.1-0.5,0.1-1,0.1-1.5v-0.4c0-0.1,0-0.3,0.1-0.6
		s0.2-0.4,0.4-0.6s0.2-0.2,0.3-0.2c0.1,0,0.3,0,0.4,0.1c0.2,0.1,0.2,0.1,0.3,0.1c0,0,0,0.1,0.1,0.2c0,0.1,0.1,0.2,0.1,0.2v0
		c0,0,0,0-0.1,0.1c-0.1,0-0.1,0-0.1,0s0,0,0,0c0,0-0.1,0.2-0.1,0.6c-0.1,0.4-0.2,0.7-0.2,1.1c-0.1,0.4-0.1,0.7-0.1,1
		c0,0.3-0.1,0.7-0.1,1c0,0.5,0,0.7,0.1,0.8c0,0.1,0.1,0.1,0.2,0.1c0,0,0.1,0,0.3-0.1c0.1,0,0.3-0.1,0.4-0.1c0.1,0,0.1,0,0.2,0
		l0.1,0.3c0,0,0.1,0,0.2,0c0.1,0,0.2,0,0.4-0.1C121.1,42.1,121.3,42,121.4,42z"/>
	<path d="M136,41.4l0.1,0.1c0.2,0.1,0.2,0.2,0.2,0.4c0,0.3-0.1,0.5-0.2,0.7c-0.1,0.2-0.3,0.8-0.6,1.7c-0.3,0.9-0.6,1.8-0.9,2.8
		c-0.3,1-0.4,1.7-0.5,2.2c-0.1,0.5-0.2,0.9-0.3,1.2c-0.1,0.3-0.3,0.6-0.7,0.9h-0.2c0,0-0.1,0-0.1,0.1l-0.1,0c-0.2,0-0.3-0.2-0.4-0.5
		c0-0.4-0.3-1.3-1-2.7c-0.7-1.4-1.2-2.5-1.5-3.3c-0.2-0.6-0.4-0.9-0.6-0.9c0,0-0.1,0-0.2,0c-0.4,1-0.8,2.1-1.3,3.4l-1,2.9
		c0,0,0.1,0.1,0.1,0.1c0,0,0,0-0.1,0.1c0,0-0.1,0.1-0.1,0.1c0,0.1,0,0.1,0.1,0.3c0,0-0.1,0-0.1-0.1c0,0-0.1,0-0.1,0
		c-0.4,0.3-0.7,0.5-1,0.5c-0.1,0-0.2-0.1-0.2-0.2c0-0.1-0.1-0.4-0.1-0.8c-0.2-2.1-0.6-3.8-1.1-5c0-0.1-0.1-0.2-0.1-0.5
		c0-0.3-0.1-0.5-0.1-0.6s-0.1-0.3-0.2-0.5c-0.1-0.2-0.2-0.4-0.3-0.6c-0.1-0.2-0.2-0.3-0.2-0.5c0-0.5,0.5-0.8,1.6-0.8
		c0.1,0.2,0.1,0.4,0.1,0.6c0,0.1,0,0.2,0,0.4c0,0.2,0,0.3,0,0.4c0,0.5,0.2,1.3,0.5,2.5l0.9,3.4c0.8-1.8,1.5-3.3,1.9-4.4
		c0.4-1.1,0.6-1.7,0.6-1.9l0-0.3c0-0.2,0.1-0.3,0.2-0.6s0.3-0.3,0.5-0.3c0.2,0,0.3,0,0.3,0.1c0.1,0.1,0.2,0.3,0.3,0.6
		c0,0.1,0,0.2,0.1,0.4c0,0.2,0.1,0.4,0.1,0.6c0.1,0.2,0.2,0.5,0.4,0.9c0.2,0.4,0.4,0.8,0.5,1.3c0.2,0.5,0.4,0.9,0.5,1.2
		c0.2,0.3,0.4,0.8,0.6,1.3c0.3,0.5,0.5,0.8,0.6,0.9c0.1,0.1,0.2,0.2,0.3,0.2c0.5-1.4,0.9-2.6,1.1-3.6c0.3-1,0.4-1.8,0.4-2.3
		c0-0.3-0.1-0.6-0.2-0.8c0.2-0.1,0.3-0.2,0.3-0.4c0-0.2,0.1-0.3,0.1-0.3h0.1c0.1,0,0.2,0,0.4-0.1S135.9,41.4,136,41.4z"/>
	<path d="M138,44.7c1.1-2,3-3,5.8-3c0.4,0,0.8,0,1.2,0.1c0.3,0,0.7,0.1,0.9,0.2c0.3,0.1,0.6,0.3,0.8,0.4c0.2,0.2,0.5,0.4,0.7,0.7
		c0.2,0.3,0.5,0.6,0.7,1c0.1,0.2,0.2,0.6,0.2,1.3c0,1.6-0.5,2.9-1.6,4c-1.1,1.1-2.4,1.7-3.9,1.7h-0.1c-0.3-0.1-0.5-0.1-0.5-0.1
		c0,0,0,0-0.1,0c-0.1,0.1-0.3,0.1-0.6,0.1c-0.5,0-1.1-0.1-1.7-0.4c-0.7-0.3-1.2-0.7-1.6-1.3c-0.4-0.6-0.6-1.2-0.6-1.8
		c0-0.2,0-0.5,0-0.7c0-0.2,0.1-0.5,0.1-0.7c0.1-0.2,0.1-0.4,0.2-0.6L138,45V44.7z M147.1,46.4v-0.3c0-1.1-0.4-2.1-1.1-2.7
		c-0.7-0.7-1.7-1-2.8-1c-0.3,0-0.5,0-0.7,0.1c-0.2,0.1-0.4,0.1-0.4,0.1c0,0-0.1,0.1-0.2,0.2c-0.1,0.1-0.1,0.2-0.2,0.2
		c0,0-0.1,0-0.2,0l-0.5-0.1c-0.1,0-0.1,0.1-0.2,0.2c-0.5,0-1,0.4-1.5,1.2c-0.5,0.7-0.7,1.5-0.7,2.3c0,0.2,0,0.5,0.1,1.1
		c0.1,0.6,0.3,1,0.6,1.4s0.8,0.7,1.3,0.9c0.5,0.3,0.9,0.4,1.2,0.4c0.1,0,0.2,0,0.2,0l0.1,0h0.4c0.9,0,1.5-0.1,1.9-0.4
		c0,0,0.1,0,0.1,0c0,0,0.1,0,0.2,0.1c0.8-0.7,1.3-1.3,1.7-2C146.9,47.1,147.1,46.6,147.1,46.4z"/>
	<path d="M155.7,44.7c1.1-2,3-3,5.8-3c0.4,0,0.8,0,1.2,0.1c0.3,0,0.7,0.1,0.9,0.2c0.3,0.1,0.6,0.3,0.8,0.4c0.2,0.2,0.5,0.4,0.7,0.7
		c0.2,0.3,0.5,0.6,0.7,1c0.1,0.2,0.2,0.6,0.2,1.3c0,1.6-0.5,2.9-1.6,4c-1.1,1.1-2.4,1.7-3.9,1.7h-0.1c-0.3-0.1-0.5-0.1-0.5-0.1
		c0,0,0,0-0.1,0c-0.1,0.1-0.3,0.1-0.6,0.1c-0.5,0-1.1-0.1-1.7-0.4c-0.7-0.3-1.2-0.7-1.6-1.3c-0.4-0.6-0.6-1.2-0.6-1.8
		c0-0.2,0-0.5,0-0.7c0-0.2,0.1-0.5,0.1-0.7c0.1-0.2,0.1-0.4,0.2-0.6l0.2-0.6V44.7z M164.7,46.4v-0.3c0-1.1-0.4-2.1-1.1-2.7
		c-0.7-0.7-1.7-1-2.8-1c-0.3,0-0.5,0-0.7,0.1c-0.2,0.1-0.4,0.1-0.4,0.1c0,0-0.1,0.1-0.2,0.2c-0.1,0.1-0.1,0.2-0.2,0.2
		c0,0-0.1,0-0.2,0l-0.5-0.1c-0.1,0-0.1,0.1-0.2,0.2c-0.5,0-1,0.4-1.5,1.2c-0.5,0.7-0.7,1.5-0.7,2.3c0,0.2,0,0.5,0.1,1.1
		c0.1,0.6,0.3,1,0.6,1.4s0.8,0.7,1.3,0.9c0.5,0.3,0.9,0.4,1.2,0.4c0.1,0,0.2,0,0.2,0l0.1,0h0.4c0.9,0,1.5-0.1,1.9-0.4
		c0,0,0.1,0,0.1,0c0,0,0.1,0,0.2,0.1c0.8-0.7,1.3-1.3,1.7-2C164.5,47.1,164.7,46.6,164.7,46.4z"/>
	<path d="M175.9,32.4c0.2,0,0.3,0.1,0.4,0.3c0.1,0.2,0.1,0.3,0.1,0.4c0,0.2-0.1,0.3-0.3,0.4v0c0,0.2-0.2,0.4-0.5,0.4
		c-0.1-0.1-0.3-0.2-0.5-0.2c-0.1,0-0.1,0.1-0.1,0.2c-0.2,0-0.3,0-0.4,0c-0.3,0-0.5,0.1-0.5,0.2h-0.2c-0.5,0-0.7,0.1-0.8,0.3
		c0,0-0.2,0.1-0.5,0.3s-0.5,0.3-0.6,0.4c-0.2,0.1-0.4,0.4-0.6,0.8c-0.2,0.4-0.5,0.8-0.7,1.4c-0.2,0.6-0.4,1-0.4,1.4
		c-0.1,0.4-0.1,0.8-0.3,1.3c-0.1,0.5-0.2,0.8-0.2,0.9c0,0.6,0.2,0.9,0.5,0.9c0.1,0,0.1,0,0.2,0c0.1,0.1,0.1,0.1,0.2,0.1
		c0,0,0.1,0,0.1,0c0.1,0,0.1,0,0.2,0c0.1,0,0.2,0,0.3,0c0.2,0,0.4,0,0.8-0.1c0.4-0.1,0.7-0.1,0.9-0.1c0,0,0.1,0,0.3,0
		c0.1,0,0.2,0.1,0.2,0.1c0,0.1,0,0.2,0.1,0.4h0c-0.1,0-0.2,0.1-0.4,0.3c0,0-0.1-0.1-0.1-0.1c0,0.1-0.1,0.2-0.3,0.2
		c-0.1,0-0.3,0-0.7-0.1c-0.4,0-0.7-0.1-0.9-0.1c-0.1,0-0.2,0-0.3,0c-0.1,0-0.2,0-0.3,0c0,0-0.2,0-0.3,0c-0.1,0-0.1,0-0.2,0
		c0,0-0.1,0-0.2,0c0,0.1,0,0.1-0.1,0.1l0,0c-0.1,0-0.2,0.8-0.2,2.3v1.1c0,0.7,0,1.5,0.1,2.4c0.1,0.9,0.2,1.4,0.2,1.5
		c0,0.1,0.1,0.2,0.2,0.3c0,0,0,0.1,0,0.2c0,0.1,0,0.3,0.1,0.5c0.1,0.2,0.1,0.3,0.1,0.4V51c-0.2,0.1-0.4,0.3-0.7,0.5
		c-0.1,0.2-0.3,0.3-0.5,0.3h0c-0.1-0.1-0.1-0.2-0.3-0.3c-0.1-0.1-0.2-0.2-0.3-0.2l-0.1,0c-0.1-0.2-0.1-0.3-0.1-0.4
		c0,0,0.1-0.1,0.2-0.3c0.1-0.1,0.2-0.3,0.2-0.6l0-0.2l0-1c0-0.7,0-1.4,0-2.2c0-0.7,0-1.5-0.1-2.3c-0.1-0.8-0.1-1.3-0.1-1.5l0-0.4
		c0-0.1-0.1-0.1-0.3-0.1c0,0-0.1,0-0.1,0s-0.1,0-0.2,0c-0.1,0-0.1,0-0.1,0c-0.1,0-0.1,0.1-0.1,0.1c0-0.1-0.1-0.1-0.1-0.1l-0.2,0
		c0,0,0,0-0.1-0.1v0c0-0.1,0.1-0.2,0.2-0.3s0.3-0.2,0.3-0.2h0.2c0.1-0.1,0.1-0.2,0.1-0.3h0.1c0.1,0,0.2,0,0.3-0.1
		c0.1-0.1,0.1-0.4,0.2-0.9c0.1-0.5,0.1-0.9,0.1-1.2c0.2-1.1,0.5-2,0.9-2.8c0.4-0.8,0.7-1.3,1.1-1.7s0.7-0.7,1.2-1.1
		c0.5-0.3,0.8-0.5,1-0.5h0.1c0.2-0.2,0.5-0.3,0.8-0.3l0.3-0.2C175.4,32.6,175.8,32.6,175.9,32.4z"/>
	<path d="M187.6,41.8c0.1-0.1,0.2-0.1,0.3-0.1c0.1,0,0.3,0,0.6,0.1c0.3,0.1,0.4,0.2,0.4,0.3c0,0.2-0.1,0.4-0.4,0.5
		c-0.1,0-0.4,0.6-1.1,1.7l-1.7,3.1c-0.5,0.9-0.8,1.7-0.9,2.3c-0.1,0.5-0.2,0.9-0.5,1l-0.1,0.3c-0.1,0-0.2,0.1-0.3,0.2
		c-1,2.3-1.6,3.7-1.8,4.2c-0.2,0.5-0.3,1-0.4,1.3s-0.2,0.4-0.4,0.4h-0.1c-0.2-0.1-0.5-0.1-0.9-0.1l-0.1,0c-0.1,0-0.2-0.1-0.2-0.2
		c0,0,0-0.1,0.1-0.1c0-0.1,0.3-0.4,0.8-1.1c-0.1,0-0.1-0.1-0.1-0.1c0-0.1,0.2-0.4,0.5-0.9c0.8-1.2,1.5-2.4,2-3.5
		c0-0.1-0.1-0.1-0.1-0.2c0,0-0.1,0-0.2,0h-0.1c-0.1,0-0.2-0.2-0.3-0.5c-0.1-0.4-0.1-0.6-0.1-0.6c-0.3-0.5-0.6-1.2-0.9-1.9
		s-0.7-1.5-1-2.2c-0.3-0.7-0.6-1.2-0.7-1.6c-0.1-0.4-0.3-0.7-0.6-0.9c-0.2-0.3-0.3-0.5-0.3-0.7v-0.1c0,0-0.1,0-0.1,0
		c-0.1,0-0.1,0-0.1-0.1s0.1-0.2,0.3-0.5c0.2-0.3,0.5-0.5,0.7-0.7c0.2,0.1,0.4,0.2,0.5,0.2s0.2,0.4,0.4,1l0.2,0.8v0.3
		c0.3,0.5,0.6,1.2,1,2.1l0.3,0.7c0.1,0.2,0.2,0.4,0.3,0.6c0.1,0.2,0.2,0.4,0.3,0.6c0.1,0.2,0.2,0.3,0.3,0.5c0.2,0.2,0.3,0.4,0.3,0.4
		c0,0.1,0.1,0.2,0.2,0.3c0.1,0.1,0.1,0.2,0.2,0.2c0.1,0.1,0.2,0.1,0.2,0.2l0.8-1.8c0.7-1.5,1.1-2.5,1.3-2.8c0.2-0.3,0.4-0.7,0.5-0.9
		c0.1-0.3,0.2-0.6,0.3-1c0.1-0.4,0.1-0.6,0.2-0.7c0.1-0.1,0.1-0.2,0.3-0.2L187.6,41.8z"/>
	<path d="M190.4,44.7c1.1-2,3-3,5.8-3c0.4,0,0.8,0,1.2,0.1c0.3,0,0.7,0.1,0.9,0.2c0.3,0.1,0.6,0.3,0.8,0.4c0.2,0.2,0.5,0.4,0.7,0.7
		c0.2,0.3,0.5,0.6,0.7,1c0.1,0.2,0.2,0.6,0.2,1.3c0,1.6-0.5,2.9-1.6,4c-1.1,1.1-2.4,1.7-3.9,1.7H195c-0.3-0.1-0.5-0.1-0.5-0.1
		c0,0,0,0-0.1,0c-0.1,0.1-0.3,0.1-0.6,0.1c-0.5,0-1.1-0.1-1.7-0.4c-0.7-0.3-1.2-0.7-1.6-1.3c-0.4-0.6-0.6-1.2-0.6-1.8
		c0-0.2,0-0.5,0-0.7c0-0.2,0.1-0.5,0.1-0.7c0.1-0.2,0.1-0.4,0.2-0.6l0.2-0.6V44.7z M199.5,46.4v-0.3c0-1.1-0.4-2.1-1.1-2.7
		c-0.7-0.7-1.7-1-2.8-1c-0.3,0-0.5,0-0.7,0.1c-0.2,0.1-0.4,0.1-0.4,0.1c0,0-0.1,0.1-0.2,0.2c-0.1,0.1-0.1,0.2-0.2,0.2
		c0,0-0.1,0-0.2,0l-0.5-0.1c-0.1,0-0.1,0.1-0.2,0.2c-0.5,0-1,0.4-1.5,1.2s-0.7,1.5-0.7,2.3c0,0.2,0,0.5,0.1,1.1
		c0.1,0.6,0.3,1,0.6,1.4s0.8,0.7,1.3,0.9c0.5,0.3,0.9,0.4,1.2,0.4c0.1,0,0.2,0,0.2,0l0.1,0h0.4c0.9,0,1.5-0.1,1.9-0.4
		c0,0,0.1,0,0.1,0c0,0,0.1,0,0.2,0.1c0.8-0.7,1.3-1.3,1.7-2C199.3,47.1,199.5,46.6,199.5,46.4z"/>
	<path d="M210.1,41.6c0.1-0.1,0.3-0.2,0.5-0.2l0.6-0.1h0.1c0.1,0,0.2,0.2,0.2,0.5l-0.3,1.1c-0.1,0.4-0.2,0.7-0.2,1.1
		c0,0.3-0.1,0.7-0.1,1c0,0.3,0,0.6,0.1,1c0,0.4,0.2,0.7,0.4,0.9c0,0,0,0.1,0,0.1c0,0.1-0.1,0.2-0.2,0.4c-0.1,0.2-0.2,0.4-0.2,0.7
		c0,0.2,0,0.4,0.1,0.7c0.1,0.3,0.1,0.5,0.1,0.6c0,0.1,0.1,0.2,0.2,0.2c0.1,0.1,0.1,0.1,0.1,0.2c0,0.1-0.1,0.1-0.2,0.1
		c0,0.3,0,0.5,0,0.6c0,0.3,0,0.4,0.1,0.4c-0.5,0.2-0.8,0.3-1.1,0.3c-0.3,0-0.4-0.1-0.4-0.3c0-0.1,0-0.2,0.1-0.3c0,0,0-0.1,0-0.2
		c0-0.1,0-0.2,0.1-0.3s0.1-0.2,0.1-0.2c0-0.1,0-0.3-0.1-0.6s-0.2-0.4-0.4-0.4c-0.2,0-0.5,0.2-0.9,0.6c-0.6,0.6-1.2,1-1.7,1.2
		c-0.2,0.1-0.4,0.1-0.4,0.2c-1,0.2-1.5,0.2-1.5,0.2c-0.2,0-0.4-0.1-0.7-0.3c-0.3-0.2-0.5-0.4-0.7-0.6c-0.2-0.2-0.3-0.5-0.4-0.9
		c-0.1-0.4-0.2-0.8-0.2-1.3c0-0.2,0.1-1,0.3-2.3c0.2-1.3,0.3-2.2,0.4-2.8c0.1-0.6,0.1-0.8,0.1-0.9c0-0.1,0-0.1-0.1-0.3l-0.1-0.2v0
		c0,0,0-0.1,0.1-0.1c0.1,0,0.2-0.1,0.4-0.2s0.3-0.1,0.5-0.1c0,0,0.1,0,0.3,0.1s0.3,0.1,0.4,0.1h0.1c0.1,0.1,0.2,0.2,0.3,0.3
		l-0.2,0.2c-0.4,0.4-0.6,0.9-0.7,1.6l-0.3,2.2c-0.1,0.8-0.2,1.3-0.2,1.6c0,1,0.2,1.7,0.6,2.1s0.7,0.7,1.1,0.7l0.2,0l0.3,0
		c0.1,0,0.3-0.1,0.6-0.2c0.3-0.2,0.7-0.4,1.3-0.8c0.6-0.4,0.9-0.7,1.1-0.9c0.1-0.2,0.2-0.4,0.3-0.7c0.1-0.3,0.2-0.6,0.2-1
		c0-0.4,0.1-0.8,0.1-1.3c0-1.1,0-1.9-0.1-2.3c-0.1-0.4-0.1-0.6-0.3-0.7c-0.1-0.1-0.1-0.2-0.1-0.5c0.1,0,0.2-0.1,0.2-0.1
		c0,0,0.1,0,0.1,0C209.9,41.6,210,41.6,210.1,41.6z"/>
	<path d="M13.5,67.2c0,0,0,0.1,0.1,0.1s0.1,0,0.1,0h0.1c0.2,0,0.4,0.1,0.6,0.2s0.2,0.2,0.2,0.3c0,0.1-0.1,0.3-0.3,0.4l-0.1-0.1
		c-0.1,0.2-0.3,0.3-0.5,0.3l-0.1-0.1l-0.1,0c-0.3-0.1-0.6-0.2-0.9-0.2l-1,0c-0.1,0-0.3,0-0.6,0c-0.2,1.3-0.3,2.4-0.3,3.1
		c0,0.3,0,0.6,0,1c0,0.4,0.1,0.7,0.2,0.9c0.1,0.2,0.2,0.5,0.3,0.7c0.1,0.2,0.2,0.4,0.5,0.6s0.4,0.3,0.6,0.4c0.2,0.1,0.3,0.2,0.5,0.3
		c0.1,0.1,0.5,0.2,1,0.2h0.2c0.1,0.1,0.2,0.2,0.2,0.3c0,0.1,0,0.2-0.1,0.3c-0.1,0.2-0.2,0.3-0.2,0.4s-0.2,0.2-0.3,0.4h0
		c0,0-0.1,0-0.1-0.1c-0.2,0-0.5,0-0.6-0.1c0,0,0,0,0,0s0,0-0.1-0.1c-0.1,0-0.1-0.1-0.1-0.1c0-0.1-0.1-0.2-0.3-0.3
		c-0.3-0.1-0.6-0.3-0.9-0.5c-0.3-0.2-0.5-0.5-0.8-0.9c-0.3-0.4-0.5-0.7-0.5-1.1C10,73.4,9.9,73,9.9,72.6c0-0.5-0.1-1-0.1-1.5
		c0-0.9,0.1-1.9,0.2-2.9l-0.2-0.1l-0.1,0.1H9.6l0-0.1C8,68,7.2,67.9,7.2,67.6c0-0.1,0-0.2,0.1-0.2c0.1-0.1,0.4-0.1,0.9-0.1h0.4
		L9,67.2c0.2,0,0.3-0.1,0.5-0.2s0.3-0.2,0.4-0.3c0.1-0.1,0.2-0.6,0.3-1.4c0.1-0.5,0.1-1,0.1-1.5v-0.4c0-0.1,0-0.3,0.1-0.6
		s0.2-0.4,0.4-0.6S11,62,11.1,62c0.1,0,0.3,0,0.4,0.1c0.2,0.1,0.2,0.1,0.3,0.1c0,0,0,0.1,0.1,0.2c0,0.1,0.1,0.2,0.1,0.2v0
		c0,0,0,0-0.1,0.1c-0.1,0-0.1,0-0.1,0s0,0,0,0c0,0-0.1,0.2-0.1,0.6c-0.1,0.4-0.2,0.7-0.2,1.1c-0.1,0.4-0.1,0.7-0.1,1
		c0,0.3-0.1,0.7-0.1,1c0,0.5,0,0.7,0.1,0.8c0,0.1,0.1,0.1,0.2,0.1c0,0,0.1,0,0.3-0.1c0.1,0,0.3-0.1,0.4-0.1c0.1,0,0.1,0,0.2,0
		l0.1,0.3c0,0,0.1,0,0.2,0c0.1,0,0.2,0,0.4-0.1C13.1,67.3,13.3,67.2,13.5,67.2z"/>
	<path d="M16.2,69.9c1.1-2,3-3,5.8-3c0.4,0,0.8,0,1.2,0.1s0.7,0.1,0.9,0.2c0.3,0.1,0.6,0.3,0.8,0.4c0.2,0.2,0.5,0.4,0.7,0.7
		c0.2,0.3,0.5,0.6,0.7,1c0.1,0.2,0.2,0.6,0.2,1.3c0,1.6-0.5,2.9-1.6,4c-1.1,1.1-2.4,1.7-3.9,1.7h-0.1c-0.3-0.1-0.5-0.1-0.5-0.1
		c0,0,0,0-0.1,0c-0.1,0.1-0.3,0.1-0.6,0.1c-0.5,0-1.1-0.1-1.7-0.4s-1.2-0.7-1.6-1.3c-0.4-0.6-0.6-1.2-0.6-1.8c0-0.2,0-0.5,0-0.7
		c0-0.2,0.1-0.5,0.1-0.7s0.1-0.4,0.2-0.6l0.2-0.6V69.9z M25.2,71.6v-0.3c0-1.1-0.4-2.1-1.1-2.7c-0.7-0.7-1.7-1-2.8-1
		c-0.3,0-0.5,0-0.7,0.1c-0.2,0.1-0.4,0.1-0.4,0.1c0,0-0.1,0.1-0.2,0.2c-0.1,0.1-0.1,0.2-0.2,0.2c0,0-0.1,0-0.2,0l-0.5-0.1
		c-0.1,0-0.1,0.1-0.2,0.2c-0.5,0-1,0.4-1.5,1.2c-0.5,0.7-0.7,1.5-0.7,2.3c0,0.2,0,0.5,0.1,1.1c0.1,0.6,0.3,1,0.6,1.4
		s0.8,0.7,1.3,0.9s0.9,0.4,1.2,0.4c0.1,0,0.2,0,0.2,0l0.1,0h0.4c0.9,0,1.5-0.1,1.9-0.4c0,0,0.1,0,0.1,0c0,0,0.1,0,0.2,0.1
		c0.8-0.7,1.3-1.3,1.7-2C25,72.3,25.2,71.8,25.2,71.6z"/>
	<path d="M41.2,66.8c0.1-0.1,0.3-0.2,0.5-0.2l0.6-0.1h0.1c0.1,0,0.2,0.2,0.2,0.5l-0.3,1.1c-0.1,0.4-0.2,0.7-0.2,1.1s-0.1,0.7-0.1,1
		c0,0.3,0,0.6,0.1,1c0,0.4,0.2,0.7,0.4,0.9c0,0,0,0.1,0,0.1c0,0.1-0.1,0.2-0.2,0.4c-0.1,0.2-0.2,0.4-0.2,0.7c0,0.2,0,0.4,0.1,0.7
		c0.1,0.3,0.1,0.5,0.1,0.6c0,0.1,0.1,0.2,0.2,0.2c0.1,0.1,0.1,0.1,0.1,0.2c0,0.1-0.1,0.1-0.2,0.1c0,0.3,0,0.5,0,0.6
		c0,0.3,0,0.4,0.1,0.4c-0.5,0.2-0.8,0.3-1.1,0.3c-0.3,0-0.4-0.1-0.4-0.3c0-0.1,0-0.2,0.1-0.3c0,0,0-0.1,0-0.2c0-0.1,0-0.2,0.1-0.3
		c0-0.1,0.1-0.2,0.1-0.2c0-0.1,0-0.3-0.1-0.6s-0.2-0.4-0.4-0.4c-0.2,0-0.5,0.2-0.9,0.6c-0.6,0.6-1.2,1-1.7,1.2
		c-0.2,0.1-0.4,0.1-0.4,0.2c-1,0.2-1.5,0.2-1.5,0.2c-0.2,0-0.4-0.1-0.7-0.3c-0.3-0.2-0.5-0.4-0.7-0.6c-0.2-0.2-0.3-0.5-0.4-0.9
		c-0.1-0.4-0.2-0.8-0.2-1.3c0-0.2,0.1-1,0.3-2.3s0.3-2.2,0.4-2.8c0.1-0.6,0.1-0.8,0.1-0.9c0-0.1,0-0.1-0.1-0.3L34.8,67v0
		c0,0,0-0.1,0.1-0.1c0.1,0,0.2-0.1,0.4-0.2c0.2-0.1,0.3-0.1,0.5-0.1c0,0,0.1,0,0.3,0.1c0.1,0,0.3,0.1,0.4,0.1h0.1
		c0.1,0.1,0.2,0.2,0.3,0.3l-0.2,0.2c-0.4,0.4-0.6,0.9-0.7,1.6L35.5,71c-0.1,0.8-0.2,1.3-0.2,1.6c0,1,0.2,1.7,0.6,2.1
		c0.4,0.4,0.7,0.7,1.1,0.7l0.2,0l0.3,0c0.1,0,0.3-0.1,0.6-0.2c0.3-0.2,0.7-0.4,1.3-0.8c0.6-0.4,0.9-0.7,1.1-0.9
		c0.1-0.2,0.2-0.4,0.3-0.7c0.1-0.3,0.2-0.6,0.2-1S41,71,41,70.5c0-1.1,0-1.9-0.1-2.3c-0.1-0.4-0.1-0.6-0.3-0.7
		c-0.1-0.1-0.1-0.2-0.1-0.5c0.1,0,0.2-0.1,0.2-0.1c0,0,0.1,0,0.1,0C41,66.8,41.1,66.8,41.2,66.8z"/>
	<path d="M50.6,67.3c0.4-0.1,0.8-0.1,1.1-0.1c1.9,0,2.8,1.2,2.8,3.5c0,1.3-0.2,2.8-0.6,4.5c-0.2,0.7-0.3,1.2-0.3,1.5
		c0,0.1,0,0.1,0,0.2c-0.1,0.4-0.3,0.6-0.7,0.6c-0.2,0-0.5-0.1-0.7-0.2c-0.2-0.1-0.3-0.3-0.3-0.4c0-0.2,0.1-0.5,0.4-0.8
		c0.3-0.3,0.6-1,0.8-2s0.4-1.9,0.4-2.9c0-2-0.8-3-2.5-3c-0.7,0-1.3,0.1-1.8,0.4s-0.9,0.6-1,0.9c-0.1,0.1-0.2,0.1-0.3,0.2
		c-0.1,0.1-0.2,0.1-0.2,0.1c0,0-0.1,0.6-0.1,1.6s-0.1,1.7-0.1,2.3V74c0,0.3,0,0.5,0.1,0.7c0.1,0.2,0.1,0.3,0.1,0.4l0,0.4
		c0,0.2,0,0.4-0.1,0.5c-0.1,0.1-0.2,0.2-0.3,0.2h0l-0.1,0.1c-0.1,0-0.1,0-0.2,0c-0.1,0-0.2,0.1-0.4,0.2h-0.1c-0.1,0-0.2-0.1-0.3-0.3
		c-0.2,0-0.3-0.1-0.3-0.3c0-0.2,0-0.3,0.1-0.4c0.1,0,0.2-0.4,0.3-1.3c0.1-0.9,0.2-2,0.2-3.4c0-1.8-0.1-2.8-0.4-3.1l0-0.2
		c0-0.3,0.2-0.4,0.5-0.5c0.1,0,0.2-0.1,0.3-0.3s0.2-0.2,0.3-0.2h0c0.1,0,0.3-0.1,0.4-0.1c0.1,0,0.2-0.1,0.2-0.1
		c0.1,0,0.1,0.1,0.1,0.4c0,0.2,0,0.4-0.1,0.7c-0.1,0.3-0.1,0.4-0.1,0.5c0,0.1,0,0.2,0.1,0.3c0.1,0.1,0.2,0.1,0.3,0.1h0.1
		c0.2-0.2,0.3-0.3,0.3-0.3h0c0.7,0,1.2-0.1,1.5-0.4c0.1,0,0.1,0,0.2,0c0.1,0,0.1,0,0.2,0C50.5,67.4,50.6,67.4,50.6,67.3z"/>
	<path d="M69.4,66.6l0.1,0.1c0.2,0.1,0.2,0.2,0.2,0.4c0,0.3-0.1,0.5-0.2,0.7c-0.1,0.2-0.3,0.8-0.6,1.7c-0.3,0.9-0.6,1.8-0.9,2.8
		c-0.3,1-0.4,1.7-0.5,2.2c-0.1,0.5-0.2,0.9-0.3,1.2c-0.1,0.3-0.3,0.6-0.7,0.9h-0.2c0,0-0.1,0-0.1,0.1l-0.1,0c-0.2,0-0.3-0.2-0.4-0.5
		c0-0.4-0.3-1.3-1-2.7c-0.7-1.4-1.2-2.5-1.5-3.3c-0.2-0.6-0.4-0.9-0.6-0.9c0,0-0.1,0-0.2,0c-0.4,1-0.8,2.1-1.3,3.4l-1,2.9
		c0,0,0.1,0.1,0.1,0.1c0,0,0,0-0.1,0.1c0,0-0.1,0.1-0.1,0.1c0,0.1,0,0.1,0.1,0.3c0,0-0.1,0-0.1-0.1c0,0-0.1,0-0.1,0
		c-0.4,0.3-0.7,0.5-1,0.5c-0.1,0-0.2-0.1-0.2-0.2c0-0.1-0.1-0.4-0.1-0.8c-0.2-2.1-0.6-3.8-1.1-5c0-0.1-0.1-0.2-0.1-0.5
		c0-0.3-0.1-0.5-0.1-0.6s-0.1-0.3-0.2-0.5c-0.1-0.2-0.2-0.4-0.3-0.6c-0.1-0.2-0.2-0.3-0.2-0.5c0-0.5,0.5-0.8,1.6-0.8
		c0.1,0.2,0.1,0.4,0.1,0.6c0,0.1,0,0.2,0,0.4c0,0.2,0,0.3,0,0.4c0,0.5,0.2,1.3,0.5,2.5l0.9,3.4c0.8-1.8,1.5-3.3,1.9-4.4
		c0.4-1.1,0.6-1.7,0.6-1.9l0-0.3c0-0.2,0.1-0.3,0.2-0.6s0.3-0.3,0.5-0.3c0.2,0,0.3,0,0.3,0.1c0.1,0.1,0.2,0.3,0.3,0.6
		c0,0.1,0,0.2,0.1,0.4c0,0.2,0.1,0.4,0.1,0.6c0.1,0.2,0.2,0.5,0.4,0.9c0.2,0.4,0.4,0.8,0.5,1.3c0.2,0.5,0.4,0.9,0.5,1.2
		c0.2,0.3,0.4,0.8,0.6,1.3c0.3,0.5,0.5,0.8,0.6,0.9c0.1,0.1,0.2,0.2,0.3,0.2c0.5-1.4,0.9-2.6,1.1-3.6c0.3-1,0.4-1.8,0.4-2.3
		c0-0.3-0.1-0.6-0.2-0.8c0.2-0.1,0.3-0.2,0.3-0.4c0-0.2,0.1-0.3,0.1-0.3h0.1c0.1,0,0.2,0,0.4-0.1S69.3,66.6,69.4,66.6z"/>
	<path d="M73.9,76.2c0,0-0.1,0.1-0.4,0.2c-0.3,0.1-0.5,0.2-0.6,0.2h-0.1c-0.1,0-0.2,0-0.3,0c-0.1,0-0.2,0-0.2,0
		c-0.1,0-0.2,0-0.4-0.1c-0.1-0.1-0.2-0.2-0.2-0.2c0-0.1,0-0.4,0.1-0.7c0.1-0.3,0.1-0.5,0.3-0.7c0.1-0.4,0.1-1.2,0.1-2.4l-0.1-3.7
		l0-0.6c0-0.1-0.1-0.2-0.2-0.4c-0.1-0.2-0.2-0.4-0.2-0.7c0-0.2,0-0.3,0.1-0.3c0.1-0.1,0.3-0.2,0.6-0.3l0.6-0.3c0,0,0.1,0,0.1,0
		c0.2,0,0.3,0.3,0.3,0.8c0,0.3-0.1,1.1-0.2,2.3c-0.1,1.3-0.2,2.3-0.2,3.1c0,0.4,0,0.9,0,1.3c0,0.4,0,0.7,0.1,0.9s0.1,0.4,0.2,0.6
		C73.7,75.5,73.8,75.8,73.9,76.2C73.8,76.1,73.9,76.2,73.9,76.2z M73.4,63.1c0.1,0.1,0.3,0.2,0.5,0.3c0.2,0.1,0.4,0.3,0.4,0.4
		c0,0.2-0.1,0.3-0.3,0.5c-0.2,0.2-0.4,0.3-0.5,0.3c-0.2,0-0.4-0.1-0.6-0.3c-0.2-0.2-0.3-0.4-0.3-0.4c0-0.1,0.1-0.3,0.3-0.5
		S73.2,63.1,73.4,63.1L73.4,63.1z"/>
	<path d="M81.8,67.3c0.4-0.1,0.8-0.1,1.1-0.1c1.9,0,2.8,1.2,2.8,3.5c0,1.3-0.2,2.8-0.6,4.5c-0.2,0.7-0.3,1.2-0.3,1.5
		c0,0.1,0,0.1,0,0.2c-0.1,0.4-0.3,0.6-0.7,0.6c-0.2,0-0.5-0.1-0.7-0.2c-0.2-0.1-0.3-0.3-0.3-0.4c0-0.2,0.1-0.5,0.4-0.8
		c0.3-0.3,0.6-1,0.8-2c0.2-1,0.4-1.9,0.4-2.9c0-2-0.8-3-2.5-3c-0.6,0-1.3,0.1-1.8,0.4c-0.6,0.3-0.9,0.6-1,0.9
		c-0.1,0.1-0.2,0.1-0.3,0.2c-0.1,0.1-0.2,0.1-0.2,0.1c0,0-0.1,0.6-0.1,1.6s-0.1,1.7-0.1,2.3V74c0,0.3,0,0.5,0.1,0.7
		C79,74.9,79,75,79,75l0,0.4c0,0.2,0,0.4-0.1,0.5c-0.1,0.1-0.2,0.2-0.3,0.2h0l-0.1,0.1c-0.1,0-0.1,0-0.2,0c-0.1,0-0.2,0.1-0.4,0.2
		h-0.1c-0.1,0-0.2-0.1-0.3-0.3c-0.2,0-0.3-0.1-0.3-0.3c0-0.2,0-0.3,0.1-0.4c0.1,0,0.2-0.4,0.3-1.3c0.1-0.9,0.2-2,0.2-3.4
		c0-1.8-0.1-2.8-0.4-3.1l0-0.2c0-0.3,0.2-0.4,0.5-0.5c0.1,0,0.2-0.1,0.3-0.3c0.1-0.2,0.2-0.2,0.3-0.2h0c0.1,0,0.3-0.1,0.4-0.1
		s0.2-0.1,0.2-0.1c0.1,0,0.1,0.1,0.1,0.4c0,0.2,0,0.4-0.1,0.7c-0.1,0.3-0.1,0.4-0.1,0.5c0,0.1,0,0.2,0.1,0.3
		c0.1,0.1,0.2,0.1,0.3,0.1h0.1c0.2-0.2,0.3-0.3,0.3-0.3h0c0.7,0,1.2-0.1,1.5-0.4c0.1,0,0.1,0,0.2,0c0.1,0,0.1,0,0.2,0
		C81.7,67.4,81.8,67.4,81.8,67.3z"/>
	<path d="M96.9,77.5L96,78.8h-0.3c-0.1-0.1-0.2-0.1-0.3-0.1c-0.1-0.2-0.2-0.5-0.3-0.8c0.1-0.2,0.1-0.4,0.1-0.6l0-1.1
		c0-0.4-0.1-0.8-0.2-1.2c0,0-0.1,0-0.2,0.1s-0.2,0-0.2,0.1c-0.7,0.5-1.3,0.8-1.7,0.9c-0.5,0.1-1,0.2-1.4,0.2c-0.8,0-1.4-0.2-2-0.5
		c-0.6-0.4-0.9-0.8-1.1-1.4c-0.2-0.6-0.3-1-0.3-1.3c0-0.5,0-0.9,0.1-1.1c0-0.2,0.2-0.5,0.4-1c0.2-0.4,0.4-0.8,0.5-1
		c0.1-0.2,0.4-0.5,0.8-0.9s0.8-0.7,1.3-1c0.4-0.1,0.9-0.3,1.3-0.5c0.5-0.2,0.8-0.3,1-0.3l0.1,0.1c0.3-0.2,0.6-0.3,0.8-0.3h0
		c0.2,0,0.3-0.1,0.3-0.4c0-0.9,0-1.8-0.1-2.8c-0.1-1-0.1-1.5-0.2-1.6c0-0.1-0.1-0.2-0.3-0.3c0-0.1-0.1-0.3-0.1-0.5
		c0-0.5,0.2-0.8,0.5-0.8c0.3-0.2,0.6-0.3,0.7-0.3c0.1,0,0.2,0.1,0.4,0.2c0.2,0.1,0.2,0.2,0.3,0.2c0,0,0,0,0,0.1c0,0,0,0.2-0.1,0.3
		c-0.1,0.2-0.1,0.4-0.1,0.6c-0.1,0.1-0.2,0.3-0.2,0.5l0,0.5c0,1.1,0,1.9,0.1,2.6c0.1,0.6,0.1,1,0.1,1c0,0,0,0.1,0,0.1s0,0.1,0,0.1
		c0,0.1,0.1,0.3,0.2,0.4l0.2-0.1c0,0.1,0.1,0.2,0.3,0.2c0.3,0.1,0.5,0.2,0.4,0.4c0,0.2-0.1,0.4-0.1,0.5h-0.1c-0.1,0-0.2,0-0.3,0.1
		c-0.1,0-0.2,0.1-0.2,0.1c-0.1,0-0.1,0-0.2,0c0,0,0,0,0,0c-0.1,0-0.1,0.7-0.1,2c0,0.8,0.1,1.7,0.2,2.8c0.1,0.2,0.2,0.3,0.3,0.4
		c0,0.3-0.1,0.5-0.1,0.7c0,0.3,0,0.6,0.1,1c0.1,0.4,0.1,0.7,0.1,0.9l0,0.3c0,0.1,0,0.1,0.1,0.1c0.1,0,0.1,0.1,0.1,0.1v0l0,0.1
		L96.9,77.5z M94.4,68c-0.2,0-0.3-0.1-0.5-0.1l-0.4-0.1c-0.1,0-0.3,0-0.4,0.1L92.8,68h-0.5c-0.9,0.3-1.7,0.8-2.3,1.7
		c-0.6,0.8-0.9,1.7-0.9,2.5c0,0.9,0.3,1.6,0.8,2.1c0.5,0.6,1.2,0.8,2,0.8c0.7,0,1.3-0.1,1.9-0.3c0.5-0.2,0.9-0.5,1-0.7
		c0.1-0.3,0.1-0.9,0.1-1.8c0-1-0.1-2.3-0.2-4.1c-0.2-0.1-0.3-0.1-0.3-0.1V68z"/>
	<path d="M111.4,70.7c0,0.1,0,0.1-0.1,0.2c-0.1,0.1-0.2,0.2-0.2,0.3c0,0.1-0.1,0.3-0.1,0.6c0,0.3,0,0.8,0,1.4l0,1.4
		c0,0.1,0,0.1-0.1,0.2c0,0.1,0,0.2,0,0.4c0,0.3,0,0.6,0.1,1l0.1,0.5l0,0.5l0,0.4c-0.5,0.5-0.9,0.7-1.1,0.7c0,0-0.1,0-0.2-0.1
		s-0.2-0.1-0.3-0.1h-0.1c-0.1-0.2-0.1-0.4-0.1-0.5c0-0.3,0.1-0.7,0.2-1c0.1-0.1,0.1-0.2,0.2-0.2c0-0.1,0.1-0.3,0.1-0.6
		c0-0.4,0-0.6-0.1-0.6c0,0-0.1,0-0.1,0s-0.1,0-0.2,0h-0.1c-0.1,0.1-0.1,0.1-0.2,0.2c-0.1,0-0.5,0.1-1.3,0.5
		c-0.4,0.1-0.8,0.2-1.1,0.2c-0.4,0-0.8-0.1-1.1-0.2c-0.3-0.1-0.6-0.3-0.8-0.5c-0.2-0.2-0.4-0.4-0.4-0.5c-0.1-0.1-0.1-0.3-0.1-0.7
		l0-0.3v-0.1c0-0.7,0.5-1.4,1.6-2.2c1.1-0.8,2.1-1.2,3-1.4c0.2,0,0.4-0.1,0.6-0.1c0.1,0,0.3-0.1,0.3-0.2c0.1-0.1,0.1-0.3,0.1-0.7
		c0-1.2-0.6-2-1.9-2.5c0,0-0.1,0-0.2-0.1c-0.1,0-0.1-0.1-0.2-0.1c-0.7,0-1.2,0-1.7,0.1c-0.2,0.3-0.5,0.4-0.8,0.4
		c-0.2,0-0.3-0.1-0.3-0.2c0,0,0-0.2,0.1-0.4c0.1-0.3,0.3-0.4,0.7-0.4c0.4-0.2,1.2-0.3,2.4-0.3c0.9,0,1.6,0.4,2.1,1.1
		c0.5,0.7,0.8,1.7,0.8,3v0.1c0.1,0.1,0.2,0.2,0.3,0.2S111.4,70.6,111.4,70.7L111.4,70.7z M109.4,74.3c0.4-0.6,0.6-1.1,0.6-1.6
		c0-0.3-0.1-0.6-0.2-0.9c-0.1-0.3-0.4-0.5-0.8-0.5c-0.8,0-1.5,0.2-2,0.6h-0.3c-1.1,0.6-1.6,1.2-1.6,1.8c0,0.5,0.2,0.8,0.7,1.2
		c0.4,0.3,0.9,0.5,1.5,0.5c0.2,0,0.4-0.1,0.9-0.2s0.8-0.4,1.2-0.7V74.3z"/>
	<path d="M119.2,67.3c0.4-0.1,0.8-0.1,1.1-0.1c1.9,0,2.8,1.2,2.8,3.5c0,1.3-0.2,2.8-0.6,4.5c-0.2,0.7-0.3,1.2-0.3,1.5
		c0,0.1,0,0.1,0,0.2c-0.1,0.4-0.3,0.6-0.7,0.6c-0.2,0-0.5-0.1-0.7-0.2c-0.2-0.1-0.3-0.3-0.3-0.4c0-0.2,0.1-0.5,0.4-0.8
		c0.3-0.3,0.5-1,0.8-2s0.4-1.9,0.4-2.9c0-2-0.8-3-2.5-3c-0.6,0-1.3,0.1-1.8,0.4s-0.9,0.6-1,0.9c-0.1,0.1-0.2,0.1-0.3,0.2
		c-0.1,0.1-0.2,0.1-0.2,0.1c0,0-0.1,0.6-0.1,1.6s-0.1,1.7-0.1,2.3V74c0,0.3,0,0.5,0.1,0.7c0.1,0.2,0.1,0.3,0.1,0.4l0,0.4
		c0,0.2,0,0.4-0.1,0.5c-0.1,0.1-0.2,0.2-0.3,0.2h0l-0.1,0.1c-0.1,0-0.1,0-0.2,0c-0.1,0-0.2,0.1-0.4,0.2h-0.1c-0.1,0-0.2-0.1-0.3-0.3
		c-0.2,0-0.3-0.1-0.3-0.3c0-0.2,0-0.3,0.1-0.4c0.1,0,0.2-0.4,0.3-1.3c0.1-0.9,0.2-2,0.2-3.4c0-1.8-0.1-2.8-0.4-3.1l0-0.2
		c0-0.3,0.2-0.4,0.5-0.5c0.1,0,0.2-0.1,0.3-0.3s0.2-0.2,0.3-0.2h0c0.1,0,0.3-0.1,0.4-0.1c0.1,0,0.2-0.1,0.2-0.1
		c0.1,0,0.1,0.1,0.1,0.4c0,0.2,0,0.4-0.1,0.7c-0.1,0.3-0.1,0.4-0.1,0.5c0,0.1,0,0.2,0.1,0.3c0.1,0.1,0.2,0.1,0.3,0.1h0.1
		c0.2-0.2,0.3-0.3,0.3-0.3h0c0.7,0,1.2-0.1,1.5-0.4c0.1,0,0.1,0,0.2,0c0.1,0,0.1,0,0.2,0C119.1,67.4,119.2,67.4,119.2,67.3z"/>
	<path d="M134.3,77.5l-0.9,1.3h-0.3c-0.1-0.1-0.2-0.1-0.3-0.1c-0.1-0.2-0.2-0.5-0.3-0.8c0.1-0.2,0.1-0.4,0.1-0.6l0-1.1
		c0-0.4-0.1-0.8-0.2-1.2c0,0-0.1,0-0.2,0.1c-0.1,0-0.2,0-0.2,0.1c-0.7,0.5-1.3,0.8-1.7,0.9c-0.5,0.1-1,0.2-1.4,0.2
		c-0.8,0-1.4-0.2-2-0.5c-0.6-0.4-0.9-0.8-1.1-1.4c-0.2-0.6-0.3-1-0.3-1.3c0-0.5,0-0.9,0.1-1.1c0-0.2,0.2-0.5,0.4-1
		c0.2-0.4,0.4-0.8,0.5-1c0.1-0.2,0.4-0.5,0.8-0.9c0.4-0.3,0.8-0.7,1.3-1c0.4-0.1,0.9-0.3,1.3-0.5c0.5-0.2,0.8-0.3,1-0.3l0.1,0.1
		c0.3-0.2,0.6-0.3,0.8-0.3h0c0.2,0,0.3-0.1,0.3-0.4c0-0.9,0-1.8-0.1-2.8c-0.1-1-0.1-1.5-0.2-1.6c0-0.1-0.1-0.2-0.3-0.3
		c0-0.1-0.1-0.3-0.1-0.5c0-0.5,0.2-0.8,0.5-0.8c0.3-0.2,0.6-0.3,0.7-0.3c0.1,0,0.2,0.1,0.4,0.2c0.2,0.1,0.2,0.2,0.3,0.2
		c0,0,0,0,0,0.1c0,0,0,0.2-0.1,0.3c-0.1,0.2-0.1,0.4-0.1,0.6c-0.1,0.1-0.2,0.3-0.2,0.5l0,0.5c0,1.1,0,1.9,0.1,2.6s0.1,1,0.1,1
		c0,0,0,0.1,0,0.1s0,0.1,0,0.1c0,0.1,0.1,0.3,0.2,0.4l0.2-0.1c0,0.1,0.1,0.2,0.3,0.2c0.3,0.1,0.5,0.2,0.4,0.4c0,0.2-0.1,0.4-0.1,0.5
		H134c-0.1,0-0.2,0-0.3,0.1c-0.1,0-0.2,0.1-0.2,0.1c-0.1,0-0.1,0-0.2,0c0,0,0,0,0,0c-0.1,0-0.1,0.7-0.1,2c0,0.8,0.1,1.7,0.2,2.8
		c0.1,0.2,0.2,0.3,0.3,0.4c0,0.3-0.1,0.5-0.1,0.7c0,0.3,0,0.6,0.1,1s0.1,0.7,0.1,0.9l0,0.3c0,0.1,0,0.1,0.1,0.1
		c0.1,0,0.1,0.1,0.1,0.1v0l0,0.1L134.3,77.5z M131.8,68c-0.2,0-0.3-0.1-0.5-0.1l-0.4-0.1c-0.1,0-0.3,0-0.4,0.1l-0.2,0.1h-0.5
		c-0.9,0.3-1.7,0.8-2.3,1.7c-0.6,0.8-0.9,1.7-0.9,2.5c0,0.9,0.3,1.6,0.8,2.1c0.5,0.6,1.2,0.8,2,0.8c0.7,0,1.3-0.1,1.9-0.3
		c0.5-0.2,0.9-0.5,1-0.7c0.1-0.3,0.1-0.9,0.1-1.8c0-1-0.1-2.3-0.2-4.1c-0.2-0.1-0.3-0.1-0.3-0.1V68z"/>
	<path d="M146.7,71c0.5,0.5,0.8,1.1,0.8,1.7c0,0.9-0.3,1.7-0.8,2.4c-0.5,0.7-1.2,1.1-2.1,1.3c-0.2,0-0.4,0-0.8,0
		c-0.3,0.1-0.5,0.2-0.8,0.2c-0.4,0-0.7-0.1-0.9-0.2c-0.2-0.2-0.3-0.4-0.3-0.9c0-0.1,0-0.2,0-0.3h0.1c0.1,0,0.3,0,0.4,0.1
		c0.1,0.1,0.2,0.1,0.2,0.1l0.1,0c0.2,0.2,0.6,0.3,1.2,0.3c0.5,0,1-0.1,1.4-0.3c0.4-0.2,0.8-0.5,1-0.9c0.2-0.4,0.3-0.8,0.3-1.2
		c0-0.5-0.2-0.9-0.6-1.3c-0.4-0.3-1.3-0.7-2.6-1.1c-0.2,0-0.3-0.1-0.4-0.1l-0.5-0.4c-0.3-0.2-0.4-0.4-0.5-0.6l-0.1-0.3
		c0-1.1,0.3-1.8,0.9-2.3c0.6-0.5,1.7-0.7,3.2-0.7l0.6,0c0,0,0.1,0,0.2-0.1c0.1,0.1,0.2,0.3,0.2,0.5c0,0.2,0,0.4-0.1,0.6
		c-0.1,0.2-0.2,0.3-0.2,0.4c-0.1-0.1-0.1-0.2-0.2-0.3h0c0,0-0.1,0-0.1,0c0,0-0.1,0-0.1,0c-0.3-0.4-0.7-0.5-1.2-0.5
		c-0.9,0-1.5,0.2-1.8,0.5c-0.3,0.4-0.4,0.7-0.4,1.2c0,0.6,0.5,1,1.5,1.3c0.7,0.2,1.3,0.4,1.8,0.5C146.5,70.8,146.7,70.9,146.7,71z"
		/>
	<path d="M156,70.7c0,0.1,0,0.1-0.1,0.2c-0.1,0.1-0.2,0.2-0.2,0.3s-0.1,0.3-0.1,0.6c0,0.3,0,0.8,0,1.4l0,1.4c0,0.1,0,0.1-0.1,0.2
		c0,0.1,0,0.2,0,0.4c0,0.3,0,0.6,0.1,1l0.1,0.5l0,0.5l0,0.4c-0.5,0.5-0.9,0.7-1.1,0.7c0,0-0.1,0-0.2-0.1s-0.2-0.1-0.3-0.1h-0.1
		c-0.1-0.2-0.1-0.4-0.1-0.5c0-0.3,0.1-0.7,0.2-1c0.1-0.1,0.1-0.2,0.2-0.2c0-0.1,0.1-0.3,0.1-0.6c0-0.4,0-0.6-0.1-0.6
		c0,0-0.1,0-0.1,0c-0.1,0-0.1,0-0.2,0h-0.1c-0.1,0.1-0.1,0.1-0.2,0.2c-0.1,0-0.5,0.1-1.3,0.5c-0.4,0.1-0.8,0.2-1.1,0.2
		c-0.4,0-0.8-0.1-1.1-0.2c-0.3-0.1-0.6-0.3-0.8-0.5c-0.2-0.2-0.4-0.4-0.4-0.5c-0.1-0.1-0.1-0.3-0.1-0.7l0-0.3v-0.1
		c0-0.7,0.5-1.4,1.6-2.2c1.1-0.8,2.1-1.2,3-1.4c0.2,0,0.4-0.1,0.6-0.1c0.1,0,0.3-0.1,0.3-0.2c0.1-0.1,0.1-0.3,0.1-0.7
		c0-1.2-0.6-2-1.9-2.5c0,0-0.1,0-0.2-0.1c-0.1,0-0.1-0.1-0.2-0.1c-0.7,0-1.2,0-1.7,0.1c-0.2,0.3-0.5,0.4-0.8,0.4
		c-0.2,0-0.3-0.1-0.3-0.2c0,0,0-0.2,0.1-0.4c0.1-0.3,0.3-0.4,0.7-0.4c0.4-0.2,1.2-0.3,2.4-0.3c0.9,0,1.6,0.4,2.1,1.1
		c0.5,0.7,0.8,1.7,0.8,3v0.1c0.1,0.1,0.2,0.2,0.3,0.2S156,70.6,156,70.7L156,70.7z M154,74.3c0.4-0.6,0.6-1.1,0.6-1.6
		c0-0.3-0.1-0.6-0.2-0.9c-0.1-0.3-0.4-0.5-0.8-0.5c-0.8,0-1.5,0.2-2,0.6h-0.3c-1.1,0.6-1.6,1.2-1.6,1.8c0,0.5,0.2,0.8,0.7,1.2
		c0.4,0.3,0.9,0.5,1.5,0.5c0.2,0,0.4-0.1,0.9-0.2s0.8-0.4,1.2-0.7V74.3z"/>
	<path d="M167.2,66.8l0,0.2c0,0.1,0,0.3-0.1,0.4c-0.1,0.1-0.2,0.2-0.4,0.3c-0.6,0.9-1.2,2-1.9,3.4s-1.2,2.7-1.5,3.9
		c-0.1,0.3-0.2,0.6-0.3,0.8c-0.1,0.2-0.2,0.4-0.2,0.5c0,0.1,0,0.1,0,0.1c-0.2,0.1-0.3,0.2-0.3,0.3c-0.1-0.1-0.2-0.1-0.3-0.1
		c-0.1,0-0.3,0-0.5,0.1c0-0.1-0.1-0.2-0.2-0.3s-0.2-0.2-0.2-0.3c0-0.1-0.1-0.2-0.2-0.4c-0.1-0.2-0.2-0.4-0.2-0.5l0.1-0.1
		c-1.6-4.2-2.6-6.5-2.9-6.7c-0.2-0.3-0.4-0.5-0.4-0.6c0-0.2,0.1-0.4,0.3-0.7c0.2-0.3,0.4-0.4,0.6-0.4c0.1,0,0.1,0,0.2,0.1
		c0.1,0.1,0.2,0.1,0.3,0.2c0.1,0.1,0.2,0.1,0.3,0.2l0,0c0.1,0,0.1,0.4,0.1,1.1c0,0.4,0.2,1.2,0.6,2.1c0.4,1,0.6,1.5,0.7,1.6
		s0.2,0.2,0.2,0.2c0.2,0.7,0.4,1.2,0.7,1.5c0.3,0.4,0.5,0.5,0.5,0.5c0.1,0,0.2-0.1,0.2-0.4h0c0.1,0,0.2-0.1,0.3-0.3
		c0.1-0.2,0.2-0.5,0.4-1l0.5-1.3c0.4-0.9,0.6-1.5,0.7-1.6c0.1-0.2,0.2-0.3,0.2-0.3c0,0,0-0.1,0.1-0.2c0-0.1,0-0.2,0-0.2
		c0.1-0.2,0.2-0.6,0.3-1.1l0.2-0.2v0l0.1-0.5l0-0.1c0-0.5,0.2-0.7,0.6-0.7C166.5,66.4,166.9,66.5,167.2,66.8z"/>
	<path d="M168.4,69.9c1.1-2,3-3,5.8-3c0.4,0,0.8,0,1.2,0.1s0.7,0.1,0.9,0.2c0.3,0.1,0.6,0.3,0.8,0.4c0.2,0.2,0.5,0.4,0.7,0.7
		c0.2,0.3,0.5,0.6,0.7,1c0.1,0.2,0.2,0.6,0.2,1.3c0,1.6-0.5,2.9-1.6,4c-1.1,1.1-2.4,1.7-3.9,1.7H173c-0.3-0.1-0.5-0.1-0.5-0.1
		c0,0,0,0-0.1,0c-0.1,0.1-0.3,0.1-0.6,0.1c-0.5,0-1.1-0.1-1.7-0.4s-1.2-0.7-1.6-1.3c-0.4-0.6-0.6-1.2-0.6-1.8c0-0.2,0-0.5,0-0.7
		c0-0.2,0.1-0.5,0.1-0.7s0.1-0.4,0.2-0.6l0.2-0.6V69.9z M177.4,71.6v-0.3c0-1.1-0.4-2.1-1.1-2.7c-0.7-0.7-1.7-1-2.8-1
		c-0.3,0-0.5,0-0.7,0.1c-0.2,0.1-0.4,0.1-0.4,0.1c0,0-0.1,0.1-0.2,0.2c-0.1,0.1-0.1,0.2-0.2,0.2c0,0-0.1,0-0.2,0l-0.5-0.1
		c-0.1,0-0.1,0.1-0.2,0.2c-0.5,0-1,0.4-1.5,1.2c-0.5,0.7-0.7,1.5-0.7,2.3c0,0.2,0,0.5,0.1,1.1c0.1,0.6,0.3,1,0.6,1.4
		s0.8,0.7,1.3,0.9s0.9,0.4,1.2,0.4c0.1,0,0.2,0,0.2,0l0.1,0h0.4c0.9,0,1.5-0.1,1.9-0.4c0,0,0.1,0,0.1,0c0,0,0.1,0,0.2,0.1
		c0.8-0.7,1.3-1.3,1.7-2C177.2,72.3,177.4,71.8,177.4,71.6z"/>
	<path d="M186.5,68.3c0,0.1,0,0.2-0.1,0.3c-0.1,0.2-0.2,0.3-0.2,0.5c0,0.1-0.1,0.3-0.3,0.4h-0.3c-0.4-0.2-0.6-0.3-0.8-0.3
		c-0.1,0-0.3,0.1-0.6,0.2c-0.3,0.1-0.6,0.4-0.8,0.8c-0.3,0.4-0.4,0.7-0.5,0.9c0,0.2-0.1,0.5-0.3,0.7v0.3c-0.1,0.3-0.2,0.6-0.2,0.7
		c0,0.2,0,0.3,0,0.4c0,0.1,0,0.2,0,0.2c-0.1,0.1-0.1,0.2-0.1,0.2c0,0.2,0,0.5,0.1,0.9s0.2,0.8,0.4,1v0.1c0,0.3-0.1,0.5-0.4,0.5
		l-0.2,0.2c-0.2,0-0.4,0-0.6,0c-0.3,0-0.5,0-0.7-0.1v0c0-0.2,0.1-0.5,0.2-0.8c0.1-0.4,0.2-0.6,0.2-0.8l0.1-2.4c0-1.9-0.1-3.5-0.3-5
		c0-0.2,0-0.2,0-0.3c0-0.3,0.1-0.5,0.4-0.6c0.2-0.1,0.5-0.2,0.7-0.2c0.2,0,0.3,0,0.5,0.1c0,0,0,0.1,0.1,0.1c0,0.1,0.1,0.1,0.1,0.1
		v0.1c0,0.1-0.1,0.3-0.2,0.7c-0.1,0.4-0.2,0.8-0.2,1.4l0,1.3v0.2c0,0.1,0.1,0.2,0.3,0.2c0.3-0.6,0.6-1.1,1-1.5
		c0.4-0.4,0.9-0.6,1.5-0.8s1-0.2,1.1-0.2c0.2,0.1,0.3,0.2,0.3,0.3V68.3z"/>
	<path d="M195,67.3c1.3-0.5,2.1-0.7,2.5-0.8s0.6-0.1,0.7-0.1c0.2,0,0.6,0.1,1.3,0.4c0.7,0.2,1,0.4,1.1,0.5c0,0,0.2,0.2,0.4,0.5
		c0.4,0.4,0.6,1.1,0.6,1.9c0,0.7-0.2,1.5-0.6,2.2c-0.4,0.8-0.9,1.3-1.4,1.7c-0.1,0.1-0.1,0.2-0.2,0.3c-0.8,0.7-1.4,1.1-1.6,1.2
		l-0.3,0.1c-0.3,0.3-0.5,0.5-0.6,0.5c-0.1,0-0.1,0-0.1,0c-0.3,0.2-0.6,0.4-0.7,0.5c-0.2,0.1-0.4,0.2-0.6,0.2c-0.3,0-0.4,0.1-0.5,0.1
		c-0.1,0-0.1,0.2-0.2,0.4c0,0.2-0.1,0.6-0.1,1c0,0.8,0,1.6,0.1,2.2c0.1,0.7,0.1,1,0.1,1.1c0,0.1,0.1,0.2,0.1,0.3
		c0.1,0.1,0.1,0.1,0.1,0.2c0,0.1,0,0.1-0.1,0.1c-0.1,0-0.1,0.1-0.2,0.1s-0.1,0.1-0.2,0.1c0,0,0,0,0,0c-0.3,0.1-0.6,0.2-0.8,0.2
		c-0.1,0-0.2,0-0.3-0.1c-0.1-0.1-0.2-0.2-0.2-0.3c0-0.2,0-0.4,0.1-0.6c0.1-0.2,0.1-0.4,0.1-0.5l0-0.4l0.1-2.8c0-0.4,0-0.8-0.1-0.9
		c0-0.2-0.1-0.4-0.3-0.6l0.1-0.5l0-0.1c0-0.1,0-0.2,0.1-0.3c0.1-0.1,0.1-0.3,0.1-0.5l0-0.6v-0.2c0.1-0.2,0.1-0.4,0.1-0.6v-1.3
		c0-0.1,0-0.3,0-0.6s0-0.5,0-0.6c0-0.7,0-1.1-0.1-1.4c0-0.2-0.1-0.3-0.2-0.3c-0.1,0-0.2,0-0.3,0.1c-0.2,0.1-0.3,0.1-0.4,0.1l-0.1,0
		l-0.2-0.3c0.1-0.1,0.3-0.3,0.7-0.5c0.4-0.2,0.5-0.4,0.5-0.5c0,0,0-0.1,0-0.2c0-0.1,0-0.2,0-0.3l0-0.2c0-0.1-0.1-0.2-0.2-0.3l0-0.4
		c0-0.3,0.1-0.4,0.2-0.5s0.3-0.2,0.5-0.2c0.2-0.1,0.3-0.1,0.4-0.1h0.3c0.2,0,0.2,0.1,0.2,0.2l-0.1,0.3c-0.1,0.2-0.1,0.4-0.1,0.5
		l0,0.3l0,0.3C194.9,67.3,194.9,67.3,195,67.3z M195.1,75c0.3,0.1,0.7,0.2,1,0.2c0.2,0,0.3,0,0.5,0c0.1,0,0.4-0.1,0.7-0.4
		c0.3-0.2,0.8-0.5,1.2-0.8c0.2-0.1,0.3-0.3,0.5-0.4c0.2-0.2,0.4-0.5,0.7-1.1c0.2-0.3,0.3-0.6,0.4-1.1c0.1-0.4,0.2-0.8,0.2-1.1
		c0-0.2-0.1-0.6-0.2-1c-0.1-0.5-0.4-0.9-0.7-1.2c-0.3-0.3-0.6-0.5-0.7-0.5h-0.1c-0.2,0-0.3-0.1-0.5-0.2h-0.4l-0.7,0
		c-0.8,0-1.4,0.1-1.8,0.4c-0.4,0.3-0.6,0.8-0.6,1.5l0,0.9l-0.1,4.4c0,0.1,0.1,0.2,0.2,0.2C195,74.9,195.1,74.9,195.1,75z"/>
	<path d="M211.1,66.8c0.1-0.1,0.3-0.2,0.5-0.2l0.6-0.1h0.1c0.1,0,0.2,0.2,0.2,0.5l-0.3,1.1c-0.1,0.4-0.2,0.7-0.2,1.1s-0.1,0.7-0.1,1
		c0,0.3,0,0.6,0.1,1c0,0.4,0.2,0.7,0.4,0.9c0,0,0,0.1,0,0.1c0,0.1-0.1,0.2-0.2,0.4c-0.1,0.2-0.2,0.4-0.2,0.7c0,0.2,0,0.4,0.1,0.7
		c0.1,0.3,0.1,0.5,0.1,0.6c0,0.1,0.1,0.2,0.2,0.2c0.1,0.1,0.1,0.1,0.1,0.2c0,0.1-0.1,0.1-0.2,0.1c0,0.3,0,0.5,0,0.6
		c0,0.3,0,0.4,0.1,0.4c-0.5,0.2-0.8,0.3-1.1,0.3c-0.3,0-0.4-0.1-0.4-0.3c0-0.1,0-0.2,0.1-0.3c0,0,0-0.1,0-0.2c0-0.1,0-0.2,0.1-0.3
		c0-0.1,0.1-0.2,0.1-0.2c0-0.1,0-0.3-0.1-0.6s-0.2-0.4-0.4-0.4c-0.2,0-0.5,0.2-0.9,0.6c-0.6,0.6-1.2,1-1.7,1.2
		c-0.2,0.1-0.4,0.1-0.4,0.2c-1,0.2-1.5,0.2-1.5,0.2c-0.2,0-0.4-0.1-0.7-0.3c-0.3-0.2-0.5-0.4-0.7-0.6c-0.2-0.2-0.3-0.5-0.4-0.9
		c-0.1-0.4-0.2-0.8-0.2-1.3c0-0.2,0.1-1,0.3-2.3s0.3-2.2,0.4-2.8c0.1-0.6,0.1-0.8,0.1-0.9c0-0.1,0-0.1-0.1-0.3l-0.1-0.2v0
		c0,0,0-0.1,0.1-0.1c0.1,0,0.2-0.1,0.4-0.2s0.3-0.1,0.5-0.1c0,0,0.1,0,0.3,0.1s0.3,0.1,0.4,0.1h0.1c0.1,0.1,0.2,0.2,0.3,0.3
		l-0.2,0.2c-0.4,0.4-0.6,0.9-0.7,1.6l-0.3,2.2c-0.1,0.8-0.2,1.3-0.2,1.6c0,1,0.2,1.7,0.6,2.1c0.4,0.4,0.7,0.7,1.1,0.7l0.2,0l0.3,0
		c0.1,0,0.3-0.1,0.6-0.2c0.3-0.2,0.7-0.4,1.3-0.8c0.6-0.4,0.9-0.7,1.1-0.9c0.1-0.2,0.2-0.4,0.3-0.7c0.1-0.3,0.2-0.6,0.2-1
		s0.1-0.8,0.1-1.3c0-1.1,0-1.9-0.1-2.3c-0.1-0.4-0.1-0.6-0.3-0.7c-0.1-0.1-0.1-0.2-0.1-0.5c0.1,0,0.2-0.1,0.2-0.1c0,0,0.1,0,0.1,0
		C210.9,66.8,211,66.8,211.1,66.8z"/>
	<path d="M221.4,68.3c0,0.1,0,0.2-0.1,0.3c-0.1,0.2-0.2,0.3-0.2,0.5c0,0.1-0.1,0.3-0.3,0.4h-0.3c-0.4-0.2-0.6-0.3-0.8-0.3
		c-0.1,0-0.3,0.1-0.6,0.2c-0.3,0.1-0.6,0.4-0.8,0.8c-0.3,0.4-0.4,0.7-0.5,0.9c0,0.2-0.1,0.5-0.3,0.7v0.3c-0.1,0.3-0.2,0.6-0.2,0.7
		c0,0.2,0,0.3,0,0.4c0,0.1,0,0.2,0,0.2c-0.1,0.1-0.1,0.2-0.1,0.2c0,0.2,0,0.5,0.1,0.9c0.1,0.4,0.2,0.8,0.4,1v0.1
		c0,0.3-0.1,0.5-0.4,0.5l-0.2,0.2c-0.2,0-0.4,0-0.6,0c-0.3,0-0.5,0-0.7-0.1v0c0-0.2,0.1-0.5,0.2-0.8c0.1-0.4,0.2-0.6,0.2-0.8
		l0.1-2.4c0-1.9-0.1-3.5-0.3-5c0-0.2,0-0.2,0-0.3c0-0.3,0.1-0.5,0.4-0.6c0.2-0.1,0.5-0.2,0.7-0.2c0.2,0,0.3,0,0.5,0.1
		c0,0,0,0.1,0.1,0.1s0.1,0.1,0.1,0.1v0.1c0,0.1-0.1,0.3-0.2,0.7s-0.2,0.8-0.2,1.4l0,1.3v0.2c0,0.1,0.1,0.2,0.3,0.2
		c0.3-0.6,0.6-1.1,1-1.5c0.4-0.4,0.9-0.6,1.5-0.8s1-0.2,1.1-0.2c0.2,0.1,0.3,0.2,0.3,0.3V68.3z"/>
	<path d="M230.1,69.7c0.1,0.1,0.1,0.1,0.1,0.2c0,0.2-0.1,0.3-0.2,0.4c0,0,0,0,0,0.1c0,0.1-0.1,0.2-0.4,0.2h-0.1c0,0-0.1,0-0.1,0.1
		s-0.1,0.1-0.1,0.1c0,0,0,0-0.1-0.1s-0.1-0.1-0.3-0.1l-0.1-0.1c-0.2,0-0.3,0.1-0.4,0.1c-0.1,0-0.3,0-0.5,0c-0.2,0-0.3,0-0.4,0
		c-0.1,0-0.2,0-0.5,0.1c-0.2,0-0.5,0.1-0.6,0.1l-1,0c-0.5,0-1,0-1.5,0.1c-0.1,0-0.2,0.1-0.3,0.1c-0.1,0-0.2,0.1-0.2,0.2
		c0,0.1-0.1,0.2-0.2,0.2c-0.1,0.3-0.1,0.5-0.1,0.8c0,0.2,0.1,0.5,0.2,1c0.1,0.5,0.2,0.9,0.4,1.1c0,0,0.3,0.3,0.9,0.7
		c0.3,0.3,0.7,0.5,1.1,0.6c0.4,0.1,0.9,0.2,1.4,0.2c0.2,0,0.5,0,0.8-0.1l0.4-0.1h0.7c0.1,0,0.2-0.1,0.4-0.2s0.4-0.2,0.6-0.2
		c0.1,0.2,0.1,0.4,0.1,0.5c0,0.3-0.1,0.6-0.3,0.8c-0.2,0.2-0.4,0.4-0.7,0.4l-0.2,0l-0.6,0h-0.6c-0.3,0-0.9-0.1-1.9-0.3
		c-1-0.2-1.8-0.5-2.3-0.9c-0.5-0.4-0.8-0.8-1.1-1.4c-0.2-0.6-0.3-1.1-0.3-1.6c0-0.7,0.1-1.4,0.4-2.2c0.3-0.7,0.6-1.3,0.9-1.7
		c0.3-0.4,0.9-0.8,1.6-1.3c0.1,0,0.2-0.1,0.3-0.2c0.1-0.1,0.3-0.2,0.4-0.2l0.3,0c0.1-0.1,0.4-0.2,0.8-0.2c0.4-0.1,0.7-0.1,0.9-0.1
		c0.4,0,0.9,0.2,1.4,0.5c0.5,0.3,0.8,1,0.9,1.9c0,0.2,0,0.3,0.1,0.4c0,0.1,0.1,0.2,0.1,0.2C230.2,69.6,230.2,69.6,230.1,69.7z
		 M225.9,67.4c0,0.1-0.2,0.2-0.6,0.3c-0.2,0.1-0.3,0.3-0.5,0.4c-0.2,0.2-0.3,0.3-0.5,0.5c-0.2,0.2-0.3,0.3-0.4,0.5
		c-0.1,0.1-0.2,0.3-0.3,0.3c-0.1,0.1-0.1,0.1-0.1,0.2c0,0.1,0,0.1,0.1,0.2l0.1,0.1h0.8l3.6-0.1c0.5,0,0.7-0.2,0.7-0.6
		c0-0.4-0.1-0.8-0.3-1.1c-0.2-0.3-0.6-0.6-1.3-0.8c-0.1,0-0.2,0-0.3,0s-0.3,0-0.3,0C226.6,67.3,226.4,67.3,225.9,67.4z"/>
	<path d="M239.9,66.9c0-0.1,0.2-0.2,0.5-0.2c0.3-0.1,0.6-0.1,0.8-0.1l1.6,0.1c0.5,0,1,0.2,1.5,0.3c0.4,0.2,0.9,0.4,1.4,0.8
		c0.3,0.3,0.6,0.6,0.8,1.1c0.2,0.5,0.3,1,0.3,1.5c0,1.6-0.8,2.9-2.4,3.9c-0.1,0-0.1,0.1-0.2,0.2c0,0.1-0.1,0.1-0.1,0.1
		c-0.2,0.1-0.3,0.2-0.4,0.2s-0.2,0.1-0.4,0.2c-0.2,0.1-0.4,0.1-0.6,0.2c-0.2,0.1-0.5,0.1-0.8,0.2c0,0-0.1,0-0.2,0.1
		c-0.1,0.1-0.2,0.1-0.2,0.1s0,0-0.1,0c-0.1,0-0.5,0.2-1.2,0.5l-0.1-0.1c-0.2,0-0.4,0.2-0.5,0.3c0,0.1-0.1,0.2-0.2,0.3
		c-0.1,0.1-0.3,0.1-0.5,0.1c-0.1,0-0.2,0-0.3-0.1s-0.2-0.1-0.3-0.1c0,0-0.1,0-0.2,0v0c0-0.1,0-0.2-0.1-0.3c-0.1-0.1-0.1-0.2-0.1-0.2
		c0-0.1,0.1-0.2,0.3-0.3c0.2-0.2,0.3-0.3,0.3-0.4v0c0.2-1.9,0.3-3.9,0.3-5.8c0-3.6-0.1-6.2-0.3-7.8c-0.1-0.2-0.2-0.3-0.2-0.4l0-0.2
		c0-0.1,0-0.2,0-0.4c0-0.2,0-0.4,0-0.5c0-0.2,0.1-0.4,0.3-0.4c0.2,0,0.3-0.1,0.4-0.1c0.1,0,0.2-0.1,0.2-0.1c0,0,0.1,0,0.2,0
		c0.1,0,0.2,0,0.2,0.1c0.1,0,0.2,0.1,0.5,0.3c0.1,0.3,0.1,0.5,0.1,0.6c0,0.1,0,0.1,0,0.1c0,0,0,0.1-0.1,0.2
		c-0.3,0.8-0.4,1.9-0.4,3.5c0,0.9,0,1.5,0.1,1.9C239.6,66.7,239.7,66.9,239.9,66.9L239.9,66.9z M239.8,67.8c-0.1,3-0.2,4.8-0.2,5.6
		c0,0.7,0.1,1.1,0.3,1.3s0.5,0.3,1,0.3c0.5,0,1-0.1,1.7-0.3c0.7-0.2,1.3-0.6,1.8-1.1c0.5-0.5,0.9-1,1.1-1.5c0.2-0.5,0.3-0.9,0.3-1.4
		c0-0.8-0.4-1.6-1.1-2.2c-0.7-0.6-1.5-0.9-2.4-0.9h-0.4l-0.7,0c-0.3,0-0.6,0.1-0.8,0.3c-0.1-0.2-0.2-0.2-0.4-0.2
		C239.8,67.7,239.8,67.8,239.8,67.8z"/>
	<path d="M251.2,75.6c-0.1,0.2-0.1,0.3-0.2,0.4c0,0.1-0.2,0.1-0.3,0.1c-0.1,0.1-0.2,0.1-0.2,0.1c-0.1,0-0.1,0-0.2-0.1
		c-0.1,0.1-0.2,0.2-0.3,0.2c-0.5-0.2-0.8-0.3-0.8-0.6v0c0.1,0,0.2-0.1,0.2-0.3v-0.2l0-0.3c0,0,0-0.2,0.1-0.5
		c0.1-0.7,0.2-1.7,0.2-2.9v-2.1l0-0.8l0-0.7l-0.1-2.4l0.1-1.6l-0.1-2.1v-0.4c-0.1-0.2-0.1-0.5-0.1-0.7l0-0.4c0,0,0-0.1-0.1-0.2
		c0-0.4,0.1-0.7,0.2-0.9c0.1-0.2,0.3-0.4,0.4-0.5c0.2-0.1,0.3-0.2,0.5-0.2c0.3,0,0.6,0.3,0.8,0.9c-0.2,0.2-0.3,0.4-0.4,0.6
		c-0.1,0.2-0.1,0.5-0.1,0.9l0,1.2l0,2.9l0,4l0,4.6l0,0.2c0,0.1,0,0.2-0.1,0.2c0.1,0.1,0.2,0.3,0.2,0.6c0,0.3,0.1,0.6,0.2,0.7
		C251.1,75.5,251.1,75.6,251.2,75.6z"/>
	<path d="M256.6,76.2c0,0-0.1,0.1-0.4,0.2c-0.3,0.1-0.5,0.2-0.6,0.2h-0.1c-0.1,0-0.2,0-0.3,0c-0.1,0-0.2,0-0.2,0
		c-0.1,0-0.2,0-0.3-0.1c-0.1-0.1-0.2-0.2-0.2-0.2c0-0.1,0-0.4,0.1-0.7c0.1-0.3,0.1-0.5,0.3-0.7c0.1-0.4,0.1-1.2,0.1-2.4l-0.1-3.7
		l0-0.6c0-0.1-0.1-0.2-0.2-0.4c-0.1-0.2-0.2-0.4-0.2-0.7c0-0.2,0-0.3,0.1-0.3c0.1-0.1,0.3-0.2,0.6-0.3l0.6-0.3c0,0,0.1,0,0.1,0
		c0.2,0,0.3,0.3,0.3,0.8c0,0.3-0.1,1.1-0.2,2.3c-0.1,1.3-0.2,2.3-0.2,3.1c0,0.4,0,0.9,0,1.3c0,0.4,0,0.7,0.1,0.9s0.1,0.4,0.2,0.6
		C256.5,75.5,256.6,75.8,256.6,76.2C256.6,76.1,256.6,76.2,256.6,76.2z M256.1,63.1c0.1,0.1,0.3,0.2,0.5,0.3
		c0.2,0.1,0.4,0.3,0.4,0.4c0,0.2-0.1,0.3-0.3,0.5c-0.2,0.2-0.4,0.3-0.5,0.3c-0.2,0-0.4-0.1-0.6-0.3c-0.2-0.2-0.3-0.4-0.3-0.4
		c0-0.1,0.1-0.3,0.3-0.5C255.8,63.2,255.9,63.1,256.1,63.1L256.1,63.1z"/>
	<path d="M263.8,71c0.5,0.5,0.8,1.1,0.8,1.7c0,0.9-0.3,1.7-0.8,2.4c-0.5,0.7-1.2,1.1-2.1,1.3c-0.2,0-0.4,0-0.8,0
		c-0.3,0.1-0.5,0.2-0.8,0.2c-0.4,0-0.7-0.1-0.9-0.2c-0.2-0.2-0.3-0.4-0.3-0.9c0-0.1,0-0.2,0-0.3h0.1c0.1,0,0.3,0,0.4,0.1
		c0.1,0.1,0.2,0.1,0.2,0.1l0.1,0c0.2,0.2,0.6,0.3,1.2,0.3c0.5,0,1-0.1,1.4-0.3c0.4-0.2,0.8-0.5,1-0.9c0.2-0.4,0.3-0.8,0.3-1.2
		c0-0.5-0.2-0.9-0.6-1.3c-0.4-0.3-1.3-0.7-2.6-1.1c-0.2,0-0.3-0.1-0.4-0.1l-0.5-0.4c-0.3-0.2-0.4-0.4-0.5-0.6l-0.1-0.3
		c0-1.1,0.3-1.8,0.9-2.3c0.6-0.5,1.7-0.7,3.2-0.7l0.6,0c0,0,0.1,0,0.2-0.1c0.1,0.1,0.2,0.3,0.2,0.5c0,0.2,0,0.4-0.1,0.6
		c-0.1,0.2-0.2,0.3-0.2,0.4c-0.1-0.1-0.1-0.2-0.2-0.3h0c0,0-0.1,0-0.1,0c0,0-0.1,0-0.1,0c-0.3-0.4-0.7-0.5-1.2-0.5
		c-0.9,0-1.5,0.2-1.8,0.5s-0.4,0.7-0.4,1.2c0,0.6,0.5,1,1.5,1.3c0.7,0.2,1.3,0.4,1.8,0.5C263.6,70.8,263.8,70.9,263.8,71z"/>
	<path d="M271,71c0.5,0.5,0.8,1.1,0.8,1.7c0,0.9-0.3,1.7-0.8,2.4c-0.5,0.7-1.2,1.1-2.1,1.3c-0.2,0-0.4,0-0.8,0
		c-0.3,0.1-0.5,0.2-0.8,0.2c-0.4,0-0.7-0.1-0.9-0.2c-0.2-0.2-0.3-0.4-0.3-0.9c0-0.1,0-0.2,0-0.3h0.1c0.1,0,0.3,0,0.4,0.1
		c0.1,0.1,0.2,0.1,0.2,0.1l0.1,0c0.2,0.2,0.6,0.3,1.2,0.3c0.5,0,1-0.1,1.4-0.3c0.4-0.2,0.8-0.5,1-0.9c0.2-0.4,0.3-0.8,0.3-1.2
		c0-0.5-0.2-0.9-0.6-1.3c-0.4-0.3-1.3-0.7-2.6-1.1c-0.2,0-0.3-0.1-0.4-0.1l-0.5-0.4c-0.3-0.2-0.4-0.4-0.5-0.6l-0.1-0.3
		c0-1.1,0.3-1.8,0.9-2.3c0.6-0.5,1.7-0.7,3.2-0.7l0.6,0c0,0,0.1,0,0.2-0.1c0.1,0.1,0.2,0.3,0.2,0.5c0,0.2,0,0.4-0.1,0.6
		c-0.1,0.2-0.2,0.3-0.2,0.4c-0.1-0.1-0.1-0.2-0.2-0.3h0c0,0-0.1,0-0.1,0c0,0-0.1,0-0.1,0c-0.3-0.4-0.7-0.5-1.2-0.5
		c-0.9,0-1.5,0.2-1.8,0.5s-0.4,0.7-0.4,1.2c0,0.6,0.5,1,1.5,1.3c0.7,0.2,1.3,0.4,1.8,0.5C270.8,70.8,271,70.9,271,71z"/>
	<path d="M276.4,75.5c0,0.2-0.1,0.5-0.4,1h-0.1c-0.1,0-0.1,0-0.2,0.1c-0.1,0.1-0.1,0.1-0.2,0.1c-0.5-0.2-0.7-0.4-0.7-0.7v-0.2
		c0-0.6,0.2-0.9,0.7-1v0h0c0.2,0,0.5,0.2,0.9,0.5V75.5z M276.8,61.2c-0.2,1.6-0.3,3.6-0.4,5.9c-0.1,2.3-0.2,4-0.3,4.9h0
		c-0.1,0-0.1,0.1-0.2,0.2s-0.1,0.2-0.2,0.2h0c0,0,0,0-0.1,0s0,0-0.1,0s0,0,0,0c0,0,0,0,0,0c-0.1-0.1-0.2-0.3-0.2-0.4
		c0-0.1,0-0.2,0.1-0.4c0.2-0.6,0.3-1.4,0.3-2.3l-0.2-2.8c-0.1-1-0.1-1.8-0.2-2.4c-0.1-0.6-0.1-1-0.1-1.2c0-0.3,0-0.5,0-0.6
		c0-0.2,0-0.3,0.1-0.4s0.1-0.2,0.2-0.3c0.1-0.1,0.2-0.2,0.5-0.3c0.2-0.1,0.4-0.1,0.5-0.1C276.5,61.1,276.6,61.1,276.8,61.2z"/>
</g>
</svg>
