<?xml version="1.0" encoding="utf-8"?>
<!-- Generator: Adobe Illustrator 19.2.1, SVG Export Plug-In . SVG Version: 6.00 Build 0)  -->
<svg version="1.1" id="Layer_1" xmlns="http://www.w3.org/2000/svg" xmlns:xlink="http://www.w3.org/1999/xlink" x="0px" y="0px"
	 viewBox="0 0 486 118" style="enable-background:new 0 0 486 118;" xml:space="preserve">
<style type="text/css">
	.st0{fill:#562E90;}
	.st1{fill:none;}
</style>
<g>
	<path class="st0" d="M116.1,78.4c-0.1,0.2-0.4,0.3-0.6,0.3c-1.1,0-2.2-0.5-2.7,0c-0.3,0.2-0.5,0.6-0.7,0.9c-1.5,2.1-3.7,3.7-6,4.2
		c-2.3,0.4-5.4-0.4-5.8-3.1c-0.1-1.5,0.8-3,2-3.7c0.6-0.4,1.3-0.7,2-0.9c-10.6-0.9-20.3,3.2-30.5,7.6c-4.2,1.8-8.7,3.7-13.2,5.2
		c-5.1,1.7-15.1,4.5-25.6,4.5c-0.2,0-0.4,0-0.7,0c-5-0.1-9.6-0.8-13.4-2.2c-4.5-1.6-8.1-4-10.7-7.3c-0.1-0.1-0.1-0.4,0.1-0.6
		c0.1-0.1,0.5-0.1,0.6,0.1c4.9,5.9,12.7,8.9,23.4,9.1c10.7,0.1,20.9-2.7,26.1-4.4c4.5-1.5,8.9-3.4,13.2-5.2
		c6.5-2.7,12.5-5.3,18.9-6.8c3.5-0.7,6.7-1.1,9.9-1c2.4,0.1,4.9,0.4,7.3,0.9c0.5,0.1,1,0.1,1.5,0.1c0.2,0,0.5,0,0.8-0.1
		c1.7-1.2,0.9-4.8,0.7-6.5c-0.4-2.7-1.3-5.3-2.4-7.8c-2.6-6.3-5.9-11.8-7.3-18.5c-0.4-1.9-0.9-4.7-0.7-6.6c0.1-2.5,1.1-5.7,2.7-7.6
		c2.7-3.2,7.3-1.2,9.5,1.4c0.9,1,1.4,2.4,1.4,3.5c0,0.1-0.1,0.6-0.4,0.6c-0.4,0-0.5-0.2-0.6-0.6c-0.1-1.6-1.3-2.8-2.4-3.9
		c-1.7-1.4-3.6-1.9-5.3-0.3c-1.1,1-1.7,2.4-2.2,3.9c-0.4,1.4-0.4,2.7-0.4,4.2c0.2,5.1,2.3,9.3,4.6,14.3c2.4,5.4,5.8,12,5.9,18.2
		c0,1.3-0.1,2.6-0.4,3.9c-0.1,0.7-1.2,2.2-0.3,2.7c0.4,0.3,1,0.5,1.5,0.6C116.1,77.6,116.3,78,116.1,78.4z M110.4,77.4
		c-1.1-0.3-2.2-0.4-3.5-0.4c-2.2,0-5,0.4-5.6,3c-0.3,1.2,0.6,2,1.7,2.4c2.2,0.9,4.3-0.3,6-1.5C110,80.2,112.4,78.2,110.4,77.4z"/>
	<path class="st0" d="M142.8,70.2c-0.5,0.3-1.4-0.1-1.9-0.1c-2.3-0.2-4.7,0.8-6.7,1.6c-0.5,0.1-0.9,0.3-1.2,0.5
		c-0.2,0.1-0.3,0.2-0.3,0.6c0,0.8,0.1,1.4,0.4,2.2c1.5,4.4,6,17.2,5.1,23.8c-0.6,4.5-2.9,9.6-7.8,10.2c-7.7,0.9-13-5.3-13-12.5
		c0-9.9,5.1-16.9,11.3-22.7c0.5-0.5,0.7-1.1,0.6-1.7c0,0,0-0.1-0.1-0.1c-0.8-2.5-0.9-5.1-1.8-7.6c-0.1-0.2-0.4-0.3-0.6-0.2
		c-0.6,0.5-1.2,1.1-1.8,1.6c-0.5,0.4-1.2,0.6-1.9,0.4c-2-0.7-2.5-3.3-2.5-5.2v-0.6c0-0.6,1.2-1.8,1.8-1.9c0.9-0.2,1.3,0.9,1.1,1.7
		c-0.2,1.4-0.1,6.3,2.1,3.9c0.4-0.5,0.6-0.9,1.2-1.4c0.6-0.8,0.4-1.7,0.2-2.6c-0.1-2.3,0.5-4.3,1.7-6c0.6-0.9,1.5-1.2,2.6-0.8
		c0.8,0.4,1.2,0.9,1,1.7c-0.4,1.7-1,3.1-1.9,4.3c-0.6,0.9-0.7,1.7-0.4,2.6c0.3,1.5,0.6,3,0.9,4.6c0.4,1.2,0.6,2.4,0.9,3.6
		c0.2,0.6,0.4,1.3,1.3,1.1c0.9-0.2,10.1-3.5,10.1-0.9C143,70,142.9,70.1,142.8,70.2z M130,75.4c-0.3-0.9-0.8-1.1-1.5-0.4l-0.5,0.5
		c-6,6.3-10.9,14.3-9.4,23.3c0.4,1.9,1.3,4.2,2.4,5.7c2,2.7,6,4,9.2,3.5c3.1-0.4,5.3-3,5.8-5.9c0.8-4.9-1.1-10.4-2.3-15
		C132.5,83,131.4,79.2,130,75.4z M129.2,57.4c0.1,0.1,0.2,0.2,0.3,0.2c0.1,0.1,0.3,0.1,0.4-0.1c0.6-0.8,1-1.7,1.2-2.8
		c0.1-0.2-0.1-0.6-0.4-0.6c-0.3-0.1-0.5,0-0.6,0.1l-0.4,0.6c-0.2,0.6-0.2,1.3-0.4,1.9C129.1,57,129.2,57.2,129.2,57.4z"/>
	<path class="st0" d="M184.7,66.2c-0.6,1.4-1.7,3.7-2.2,4.5c-1.1,1.7-1.9,2.8-3.3,4.2c-1.4,1.2-3,1.3-4.5,0.8c-2-0.5-3-1.7-3.5-3.4
		c-0.5-1.7-0.5-3.1-0.5-4.8c0-0.6,0.1-4,0.1-4.8c-0.2-0.6-0.2-1.1-0.5-1.6c-0.6-0.9-1.8-1-2.6-0.4c-1.3,1-2.4,2.3-3.2,3.9
		c-1.1,1.7-1.5,3.6-2.2,5.4c-0.1,0.5-0.9,2.1-1.6,1.4l-0.5-0.5c-0.4-0.5-0.5-1.1-0.7-1.7c-0.4-1.7-0.6-3.2-1.1-4.9
		c-0.1-0.9-0.4-1.8-0.9-2.6c-0.6-0.9-1.9-0.5-2.4,0.1c-0.9,1.1-1.6,1.9-2.4,3l-2.5,3.9c-0.8,1.4-1.5,2.5-2.7,3.5
		c-3.9,3.3-5.3-9.1-5.3-10.7c-0.2-1.7-0.4-3.2-0.2-4.9c0.1-0.7,0.6-1,1.2-0.9c0.8,0.1,1.3,0.4,1.6,1.2c0.2,0.2,0.1,0.4,0.2,0.6
		c0.6,4.3,0.4,8.4,1.4,12.5c0,0.2,0.1,0.2,0.2,0.4c0.4,1.1,1.7-1,2.2-1.4c1.8-2.7,3.2-5.5,5.5-7.8c0.6-0.7,1.5-1.2,2.4-1.4
		c3.5-0.8,4,3.7,4.4,6.1c0.2,0.8,0.1,1.8,0.3,2.4c0.1,0.1,0.3,0.3,0.3,0.1l0.6-1.5c0.4-1.4,1.1-2.7,1.9-3.9c0.8-1.1,1.8-2.3,3-3.1
		c1.4-0.8,3.7-0.8,4.8,0.4c0.9,1.2,1.4,2.5,1.4,4c0,0.5,0,0.9-0.1,1.2c-0.1,2.1-0.3,4.7-0.1,6.4c0.2,1.4,0.6,2.2,1.7,2.8
		c1.2,0.6,2.6,0.3,3.5-0.6c0.9-0.9,2.7-3,3.5-4.5c0.6-1.2,1.9-4.5,2.3-5.2c0.6-1.5,1.7-4.6,1.9-5c0.3,0,1.4-0.5,0,2.4
		C186.3,62.7,185.1,65,184.7,66.2z"/>
	<path class="st0" d="M189.3,58.8c-0.2,0.2-0.2,0.6-0.2,0.9c0,3.5,0.6,6.7,1.9,9.8c0.8-1.7,1.4-3.4,2.6-4.9c1.1-1.5,2.6-2.7,4.4-3
		c1.8-0.3,3.8,0.4,4.7,2.1c0.5,0.8,0.6,1.7,1.5,2.2c0.5,0.2,1.1,0.2,1.7,0c2.9-0.9,5.3-3.6,6-6.5c0.1-0.4,0.4-0.6,0.6-0.5
		c0.4,0.1,0.4,0.4,0.4,0.7c-0.8,3.5-3.7,6.3-7.1,7.1c-0.5,0.2-1,0.1-1.5,0.6c-0.6,0.5-0.6,1.2-0.8,1.9c-0.6,3.1-2.2,5.8-4.5,7.8
		c-0.6,0.6-1.4,1.2-2.3,1c-1.7,0-2.4-2-2.2-3.7c0.1-2.2,1.1-4.1,2.8-5.6c0.9-0.6,1.7-1.2,2.4-1.9c0.8-0.9,1.3-1.9,0.8-3
		s-1.8-1.5-3-1.2c-1.2,0.3-2,1.1-2.8,2c-2.2,2.5-3.3,5.9-3.3,9.3c0,0.5-0.1,1.2-0.6,1c-0.2-0.1-0.1-0.2-0.4-0.3
		c-4-7.2-4.6-15.7-4.2-24c0-0.5,0.1-0.8,0.1-1.3c0.4-8.1,1.5-16,4.1-23.7c1.4-3.8,3-7.5,5-10.9c1.9-3.1,5.2-5.2,8.9-5.5
		c3-0.3,6,0.6,8.4,2.4c0.4,0.4,0.9,0.7,1.3,1.2c0.9,0.9,1.6,1.9,1.9,3.2c0.9,2.5,0.2,5.3-0.4,7.8c-1.9,7.1-4.7,13.7-8.9,19.7
		c-4.2,6-9.1,11-16.2,14.1C189.9,58.1,189.5,58.3,189.3,58.8z M191.4,56.2c2.5-1.1,4.8-2.8,6.8-4.5c1.7-1.5,3.2-3.1,4.5-4.8
		c3.7-4.6,6.9-9.9,9.3-15.6c0.6-1.3,1.1-2.6,1.5-3.9l0.4-1.3c0.4-1.1,0.6-2.2,0.9-3.2c0.2-1.1,0.4-1.9,0.4-3c0.1-0.8,0.1-1.5,0-2.2
		l-0.2-1.1c-0.6-1.8-1.7-3.3-3.2-4.5c-0.6-0.4-1.3-0.6-1.9-0.9c-1.4-0.6-2.8-0.9-4.2-0.9c-0.6,0-1.2,0-1.8,0.1
		c-3.2,0.6-5.1,2.7-7.1,5.1c-0.6,0.9-1,1.7-1.6,2.8c-2.3,4.8-3.9,9.9-4.8,15.1c-1.2,7.2-1.9,14.4-1.4,21.8
		C189.1,56.7,190.3,56.7,191.4,56.2z M200.3,69.2c0.1-0.5-0.4-0.9-0.6-0.6c-0.4,0.2-0.6,0.2-0.9,0.4c-2,1.4-3,3.4-3.5,5.7v0.5v0.6
		c0.2,0.3,0.3,0.7,0.5,0.9c0.4,0.5,1.1,0.6,1.4,0.1l0.6-0.7c1.1-1.9,1.9-4.1,2.4-6.4V69.2z"/>
	<path class="st0" d="M221.8,58.6c0.5,0.8,0.1,1.2,0.6,1.7c0.9,0.8,2.5,1.5,3.5,1.7c2.2,0.4,4.8,0.1,6-1.9l0.4-0.7
		c0.1-0.2,0.4-0.3,0.6-0.1c0.5,0.2,0.1,0.9-0.1,1.1c-1.4,2.9-4.6,3.2-7.5,2.6c-1.2-0.2-2.5-1-3-1.4c0,0.5-0.1,1.3-0.1,1.8
		s-0.1,0.6-0.5,1.9c-0.5,1.4-1.3,2.7-2.4,3.7s-2.6,1.7-4,1.5c-1.2-0.1-2.4-0.9-3.2-1.9c-0.8-0.9-1.1-2.2-1.3-3.5
		c-0.3-1.9,0-4,1.1-5.7c0.5-0.9,1.2-1.6,2.2-1.9c1.1-0.4,2.2-0.6,3.3-0.8c1.2-0.2,2.7-0.1,3.5,0.8C221.3,58,221.3,57.8,221.8,58.6z
		 M220.3,61.4h-0.6c-1.1,0.1-1.9-0.3-2.7-0.9c-0.2-0.2-0.6-0.3-0.9-0.5c-0.5-0.2-0.9-0.1-1.1,0.3c-0.3,0.3-0.4,0.5-0.4,0.6
		c-0.4,1.1-0.6,2.2-0.6,3.4c0,1.4,0.2,2.7,0.6,3.7c0.5,1.1,1.5,1.2,2.6,0.9c0.6-0.2,1-0.6,1.5-1.1c1-1.1,1.7-2.3,1.9-3.7
		c0.1-0.5,0.3-1.2,0.2-1.8C220.9,61.8,220.7,61.5,220.3,61.4z M217.2,59.2c0.6,0.7,1.3,1.1,2.2,1.1c0.5-0.1,0.6-0.1,0.9-0.3
		c0.2-0.1,0.2-0.5,0.1-0.7c-0.3-0.9-1.6-1.8-2.4-1.6c-0.1,0.1-0.2,0.1-0.4,0.1C217.2,58.1,216.9,58.7,217.2,59.2z"/>
	<path class="st0" d="M250,59.1c0.3,0.1,0.5,0.2,0.6,0.4c0.2,0.3-0.1,0.9-0.4,1.2c-1.1,2.5-2.4,4.5-4.2,6.7c-0.9,1.2-2,2.4-3.4,3.2
		c-1.4,0.8-3.1,1.2-4.5,0.6c-2-0.6-3.3-2.6-4.1-4.5l-0.6-1.7c-2.1-6-1.9-12.7-1.2-19c0.8-6.6,2.1-13.1,4.9-19.2
		c1.5-3.2,3.4-6.3,6.3-8.2c1.7-1.2,3.7-1.9,5.7-1.9c1.4-0.1,2.4,0.1,3.4,0.6c2.1,1.4,2.4,4.4,2,6.9c-0.5,4-1.9,7.7-3.5,11.2
		c-3.7,8.1-8.9,15-15.3,21c-0.3,0.3-0.6,0.6-0.6,0.9c-0.2,0.4-0.1,0.7-0.1,1c0.5,3.2,0.9,6.6,2.8,9.3c0.8,1.1,1.9,2.2,3.3,1.9
		c1.1-0.1,1.7-0.7,2.5-1.5c2.4-2.5,4.3-5.5,5.8-8.9C249.5,59.1,249.8,59,250,59.1z M234.9,56.3c3.7-3.4,7.3-7.3,10.1-11.6
		c2.5-3.8,4.5-7.9,6.3-12c1.2-2.8,2.2-5.6,2.5-8.6c0.2-1.7,0.4-3.2-0.7-4.6c-2-2.4-5.3-1.5-7.4-0.1c-2.6,1.8-4.2,4.5-5.5,7.4
		c-2.2,5-3.2,10.2-4.1,15.6C235.3,47,234.6,51.7,234.9,56.3z"/>
	<path class="st0" d="M266,59.4c0.1-0.2,0.4-0.3,0.6-0.3c0.1,0,0.2,0,0.3,0.1c0.5,0.2,0.2,0.8,0,1c-0.2,0.2-1.2,1.5-1.7,2.3
		c-0.8,1.2-1.8,2.3-2.9,3.4c-0.8,0.8-1.7,1.3-2.8,1.6c-1.7,0.5-3.2,0.6-4.5,0.5c-1.8-0.3-3.7-0.8-4.8-2.4c-1.1-1.4-1-2.9-1-4.5
		c0-0.6,0.1-1.5,0.5-2.2c0.4-0.6,1.2-0.9,2-0.9c0.8,0.1,1.3,0.6,1.4,1.2c0.2,1.9-0.3,3.9,0.9,5.4c0.6,1.1,1.8,1.5,3,1.7
		c1.5,0.5,3.7-0.4,4.8-1.6c0.9-1.1,1.7-1.9,2.6-3C265,60.9,265.5,60.2,266,59.4z M250.5,54.3c-0.5-0.9,0-2.4,1.4-2.4
		c2.2-0.2,1.5,2.8-0.2,3C251.2,55,250.8,54.8,250.5,54.3z"/>
	<path class="st0" d="M287.3,59.9c-0.9,1.5-4,6.3-7.7,9.8c-2,1.9-4.5,4-6.8,3.8c-2.5,0-3.5-1.1-4.7-2.2c-0.9-1.1-1.7-2.4-2.1-4.1
		c-0.6-2.2-0.6-4.2-0.2-6.5c0.5-2.2,1.4-4.2,2.9-5.7c0.6-0.6,1.9-1.5,3.6-1.6c1.1-0.1,1.9,0.3,2.5,1.1c0.8,0.9,1,1.9,0.7,3
		c-0.1,0.3-0.3,0.4-0.5,0.4c-0.1,0-0.3-0.1-0.4-0.3c-0.1-0.1-0.1-0.3-0.1-0.6l-0.2-0.9c-0.2-0.6-0.5-1-0.9-1.2
		c-0.3-0.2-0.6-0.2-0.9-0.2c-0.6,0-1.1,0.1-1.6,0.5c-0.5,0.4-1,1.2-1.4,2.2c-0.6,1.4-0.8,3.1-1,5c-0.1,2.8,0.1,4.8,0.9,6.6
		c0.4,0.7,1.4,2.8,3.4,3c0.1,0,0.2,0.1,0.4,0.1c2.6,0,4.9-2.3,6.7-4.2c2.5-2.4,4.5-5.3,6.5-8.4c0.2-0.5,0.4-0.4,0.6-0.4
		s0.4,0.1,0.4,0.4C287.3,59.6,287.5,59.7,287.3,59.9z"/>
	<path class="st0" d="M340.1,40.1c-0.5,0.4-1.1,0.6-1.8,0.9c-0.5,0.2-1.2,0.1-1.4,0.6c-0.2,0.3-0.2,0.7-0.2,1.1
		c0.2,10.9-0.4,21.8-2.7,32.5c-0.5,2.4-1.3,5-3.5,6c-1.5,0.6-3.2,0.3-4.5-0.2c-2.7-1.1-4.9-3.2-6-5.7c-1.9-4-2.2-7.9-2.7-12.8
		c0-0.3-0.3-0.3-0.5-0.1c-1.2,2.8-2.1,5.8-3.9,8.4c-1.5,2.2-4,3.7-6.7,2.6c-1.7-0.6-2.6-2.1-3.2-3.7c-1.4-3.4-1.7-7.1-1.6-10.9
		c0.1-4.2,0.5-8.4,1.4-12.6c0.9-4.8,2.3-9.5,4.1-14.1c0.6-1.8,4.1-12.5,7.3-9.9c0.8,0.6,0.4,2.1-0.1,3c-3.1,6.4-5,13.2-6.7,20.1
		c-1.2,5.5-2.2,11-2.2,16.6c0,2.8,0.1,5.7,1.5,8.1c1.5,3,4.1,0.8,5.4-1.3c1.2-1.9,1.9-3.6,2.7-5.8c1.2-3.2,2-6.4,3.4-9.5
		c0.2-0.5,0.4-0.9,0.9-1.1c0.6-0.4,1.4,0.1,1.7,0.6c0.4,0.6,0.4,1.2,0.4,2c0.1,7.2,0.4,14.7,3.2,21.1c0.9,1.8,2.2,3.7,4.1,3.9
		c1.4,0,2.6-0.9,3.2-2c0.8-1.1,1.1-2.4,1.3-3.7c2.1-10.1,2.7-20.4,2.4-30.5c0-0.4-0.1-0.8-0.1-1c-0.4-0.6-1.2-0.6-1.9-0.6
		c-3.4,0.1-6.8-0.4-9.6-2.1c-2.8-1.7-5-4.6-5.4-8c-0.3-3.2,1.5-6.8,4.8-8c1.5-0.6,3.2-0.6,5-0.2c2.6,0.6,5.1,2.2,6.5,4.5
		c1.7,2.9,1.6,6.5,2.1,9.9c0.1,0.6,0.3,1.3,0.8,1.5c0.8,0.2,1.3-0.3,1.9-0.8c0.5-0.2,1.2,0,1.4,0.3
		C340.8,39.6,340.4,39.8,340.1,40.1z M333.9,30.4c-1.1-3.2-4.3-5.3-7.6-5.6c-2.3-0.3-4.6,0.8-5.8,2.9c-2.7,4.6,0.9,10.2,5.5,11.9
		c2.5,0.9,5.3,1.6,7.8,1.1c0.1,0,0.4-0.1,0.6-0.2c0.4,0,0.6-0.1,0.6-0.5c0-0.2,0.1-0.4,0.1-0.6c0.2-1.4,0.1-2.6-0.1-3.8
		C334.7,33.7,334.4,32.1,333.9,30.4z"/>
	<path class="st0" d="M356.2,70c-1.7,0.6-3.7,0.6-5.5,0.4c-2.4-0.5-4.7-1.5-6.3-3.2c-1.7-1.7-2.6-5.3-1.8-7.6c0.8-3.5,4.7-6.8,6.9-4
		c0.8,0.8,1.4,2.6,0.6,3.7c-1,1.7-2.7,1.2-4.2,1.9l-0.2,0.2l-0.1,0.4c0.1,1.1,0,4.6,4.6,6.9c1.2,0.6,2.5,0.9,4,0.7
		c1.7-0.1,3.2-0.8,4.4-2c1.4-1.2,1.7-1.8,3.1-3.5c1.4-1.7,2.3-3,3.2-4.5c0.2,0,0.4,0,0.4,0.1c0.5,0.2-0.2,1.3-0.4,1.5
		c-1.2,1.7-2.7,3.7-4,5.3C359.2,68.1,358.3,69.2,356.2,70z M345.5,59.6c0,0.2,0.2,0.1,0.4,0.1c1.1-0.2,1.9-0.2,2.7-0.7l0.8-0.7
		c0.2-0.8-0.3-1.4-0.9-2.2c-0.3-0.2-0.6-0.2-0.9,0c-0.3,0.2-0.4,0.2-0.7,0.5C346,57.6,345.7,58.4,345.5,59.6z"/>
	<path class="st0" d="M389,59.6c-1.4,4.1-2.2,7.1-4,11c-0.8,1.5-1.7,2.9-3.2,3.7c-1.4,0.9-3.2,0.6-4.6-0.1c-1.1-0.6-1.9-1.4-2.7-2.4
		c-1.7-1.9-3-4.5-3.2-7.1c0-0.2-0.2-0.2-0.3-0.1c-0.1,0-0.1,0-0.1,0.1v0.1c-0.5,1.1-0.7,2.2-1.1,3.3c-0.5,1.2-0.8,2.3-1.3,3.5
		c-1.3,2.4-4.2,1.1-5-0.9c-0.9-1.9-0.9-4.8-0.6-6.8c0.2-1.7,1-3.7,2.5-4.7c1.1-0.6,2.4-1.2,3.7-0.8c0.3,0.2,0.6,0.2,1.1,0.4
		c0.2,0,0.4-0.1,0.4-0.3c0.5-4.7,0.1-9.4,0.3-14.2c0-3.1,0.1-6,0.3-8.9c0.1-2.3,0.3-4.5,1.4-6.6c0.6-1.1,1-2.1,2.1-2.9
		c0.7-0.6,2.4-1.2,2.6,0.1c0.1,0.9,0.1,1.7-0.1,2.5c0,0.6-0.2,1.3-0.3,1.9c-0.8,4.3-2.2,9.9-2.5,14.3c-0.2,2-0.4,5.2-0.6,7.1
		c0,0.2-0.3,4.8-0.3,7c0,2.9,0.4,6,1.3,8.8c0.6,2.1,1.7,4,3.2,5.5c0.9,0.9,2.4,1.2,3.5,0.6c1.4-0.6,2.2-2,2.8-3.4
		c1.1-2,1.7-4.1,2.4-6.2l1.5-4.6c0.2-0.1,0.4-0.1,0.4,0C388.7,59.3,388.9,59.4,389,59.6z M368.9,59c-0.6-0.3-1.2-0.1-1.7,0.5
		c-0.9,1.2-0.9,2.4-1.1,3.7c-0.2,2.2-0.6,4.5-0.1,6.8c0.2,0.6,1,1.8,1.7,0.7c0.5-1.1,0.9-2.2,1.3-3.2c0.5-1.8,0.8-3.7,1.3-5.4
		c0.1-0.4,0.2-0.6,0.2-1C370.6,60.2,369.8,59.4,368.9,59z M373.7,41.2c0.1-0.2,0.2-0.4,0.2-0.6l2.2-11.7c0.2-1.1-0.4-0.9-0.9-0.2
		l-0.6,1.5c-0.3,1.1-0.4,2.2-0.4,3.1c-0.2,2.1-0.4,4.2-0.5,6.4C373.5,40.2,373.7,41,373.7,41.2z"/>
	<path class="st0" d="M412.3,59.6c-1.4,4.1-2.2,7.1-4,11c-0.8,1.5-1.7,2.9-3.2,3.7c-1.4,0.9-3.2,0.6-4.6-0.1
		c-1.1-0.6-1.9-1.4-2.7-2.4c-1.7-1.9-3-4.5-3.2-7.1c0-0.2-0.2-0.2-0.3-0.1c-0.1,0-0.1,0-0.1,0.1v0.1c-0.5,1.1-0.7,2.2-1.1,3.3
		c-0.5,1.2-0.8,2.3-1.3,3.5c-1.3,2.4-4.2,1.1-5-0.9c-0.9-1.9-0.9-4.8-0.6-6.8c0.2-1.7,1-3.7,2.5-4.7c1.1-0.6,2.4-1.2,3.7-0.8
		c0.3,0.2,0.6,0.2,1.1,0.4c0.2,0,0.4-0.1,0.4-0.3c0.5-4.7,0.1-9.4,0.3-14.2c0-3.1,0.1-6,0.3-8.9c0.1-2.3,0.3-4.5,1.4-6.6
		c0.6-1.1,1-2.1,2.1-2.9c0.7-0.6,2.4-1.2,2.6,0.1c0.1,0.9,0.1,1.7-0.1,2.5c0,0.6-0.2,1.3-0.3,1.9c-0.8,4.3-2.2,9.9-2.5,14.3
		c-0.2,2-0.4,5.2-0.6,7.1c0,0.2-0.3,4.8-0.3,7c0,2.9,0.4,6,1.3,8.8c0.6,2.1,1.7,4,3.2,5.5c0.9,0.9,2.4,1.2,3.5,0.6
		c1.4-0.6,2.2-2,2.8-3.4c1.1-2,1.7-4.1,2.4-6.2l1.5-4.6c0.2-0.1,0.4-0.1,0.4,0C412,59.3,412.2,59.4,412.3,59.6z M392.2,59
		c-0.6-0.3-1.2-0.1-1.7,0.5c-0.9,1.2-0.9,2.4-1.1,3.7c-0.2,2.2-0.6,4.5-0.1,6.8c0.2,0.6,1,1.8,1.7,0.7c0.5-1.1,0.9-2.2,1.3-3.2
		c0.5-1.8,0.8-3.7,1.3-5.4c0.1-0.4,0.2-0.6,0.2-1C394,60.2,393.1,59.4,392.2,59z M397,41.2c0.1-0.2,0.2-0.4,0.2-0.6l2.2-11.7
		c0.2-1.1-0.4-0.9-0.9-0.2l-0.6,1.5c-0.3,1.1-0.4,2.2-0.4,3.1c-0.2,2.1-0.4,4.2-0.5,6.4C396.9,40.2,397,41,397,41.2z"/>
	<path class="st0" d="M428,59.4c0.1-0.2,0.4-0.3,0.6-0.3c0.1,0,0.2,0,0.3,0.1c0.5,0.2,0.2,0.8,0,1c-0.2,0.2-1.2,1.5-1.7,2.3
		c-0.8,1.2-1.8,2.3-2.9,3.4c-0.8,0.8-1.7,1.3-2.8,1.6c-1.7,0.5-3.2,0.6-4.5,0.5c-1.8-0.3-3.7-0.8-4.8-2.4c-1.1-1.4-1-2.9-1-4.5
		c0-0.6,0.1-1.5,0.5-2.2c0.4-0.6,1.2-0.9,2-0.9c0.8,0.1,1.3,0.6,1.4,1.2c0.2,1.9-0.3,3.9,0.9,5.4c0.6,1.1,1.8,1.5,3,1.7
		c1.5,0.5,3.7-0.4,4.8-1.6c0.9-1.1,1.7-1.9,2.6-3C426.9,60.9,427.5,60.2,428,59.4z M412.5,54.3c-0.5-0.9,0-2.4,1.4-2.4
		c2.2-0.2,1.5,2.8-0.2,3C413.2,55,412.8,54.8,412.5,54.3z"/>
	<path class="st0" d="M456.8,59.6c0.4,0,0.4,0.2,0.3,0.7c-0.6,4.2-3.1,11.2-6.7,14.3c-5.5,5-8.9-0.7-8.7-7.8c0.1-1.9,0.6-4.3-0.3-6
		c-1.5-2.8-4.5,0.4-5.3,1.6c-2.4,4-3.5,7.9-4.7,12c0,0.2-0.2,0.3-0.3,0.5c-0.2,0.3-0.8,0.5-1.1,0.2c-0.2-0.3-0.4-0.4-0.4-0.6
		c-0.6-1.2-0.7-2.2-0.9-3.3c-0.5-4-1.4-8.1-0.7-12.2c0.1-0.7,0.6-1.2,1.4-1.2c0.4,0,0.8,0.1,1.1,0.5c0.5,0.9,0.2,2,0.3,2.9
		c0,1.4,0.1,2.7,0,4.1c-0.2,1.5,0,2.9,0.3,4.2c0.1,0.1,0.3,0.2,0.4,0.2l0.1-0.1c0.1,0,0.1-0.1,0.1-0.1c1.2-2.8,1.7-5.5,3.7-8
		c1.7-2,3.7-3.9,6.5-3.1c0.9,0.2,1.6,0.8,1.9,1.9c0.8,1.8,0.6,4.1,0.4,6.1c0,2.7-0.2,10.2,5.1,7.8c1.4-0.8,4.1-4.8,5-7.3
		c0.6-1.9,2-5,2-7C456.5,59.6,456.4,59.5,456.8,59.6z"/>
	<path class="st0" d="M478.1,70.7c-0.2,0.2-0.4,0-0.6,0c-0.6-0.4-0.7-0.4-1.5-0.6c-1.7-0.3-4.1,0-5.9,0.3c-0.4,0.1-0.8,0-1.2,0.2
		c-0.4,0.1-0.5,0.3-0.5,0.5c0.1,1.1,0.4,4.7,0.4,6.8c0.2,2.3,0.2,4.7,0.2,7c0,4-0.3,7.8-1.2,11.7c-0.6,2.5-1.6,4.2-3.8,5.6
		c-1.3,0.9-2.7,1.3-4.3,1.2c-1.9-0.2-3.6-0.6-5-1.9c-1.4-0.9-2.9-2.8-3.7-4.3c-0.5-1.4-0.6-1.8-0.8-3.2c-0.5-3.1,0.6-6.3,1.8-9.1
		c2.2-5.1,6-9.4,10.6-12.5c1.2-0.6,2.9-1.2,2.9-2.6v-0.2c-0.3-3.4,0.2-6.7-0.3-10.1c0-0.1-0.1-0.1-0.1-0.1c-0.1-0.2-0.3-0.1-0.3,0.1
		c-0.3,0.9-0.6,1.6-0.9,2.4c-0.6,1.6-1.7,2.9-3,3.9c-1.4,0.9-3.1,0.5-3.9-0.9c-0.9-1.7-1.4-3.5-1-5.4c0.2-1.2,0.6-2.2,1.2-3.2
		c0.6-1.1,2.5-2.2,3.7-2.2c0.8,0,2.6,0,3.7,1.4c0.1,0.1,0.1,0.1,0.1,0.1c0.3,0.2,0.2-0.2,0.3-0.2c0.1-0.5,0.3-2.1,0.3-3.2
		c0.1-0.4,0.7-0.6,1-0.6c0.4,0,1.4,0.1,1.3,1.2c0,0.9-0.1,6.2,0.1,8c0.2,2.5,0.2,5,0.4,7.6c0,0.4,0,0.6,0.1,0.8
		c0.1,0.2,0.3,0.4,0.6,0.4c0,0.1,0,0.1,0.1,0.1h0.1c2.4-0.3,4.7-0.5,6.9-0.3c0.8,0,1.8,0.2,2.4,0.9
		C478.6,70.3,478.4,70.7,478.1,70.7z M465.8,73.9c-0.1-0.6,0-1.2-0.5-1.4c-0.6-0.2-3,1.3-3.5,1.8c-1.2,1.1-2.4,2-3.5,3.2
		c-2.2,2.2-3.9,4.9-5.3,7.8c-1.2,2.5-2.1,5.3-1.9,8.2c0.1,2.4,1.1,4.9,2.9,6.7c1.8,1.7,4.3,2.7,6.8,2.4c1.9-0.2,3.9-1.2,4.8-2.9
		c0.8-1.4,0.8-2.7,1-4.1c0.2-1.9,0.2-4,0.2-6C466.9,84.3,466.4,79.2,465.8,73.9z M464.2,57.1c-0.2-0.5-0.4-0.8-0.5-0.9
		c-0.4-0.5-1.9-1.3-3.1-0.8c-0.6,0.3-1,0.6-1.2,1.2c-0.4,0.9-0.7,1.7-0.9,2.6c0,0.4-0.4,3,0.6,4.5c0.5,1.1,1.4,1.3,2.3,0.4
		c0.1,0,1.2-1.5,1.5-2.4c0.4-1.1,0.7-2.2,1.2-3.3c0.1-0.2,0.2-0.5,0.2-0.8C464.3,57.3,464.3,57.1,464.2,57.1z"/>
</g>
</svg>
