<?xml version="1.0" encoding="utf-8"?>
<!-- Generator: Adobe Illustrator 19.2.1, SVG Export Plug-In . SVG Version: 6.00 Build 0)  -->
<svg version="1.1" id="Layer_1" xmlns="http://www.w3.org/2000/svg" xmlns:xlink="http://www.w3.org/1999/xlink" x="0px" y="0px"
	 viewBox="0 0 362 62" style="enable-background:new 0 0 362 62;" xml:space="preserve">
<style type="text/css">
	.st0{fill:#562E90;}
	.st1{display:none;}
	.st2{display:inline;fill:none;}
	.st3{display:inline;}
	.st4{fill:none;}
</style>
<g>
	<rect x="5" y="10" class="st4" width="369" height="137"/>
	<path d="M18.3,12.2c0.2,0.1,0.3,0.5,0.3,0.9c0,0.5-0.2,0.8-0.5,0.8c-0.1,0-0.2,0-0.3-0.1c-0.1-0.1-0.3-0.3-0.5-0.4
		c-0.2-0.2-0.4-0.3-0.6-0.4l-0.7-0.2h-0.2c-0.2,0-0.6,0-1-0.1c-0.5-0.1-0.8-0.1-1-0.1c-0.3,0-0.8,0.1-1.4,0.2
		c-0.6,0.1-1.2,0.3-1.7,0.4c-0.1,0.1-0.3,0.3-0.5,0.4l-0.3,0.2c-0.1,0.1-0.2,0.2-0.3,0.3H9.3c-0.5,0.3-1.1,1-1.6,2.1
		c-0.5,1.1-0.8,2.1-0.8,3c0,1.1,0.3,2.1,1,3s1.6,1.6,2.8,2.1c0.1,0,0.2,0.1,0.3,0.2c0.3,0.3,1.3,0.5,3,0.8l0.2-0.2
		c0.1,0.1,0.3,0.1,0.4,0.1c0,0,0.1,0,0.2-0.1c0.1,0,0.2,0,0.3,0.1c0.2-0.1,0.4-0.1,0.6-0.1c0,0,0.2,0,0.4,0c0-0.1,0.1-0.1,0.2-0.2
		c0.1-0.4,0.1-0.8,0.1-1.2v-0.2l0-1.4c0-0.5,0-1-0.1-1.6c-0.1-0.2-0.2-0.4-0.2-0.5c0-0.3,0.1-0.4,0.3-0.4l1,0c0.1,0,0.2,0,0.3-0.1
		c0.2,0,0.2,0.1,0.2,0.2c0,0,0,0.1,0,0.2c-0.2,0.8-0.3,1.8-0.3,2.9c0,0.5,0.1,1.2,0.3,2.2c-0.1,0.1-0.2,0.2-0.2,0.2
		c0,0.1-0.1,0.3-0.2,0.6c-0.1,0.2-0.2,0.4-0.4,0.4c-0.1-0.1-0.2-0.2-0.4-0.2c-0.1,0-0.1,0-0.2,0c0,0-0.2,0-0.4,0
		c-0.2,0-0.4,0-0.4,0.1c0,0-0.1,0.1-0.2,0.2h-0.1c-0.1,0-0.2,0-0.4,0s-0.4,0-0.6,0c-0.3,0-0.6,0-0.8-0.1L13,26.2c0,0-0.1,0-0.1,0.1
		c-0.1,0-0.1,0.1-0.2,0.1h-0.1c-0.1-0.1-0.2-0.2-0.3-0.2c-0.8,0-1.8-0.3-2.9-1s-2-1.4-2.6-2.3c-0.6-0.8-0.9-2-0.9-3.3
		c0-0.9,0.2-1.8,0.5-2.7c0.3-0.9,0.6-1.4,0.8-1.4h0v0c0,0,0-0.1,0-0.2s0-0.1,0-0.1v0c0.1,0,0.3-0.1,0.4-0.2v-0.2
		c1-1.1,2.1-1.9,3.4-2.3c1.3-0.4,2.4-0.6,3.3-0.6c0.1,0,0.5,0,1.2,0.1c0.7,0.1,1.3,0.2,1.9,0.3C17.9,12.1,18.2,12.2,18.3,12.2
		L18.3,12.2z"/>
	<path d="M28.4,19.4c0.1,0.1,0.1,0.1,0.1,0.2c0,0.2-0.1,0.3-0.2,0.4c0,0,0,0,0,0.1c0,0.1-0.1,0.2-0.4,0.2h-0.1c0,0-0.1,0-0.1,0.1
		s-0.1,0.1-0.1,0.1c0,0,0,0-0.1-0.1c-0.1,0-0.1-0.1-0.3-0.1l-0.1-0.1c-0.2,0-0.3,0.1-0.4,0.1c-0.1,0-0.3,0-0.5,0c-0.2,0-0.3,0-0.4,0
		c-0.1,0-0.2,0-0.5,0.1c-0.2,0-0.5,0.1-0.6,0.1l-1,0c-0.5,0-1,0-1.5,0.1c-0.1,0-0.2,0.1-0.3,0.1c-0.1,0-0.2,0.1-0.2,0.2
		c0,0.1-0.1,0.2-0.2,0.2c-0.1,0.3-0.1,0.5-0.1,0.8c0,0.2,0.1,0.5,0.2,1c0.1,0.5,0.2,0.9,0.4,1.1c0,0,0.3,0.3,0.9,0.7
		c0.3,0.3,0.7,0.5,1.1,0.6c0.4,0.1,0.9,0.2,1.4,0.2c0.2,0,0.5,0,0.8-0.1l0.4-0.1h0.7c0.1,0,0.2-0.1,0.4-0.2c0.2-0.1,0.4-0.2,0.6-0.2
		c0.1,0.2,0.1,0.4,0.1,0.5c0,0.3-0.1,0.6-0.3,0.8c-0.2,0.2-0.4,0.4-0.7,0.4l-0.2,0l-0.6,0H26c-0.3,0-0.9-0.1-1.9-0.3
		c-1-0.2-1.8-0.5-2.3-0.9s-0.8-0.8-1.1-1.4c-0.2-0.6-0.3-1.1-0.3-1.6c0-0.7,0.1-1.4,0.4-2.2c0.3-0.7,0.6-1.3,0.9-1.7
		c0.3-0.4,0.9-0.8,1.6-1.3c0.1,0,0.2-0.1,0.3-0.2c0.1-0.1,0.3-0.2,0.4-0.2l0.3,0c0.1-0.1,0.4-0.2,0.8-0.2c0.4-0.1,0.7-0.1,0.9-0.1
		c0.4,0,0.9,0.2,1.4,0.5c0.5,0.3,0.8,1,0.9,1.9c0,0.2,0,0.3,0.1,0.4c0,0.1,0.1,0.2,0.1,0.2C28.5,19.3,28.5,19.3,28.4,19.4z
		 M24.2,17.1c0,0.1-0.2,0.2-0.6,0.3c-0.2,0.1-0.3,0.3-0.5,0.4s-0.3,0.3-0.5,0.5c-0.2,0.2-0.3,0.3-0.4,0.5c-0.1,0.1-0.2,0.3-0.3,0.3
		C22,19.3,22,19.3,22,19.4c0,0.1,0,0.1,0.1,0.2l0.1,0.1H23l3.6-0.1c0.5,0,0.7-0.2,0.7-0.6c0-0.4-0.1-0.8-0.3-1.1
		c-0.2-0.3-0.6-0.6-1.3-0.8c-0.1,0-0.2,0-0.3,0s-0.3,0-0.3,0C24.9,17,24.7,17,24.2,17.1z"/>
	<path d="M35.3,16.9c0,0,0,0.1,0.1,0.1s0.1,0,0.1,0h0.1c0.2,0,0.4,0.1,0.6,0.2s0.2,0.2,0.2,0.3c0,0.1-0.1,0.3-0.3,0.4L36,17.8
		c-0.1,0.2-0.3,0.3-0.5,0.3L35.5,18l-0.1,0c-0.3-0.1-0.6-0.2-0.9-0.2l-1,0c-0.1,0-0.3,0-0.6,0c-0.2,1.3-0.3,2.4-0.3,3.1
		c0,0.3,0,0.6,0,1c0,0.4,0.1,0.7,0.2,0.9c0.1,0.2,0.2,0.5,0.3,0.7c0.1,0.2,0.2,0.4,0.5,0.6s0.4,0.3,0.6,0.4c0.2,0.1,0.3,0.2,0.5,0.3
		c0.1,0.1,0.5,0.2,1,0.2h0.2c0.1,0.1,0.2,0.2,0.2,0.3c0,0.1,0,0.2-0.1,0.3c-0.1,0.2-0.2,0.3-0.2,0.4c-0.1,0.1-0.2,0.2-0.3,0.4h0
		c0,0-0.1,0-0.1-0.1c-0.2,0-0.5,0-0.6-0.1c0,0,0,0,0,0s0,0-0.1-0.1c-0.1,0-0.1-0.1-0.1-0.1c0-0.1-0.1-0.2-0.3-0.3
		c-0.3-0.1-0.6-0.3-0.9-0.5c-0.3-0.2-0.5-0.5-0.8-0.9c-0.3-0.4-0.5-0.7-0.5-1.1c-0.1-0.3-0.1-0.7-0.2-1.2c0-0.5-0.1-1-0.1-1.5
		c0-0.9,0.1-1.9,0.2-2.9l-0.2-0.1l-0.1,0.1h-0.1l0-0.1c-1.6-0.1-2.4-0.2-2.4-0.5c0-0.1,0-0.2,0.1-0.2C29.2,17,29.5,17,30,17h0.4
		l0.4-0.1c0.2,0,0.3-0.1,0.5-0.2s0.3-0.2,0.4-0.3c0.1-0.1,0.2-0.6,0.3-1.4c0.1-0.5,0.1-1,0.1-1.5V13c0-0.1,0-0.3,0.1-0.6
		s0.2-0.4,0.4-0.6c0.1-0.1,0.2-0.2,0.3-0.2c0.1,0,0.3,0,0.4,0.1c0.2,0.1,0.2,0.1,0.3,0.1c0,0,0,0.1,0.1,0.2c0,0.1,0.1,0.2,0.1,0.2v0
		c0,0,0,0-0.1,0.1c-0.1,0-0.1,0-0.1,0c0,0,0,0,0,0c0,0-0.1,0.2-0.1,0.6c-0.1,0.4-0.2,0.7-0.2,1.1c-0.1,0.4-0.1,0.7-0.1,1
		s-0.1,0.7-0.1,1c0,0.5,0,0.7,0.1,0.8c0,0.1,0.1,0.1,0.2,0.1c0,0,0.1,0,0.3-0.1c0.1,0,0.3-0.1,0.4-0.1c0.1,0,0.1,0,0.2,0l0.1,0.3
		c0,0,0.1,0,0.2,0c0.1,0,0.2,0,0.4-0.1C34.9,17,35.1,16.9,35.3,16.9z"/>
	<path d="M54.1,16.8c0.2,0,0.5-0.1,0.8-0.1l0.5-0.1c1.1,0,1.8,0.3,2.3,0.8c0.5,0.5,0.7,1.4,0.7,2.6c0,0.6-0.1,1.3-0.2,2
		c-0.1,0.7-0.3,1.5-0.6,2.3c-0.3,0.8-0.5,1.4-0.5,1.6c0,0,0,0.1,0,0.1c-0.1,0.2-0.1,0.5-0.2,0.8l-0.6,0.1l-0.2,0l-0.2,0
		c-0.1,0-0.3,0-0.4-0.1c0-0.5,0.1-0.9,0.3-1c0-0.1-0.1-0.1-0.1-0.2v-0.1c0.1-0.1,0.2-0.1,0.3-0.1c0.9-1.7,1.4-3.3,1.4-4.6
		c0-0.6-0.1-1.2-0.2-1.7c-0.2-0.5-0.3-0.9-0.4-1.1c-0.1-0.2-0.3-0.4-0.6-0.5s-0.6-0.2-1-0.2c-0.3,0-0.7,0.1-1.3,0.4l-1.4,0.7
		c-0.4,0.2-0.5,0.4-0.5,0.6c0,0,0,0.1,0.1,0.2c-0.1,0-0.2,0.1-0.3,0.1c-0.2,1.5-0.3,2.7-0.3,3.7l0.1,2.3c0,0.2,0,0.3-0.1,0.4
		c-0.4,0.1-0.7,0.2-0.8,0.4c-0.2-0.1-0.3-0.2-0.3-0.2c-0.2-0.1-0.3-0.3-0.3-0.8v-0.1c0.2-0.5,0.3-1,0.4-1.6c0.1-0.6,0.2-1.3,0.2-2.2
		c0-0.3,0-0.7-0.1-1.1l-0.1-0.5v-0.2c0-0.2,0-0.4-0.1-0.5c0-0.2-0.1-0.4-0.2-0.5c-0.1-0.2-0.2-0.4-0.4-0.5s-0.3-0.3-0.5-0.4
		s-0.4-0.1-0.6-0.1c-0.2,0-0.3,0-0.4,0c-0.1,0-0.3,0.1-0.4,0.1c-0.1,0.1-0.4,0.2-0.6,0.3c-0.3,0.1-0.6,0.2-0.8,0.3
		c-0.2,0.1-0.4,0.3-0.6,0.4c-0.2,0.2-0.3,0.3-0.4,0.5s-0.2,0.5-0.2,0.7c0,0.3-0.1,0.6-0.1,1l0.1,2.9c0,0.6,0.1,1.1,0.2,1.3
		c-0.1,0.3-0.3,0.5-0.4,0.7C44.8,26,44.6,26,44.5,26h0c-0.1,0-0.2,0-0.2-0.1L44.1,26c-0.1-0.1-0.1-0.2-0.1-0.3
		c0.1-0.1,0.1-0.3,0.1-0.5c0-0.1,0-0.2,0-0.5c0-0.2,0-0.4,0-0.5v-0.1c0,0,0-0.4,0.1-1.1c0-0.7,0.1-1.8,0.1-3.1
		c0-0.2-0.1-0.3-0.4-0.5c0-0.1-0.1-0.2-0.1-0.2s0-0.1,0.1-0.3l-0.1-0.1c0.1-0.1,0.2-0.2,0.3-0.3c0.1-0.1,0.2-0.2,0.2-0.2
		c0,0,0-0.1,0-0.2c0-0.1-0.1-0.3-0.2-0.5c-0.1-0.2-0.2-0.4-0.1-0.4c0-0.1,0-0.1,0-0.1c0,0,0-0.1,0.1-0.3c0.1-0.2,0.2-0.3,0.3-0.4
		h0.2c0,0,0.1-0.1,0.2-0.2c0.1-0.1,0.1-0.1,0.2-0.1c0.2,0,0.3,0.1,0.5,0.2c0.1,0.2,0.2,0.3,0.2,0.5c0,0.1,0,0.2,0,0.2
		c-0.1,0.2-0.2,0.3-0.2,0.5c0,0.3,0.1,0.5,0.2,0.5c0,0,0.1-0.1,0.3-0.2s0.5-0.2,0.8-0.3c0.3-0.1,0.6-0.2,0.8-0.4
		c0.2-0.1,0.4-0.2,0.4-0.2l0.3,0c0.1,0,0.1,0,0.1,0c0.2-0.1,0.5-0.2,0.9-0.2c0.3,0,0.6,0.1,1,0.3c0.3,0.2,0.6,0.4,0.7,0.8
		c0.1,0.2,0.1,0.3,0.3,0.3c0.1,0.1,0.2,0.1,0.3,0.1c0,0,0,0,0,0c0,0,0,0,0,0c0.1,0,0.2-0.1,0.4-0.3s0.4-0.2,0.7-0.3
		c0.1-0.2,0.5-0.4,1.3-0.5L54.1,16.8z"/>
	<path d="M67.8,20.4c0,0.1,0,0.1-0.1,0.2c-0.1,0.1-0.2,0.2-0.2,0.3s-0.1,0.3-0.1,0.6c0,0.3,0,0.8,0,1.4l0,1.4c0,0.1,0,0.1-0.1,0.2
		c0,0.1,0,0.2,0,0.4c0,0.3,0,0.6,0.1,1l0.1,0.5l0,0.5l0,0.4c-0.5,0.5-0.9,0.7-1.1,0.7c0,0-0.1,0-0.2-0.1s-0.2-0.1-0.3-0.1h-0.1
		c-0.1-0.2-0.1-0.4-0.1-0.5c0-0.3,0.1-0.7,0.2-1c0.1-0.1,0.1-0.2,0.2-0.2c0-0.1,0.1-0.3,0.1-0.6c0-0.4,0-0.6-0.1-0.6
		c0,0-0.1,0-0.1,0c-0.1,0-0.1,0-0.2,0h-0.1c-0.1,0.1-0.1,0.1-0.2,0.2c-0.1,0-0.5,0.1-1.3,0.5c-0.4,0.1-0.8,0.2-1.1,0.2
		c-0.4,0-0.8-0.1-1.1-0.2c-0.3-0.1-0.6-0.3-0.8-0.5c-0.2-0.2-0.4-0.4-0.4-0.5c-0.1-0.1-0.1-0.3-0.1-0.7l0-0.3v-0.1
		c0-0.7,0.5-1.4,1.6-2.2c1.1-0.8,2.1-1.2,3-1.4c0.2,0,0.4-0.1,0.6-0.1c0.1,0,0.3-0.1,0.3-0.2c0.1-0.1,0.1-0.3,0.1-0.7
		c0-1.2-0.6-2-1.9-2.5c0,0-0.1,0-0.2-0.1c-0.1,0-0.1-0.1-0.2-0.1c-0.7,0-1.2,0-1.7,0.1c-0.2,0.3-0.5,0.4-0.8,0.4
		c-0.2,0-0.3-0.1-0.3-0.2c0,0,0-0.2,0.1-0.4c0.1-0.3,0.3-0.4,0.7-0.4c0.4-0.2,1.2-0.3,2.4-0.3c0.9,0,1.6,0.4,2.1,1.1
		c0.5,0.7,0.8,1.7,0.8,3V20c0.1,0.1,0.2,0.2,0.3,0.2S67.8,20.3,67.8,20.4L67.8,20.4z M65.8,24c0.4-0.6,0.6-1.1,0.6-1.6
		c0-0.3-0.1-0.6-0.2-0.9c-0.1-0.3-0.4-0.5-0.8-0.5c-0.8,0-1.5,0.2-2,0.6h-0.3c-1.1,0.6-1.6,1.2-1.6,1.8c0,0.5,0.2,0.8,0.7,1.2
		c0.4,0.3,0.9,0.5,1.5,0.5c0.2,0,0.4-0.1,0.9-0.2s0.8-0.4,1.2-0.7V24z"/>
	<path d="M76.5,18c0,0.1,0,0.2-0.1,0.3c-0.1,0.2-0.2,0.3-0.2,0.5c0,0.1-0.1,0.3-0.3,0.4h-0.3c-0.4-0.2-0.6-0.3-0.8-0.3
		c-0.1,0-0.3,0.1-0.6,0.2c-0.3,0.1-0.6,0.4-0.8,0.8c-0.3,0.4-0.4,0.7-0.5,0.9c0,0.2-0.1,0.5-0.3,0.7v0.3c-0.1,0.3-0.2,0.6-0.2,0.7
		c0,0.2,0,0.3,0,0.4c0,0.1,0,0.2,0,0.2c-0.1,0.1-0.1,0.2-0.1,0.2c0,0.2,0,0.5,0.1,0.9c0.1,0.4,0.2,0.8,0.4,1v0.1
		c0,0.3-0.1,0.5-0.4,0.5L72.2,26c-0.2,0-0.4,0-0.6,0c-0.3,0-0.5,0-0.7-0.1v0c0-0.2,0.1-0.5,0.2-0.8c0.1-0.4,0.2-0.6,0.2-0.8l0.1-2.4
		c0-1.9-0.1-3.5-0.3-5c0-0.2,0-0.2,0-0.3c0-0.3,0.1-0.5,0.4-0.6c0.2-0.1,0.5-0.2,0.7-0.2c0.2,0,0.3,0,0.5,0.1c0,0,0,0.1,0.1,0.1
		c0,0.1,0.1,0.1,0.1,0.1v0.1c0,0.1-0.1,0.3-0.2,0.7c-0.1,0.4-0.2,0.8-0.2,1.4l0,1.3v0.2c0,0.1,0.1,0.2,0.3,0.2
		c0.3-0.6,0.6-1.1,1-1.5c0.4-0.4,0.9-0.6,1.5-0.8c0.6-0.2,1-0.2,1.1-0.2c0.2,0.1,0.3,0.2,0.3,0.3V18z"/>
	<path d="M83.7,18c0,0.1,0,0.2-0.1,0.3c-0.1,0.2-0.2,0.3-0.2,0.5c0,0.1-0.1,0.3-0.3,0.4h-0.3c-0.4-0.2-0.6-0.3-0.8-0.3
		c-0.1,0-0.3,0.1-0.6,0.2c-0.3,0.1-0.6,0.4-0.8,0.8c-0.3,0.4-0.4,0.7-0.5,0.9c0,0.2-0.1,0.5-0.3,0.7v0.3c-0.1,0.3-0.2,0.6-0.2,0.7
		c0,0.2,0,0.3,0,0.4c0,0.1,0,0.2,0,0.2c-0.1,0.1-0.1,0.2-0.1,0.2c0,0.2,0,0.5,0.1,0.9c0.1,0.4,0.2,0.8,0.4,1v0.1
		c0,0.3-0.1,0.5-0.4,0.5L79.4,26c-0.2,0-0.4,0-0.6,0c-0.3,0-0.5,0-0.7-0.1v0c0-0.2,0.1-0.5,0.2-0.8c0.1-0.4,0.2-0.6,0.2-0.8l0.1-2.4
		c0-1.9-0.1-3.5-0.3-5c0-0.2,0-0.2,0-0.3c0-0.3,0.1-0.5,0.4-0.6c0.2-0.1,0.5-0.2,0.7-0.2c0.2,0,0.3,0,0.5,0.1c0,0,0,0.1,0.1,0.1
		c0,0.1,0.1,0.1,0.1,0.1v0.1c0,0.1-0.1,0.3-0.2,0.7c-0.1,0.4-0.2,0.8-0.2,1.4l0,1.3v0.2c0,0.1,0.1,0.2,0.3,0.2
		c0.3-0.6,0.6-1.1,1-1.5c0.4-0.4,0.9-0.6,1.5-0.8c0.6-0.2,1-0.2,1.1-0.2c0.2,0.1,0.3,0.2,0.3,0.3V18z"/>
	<path d="M87.5,25.9c0,0-0.1,0.1-0.4,0.2c-0.3,0.1-0.5,0.2-0.6,0.2h-0.1c-0.1,0-0.2,0-0.3,0c-0.1,0-0.2,0-0.2,0
		c-0.1,0-0.2,0-0.4-0.1c-0.1-0.1-0.2-0.2-0.2-0.2c0-0.1,0-0.4,0.1-0.7c0.1-0.3,0.1-0.5,0.3-0.7c0.1-0.4,0.1-1.2,0.1-2.4l-0.1-3.7
		l0-0.6c0-0.1-0.1-0.2-0.2-0.4c-0.1-0.2-0.2-0.4-0.2-0.7c0-0.2,0-0.3,0.1-0.3c0.1-0.1,0.3-0.2,0.6-0.3l0.6-0.3c0,0,0.1,0,0.1,0
		c0.2,0,0.3,0.3,0.3,0.8c0,0.3-0.1,1.1-0.2,2.3c-0.1,1.3-0.2,2.3-0.2,3.1c0,0.4,0,0.9,0,1.3c0,0.4,0,0.7,0.1,0.9
		c0,0.2,0.1,0.4,0.2,0.6C87.3,25.2,87.4,25.5,87.5,25.9C87.4,25.8,87.5,25.8,87.5,25.9z M87,12.8c0.1,0.1,0.3,0.2,0.5,0.3
		c0.2,0.1,0.4,0.3,0.4,0.4c0,0.2-0.1,0.3-0.3,0.5c-0.2,0.2-0.4,0.3-0.5,0.3c-0.2,0-0.4-0.1-0.6-0.3c-0.2-0.2-0.3-0.4-0.3-0.4
		c0-0.1,0.1-0.3,0.3-0.5C86.6,12.9,86.8,12.8,87,12.8L87,12.8z"/>
	<path d="M97.9,19.4c0.1,0.1,0.1,0.1,0.1,0.2c0,0.2-0.1,0.3-0.2,0.4c0,0,0,0,0,0.1c0,0.1-0.1,0.2-0.4,0.2h-0.1c0,0-0.1,0-0.1,0.1
		S97,20.4,97,20.4c0,0,0,0-0.1-0.1c-0.1,0-0.1-0.1-0.3-0.1l-0.1-0.1c-0.2,0-0.3,0.1-0.4,0.1c-0.1,0-0.3,0-0.5,0c-0.2,0-0.3,0-0.4,0
		c-0.1,0-0.2,0-0.5,0.1c-0.2,0-0.5,0.1-0.6,0.1l-1,0c-0.5,0-1,0-1.5,0.1c-0.1,0-0.2,0.1-0.3,0.1c-0.1,0-0.2,0.1-0.2,0.2
		c0,0.1-0.1,0.2-0.2,0.2c-0.1,0.3-0.1,0.5-0.1,0.8c0,0.2,0.1,0.5,0.2,1c0.1,0.5,0.2,0.9,0.4,1.1c0,0,0.3,0.3,0.9,0.7
		c0.3,0.3,0.7,0.5,1.1,0.6c0.4,0.1,0.9,0.2,1.4,0.2c0.2,0,0.5,0,0.8-0.1l0.4-0.1h0.7c0.1,0,0.2-0.1,0.4-0.2c0.2-0.1,0.4-0.2,0.6-0.2
		c0.1,0.2,0.1,0.4,0.1,0.5c0,0.3-0.1,0.6-0.3,0.8c-0.2,0.2-0.4,0.4-0.7,0.4l-0.2,0l-0.6,0h-0.6c-0.3,0-0.9-0.1-1.9-0.3
		c-1-0.2-1.8-0.5-2.3-0.9s-0.8-0.8-1.1-1.4c-0.2-0.6-0.3-1.1-0.3-1.6c0-0.7,0.1-1.4,0.4-2.2c0.3-0.7,0.6-1.3,0.9-1.7
		c0.3-0.4,0.9-0.8,1.6-1.3c0.1,0,0.2-0.1,0.3-0.2c0.1-0.1,0.3-0.2,0.4-0.2l0.3,0c0.1-0.1,0.4-0.2,0.8-0.2c0.4-0.1,0.7-0.1,0.9-0.1
		c0.4,0,0.9,0.2,1.4,0.5c0.5,0.3,0.8,1,0.9,1.9c0,0.2,0,0.3,0.1,0.4c0,0.1,0.1,0.2,0.1,0.2C97.9,19.3,97.9,19.3,97.9,19.4z
		 M93.7,17.1c0,0.1-0.2,0.2-0.6,0.3c-0.2,0.1-0.3,0.3-0.5,0.4s-0.3,0.3-0.5,0.5c-0.2,0.2-0.3,0.3-0.4,0.5c-0.1,0.1-0.2,0.3-0.3,0.3
		c-0.1,0.1-0.1,0.1-0.1,0.2c0,0.1,0,0.1,0.1,0.2l0.1,0.1h0.8l3.6-0.1c0.5,0,0.7-0.2,0.7-0.6c0-0.4-0.1-0.8-0.3-1.1
		c-0.2-0.3-0.6-0.6-1.3-0.8c-0.1,0-0.2,0-0.3,0s-0.3,0-0.3,0C94.4,17,94.1,17,93.7,17.1z"/>
	<path d="M108.2,27.2l-0.9,1.3H107c-0.1-0.1-0.2-0.1-0.3-0.1c-0.1-0.2-0.2-0.5-0.3-0.8c0.1-0.2,0.1-0.4,0.1-0.6l0-1.1
		c0-0.4-0.1-0.8-0.2-1.2c0,0-0.1,0-0.2,0.1s-0.2,0-0.2,0.1c-0.7,0.5-1.2,0.8-1.7,0.9c-0.5,0.1-1,0.2-1.4,0.2c-0.8,0-1.4-0.2-2-0.5
		c-0.6-0.4-0.9-0.8-1.1-1.4c-0.2-0.6-0.3-1-0.3-1.3c0-0.5,0-0.9,0.1-1.1c0-0.2,0.2-0.5,0.4-1c0.2-0.4,0.4-0.8,0.5-1
		c0.1-0.2,0.4-0.5,0.8-0.9s0.8-0.7,1.3-1c0.4-0.1,0.9-0.3,1.3-0.5c0.5-0.2,0.8-0.3,1-0.3l0.1,0.1c0.3-0.2,0.6-0.3,0.8-0.3h0
		c0.2,0,0.3-0.1,0.3-0.4c0-0.9,0-1.8-0.1-2.8c-0.1-1-0.1-1.5-0.2-1.6c0-0.1-0.1-0.2-0.3-0.3c0-0.1-0.1-0.3-0.1-0.5
		c0-0.5,0.2-0.8,0.5-0.8c0.3-0.2,0.6-0.3,0.7-0.3c0.1,0,0.2,0.1,0.4,0.2c0.2,0.1,0.2,0.2,0.3,0.2c0,0,0,0,0,0.1c0,0,0,0.2-0.1,0.3
		c-0.1,0.2-0.1,0.4-0.1,0.6c-0.1,0.1-0.2,0.3-0.2,0.5l0,0.5c0,1.1,0,1.9,0.1,2.6c0.1,0.6,0.1,1,0.1,1c0,0,0,0.1,0,0.1s0,0.1,0,0.1
		c0,0.1,0.1,0.3,0.2,0.4l0.2-0.1c0,0.1,0.1,0.2,0.3,0.2c0.3,0.1,0.5,0.2,0.4,0.4c0,0.2-0.1,0.4-0.1,0.5h-0.1c-0.1,0-0.2,0-0.3,0.1
		c-0.1,0-0.2,0.1-0.2,0.1c-0.1,0-0.1,0-0.2,0c0,0,0,0,0,0c-0.1,0-0.1,0.7-0.1,2c0,0.8,0.1,1.7,0.2,2.8c0.1,0.2,0.2,0.3,0.3,0.4
		c0,0.3-0.1,0.5-0.1,0.7c0,0.3,0,0.6,0.1,1c0.1,0.4,0.1,0.7,0.1,0.9l0,0.3c0,0.1,0,0.1,0.1,0.1c0.1,0,0.1,0.1,0.1,0.1v0l0,0.1
		L108.2,27.2z M105.7,17.7c-0.2,0-0.3-0.1-0.5-0.1l-0.4-0.1c-0.1,0-0.3,0-0.4,0.1l-0.2,0.1h-0.5c-0.9,0.3-1.7,0.8-2.3,1.7
		c-0.6,0.8-0.9,1.7-0.9,2.5c0,0.9,0.3,1.6,0.8,2.1c0.5,0.6,1.2,0.8,2,0.8c0.7,0,1.3-0.1,1.9-0.3c0.5-0.2,0.9-0.5,1-0.7
		s0.1-0.9,0.1-1.8c0-1-0.1-2.3-0.2-4.1c-0.2-0.1-0.3-0.1-0.3-0.1V17.7z"/>
	<path d="M121,16.9c0,0,0,0.1,0.1,0.1s0.1,0,0.1,0h0.1c0.2,0,0.4,0.1,0.6,0.2s0.2,0.2,0.2,0.3c0,0.1-0.1,0.3-0.3,0.4l-0.1-0.1
		c-0.1,0.2-0.3,0.3-0.5,0.3l-0.1-0.1l-0.1,0c-0.3-0.1-0.6-0.2-0.9-0.2l-1,0c-0.1,0-0.3,0-0.6,0c-0.2,1.3-0.3,2.4-0.3,3.1
		c0,0.3,0,0.6,0,1c0,0.4,0.1,0.7,0.2,0.9c0.1,0.2,0.2,0.5,0.3,0.7c0.1,0.2,0.2,0.4,0.5,0.6s0.4,0.3,0.6,0.4c0.2,0.1,0.3,0.2,0.5,0.3
		c0.1,0.1,0.5,0.2,1,0.2h0.2c0.1,0.1,0.2,0.2,0.2,0.3c0,0.1,0,0.2-0.1,0.3c-0.1,0.2-0.2,0.3-0.2,0.4c-0.1,0.1-0.2,0.2-0.3,0.4h0
		c0,0-0.1,0-0.1-0.1c-0.2,0-0.5,0-0.6-0.1c0,0,0,0,0,0s0,0-0.1-0.1c-0.1,0-0.1-0.1-0.1-0.1c0-0.1-0.1-0.2-0.3-0.3
		c-0.3-0.1-0.6-0.3-0.9-0.5c-0.3-0.2-0.5-0.5-0.8-0.9c-0.3-0.4-0.5-0.7-0.5-1.1c-0.1-0.3-0.1-0.7-0.2-1.2c0-0.5-0.1-1-0.1-1.5
		c0-0.9,0.1-1.9,0.2-2.9l-0.2-0.1l-0.1,0.1h-0.1l0-0.1c-1.6-0.1-2.4-0.2-2.4-0.5c0-0.1,0-0.2,0.1-0.2c0.1-0.1,0.4-0.1,0.9-0.1h0.4
		l0.4-0.1c0.2,0,0.3-0.1,0.5-0.2s0.3-0.2,0.4-0.3c0.1-0.1,0.2-0.6,0.3-1.4c0.1-0.5,0.1-1,0.1-1.5V13c0-0.1,0-0.3,0.1-0.6
		s0.2-0.4,0.4-0.6c0.1-0.1,0.2-0.2,0.3-0.2c0.1,0,0.3,0,0.4,0.1c0.2,0.1,0.2,0.1,0.3,0.1c0,0,0,0.1,0.1,0.2c0,0.1,0.1,0.2,0.1,0.2v0
		c0,0,0,0-0.1,0.1c-0.1,0-0.1,0-0.1,0c0,0,0,0,0,0c0,0-0.1,0.2-0.1,0.6c-0.1,0.4-0.2,0.7-0.2,1.1c-0.1,0.4-0.1,0.7-0.1,1
		s-0.1,0.7-0.1,1c0,0.5,0,0.7,0.1,0.8c0,0.1,0.1,0.1,0.2,0.1c0,0,0.1,0,0.3-0.1c0.1,0,0.3-0.1,0.4-0.1c0.1,0,0.1,0,0.2,0l0.1,0.3
		c0,0,0.1,0,0.2,0c0.1,0,0.2,0,0.4-0.1C120.7,17,120.9,16.9,121,16.9z"/>
	<path d="M123.7,19.6c1.1-2,3-3,5.8-3c0.4,0,0.8,0,1.2,0.1c0.3,0,0.7,0.1,0.9,0.2c0.3,0.1,0.6,0.3,0.8,0.4c0.2,0.2,0.5,0.4,0.7,0.7
		c0.2,0.3,0.5,0.6,0.7,1c0.1,0.2,0.2,0.6,0.2,1.3c0,1.6-0.5,2.9-1.6,4c-1.1,1.1-2.4,1.7-3.9,1.7h-0.1c-0.3-0.1-0.5-0.1-0.5-0.1
		c0,0,0,0-0.1,0c-0.1,0.1-0.3,0.1-0.6,0.1c-0.5,0-1.1-0.1-1.7-0.4c-0.7-0.3-1.2-0.7-1.6-1.3c-0.4-0.6-0.6-1.2-0.6-1.8
		c0-0.2,0-0.5,0-0.7c0-0.2,0.1-0.5,0.1-0.7c0.1-0.2,0.1-0.4,0.2-0.6l0.2-0.6V19.6z M132.7,21.3V21c0-1.1-0.4-2.1-1.1-2.7
		c-0.7-0.7-1.7-1-2.8-1c-0.3,0-0.5,0-0.7,0.1c-0.2,0.1-0.4,0.1-0.4,0.1c0,0-0.1,0.1-0.2,0.2c-0.1,0.1-0.1,0.2-0.2,0.2
		c0,0-0.1,0-0.2,0l-0.5-0.1c-0.1,0-0.1,0.1-0.2,0.2c-0.5,0-1,0.4-1.5,1.2s-0.7,1.5-0.7,2.3c0,0.2,0,0.5,0.1,1.1
		c0.1,0.6,0.3,1,0.6,1.4s0.8,0.7,1.3,0.9c0.5,0.3,0.9,0.4,1.2,0.4c0.1,0,0.2,0,0.2,0l0.1,0h0.4c0.9,0,1.5-0.1,1.9-0.4
		c0,0,0.1,0,0.1,0c0,0,0.1,0,0.2,0.1c0.8-0.7,1.3-1.3,1.7-2C132.6,22,132.7,21.5,132.7,21.3z"/>
	<path d="M149.1,16.7c0.1-0.1,0.2-0.1,0.3-0.1c0.1,0,0.3,0,0.6,0.1c0.3,0.1,0.4,0.2,0.4,0.3c0,0.2-0.1,0.4-0.4,0.5
		c-0.1,0-0.4,0.6-1.1,1.7l-1.7,3.1c-0.5,0.9-0.8,1.7-0.9,2.3c-0.1,0.5-0.2,0.9-0.5,1l-0.1,0.3c-0.1,0-0.2,0.1-0.3,0.2
		c-1,2.3-1.6,3.7-1.8,4.2s-0.3,1-0.4,1.3s-0.2,0.4-0.4,0.4h-0.1c-0.2-0.1-0.5-0.1-0.9-0.1l-0.1,0c-0.1,0-0.2-0.1-0.2-0.2
		c0,0,0-0.1,0.1-0.1c0-0.1,0.3-0.4,0.8-1.1c-0.1,0-0.1-0.1-0.1-0.1c0-0.1,0.2-0.4,0.5-0.9c0.8-1.2,1.5-2.4,2-3.5
		c0-0.1-0.1-0.1-0.1-0.2c0,0-0.1,0-0.2,0h-0.1c-0.1,0-0.2-0.2-0.3-0.5c-0.1-0.4-0.1-0.6-0.1-0.6c-0.3-0.5-0.6-1.2-0.9-1.9
		s-0.7-1.5-1-2.2c-0.3-0.7-0.6-1.2-0.7-1.6c-0.1-0.4-0.3-0.7-0.6-0.9c-0.2-0.3-0.3-0.5-0.3-0.7v-0.1c0,0-0.1,0-0.1,0
		c-0.1,0-0.1,0-0.1-0.1s0.1-0.2,0.3-0.5c0.2-0.3,0.5-0.5,0.7-0.7c0.2,0.1,0.4,0.2,0.5,0.2s0.2,0.4,0.4,1l0.2,0.8v0.3
		c0.3,0.5,0.6,1.2,1,2.1l0.3,0.7c0.1,0.2,0.2,0.4,0.3,0.6c0.1,0.2,0.2,0.4,0.3,0.6c0.1,0.2,0.2,0.3,0.3,0.5c0.2,0.2,0.3,0.4,0.3,0.4
		c0,0.1,0.1,0.2,0.2,0.3c0.1,0.1,0.1,0.2,0.2,0.2c0.1,0.1,0.2,0.1,0.2,0.2l0.8-1.8c0.7-1.5,1.1-2.5,1.3-2.8c0.2-0.3,0.4-0.7,0.5-0.9
		c0.1-0.3,0.2-0.6,0.3-1c0.1-0.4,0.1-0.6,0.2-0.7c0.1-0.1,0.1-0.2,0.3-0.2L149.1,16.7z"/>
	<path d="M151.9,19.6c1.1-2,3-3,5.8-3c0.4,0,0.8,0,1.2,0.1c0.3,0,0.7,0.1,0.9,0.2c0.3,0.1,0.6,0.3,0.8,0.4c0.2,0.2,0.5,0.4,0.7,0.7
		c0.2,0.3,0.5,0.6,0.7,1c0.1,0.2,0.2,0.6,0.2,1.3c0,1.6-0.5,2.9-1.6,4c-1.1,1.1-2.4,1.7-3.9,1.7h-0.1c-0.3-0.1-0.5-0.1-0.5-0.1
		c0,0,0,0-0.1,0c-0.1,0.1-0.3,0.1-0.6,0.1c-0.5,0-1.1-0.1-1.7-0.4c-0.7-0.3-1.2-0.7-1.6-1.3c-0.4-0.6-0.6-1.2-0.6-1.8
		c0-0.2,0-0.5,0-0.7c0-0.2,0.1-0.5,0.1-0.7c0.1-0.2,0.1-0.4,0.2-0.6l0.2-0.6V19.6z M160.9,21.3V21c0-1.1-0.4-2.1-1.1-2.7
		c-0.7-0.7-1.7-1-2.8-1c-0.3,0-0.5,0-0.7,0.1c-0.2,0.1-0.4,0.1-0.4,0.1c0,0-0.1,0.1-0.2,0.2c-0.1,0.1-0.1,0.2-0.2,0.2
		c0,0-0.1,0-0.2,0l-0.5-0.1c-0.1,0-0.1,0.1-0.2,0.2c-0.5,0-1,0.4-1.5,1.2s-0.7,1.5-0.7,2.3c0,0.2,0,0.5,0.1,1.1
		c0.1,0.6,0.3,1,0.6,1.4s0.8,0.7,1.3,0.9c0.5,0.3,0.9,0.4,1.2,0.4c0.1,0,0.2,0,0.2,0l0.1,0h0.4c0.9,0,1.5-0.1,1.9-0.4
		c0,0,0.1,0,0.1,0c0,0,0.1,0,0.2,0.1c0.8-0.7,1.3-1.3,1.7-2C160.8,22,160.9,21.5,160.9,21.3z"/>
	<path d="M171.6,16.5c0.1-0.1,0.3-0.2,0.5-0.2l0.6-0.1h0.1c0.1,0,0.2,0.2,0.2,0.5l-0.3,1.1c-0.1,0.4-0.2,0.7-0.2,1.1s-0.1,0.7-0.1,1
		c0,0.3,0,0.6,0.1,1c0,0.4,0.2,0.7,0.4,0.9c0,0,0,0.1,0,0.1c0,0.1-0.1,0.2-0.2,0.4c-0.1,0.2-0.2,0.4-0.2,0.7c0,0.2,0,0.4,0.1,0.7
		c0.1,0.3,0.1,0.5,0.1,0.6c0,0.1,0.1,0.2,0.2,0.2c0.1,0.1,0.1,0.1,0.1,0.2c0,0.1-0.1,0.1-0.2,0.1c0,0.3,0,0.5,0,0.6
		c0,0.3,0,0.4,0.1,0.4c-0.5,0.2-0.8,0.3-1.1,0.3c-0.3,0-0.4-0.1-0.4-0.3c0-0.1,0-0.2,0.1-0.3c0,0,0-0.1,0-0.2c0-0.1,0-0.2,0.1-0.3
		c0-0.1,0.1-0.2,0.1-0.2c0-0.1,0-0.3-0.1-0.6s-0.2-0.4-0.4-0.4c-0.2,0-0.5,0.2-0.9,0.6c-0.6,0.6-1.2,1-1.7,1.2
		c-0.2,0.1-0.4,0.1-0.4,0.2c-1,0.2-1.5,0.2-1.5,0.2c-0.2,0-0.4-0.1-0.7-0.3c-0.3-0.2-0.5-0.4-0.7-0.6c-0.2-0.2-0.3-0.5-0.4-0.9
		c-0.1-0.4-0.2-0.8-0.2-1.3c0-0.2,0.1-1,0.3-2.3c0.2-1.3,0.3-2.2,0.4-2.8c0.1-0.6,0.1-0.8,0.1-0.9c0-0.1,0-0.1-0.1-0.3l-0.1-0.2v0
		c0,0,0-0.1,0.1-0.1c0.1,0,0.2-0.1,0.4-0.2c0.2-0.1,0.3-0.1,0.5-0.1c0,0,0.1,0,0.3,0.1c0.1,0,0.3,0.1,0.4,0.1h0.1
		c0.1,0.1,0.2,0.2,0.3,0.3l-0.2,0.2c-0.4,0.4-0.6,0.9-0.7,1.6l-0.3,2.2c-0.1,0.8-0.2,1.3-0.2,1.6c0,1,0.2,1.7,0.6,2.1
		c0.4,0.4,0.7,0.7,1.1,0.7l0.2,0l0.3,0c0.1,0,0.3-0.1,0.6-0.2c0.3-0.2,0.7-0.4,1.3-0.8c0.6-0.4,0.9-0.7,1.1-0.9
		c0.1-0.2,0.2-0.4,0.3-0.7c0.1-0.3,0.2-0.6,0.2-1c0-0.4,0.1-0.8,0.1-1.3c0-1.1,0-1.9-0.1-2.3c-0.1-0.4-0.1-0.6-0.3-0.7
		c-0.1-0.1-0.1-0.2-0.1-0.5c0.1,0,0.2-0.1,0.2-0.1c0,0,0.1,0,0.1,0C171.4,16.4,171.5,16.5,171.6,16.5z"/>
	<path d="M181.8,18c0,0.1,0,0.2-0.1,0.3c-0.1,0.2-0.2,0.3-0.2,0.5c0,0.1-0.1,0.3-0.3,0.4H181c-0.4-0.2-0.6-0.3-0.8-0.3
		c-0.1,0-0.3,0.1-0.6,0.2c-0.3,0.1-0.6,0.4-0.8,0.8c-0.3,0.4-0.4,0.7-0.5,0.9c0,0.2-0.1,0.5-0.3,0.7v0.3c-0.1,0.3-0.2,0.6-0.2,0.7
		c0,0.2,0,0.3,0,0.4c0,0.1,0,0.2,0,0.2c-0.1,0.1-0.1,0.2-0.1,0.2c0,0.2,0,0.5,0.1,0.9c0.1,0.4,0.2,0.8,0.4,1v0.1
		c0,0.3-0.1,0.5-0.4,0.5l-0.2,0.2c-0.2,0-0.4,0-0.6,0c-0.3,0-0.5,0-0.7-0.1v0c0-0.2,0.1-0.5,0.2-0.8c0.1-0.4,0.2-0.6,0.2-0.8
		l0.1-2.4c0-1.9-0.1-3.5-0.3-5c0-0.2,0-0.2,0-0.3c0-0.3,0.1-0.5,0.4-0.6c0.2-0.1,0.5-0.2,0.7-0.2c0.2,0,0.3,0,0.5,0.1
		c0,0,0,0.1,0.1,0.1c0,0.1,0.1,0.1,0.1,0.1v0.1c0,0.1-0.1,0.3-0.2,0.7c-0.1,0.4-0.2,0.8-0.2,1.4l0,1.3v0.2c0,0.1,0.1,0.2,0.3,0.2
		c0.3-0.6,0.6-1.1,1-1.5c0.4-0.4,0.9-0.6,1.5-0.8c0.6-0.2,1-0.2,1.1-0.2c0.2,0.1,0.3,0.2,0.3,0.3V18z"/>
	<path d="M192.8,20.7c0.5,0.5,0.8,1.1,0.8,1.7c0,0.9-0.3,1.7-0.8,2.4c-0.5,0.7-1.2,1.1-2.1,1.3c-0.2,0-0.4,0-0.8,0
		c-0.3,0.1-0.5,0.2-0.8,0.2c-0.4,0-0.7-0.1-0.9-0.2c-0.2-0.2-0.3-0.4-0.3-0.9c0-0.1,0-0.2,0-0.3h0.1c0.1,0,0.3,0,0.4,0.1
		c0.1,0.1,0.2,0.1,0.2,0.1l0.1,0c0.2,0.2,0.6,0.3,1.2,0.3c0.5,0,1-0.1,1.4-0.3c0.4-0.2,0.8-0.5,1-0.9c0.2-0.4,0.3-0.8,0.3-1.2
		c0-0.5-0.2-0.9-0.6-1.3c-0.4-0.3-1.3-0.7-2.6-1.1c-0.2,0-0.3-0.1-0.4-0.1l-0.5-0.4c-0.3-0.2-0.4-0.4-0.5-0.6l-0.1-0.3
		c0-1.1,0.3-1.8,0.9-2.3c0.6-0.5,1.7-0.7,3.2-0.7l0.6,0c0,0,0.1,0,0.2-0.1c0.1,0.1,0.2,0.3,0.2,0.5c0,0.2,0,0.4-0.1,0.6
		c-0.1,0.2-0.2,0.3-0.2,0.4c-0.1-0.1-0.1-0.2-0.2-0.3h0c0,0-0.1,0-0.1,0c0,0-0.1,0-0.1,0c-0.3-0.4-0.7-0.5-1.2-0.5
		c-0.9,0-1.5,0.2-1.8,0.5s-0.4,0.7-0.4,1.2c0,0.6,0.5,1,1.5,1.3c0.7,0.2,1.3,0.4,1.8,0.5C192.5,20.5,192.8,20.6,192.8,20.7z"/>
	<path d="M195.7,19.6c1.1-2,3-3,5.8-3c0.4,0,0.8,0,1.2,0.1c0.3,0,0.7,0.1,0.9,0.2c0.3,0.1,0.6,0.3,0.8,0.4c0.2,0.2,0.5,0.4,0.7,0.7
		c0.2,0.3,0.5,0.6,0.7,1c0.1,0.2,0.2,0.6,0.2,1.3c0,1.6-0.5,2.9-1.6,4c-1.1,1.1-2.4,1.7-3.9,1.7h-0.1c-0.3-0.1-0.5-0.1-0.5-0.1
		c0,0,0,0-0.1,0c-0.1,0.1-0.3,0.1-0.6,0.1c-0.5,0-1.1-0.1-1.7-0.4c-0.7-0.3-1.2-0.7-1.6-1.3c-0.4-0.6-0.6-1.2-0.6-1.8
		c0-0.2,0-0.5,0-0.7c0-0.2,0.1-0.5,0.1-0.7c0.1-0.2,0.1-0.4,0.2-0.6l0.2-0.6V19.6z M204.7,21.3V21c0-1.1-0.4-2.1-1.1-2.7
		c-0.7-0.7-1.7-1-2.8-1c-0.3,0-0.5,0-0.7,0.1c-0.2,0.1-0.4,0.1-0.4,0.1c0,0-0.1,0.1-0.2,0.2c-0.1,0.1-0.1,0.2-0.2,0.2
		c0,0-0.1,0-0.2,0l-0.5-0.1c-0.1,0-0.1,0.1-0.2,0.2c-0.5,0-1,0.4-1.5,1.2s-0.7,1.5-0.7,2.3c0,0.2,0,0.5,0.1,1.1
		c0.1,0.6,0.3,1,0.6,1.4s0.8,0.7,1.3,0.9c0.5,0.3,0.9,0.4,1.2,0.4c0.1,0,0.2,0,0.2,0l0.1,0h0.4c0.9,0,1.5-0.1,1.9-0.4
		c0,0,0.1,0,0.1,0c0,0,0.1,0,0.2,0.1c0.8-0.7,1.3-1.3,1.7-2C204.6,22,204.7,21.5,204.7,21.3z"/>
	<path d="M215.4,16.5c0.1-0.1,0.3-0.2,0.5-0.2l0.6-0.1h0.1c0.1,0,0.2,0.2,0.2,0.5l-0.3,1.1c-0.1,0.4-0.2,0.7-0.2,1.1s-0.1,0.7-0.1,1
		c0,0.3,0,0.6,0.1,1c0,0.4,0.2,0.7,0.4,0.9c0,0,0,0.1,0,0.1c0,0.1-0.1,0.2-0.2,0.4c-0.1,0.2-0.2,0.4-0.2,0.7c0,0.2,0,0.4,0.1,0.7
		c0.1,0.3,0.1,0.5,0.1,0.6c0,0.1,0.1,0.2,0.2,0.2c0.1,0.1,0.1,0.1,0.1,0.2c0,0.1-0.1,0.1-0.2,0.1c0,0.3,0,0.5,0,0.6
		c0,0.3,0,0.4,0.1,0.4c-0.5,0.2-0.8,0.3-1.1,0.3c-0.3,0-0.4-0.1-0.4-0.3c0-0.1,0-0.2,0.1-0.3c0,0,0-0.1,0-0.2c0-0.1,0-0.2,0.1-0.3
		c0-0.1,0.1-0.2,0.1-0.2c0-0.1,0-0.3-0.1-0.6s-0.2-0.4-0.4-0.4c-0.2,0-0.5,0.2-0.9,0.6c-0.6,0.6-1.2,1-1.7,1.2
		c-0.2,0.1-0.4,0.1-0.4,0.2c-1,0.2-1.5,0.2-1.5,0.2c-0.2,0-0.4-0.1-0.7-0.3c-0.3-0.2-0.5-0.4-0.7-0.6c-0.2-0.2-0.3-0.5-0.4-0.9
		c-0.1-0.4-0.2-0.8-0.2-1.3c0-0.2,0.1-1,0.3-2.3c0.2-1.3,0.3-2.2,0.4-2.8c0.1-0.6,0.1-0.8,0.1-0.9c0-0.1,0-0.1-0.1-0.3l-0.1-0.2v0
		c0,0,0-0.1,0.1-0.1c0.1,0,0.2-0.1,0.4-0.2c0.2-0.1,0.3-0.1,0.5-0.1c0,0,0.1,0,0.3,0.1c0.1,0,0.3,0.1,0.4,0.1h0.1
		c0.1,0.1,0.2,0.2,0.3,0.3l-0.2,0.2c-0.4,0.4-0.6,0.9-0.7,1.6l-0.3,2.2c-0.1,0.8-0.2,1.3-0.2,1.6c0,1,0.2,1.7,0.6,2.1
		c0.4,0.4,0.7,0.7,1.1,0.7l0.2,0l0.3,0c0.1,0,0.3-0.1,0.6-0.2c0.3-0.2,0.7-0.4,1.3-0.8c0.6-0.4,0.9-0.7,1.1-0.9
		c0.1-0.2,0.2-0.4,0.3-0.7c0.1-0.3,0.2-0.6,0.2-1c0-0.4,0.1-0.8,0.1-1.3c0-1.1,0-1.9-0.1-2.3c-0.1-0.4-0.1-0.6-0.3-0.7
		c-0.1-0.1-0.1-0.2-0.1-0.5c0.1,0,0.2-0.1,0.2-0.1c0,0,0.1,0,0.1,0C215.2,16.4,215.3,16.5,215.4,16.5z"/>
	<path d="M222.2,25.3c-0.1,0.2-0.1,0.3-0.2,0.4c0,0.1-0.2,0.1-0.3,0.1c-0.1,0.1-0.2,0.1-0.2,0.1c-0.1,0-0.1,0-0.2-0.1
		c-0.1,0.1-0.2,0.2-0.3,0.2c-0.5-0.2-0.8-0.3-0.8-0.6v0c0.1,0,0.2-0.1,0.2-0.3V25l0-0.3c0,0,0-0.2,0.1-0.5c0.1-0.7,0.2-1.7,0.2-2.9
		v-2.1l0-0.8l0-0.7l-0.1-2.4l0.1-1.6l-0.1-2.1v-0.4c-0.1-0.2-0.1-0.5-0.1-0.7l0-0.4c0,0,0-0.1-0.1-0.2c0-0.4,0.1-0.7,0.2-0.9
		c0.1-0.2,0.3-0.4,0.4-0.5c0.2-0.1,0.3-0.2,0.5-0.2c0.3,0,0.5,0.3,0.8,0.9c-0.2,0.2-0.3,0.4-0.4,0.6c-0.1,0.2-0.1,0.5-0.1,0.9l0,1.2
		l0,2.9l0,4l0,4.6l0,0.2c0,0.1,0,0.2-0.1,0.2c0.1,0.1,0.2,0.3,0.2,0.6c0,0.3,0.1,0.6,0.2,0.7C222.1,25.2,222.1,25.3,222.2,25.3z"/>
	<path d="M236,16.8c0.2,0,0.5-0.1,0.8-0.1l0.5-0.1c1.1,0,1.8,0.3,2.3,0.8c0.5,0.5,0.7,1.4,0.7,2.6c0,0.6-0.1,1.3-0.2,2
		c-0.1,0.7-0.3,1.5-0.6,2.3c-0.3,0.8-0.5,1.4-0.5,1.6c0,0,0,0.1,0,0.1c-0.1,0.2-0.1,0.5-0.2,0.8l-0.6,0.1l-0.2,0l-0.2,0
		c-0.1,0-0.3,0-0.4-0.1c0-0.5,0.1-0.9,0.3-1c0-0.1-0.1-0.1-0.1-0.2v-0.1c0.1-0.1,0.2-0.1,0.3-0.1c0.9-1.7,1.4-3.3,1.4-4.6
		c0-0.6-0.1-1.2-0.2-1.7c-0.2-0.5-0.3-0.9-0.4-1.1c-0.1-0.2-0.3-0.4-0.6-0.5s-0.6-0.2-1-0.2c-0.3,0-0.7,0.1-1.3,0.4l-1.4,0.7
		c-0.4,0.2-0.5,0.4-0.5,0.6c0,0,0,0.1,0.1,0.2c-0.1,0-0.2,0.1-0.3,0.1c-0.2,1.5-0.3,2.7-0.3,3.7l0.1,2.3c0,0.2,0,0.3-0.1,0.4
		c-0.4,0.1-0.7,0.2-0.8,0.4c-0.2-0.1-0.3-0.2-0.3-0.2c-0.2-0.1-0.3-0.3-0.3-0.8v-0.1c0.2-0.5,0.3-1,0.4-1.6c0.1-0.6,0.2-1.3,0.2-2.2
		c0-0.3,0-0.7-0.1-1.1l-0.1-0.5v-0.2c0-0.2,0-0.4-0.1-0.5c0-0.2-0.1-0.4-0.2-0.5c-0.1-0.2-0.2-0.4-0.4-0.5s-0.3-0.3-0.5-0.4
		s-0.4-0.1-0.6-0.1c-0.2,0-0.3,0-0.4,0c-0.1,0-0.3,0.1-0.4,0.1c-0.1,0.1-0.4,0.2-0.6,0.3c-0.3,0.1-0.6,0.2-0.8,0.3
		c-0.2,0.1-0.4,0.3-0.6,0.4c-0.2,0.2-0.3,0.3-0.4,0.5s-0.2,0.5-0.2,0.7c0,0.3-0.1,0.6-0.1,1l0.1,2.9c0,0.6,0.1,1.1,0.2,1.3
		c-0.1,0.3-0.3,0.5-0.4,0.7c-0.2,0.1-0.3,0.2-0.5,0.2h0c-0.1,0-0.2,0-0.2-0.1L226,26c-0.1-0.1-0.1-0.2-0.1-0.3
		c0.1-0.1,0.1-0.3,0.1-0.5c0-0.1,0-0.2,0-0.5c0-0.2,0-0.4,0-0.5v-0.1c0,0,0-0.4,0.1-1.1c0-0.7,0.1-1.8,0.1-3.1
		c0-0.2-0.1-0.3-0.4-0.5c0-0.1-0.1-0.2-0.1-0.2s0-0.1,0.1-0.3l-0.1-0.1c0.1-0.1,0.2-0.2,0.3-0.3c0.1-0.1,0.2-0.2,0.2-0.2
		c0,0,0-0.1,0-0.2c0-0.1-0.1-0.3-0.2-0.5c-0.1-0.2-0.2-0.4-0.1-0.4c0-0.1,0-0.1,0-0.1c0,0,0-0.1,0.1-0.3c0.1-0.2,0.2-0.3,0.3-0.4
		h0.2c0,0,0.1-0.1,0.2-0.2c0.1-0.1,0.1-0.1,0.2-0.1c0.2,0,0.3,0.1,0.5,0.2c0.1,0.2,0.2,0.3,0.2,0.5c0,0.1,0,0.2,0,0.2
		c-0.1,0.2-0.2,0.3-0.2,0.5c0,0.3,0.1,0.5,0.2,0.5c0,0,0.1-0.1,0.3-0.2s0.5-0.2,0.8-0.3c0.3-0.1,0.6-0.2,0.8-0.4
		c0.2-0.1,0.4-0.2,0.4-0.2l0.3,0c0.1,0,0.1,0,0.1,0c0.2-0.1,0.5-0.2,0.9-0.2c0.3,0,0.6,0.1,1,0.3c0.3,0.2,0.6,0.4,0.7,0.8
		c0.1,0.2,0.1,0.3,0.3,0.3c0.1,0.1,0.2,0.1,0.3,0.1c0,0,0,0,0,0c0,0,0,0,0,0c0.1,0,0.2-0.1,0.4-0.3s0.4-0.2,0.7-0.3
		c0.1-0.2,0.5-0.4,1.3-0.5L236,16.8z"/>
	<path d="M249.7,20.4c0,0.1,0,0.1-0.1,0.2c-0.1,0.1-0.2,0.2-0.2,0.3s-0.1,0.3-0.1,0.6c0,0.3,0,0.8,0,1.4l0,1.4c0,0.1,0,0.1-0.1,0.2
		c0,0.1,0,0.2,0,0.4c0,0.3,0,0.6,0.1,1l0.1,0.5l0,0.5l0,0.4c-0.5,0.5-0.9,0.7-1.1,0.7c0,0-0.1,0-0.2-0.1s-0.2-0.1-0.3-0.1h-0.1
		c-0.1-0.2-0.1-0.4-0.1-0.5c0-0.3,0.1-0.7,0.2-1c0.1-0.1,0.1-0.2,0.2-0.2c0-0.1,0.1-0.3,0.1-0.6c0-0.4,0-0.6-0.1-0.6
		c0,0-0.1,0-0.1,0c-0.1,0-0.1,0-0.2,0h-0.1c-0.1,0.1-0.1,0.1-0.2,0.2c-0.1,0-0.5,0.1-1.3,0.5c-0.4,0.1-0.8,0.2-1.1,0.2
		c-0.4,0-0.8-0.1-1.1-0.2c-0.3-0.1-0.6-0.3-0.8-0.5c-0.2-0.2-0.4-0.4-0.4-0.5c-0.1-0.1-0.1-0.3-0.1-0.7l0-0.3v-0.1
		c0-0.7,0.5-1.4,1.6-2.2c1.1-0.8,2.1-1.2,3-1.4c0.2,0,0.4-0.1,0.6-0.1c0.1,0,0.3-0.1,0.3-0.2c0.1-0.1,0.1-0.3,0.1-0.7
		c0-1.2-0.6-2-1.9-2.5c0,0-0.1,0-0.2-0.1c-0.1,0-0.1-0.1-0.2-0.1c-0.7,0-1.2,0-1.7,0.1c-0.2,0.3-0.5,0.4-0.8,0.4
		c-0.2,0-0.3-0.1-0.3-0.2c0,0,0-0.2,0.1-0.4c0.1-0.3,0.3-0.4,0.7-0.4c0.4-0.2,1.2-0.3,2.4-0.3c0.9,0,1.6,0.4,2.1,1.1
		c0.5,0.7,0.8,1.7,0.8,3V20c0.1,0.1,0.2,0.2,0.3,0.2S249.7,20.3,249.7,20.4L249.7,20.4z M247.7,24c0.4-0.6,0.6-1.1,0.6-1.6
		c0-0.3-0.1-0.6-0.2-0.9c-0.1-0.3-0.4-0.5-0.8-0.5c-0.8,0-1.5,0.2-2,0.6h-0.3c-1.1,0.6-1.6,1.2-1.6,1.8c0,0.5,0.2,0.8,0.7,1.2
		c0.4,0.3,0.9,0.5,1.5,0.5c0.2,0,0.4-0.1,0.9-0.2s0.8-0.4,1.2-0.7V24z"/>
	<path d="M257.2,16.9c0,0,0,0.1,0.1,0.1s0.1,0,0.1,0h0.1c0.2,0,0.4,0.1,0.6,0.2s0.2,0.2,0.2,0.3c0,0.1-0.1,0.3-0.3,0.4l-0.1-0.1
		c-0.1,0.2-0.3,0.3-0.5,0.3l-0.1-0.1l-0.1,0c-0.3-0.1-0.6-0.2-0.9-0.2l-1,0c-0.1,0-0.3,0-0.6,0c-0.2,1.3-0.3,2.4-0.3,3.1
		c0,0.3,0,0.6,0,1c0,0.4,0.1,0.7,0.2,0.9c0.1,0.2,0.2,0.5,0.3,0.7c0.1,0.2,0.2,0.4,0.5,0.6s0.4,0.3,0.6,0.4c0.2,0.1,0.3,0.2,0.5,0.3
		c0.1,0.1,0.5,0.2,1,0.2h0.2c0.1,0.1,0.2,0.2,0.2,0.3c0,0.1,0,0.2-0.1,0.3c-0.1,0.2-0.2,0.3-0.2,0.4c-0.1,0.1-0.2,0.2-0.3,0.4h0
		c0,0-0.1,0-0.1-0.1c-0.2,0-0.5,0-0.6-0.1c0,0,0,0,0,0s0,0-0.1-0.1c-0.1,0-0.1-0.1-0.1-0.1c0-0.1-0.1-0.2-0.3-0.3
		c-0.3-0.1-0.6-0.3-0.9-0.5c-0.3-0.2-0.5-0.5-0.8-0.9c-0.3-0.4-0.5-0.7-0.5-1.1c-0.1-0.3-0.1-0.7-0.2-1.2c0-0.5-0.1-1-0.1-1.5
		c0-0.9,0.1-1.9,0.2-2.9l-0.2-0.1l-0.1,0.1h-0.1l0-0.1c-1.6-0.1-2.4-0.2-2.4-0.5c0-0.1,0-0.2,0.1-0.2c0.1-0.1,0.4-0.1,0.9-0.1h0.4
		l0.4-0.1c0.2,0,0.3-0.1,0.5-0.2s0.3-0.2,0.4-0.3c0.1-0.1,0.2-0.6,0.3-1.4c0.1-0.5,0.1-1,0.1-1.5V13c0-0.1,0-0.3,0.1-0.6
		s0.2-0.4,0.4-0.6c0.1-0.1,0.2-0.2,0.3-0.2c0.1,0,0.3,0,0.4,0.1c0.2,0.1,0.2,0.1,0.3,0.1c0,0,0,0.1,0.1,0.2c0,0.1,0.1,0.2,0.1,0.2v0
		c0,0,0,0-0.1,0.1c-0.1,0-0.1,0-0.1,0c0,0,0,0,0,0c0,0-0.1,0.2-0.1,0.6c-0.1,0.4-0.2,0.7-0.2,1.1c-0.1,0.4-0.1,0.7-0.1,1
		s-0.1,0.7-0.1,1c0,0.5,0,0.7,0.1,0.8c0,0.1,0.1,0.1,0.2,0.1c0,0,0.1,0,0.3-0.1c0.1,0,0.3-0.1,0.4-0.1c0.1,0,0.1,0,0.2,0l0.1,0.3
		c0,0,0.1,0,0.2,0c0.1,0,0.2,0,0.4-0.1C256.8,17,257,16.9,257.2,16.9z"/>
	<path d="M267.3,19.4c0.1,0.1,0.1,0.1,0.1,0.2c0,0.2-0.1,0.3-0.2,0.4c0,0,0,0,0,0.1c0,0.1-0.1,0.2-0.4,0.2h-0.1c0,0-0.1,0-0.1,0.1
		s-0.1,0.1-0.1,0.1c0,0,0,0-0.1-0.1c-0.1,0-0.1-0.1-0.3-0.1l-0.1-0.1c-0.2,0-0.3,0.1-0.4,0.1c-0.1,0-0.3,0-0.5,0c-0.2,0-0.3,0-0.4,0
		c-0.1,0-0.2,0-0.5,0.1c-0.2,0-0.5,0.1-0.6,0.1l-1,0c-0.5,0-1,0-1.5,0.1c-0.1,0-0.2,0.1-0.3,0.1c-0.1,0-0.2,0.1-0.2,0.2
		c0,0.1-0.1,0.2-0.2,0.2c-0.1,0.3-0.1,0.5-0.1,0.8c0,0.2,0.1,0.5,0.2,1c0.1,0.5,0.2,0.9,0.4,1.1c0,0,0.3,0.3,0.9,0.7
		c0.3,0.3,0.7,0.5,1.1,0.6c0.4,0.1,0.9,0.2,1.4,0.2c0.2,0,0.5,0,0.8-0.1l0.4-0.1h0.7c0.1,0,0.2-0.1,0.4-0.2c0.2-0.1,0.4-0.2,0.6-0.2
		c0.1,0.2,0.1,0.4,0.1,0.5c0,0.3-0.1,0.6-0.3,0.8c-0.2,0.2-0.4,0.4-0.7,0.4l-0.2,0l-0.6,0h-0.6c-0.3,0-0.9-0.1-1.9-0.3
		c-1-0.2-1.8-0.5-2.3-0.9s-0.8-0.8-1.1-1.4c-0.2-0.6-0.3-1.1-0.3-1.6c0-0.7,0.1-1.4,0.4-2.2c0.3-0.7,0.6-1.3,0.9-1.7
		c0.3-0.4,0.9-0.8,1.6-1.3c0.1,0,0.2-0.1,0.3-0.2c0.1-0.1,0.3-0.2,0.4-0.2l0.3,0c0.1-0.1,0.4-0.2,0.8-0.2c0.4-0.1,0.7-0.1,0.9-0.1
		c0.4,0,0.9,0.2,1.4,0.5c0.5,0.3,0.8,1,0.9,1.9c0,0.2,0,0.3,0.1,0.4c0,0.1,0.1,0.2,0.1,0.2C267.4,19.3,267.3,19.3,267.3,19.4z
		 M263.1,17.1c0,0.1-0.2,0.2-0.6,0.3c-0.2,0.1-0.3,0.3-0.5,0.4s-0.3,0.3-0.5,0.5c-0.2,0.2-0.3,0.3-0.4,0.5c-0.1,0.1-0.2,0.3-0.3,0.3
		c-0.1,0.1-0.1,0.1-0.1,0.2c0,0.1,0,0.1,0.1,0.2l0.1,0.1h0.8l3.6-0.1c0.5,0,0.7-0.2,0.7-0.6c0-0.4-0.1-0.8-0.3-1.1
		c-0.2-0.3-0.6-0.6-1.3-0.8c-0.1,0-0.2,0-0.3,0s-0.3,0-0.3,0C263.8,17,263.6,17,263.1,17.1z"/>
	<path d="M281.2,20.4c0,0.1,0,0.1-0.1,0.2c-0.1,0.1-0.2,0.2-0.2,0.3s-0.1,0.3-0.1,0.6c0,0.3,0,0.8,0,1.4l0,1.4c0,0.1,0,0.1-0.1,0.2
		c0,0.1,0,0.2,0,0.4c0,0.3,0,0.6,0.1,1l0.1,0.5l0,0.5l0,0.4c-0.5,0.5-0.9,0.7-1.1,0.7c0,0-0.1,0-0.2-0.1s-0.2-0.1-0.3-0.1h-0.1
		c-0.1-0.2-0.1-0.4-0.1-0.5c0-0.3,0.1-0.7,0.2-1c0.1-0.1,0.1-0.2,0.2-0.2c0-0.1,0.1-0.3,0.1-0.6c0-0.4,0-0.6-0.1-0.6
		c0,0-0.1,0-0.1,0c-0.1,0-0.1,0-0.2,0h-0.1c-0.1,0.1-0.1,0.1-0.2,0.2c-0.1,0-0.5,0.1-1.3,0.5c-0.4,0.1-0.8,0.2-1.1,0.2
		c-0.4,0-0.8-0.1-1.1-0.2c-0.3-0.1-0.6-0.3-0.8-0.5c-0.2-0.2-0.4-0.4-0.4-0.5c-0.1-0.1-0.1-0.3-0.1-0.7l0-0.3v-0.1
		c0-0.7,0.5-1.4,1.6-2.2c1.1-0.8,2.1-1.2,3-1.4c0.2,0,0.4-0.1,0.6-0.1c0.1,0,0.3-0.1,0.3-0.2c0.1-0.1,0.1-0.3,0.1-0.7
		c0-1.2-0.6-2-1.9-2.5c0,0-0.1,0-0.2-0.1c-0.1,0-0.1-0.1-0.2-0.1c-0.7,0-1.2,0-1.7,0.1c-0.2,0.3-0.5,0.4-0.8,0.4
		c-0.2,0-0.3-0.1-0.3-0.2c0,0,0-0.2,0.1-0.4c0.1-0.3,0.3-0.4,0.7-0.4c0.4-0.2,1.2-0.3,2.4-0.3c0.9,0,1.6,0.4,2.1,1.1
		c0.5,0.7,0.8,1.7,0.8,3V20c0.1,0.1,0.2,0.2,0.3,0.2S281.2,20.3,281.2,20.4L281.2,20.4z M279.2,24c0.4-0.6,0.6-1.1,0.6-1.6
		c0-0.3-0.1-0.6-0.2-0.9c-0.1-0.3-0.4-0.5-0.8-0.5c-0.8,0-1.5,0.2-2,0.6h-0.3c-1.1,0.6-1.6,1.2-1.6,1.8c0,0.5,0.2,0.8,0.7,1.2
		c0.4,0.3,0.9,0.5,1.5,0.5c0.2,0,0.4-0.1,0.9-0.2s0.8-0.4,1.2-0.7V24z"/>
	<path d="M294.8,16.8c0.2,0,0.5-0.1,0.8-0.1l0.5-0.1c1.1,0,1.8,0.3,2.3,0.8c0.5,0.5,0.7,1.4,0.7,2.6c0,0.6-0.1,1.3-0.2,2
		c-0.1,0.7-0.3,1.5-0.6,2.3c-0.3,0.8-0.5,1.4-0.5,1.6c0,0,0,0.1,0,0.1c-0.1,0.2-0.1,0.5-0.2,0.8l-0.6,0.1l-0.2,0l-0.2,0
		c-0.1,0-0.3,0-0.4-0.1c0-0.5,0.1-0.9,0.3-1c0-0.1-0.1-0.1-0.1-0.2v-0.1c0.1-0.1,0.2-0.1,0.3-0.1c0.9-1.7,1.4-3.3,1.4-4.6
		c0-0.6-0.1-1.2-0.2-1.7c-0.2-0.5-0.3-0.9-0.4-1.1c-0.1-0.2-0.3-0.4-0.6-0.5s-0.6-0.2-1-0.2c-0.3,0-0.7,0.1-1.3,0.4l-1.4,0.7
		c-0.4,0.2-0.5,0.4-0.5,0.6c0,0,0,0.1,0.1,0.2c-0.1,0-0.2,0.1-0.3,0.1c-0.2,1.5-0.3,2.7-0.3,3.7l0.1,2.3c0,0.2,0,0.3-0.1,0.4
		c-0.4,0.1-0.7,0.2-0.8,0.4c-0.2-0.1-0.3-0.2-0.3-0.2c-0.2-0.1-0.3-0.3-0.3-0.8v-0.1c0.2-0.5,0.3-1,0.4-1.6c0.1-0.6,0.2-1.3,0.2-2.2
		c0-0.3,0-0.7-0.1-1.1l-0.1-0.5v-0.2c0-0.2,0-0.4-0.1-0.5c0-0.2-0.1-0.4-0.2-0.5c-0.1-0.2-0.2-0.4-0.4-0.5s-0.3-0.3-0.5-0.4
		s-0.4-0.1-0.6-0.1c-0.2,0-0.3,0-0.4,0c-0.1,0-0.3,0.1-0.4,0.1c-0.1,0.1-0.4,0.2-0.6,0.3c-0.3,0.1-0.6,0.2-0.8,0.3
		c-0.2,0.1-0.4,0.3-0.6,0.4c-0.2,0.2-0.3,0.3-0.4,0.5s-0.2,0.5-0.2,0.7c0,0.3-0.1,0.6-0.1,1l0.1,2.9c0,0.6,0.1,1.1,0.2,1.3
		c-0.1,0.3-0.3,0.5-0.4,0.7c-0.2,0.1-0.3,0.2-0.5,0.2h0c-0.1,0-0.2,0-0.2-0.1l-0.1,0.1c-0.1-0.1-0.1-0.2-0.1-0.3
		c0.1-0.1,0.1-0.3,0.1-0.5c0-0.1,0-0.2,0-0.5c0-0.2,0-0.4,0-0.5v-0.1c0,0,0-0.4,0.1-1.1c0-0.7,0.1-1.8,0.1-3.1
		c0-0.2-0.1-0.3-0.4-0.5c0-0.1-0.1-0.2-0.1-0.2s0-0.1,0.1-0.3l-0.1-0.1c0.1-0.1,0.2-0.2,0.3-0.3c0.1-0.1,0.2-0.2,0.2-0.2
		c0,0,0-0.1,0-0.2c0-0.1-0.1-0.3-0.2-0.5c-0.1-0.2-0.2-0.4-0.1-0.4c0-0.1,0-0.1,0-0.1c0,0,0-0.1,0.1-0.3c0.1-0.2,0.2-0.3,0.3-0.4
		h0.2c0,0,0.1-0.1,0.2-0.2c0.1-0.1,0.1-0.1,0.2-0.1c0.2,0,0.3,0.1,0.5,0.2c0.1,0.2,0.2,0.3,0.2,0.5c0,0.1,0,0.2,0,0.2
		c-0.1,0.2-0.2,0.3-0.2,0.5c0,0.3,0.1,0.5,0.2,0.5c0,0,0.1-0.1,0.3-0.2s0.5-0.2,0.8-0.3c0.3-0.1,0.6-0.2,0.8-0.4
		c0.2-0.1,0.4-0.2,0.4-0.2l0.3,0c0.1,0,0.1,0,0.1,0c0.2-0.1,0.5-0.2,0.9-0.2c0.3,0,0.6,0.1,1,0.3c0.3,0.2,0.6,0.4,0.7,0.8
		c0.1,0.2,0.1,0.3,0.3,0.3c0.1,0.1,0.2,0.1,0.3,0.1c0,0,0,0,0,0c0,0,0,0,0,0c0.1,0,0.2-0.1,0.4-0.3s0.4-0.2,0.7-0.3
		c0.1-0.2,0.5-0.4,1.3-0.5L294.8,16.8z"/>
	<path d="M304.6,25.9c0,0-0.1,0.1-0.4,0.2c-0.3,0.1-0.5,0.2-0.6,0.2h-0.1c-0.1,0-0.2,0-0.3,0c-0.1,0-0.2,0-0.2,0
		c-0.1,0-0.2,0-0.4-0.1c-0.1-0.1-0.2-0.2-0.2-0.2c0-0.1,0-0.4,0.1-0.7c0.1-0.3,0.1-0.5,0.3-0.7c0.1-0.4,0.1-1.2,0.1-2.4l-0.1-3.7
		l0-0.6c0-0.1-0.1-0.2-0.2-0.4c-0.1-0.2-0.2-0.4-0.2-0.7c0-0.2,0-0.3,0.1-0.3c0.1-0.1,0.3-0.2,0.6-0.3l0.6-0.3c0,0,0.1,0,0.1,0
		c0.2,0,0.3,0.3,0.3,0.8c0,0.3-0.1,1.1-0.2,2.3c-0.1,1.3-0.2,2.3-0.2,3.1c0,0.4,0,0.9,0,1.3c0,0.4,0,0.7,0.1,0.9
		c0,0.2,0.1,0.4,0.2,0.6C304.4,25.2,304.5,25.5,304.6,25.9C304.5,25.8,304.6,25.8,304.6,25.9z M304.1,12.8c0.1,0.1,0.3,0.2,0.5,0.3
		c0.2,0.1,0.4,0.3,0.4,0.4c0,0.2-0.1,0.3-0.3,0.5c-0.2,0.2-0.4,0.3-0.5,0.3c-0.2,0-0.4-0.1-0.6-0.3c-0.2-0.2-0.3-0.4-0.3-0.4
		c0-0.1,0.1-0.3,0.3-0.5C303.7,12.9,303.9,12.8,304.1,12.8L304.1,12.8z"/>
	<path d="M315.7,27.2l-0.9,1.3h-0.3c-0.1-0.1-0.2-0.1-0.3-0.1c-0.1-0.2-0.2-0.5-0.3-0.8c0.1-0.2,0.1-0.4,0.1-0.6l0-1.1
		c0-0.4-0.1-0.8-0.2-1.2c0,0-0.1,0-0.2,0.1s-0.2,0-0.2,0.1c-0.7,0.5-1.2,0.8-1.7,0.9c-0.5,0.1-1,0.2-1.4,0.2c-0.8,0-1.4-0.2-2-0.5
		c-0.6-0.4-0.9-0.8-1.1-1.4c-0.2-0.6-0.3-1-0.3-1.3c0-0.5,0-0.9,0.1-1.1c0-0.2,0.2-0.5,0.4-1c0.2-0.4,0.4-0.8,0.5-1
		c0.1-0.2,0.4-0.5,0.8-0.9s0.8-0.7,1.3-1c0.4-0.1,0.9-0.3,1.3-0.5c0.5-0.2,0.8-0.3,1-0.3l0.1,0.1c0.3-0.2,0.6-0.3,0.8-0.3h0
		c0.2,0,0.3-0.1,0.3-0.4c0-0.9,0-1.8-0.1-2.8c-0.1-1-0.1-1.5-0.2-1.6c0-0.1-0.1-0.2-0.3-0.3c0-0.1-0.1-0.3-0.1-0.5
		c0-0.5,0.2-0.8,0.5-0.8c0.3-0.2,0.6-0.3,0.7-0.3c0.1,0,0.2,0.1,0.4,0.2c0.2,0.1,0.2,0.2,0.3,0.2c0,0,0,0,0,0.1c0,0,0,0.2-0.1,0.3
		c-0.1,0.2-0.1,0.4-0.1,0.6c-0.1,0.1-0.2,0.3-0.2,0.5l0,0.5c0,1.1,0,1.9,0.1,2.6c0.1,0.6,0.1,1,0.1,1c0,0,0,0.1,0,0.1s0,0.1,0,0.1
		c0,0.1,0.1,0.3,0.2,0.4l0.2-0.1c0,0.1,0.1,0.2,0.3,0.2c0.3,0.1,0.5,0.2,0.4,0.4c0,0.2-0.1,0.4-0.1,0.5h-0.1c-0.1,0-0.2,0-0.3,0.1
		c-0.1,0-0.2,0.1-0.2,0.1c-0.1,0-0.1,0-0.2,0c0,0,0,0,0,0c-0.1,0-0.1,0.7-0.1,2c0,0.8,0.1,1.7,0.2,2.8c0.1,0.2,0.2,0.3,0.3,0.4
		c0,0.3-0.1,0.5-0.1,0.7c0,0.3,0,0.6,0.1,1c0.1,0.4,0.1,0.7,0.1,0.9l0,0.3c0,0.1,0,0.1,0.1,0.1c0.1,0,0.1,0.1,0.1,0.1v0l0,0.1
		L315.7,27.2z M313.2,17.7c-0.2,0-0.3-0.1-0.5-0.1l-0.4-0.1c-0.1,0-0.3,0-0.4,0.1l-0.2,0.1h-0.5c-0.9,0.3-1.7,0.8-2.3,1.7
		c-0.6,0.8-0.9,1.7-0.9,2.5c0,0.9,0.3,1.6,0.8,2.1c0.5,0.6,1.2,0.8,2,0.8c0.7,0,1.3-0.1,1.9-0.3c0.5-0.2,0.9-0.5,1-0.7
		s0.1-0.9,0.1-1.8c0-1-0.1-2.3-0.2-4.1c-0.2-0.1-0.3-0.1-0.3-0.1V17.7z"/>
	<path d="M328.5,16.9c0,0,0,0.1,0.1,0.1s0.1,0,0.1,0h0.1c0.2,0,0.4,0.1,0.6,0.2s0.2,0.2,0.2,0.3c0,0.1-0.1,0.3-0.3,0.4l-0.1-0.1
		c-0.1,0.2-0.3,0.3-0.5,0.3l-0.1-0.1l-0.1,0c-0.3-0.1-0.6-0.2-0.9-0.2l-1,0c-0.1,0-0.3,0-0.6,0c-0.2,1.3-0.3,2.4-0.3,3.1
		c0,0.3,0,0.6,0,1c0,0.4,0.1,0.7,0.2,0.9c0.1,0.2,0.2,0.5,0.3,0.7c0.1,0.2,0.2,0.4,0.5,0.6s0.4,0.3,0.6,0.4c0.2,0.1,0.3,0.2,0.5,0.3
		c0.1,0.1,0.5,0.2,1,0.2h0.2c0.1,0.1,0.2,0.2,0.2,0.3c0,0.1,0,0.2-0.1,0.3c-0.1,0.2-0.2,0.3-0.2,0.4c-0.1,0.1-0.2,0.2-0.3,0.4h0
		c0,0-0.1,0-0.1-0.1c-0.2,0-0.5,0-0.6-0.1c0,0,0,0,0,0s0,0-0.1-0.1c-0.1,0-0.1-0.1-0.1-0.1c0-0.1-0.1-0.2-0.3-0.3
		c-0.3-0.1-0.6-0.3-0.9-0.5c-0.3-0.2-0.5-0.5-0.8-0.9c-0.3-0.4-0.5-0.7-0.5-1.1c-0.1-0.3-0.1-0.7-0.2-1.2c0-0.5-0.1-1-0.1-1.5
		c0-0.9,0.1-1.9,0.2-2.9l-0.2-0.1l-0.1,0.1h-0.1l0-0.1c-1.6-0.1-2.4-0.2-2.4-0.5c0-0.1,0-0.2,0.1-0.2c0.1-0.1,0.4-0.1,0.9-0.1h0.4
		l0.4-0.1c0.2,0,0.3-0.1,0.5-0.2s0.3-0.2,0.4-0.3c0.1-0.1,0.2-0.6,0.3-1.4c0.1-0.5,0.1-1,0.1-1.5V13c0-0.1,0-0.3,0.1-0.6
		s0.2-0.4,0.4-0.6c0.1-0.1,0.2-0.2,0.3-0.2c0.1,0,0.3,0,0.4,0.1c0.2,0.1,0.2,0.1,0.3,0.1c0,0,0,0.1,0.1,0.2c0,0.1,0.1,0.2,0.1,0.2v0
		c0,0,0,0-0.1,0.1c-0.1,0-0.1,0-0.1,0c0,0,0,0,0,0c0,0-0.1,0.2-0.1,0.6c-0.1,0.4-0.2,0.7-0.2,1.1c-0.1,0.4-0.1,0.7-0.1,1
		s-0.1,0.7-0.1,1c0,0.5,0,0.7,0.1,0.8c0,0.1,0.1,0.1,0.2,0.1c0,0,0.1,0,0.3-0.1c0.1,0,0.3-0.1,0.4-0.1c0.1,0,0.1,0,0.2,0l0.1,0.3
		c0,0,0.1,0,0.2,0c0.1,0,0.2,0,0.4-0.1C328.2,17,328.4,16.9,328.5,16.9z"/>
	<path d="M332,8.6c0.1,0,0.2-0.1,0.3-0.1c0.1,0,0.2,0,0.4-0.1l0.4-0.1c0.3,0,0.4,0.2,0.4,0.6c0,0.1,0,0.3,0,0.5
		c-0.1,0.4-0.1,0.8-0.1,1.4l0,1.5l0,2.3c0,1.4,0,2.2,0.1,2.5c0.1,0.3,0.2,0.4,0.4,0.4c0.1,0,0.3-0.1,0.6-0.2
		c0.3-0.2,0.5-0.3,0.7-0.4c0.2-0.1,0.4-0.2,0.6-0.3c0.2-0.1,0.5-0.1,0.7-0.2l0.6-0.1c0.2,0,0.3,0,0.5,0h0.2c0.5,0.1,1,0.3,1.3,0.7
		c0.3,0.3,0.5,0.7,0.6,1.2c0.1,0.5,0.1,1.3,0.1,2.5c0,0.9-0.1,1.8-0.3,2.7c-0.2,0.9-0.3,1.5-0.3,1.5v0.1c0,0.1,0,0.2,0.1,0.4
		c0.1,0.2,0.1,0.3,0.1,0.3c-0.2,0.3-0.4,0.5-0.7,0.5h-0.2c-0.1,0-0.1,0-0.2,0c-0.1,0-0.1,0-0.2,0c0,0-0.1,0-0.3-0.1
		c-0.2-0.1-0.3-0.2-0.3-0.3c0,0,0-0.1,0.1-0.3c0.3-0.6,0.6-1.4,0.8-2.4c0.2-1,0.4-2,0.4-2.9v-0.7c0-0.7-0.2-1.3-0.5-1.7
		c-0.4-0.4-0.8-0.6-1.4-0.6c-0.3,0-0.7,0.1-1.2,0.3s-0.8,0.3-0.9,0.5c-0.1,0-0.2,0-0.3,0.1c-0.1,0.1-0.2,0.1-0.3,0.1
		c0,0-0.1,0.1-0.1,0.2c0,0.1,0,0.2-0.1,0.2c-0.1,0-0.1,0-0.2,0c0,0-0.1,0-0.2,0.1c0,0.1,0,0.2,0,0.3c0,0.1-0.1,0.6-0.1,1.4
		c0,0.8-0.1,1.4-0.1,1.8c0,0.4,0,0.8,0.1,1.3l0.1,0.5v0c0,0.1,0,0.2,0.1,0.4c0.1,0.2,0.1,0.3,0.1,0.4c0,0,0,0.1-0.1,0.2
		s-0.1,0.2-0.1,0.2v0h0c0.1,0,0.2,0.1,0.2,0.3c0,0,0,0-0.1,0.1c-0.2,0-0.3,0.1-0.5,0.2s-0.2,0.2-0.3,0.2c-0.2,0-0.3-0.1-0.3-0.2
		c-0.3,0-0.6-0.1-0.7-0.1s-0.2-0.2-0.2-0.3c0-0.1,0-0.1,0-0.2c0,0,0-0.1,0-0.1s0,0,0-0.1c0,0,0-0.1,0-0.1c0,0,0-0.1,0.1-0.2
		c0.4-0.7,0.6-1.6,0.6-2.6l-0.1-2c0-0.3,0-0.5,0-0.7c-0.3-0.1-0.4-0.3-0.4-0.6c0-0.3,0.2-0.7,0.5-1.1c0-0.7,0-1.8,0-3.1
		c0-3.4-0.2-5.1-0.5-5.1c0-0.1-0.1-0.2-0.1-0.3C331.7,8.8,331.8,8.6,332,8.6z"/>
	<path d="M350.1,19.4c0.1,0.1,0.1,0.1,0.1,0.2c0,0.2-0.1,0.3-0.2,0.4c0,0,0,0,0,0.1c0,0.1-0.1,0.2-0.4,0.2h-0.1c0,0-0.1,0-0.1,0.1
		s-0.1,0.1-0.1,0.1c0,0,0,0-0.1-0.1c-0.1,0-0.1-0.1-0.3-0.1l-0.1-0.1c-0.2,0-0.3,0.1-0.4,0.1c-0.1,0-0.3,0-0.5,0c-0.2,0-0.3,0-0.4,0
		c-0.1,0-0.2,0-0.5,0.1c-0.2,0-0.5,0.1-0.6,0.1l-1,0c-0.5,0-1,0-1.5,0.1c-0.1,0-0.2,0.1-0.3,0.1c-0.1,0-0.2,0.1-0.2,0.2
		c0,0.1-0.1,0.2-0.2,0.2c-0.1,0.3-0.1,0.5-0.1,0.8c0,0.2,0.1,0.5,0.2,1c0.1,0.5,0.2,0.9,0.4,1.1c0,0,0.3,0.3,0.9,0.7
		c0.3,0.3,0.7,0.5,1.1,0.6c0.4,0.1,0.9,0.2,1.4,0.2c0.2,0,0.5,0,0.8-0.1l0.4-0.1h0.7c0.1,0,0.2-0.1,0.4-0.2c0.2-0.1,0.4-0.2,0.6-0.2
		c0.1,0.2,0.1,0.4,0.1,0.5c0,0.3-0.1,0.6-0.3,0.8c-0.2,0.2-0.4,0.4-0.7,0.4l-0.2,0l-0.6,0h-0.6c-0.3,0-0.9-0.1-1.9-0.3
		c-1-0.2-1.8-0.5-2.3-0.9s-0.8-0.8-1.1-1.4c-0.2-0.6-0.3-1.1-0.3-1.6c0-0.7,0.1-1.4,0.4-2.2c0.3-0.7,0.6-1.3,0.9-1.7
		c0.3-0.4,0.9-0.8,1.6-1.3c0.1,0,0.2-0.1,0.3-0.2c0.1-0.1,0.3-0.2,0.4-0.2l0.3,0c0.1-0.1,0.4-0.2,0.8-0.2c0.4-0.1,0.7-0.1,0.9-0.1
		c0.4,0,0.9,0.2,1.4,0.5c0.5,0.3,0.8,1,0.9,1.9c0,0.2,0,0.3,0.1,0.4c0,0.1,0.1,0.2,0.1,0.2C350.1,19.3,350.1,19.3,350.1,19.4z
		 M345.9,17.1c0,0.1-0.2,0.2-0.6,0.3c-0.2,0.1-0.3,0.3-0.5,0.4s-0.3,0.3-0.5,0.5c-0.2,0.2-0.3,0.3-0.4,0.5c-0.1,0.1-0.2,0.3-0.3,0.3
		c-0.1,0.1-0.1,0.1-0.1,0.2c0,0.1,0,0.1,0.1,0.2l0.1,0.1h0.8l3.6-0.1c0.5,0,0.7-0.2,0.7-0.6c0-0.4-0.1-0.8-0.3-1.1
		c-0.2-0.3-0.6-0.6-1.3-0.8c-0.1,0-0.2,0-0.3,0s-0.3,0-0.3,0C346.6,17,346.3,17,345.9,17.1z"/>
	<path d="M18.3,41.5l0.1,0.1c0.2,0.1,0.2,0.2,0.2,0.4c0,0.3-0.1,0.5-0.2,0.7c-0.1,0.2-0.3,0.8-0.6,1.7c-0.3,0.9-0.6,1.8-0.9,2.8
		c-0.3,1-0.4,1.7-0.5,2.2c-0.1,0.5-0.2,0.9-0.3,1.2c-0.1,0.3-0.3,0.6-0.7,0.9h-0.2c0,0-0.1,0-0.1,0.1l-0.1,0c-0.2,0-0.3-0.2-0.4-0.5
		c0-0.4-0.3-1.3-1-2.7s-1.2-2.5-1.5-3.3c-0.2-0.6-0.4-0.9-0.6-0.9c0,0-0.1,0-0.2,0c-0.4,1-0.8,2.1-1.3,3.4l-1,2.9
		c0,0,0.1,0.1,0.1,0.1c0,0,0,0-0.1,0.1c0,0-0.1,0.1-0.1,0.1c0,0.1,0,0.1,0.1,0.3c0,0-0.1,0-0.1-0.1c0,0-0.1,0-0.1,0
		c-0.4,0.3-0.7,0.5-1,0.5c-0.1,0-0.2-0.1-0.2-0.2c0-0.1-0.1-0.4-0.1-0.8c-0.2-2.1-0.6-3.8-1.1-5c0-0.1-0.1-0.2-0.1-0.5
		c0-0.3-0.1-0.5-0.1-0.6s-0.1-0.3-0.2-0.5c-0.1-0.2-0.2-0.4-0.3-0.6c-0.1-0.2-0.2-0.3-0.2-0.5c0-0.5,0.5-0.8,1.6-0.8
		c0.1,0.2,0.1,0.4,0.1,0.6c0,0.1,0,0.2,0,0.4c0,0.2,0,0.3,0,0.4c0,0.5,0.2,1.3,0.5,2.5l0.9,3.4c0.8-1.8,1.5-3.3,1.9-4.4
		c0.4-1.1,0.6-1.7,0.6-1.9l0-0.3c0-0.2,0.1-0.3,0.2-0.6s0.3-0.3,0.5-0.3c0.2,0,0.3,0,0.3,0.1c0.1,0.1,0.2,0.3,0.3,0.6
		c0,0.1,0,0.2,0.1,0.4c0,0.2,0.1,0.4,0.1,0.6c0.1,0.2,0.2,0.5,0.4,0.9s0.4,0.8,0.5,1.3s0.4,0.9,0.5,1.2c0.2,0.3,0.4,0.8,0.6,1.3
		c0.3,0.5,0.5,0.8,0.6,0.9c0.1,0.1,0.2,0.2,0.3,0.2c0.5-1.4,0.9-2.6,1.1-3.6c0.3-1,0.4-1.8,0.4-2.3c0-0.3-0.1-0.6-0.2-0.8
		c0.2-0.1,0.3-0.2,0.3-0.4c0-0.2,0.1-0.3,0.1-0.3h0.1c0.1,0,0.2,0,0.4-0.1S18.1,41.5,18.3,41.5z"/>
	<path d="M21,33.8c0.1,0,0.2-0.1,0.3-0.1c0.1,0,0.2,0,0.4-0.1l0.4-0.1c0.3,0,0.4,0.2,0.4,0.6c0,0.1,0,0.3,0,0.5
		c-0.1,0.4-0.1,0.8-0.1,1.4l0,1.5l0,2.3c0,1.4,0,2.2,0.1,2.5c0.1,0.3,0.2,0.4,0.4,0.4c0.1,0,0.3-0.1,0.6-0.2
		c0.3-0.2,0.5-0.3,0.7-0.4c0.2-0.1,0.4-0.2,0.6-0.3c0.2-0.1,0.5-0.1,0.7-0.2l0.6-0.1c0.2,0,0.3,0,0.5,0h0.2c0.5,0.1,1,0.3,1.3,0.7
		c0.3,0.3,0.5,0.7,0.6,1.2c0.1,0.5,0.1,1.3,0.1,2.5c0,0.9-0.1,1.8-0.3,2.7c-0.2,0.9-0.3,1.5-0.3,1.5v0.1c0,0.1,0,0.2,0.1,0.4
		c0.1,0.2,0.1,0.3,0.1,0.3c-0.2,0.3-0.4,0.5-0.7,0.5h-0.2c-0.1,0-0.1,0-0.2,0c-0.1,0-0.1,0-0.2,0c0,0-0.1,0-0.3-0.1
		c-0.2-0.1-0.3-0.2-0.3-0.3c0,0,0-0.1,0.1-0.3c0.3-0.6,0.6-1.4,0.8-2.4c0.2-1,0.4-2,0.4-2.9v-0.7c0-0.7-0.2-1.3-0.5-1.7
		c-0.4-0.4-0.8-0.6-1.4-0.6c-0.3,0-0.7,0.1-1.2,0.3s-0.8,0.3-0.9,0.5c-0.1,0-0.2,0-0.3,0.1c-0.1,0.1-0.2,0.1-0.3,0.1
		c0,0-0.1,0.1-0.1,0.2c0,0.1,0,0.2-0.1,0.2c-0.1,0-0.1,0-0.2,0c0,0-0.1,0-0.2,0.1c0,0.1,0,0.2,0,0.3c0,0.1-0.1,0.6-0.1,1.4
		c0,0.8-0.1,1.4-0.1,1.8c0,0.4,0,0.8,0.1,1.3l0.1,0.5v0c0,0.1,0,0.2,0.1,0.4c0.1,0.2,0.1,0.3,0.1,0.4c0,0,0,0.1-0.1,0.2
		s-0.1,0.2-0.1,0.2v0h0c0.1,0,0.2,0.1,0.2,0.3c0,0,0,0-0.1,0.1c-0.2,0-0.3,0.1-0.5,0.2s-0.2,0.2-0.3,0.2c-0.2,0-0.3-0.1-0.3-0.2
		c-0.3,0-0.6-0.1-0.7-0.1s-0.2-0.2-0.2-0.3c0-0.1,0-0.1,0-0.2c0,0,0-0.1,0-0.1s0,0,0-0.1c0,0,0-0.1,0-0.1c0,0,0-0.1,0.1-0.2
		c0.4-0.7,0.6-1.6,0.6-2.6l-0.1-2c0-0.3,0-0.5,0-0.7c-0.3-0.1-0.4-0.3-0.4-0.6c0-0.3,0.2-0.7,0.5-1.1c0-0.7,0-1.8,0-3.1
		c0-3.4-0.2-5.1-0.5-5.1c0-0.1-0.1-0.2-0.1-0.3C20.7,34,20.8,33.8,21,33.8z"/>
	<path d="M34.1,51.1c0,0-0.1,0.1-0.4,0.2c-0.3,0.1-0.5,0.2-0.6,0.2h-0.1c-0.1,0-0.2,0-0.3,0c-0.1,0-0.2,0-0.2,0
		c-0.1,0-0.2,0-0.4-0.1c-0.1-0.1-0.2-0.2-0.2-0.2c0-0.1,0-0.4,0.1-0.7c0.1-0.3,0.1-0.5,0.3-0.7c0.1-0.4,0.1-1.2,0.1-2.4l-0.1-3.7
		l0-0.6c0-0.1-0.1-0.2-0.2-0.4c-0.1-0.2-0.2-0.4-0.2-0.7c0-0.2,0-0.3,0.1-0.3c0.1-0.1,0.3-0.2,0.6-0.3l0.6-0.3c0,0,0.1,0,0.1,0
		c0.2,0,0.3,0.3,0.3,0.8c0,0.3-0.1,1.1-0.2,2.3c-0.1,1.3-0.2,2.3-0.2,3.1c0,0.4,0,0.9,0,1.3c0,0.4,0,0.7,0.1,0.9
		c0,0.2,0.1,0.4,0.2,0.6C34,50.4,34,50.7,34.1,51.1C34.1,51,34.1,51,34.1,51.1z M33.6,38c0.1,0.1,0.3,0.2,0.5,0.3
		c0.2,0.1,0.4,0.3,0.4,0.4c0,0.2-0.1,0.3-0.3,0.5c-0.2,0.2-0.4,0.3-0.5,0.3c-0.2,0-0.4-0.1-0.6-0.3c-0.2-0.2-0.3-0.4-0.3-0.4
		c0-0.1,0.1-0.3,0.3-0.5C33.3,38.1,33.4,38,33.6,38L33.6,38z"/>
	<path d="M41.8,42.1c0,0,0,0.1,0.1,0.1s0.1,0,0.1,0h0.1c0.2,0,0.4,0.1,0.6,0.2s0.2,0.2,0.2,0.3c0,0.1-0.1,0.3-0.3,0.4L42.5,43
		c-0.1,0.2-0.3,0.3-0.5,0.3L42,43.2l-0.1,0c-0.3-0.1-0.6-0.2-0.9-0.2l-1,0c-0.1,0-0.3,0-0.6,0c-0.2,1.3-0.3,2.4-0.3,3.1
		c0,0.3,0,0.6,0,1c0,0.4,0.1,0.7,0.2,0.9c0.1,0.2,0.2,0.5,0.3,0.7c0.1,0.2,0.2,0.4,0.5,0.6s0.4,0.3,0.6,0.4c0.2,0.1,0.3,0.2,0.5,0.3
		c0.1,0.1,0.5,0.2,1,0.2h0.2c0.1,0.1,0.2,0.2,0.2,0.3c0,0.1,0,0.2-0.1,0.3c-0.1,0.2-0.2,0.3-0.2,0.4c-0.1,0.1-0.2,0.2-0.3,0.4h0
		c0,0-0.1,0-0.1-0.1c-0.2,0-0.5,0-0.6-0.1c0,0,0,0,0,0s0,0-0.1-0.1c-0.1,0-0.1-0.1-0.1-0.1c0-0.1-0.1-0.2-0.3-0.3
		c-0.3-0.1-0.6-0.3-0.9-0.5c-0.3-0.2-0.5-0.5-0.8-0.9c-0.3-0.4-0.5-0.7-0.5-1.1c-0.1-0.3-0.1-0.7-0.2-1.2c0-0.5-0.1-1-0.1-1.5
		c0-0.9,0.1-1.9,0.2-2.9L38.1,43L38,43.1h-0.1l0-0.1c-1.6-0.1-2.4-0.2-2.4-0.5c0-0.1,0-0.2,0.1-0.2c0.1-0.1,0.4-0.1,0.9-0.1h0.4
		l0.4-0.1c0.2,0,0.3-0.1,0.5-0.2s0.3-0.2,0.4-0.3c0.1-0.1,0.2-0.6,0.3-1.4c0.1-0.5,0.1-1,0.1-1.5v-0.4c0-0.1,0-0.3,0.1-0.6
		s0.2-0.4,0.4-0.6c0.1-0.1,0.2-0.2,0.3-0.2c0.1,0,0.3,0,0.4,0.1c0.2,0.1,0.2,0.1,0.3,0.1c0,0,0,0.1,0.1,0.2c0,0.1,0.1,0.2,0.1,0.2v0
		c0,0,0,0-0.1,0.1c-0.1,0-0.1,0-0.1,0c0,0,0,0,0,0c0,0-0.1,0.2-0.1,0.6c-0.1,0.4-0.2,0.7-0.2,1.1c-0.1,0.4-0.1,0.7-0.1,1
		s-0.1,0.7-0.1,1c0,0.5,0,0.7,0.1,0.8c0,0.1,0.1,0.1,0.2,0.1c0,0,0.1,0,0.3-0.1c0.1,0,0.3-0.1,0.4-0.1c0.1,0,0.1,0,0.2,0l0.1,0.3
		c0,0,0.1,0,0.2,0c0.1,0,0.2,0,0.4-0.1C41.4,42.2,41.6,42.1,41.8,42.1z"/>
	<path d="M51.9,44.6c0.1,0.1,0.1,0.1,0.1,0.2c0,0.2-0.1,0.3-0.2,0.4c0,0,0,0,0,0.1c0,0.1-0.1,0.2-0.4,0.2h-0.1c0,0-0.1,0-0.1,0.1
		S51,45.6,51,45.6c0,0,0,0-0.1-0.1c-0.1,0-0.1-0.1-0.3-0.1l-0.1-0.1c-0.2,0-0.3,0.1-0.4,0.1c-0.1,0-0.3,0-0.5,0c-0.2,0-0.3,0-0.4,0
		c-0.1,0-0.2,0-0.5,0.1c-0.2,0-0.5,0.1-0.6,0.1l-1,0c-0.5,0-1,0-1.5,0.1c-0.1,0-0.2,0.1-0.3,0.1c-0.1,0-0.2,0.1-0.2,0.2
		c0,0.1-0.1,0.2-0.2,0.2c-0.1,0.3-0.1,0.5-0.1,0.8c0,0.2,0.1,0.5,0.2,1c0.1,0.5,0.2,0.9,0.4,1.1c0,0,0.3,0.3,0.9,0.7
		c0.3,0.3,0.7,0.5,1.1,0.6c0.4,0.1,0.9,0.2,1.4,0.2c0.2,0,0.5,0,0.8-0.1l0.4-0.1h0.7c0.1,0,0.2-0.1,0.4-0.2c0.2-0.1,0.4-0.2,0.6-0.2
		c0.1,0.2,0.1,0.4,0.1,0.5c0,0.3-0.1,0.6-0.3,0.8c-0.2,0.2-0.4,0.4-0.7,0.4l-0.2,0l-0.6,0h-0.6c-0.3,0-0.9-0.1-1.9-0.3
		c-1-0.2-1.8-0.5-2.3-0.9s-0.8-0.8-1.1-1.4c-0.2-0.6-0.3-1.1-0.3-1.6c0-0.7,0.1-1.4,0.4-2.2c0.3-0.7,0.6-1.3,0.9-1.7
		c0.3-0.4,0.9-0.8,1.6-1.3c0.1,0,0.2-0.1,0.3-0.2c0.1-0.1,0.3-0.2,0.4-0.2l0.3,0c0.1-0.1,0.4-0.2,0.8-0.2c0.4-0.1,0.7-0.1,0.9-0.1
		c0.4,0,0.9,0.2,1.4,0.5c0.5,0.3,0.8,1,0.9,1.9c0,0.2,0,0.3,0.1,0.4c0,0.1,0.1,0.2,0.1,0.2C51.9,44.5,51.9,44.5,51.9,44.6z
		 M47.7,42.3c0,0.1-0.2,0.2-0.6,0.3c-0.2,0.1-0.3,0.3-0.5,0.4s-0.3,0.3-0.5,0.5c-0.2,0.2-0.3,0.3-0.4,0.5c-0.1,0.1-0.2,0.3-0.3,0.3
		c-0.1,0.1-0.1,0.1-0.1,0.2c0,0.1,0,0.1,0.1,0.2l0.1,0.1h0.8l3.6-0.1c0.5,0,0.7-0.2,0.7-0.6c0-0.4-0.1-0.8-0.3-1.1
		c-0.2-0.3-0.6-0.6-1.3-0.8c-0.1,0-0.2,0-0.3,0s-0.3,0-0.3,0C48.4,42.2,48.1,42.2,47.7,42.3z"/>
	<path d="M63.6,45.9c0.5,0.5,0.8,1.1,0.8,1.7c0,0.9-0.3,1.7-0.8,2.4c-0.5,0.7-1.2,1.1-2.1,1.3c-0.2,0-0.4,0-0.8,0
		c-0.3,0.1-0.5,0.2-0.8,0.2c-0.4,0-0.7-0.1-0.9-0.2c-0.2-0.2-0.3-0.4-0.3-0.9c0-0.1,0-0.2,0-0.3h0.1c0.1,0,0.3,0,0.4,0.1
		c0.1,0.1,0.2,0.1,0.2,0.1l0.1,0c0.2,0.2,0.6,0.3,1.2,0.3c0.5,0,1-0.1,1.4-0.3c0.4-0.2,0.8-0.5,1-0.9c0.2-0.4,0.3-0.8,0.3-1.2
		c0-0.5-0.2-0.9-0.6-1.3c-0.4-0.3-1.3-0.7-2.6-1.1c-0.2,0-0.3-0.1-0.4-0.1l-0.5-0.4c-0.3-0.2-0.4-0.4-0.5-0.6l-0.1-0.3
		c0-1.1,0.3-1.8,0.9-2.3c0.6-0.5,1.7-0.7,3.2-0.7l0.6,0c0,0,0.1,0,0.2-0.1c0.1,0.1,0.2,0.3,0.2,0.5c0,0.2,0,0.4-0.1,0.6
		c-0.1,0.2-0.2,0.3-0.2,0.4c-0.1-0.1-0.1-0.2-0.2-0.3h0c0,0-0.1,0-0.1,0c0,0-0.1,0-0.1,0C62.8,42.1,62.4,42,62,42
		c-0.9,0-1.5,0.2-1.8,0.5s-0.4,0.7-0.4,1.2c0,0.6,0.5,1,1.5,1.3c0.7,0.2,1.3,0.4,1.8,0.5C63.4,45.7,63.6,45.8,63.6,45.9z"/>
	<path d="M72.9,45.6c0,0.1,0,0.1-0.1,0.2c-0.1,0.1-0.2,0.2-0.2,0.3s-0.1,0.3-0.1,0.6c0,0.3,0,0.8,0,1.4l0,1.4c0,0.1,0,0.1-0.1,0.2
		c0,0.1,0,0.2,0,0.4c0,0.3,0,0.6,0.1,1l0.1,0.5l0,0.5l0,0.4c-0.5,0.5-0.9,0.7-1.1,0.7c0,0-0.1,0-0.2-0.1s-0.2-0.1-0.3-0.1H71
		C71,52.9,71,52.7,71,52.6c0-0.3,0.1-0.7,0.2-1c0.1-0.1,0.1-0.2,0.2-0.2c0-0.1,0.1-0.3,0.1-0.6c0-0.4,0-0.6-0.1-0.6c0,0-0.1,0-0.1,0
		c-0.1,0-0.1,0-0.2,0h-0.1c-0.1,0.1-0.1,0.1-0.2,0.2c-0.1,0-0.5,0.1-1.3,0.5c-0.4,0.1-0.8,0.2-1.1,0.2c-0.4,0-0.8-0.1-1.1-0.2
		c-0.3-0.1-0.6-0.3-0.8-0.5c-0.2-0.2-0.4-0.4-0.4-0.5c-0.1-0.1-0.1-0.3-0.1-0.7l0-0.3v-0.1c0-0.7,0.5-1.4,1.6-2.2
		c1.1-0.8,2.1-1.2,3-1.4c0.2,0,0.4-0.1,0.6-0.1c0.1,0,0.3-0.1,0.3-0.2c0.1-0.1,0.1-0.3,0.1-0.7c0-1.2-0.6-2-1.9-2.5
		c0,0-0.1,0-0.2-0.1c-0.1,0-0.1-0.1-0.2-0.1c-0.7,0-1.2,0-1.7,0.1c-0.2,0.3-0.5,0.4-0.8,0.4c-0.2,0-0.3-0.1-0.3-0.2
		c0,0,0-0.2,0.1-0.4c0.1-0.3,0.3-0.4,0.7-0.4c0.4-0.2,1.2-0.3,2.4-0.3c0.9,0,1.6,0.4,2.1,1.1c0.5,0.7,0.8,1.7,0.8,3v0.1
		c0.1,0.1,0.2,0.2,0.3,0.2S72.9,45.5,72.9,45.6L72.9,45.6z M70.9,49.2c0.4-0.6,0.6-1.1,0.6-1.6c0-0.3-0.1-0.6-0.2-0.9
		c-0.1-0.3-0.4-0.5-0.8-0.5c-0.8,0-1.5,0.2-2,0.6h-0.3c-1.1,0.6-1.6,1.2-1.6,1.8c0,0.5,0.2,0.8,0.7,1.2c0.4,0.3,0.9,0.5,1.5,0.5
		c0.2,0,0.4-0.1,0.9-0.2s0.8-0.4,1.2-0.7V49.2z"/>
	<path d="M80.7,42.2c0.4-0.1,0.8-0.1,1.1-0.1c1.9,0,2.8,1.2,2.8,3.5c0,1.3-0.2,2.8-0.6,4.5c-0.2,0.7-0.3,1.2-0.3,1.5
		c0,0.1,0,0.1,0,0.2c-0.1,0.4-0.3,0.6-0.7,0.6c-0.2,0-0.5-0.1-0.7-0.2C82.1,52,82,51.9,82,51.7c0-0.2,0.1-0.5,0.4-0.8
		c0.3-0.3,0.6-1,0.8-2s0.4-1.9,0.4-2.9c0-2-0.8-3-2.5-3c-0.7,0-1.3,0.1-1.8,0.4c-0.6,0.3-0.9,0.6-1,0.9c-0.1,0.1-0.2,0.1-0.3,0.2
		c-0.1,0.1-0.2,0.1-0.2,0.1c0,0-0.1,0.6-0.1,1.6s-0.1,1.7-0.1,2.3v0.5c0,0.3,0,0.5,0.1,0.7c0.1,0.2,0.1,0.3,0.1,0.4l0,0.4
		c0,0.2,0,0.4-0.1,0.5C77.7,51,77.6,51,77.5,51h0l-0.1,0.1c-0.1,0-0.1,0-0.2,0c-0.1,0-0.2,0.1-0.4,0.2h-0.1c-0.1,0-0.2-0.1-0.3-0.3
		c-0.2,0-0.3-0.1-0.3-0.3c0-0.2,0-0.3,0.1-0.4c0.1,0,0.2-0.4,0.3-1.3c0.1-0.9,0.2-2,0.2-3.4c0-1.8-0.1-2.8-0.4-3.1l0-0.2
		c0-0.3,0.2-0.4,0.5-0.5c0.1,0,0.2-0.1,0.3-0.3c0.1-0.2,0.2-0.2,0.3-0.2h0c0.1,0,0.3-0.1,0.4-0.1c0.1,0,0.2-0.1,0.2-0.1
		c0.1,0,0.1,0.1,0.1,0.4c0,0.2,0,0.4-0.1,0.7c-0.1,0.3-0.1,0.4-0.1,0.5c0,0.1,0,0.2,0.1,0.3c0.1,0.1,0.2,0.1,0.3,0.1h0.1
		c0.2-0.2,0.3-0.3,0.3-0.3h0c0.7,0,1.2-0.1,1.5-0.4c0.1,0,0.1,0,0.2,0c0.1,0,0.1,0,0.2,0C80.6,42.3,80.7,42.3,80.7,42.2z"/>
	<path d="M95.8,52.4l-0.9,1.3h-0.3c-0.1-0.1-0.2-0.1-0.3-0.1c-0.1-0.2-0.2-0.5-0.3-0.8c0.1-0.2,0.1-0.4,0.1-0.6l0-1.1
		c0-0.4-0.1-0.8-0.2-1.2c0,0-0.1,0-0.2,0.1s-0.2,0-0.2,0.1c-0.7,0.5-1.2,0.8-1.7,0.9c-0.5,0.1-1,0.2-1.4,0.2c-0.8,0-1.4-0.2-2-0.5
		c-0.6-0.4-0.9-0.8-1.1-1.4c-0.2-0.6-0.3-1-0.3-1.3c0-0.5,0-0.9,0.1-1.1c0-0.2,0.2-0.5,0.4-1c0.2-0.4,0.4-0.8,0.5-1
		c0.1-0.2,0.4-0.5,0.8-0.9s0.8-0.7,1.3-1c0.4-0.1,0.9-0.3,1.3-0.5c0.5-0.2,0.8-0.3,1-0.3l0.1,0.1c0.3-0.2,0.6-0.3,0.8-0.3h0
		c0.2,0,0.3-0.1,0.3-0.4c0-0.9,0-1.8-0.1-2.8c-0.1-1-0.1-1.5-0.2-1.6c0-0.1-0.1-0.2-0.3-0.3c0-0.1-0.1-0.3-0.1-0.5
		c0-0.5,0.2-0.8,0.5-0.8c0.3-0.2,0.6-0.3,0.7-0.3c0.1,0,0.2,0.1,0.4,0.2c0.2,0.1,0.2,0.2,0.3,0.2c0,0,0,0,0,0.1c0,0,0,0.2-0.1,0.3
		c-0.1,0.2-0.1,0.4-0.1,0.6c-0.1,0.1-0.2,0.3-0.2,0.5l0,0.5c0,1.1,0,1.9,0.1,2.6c0.1,0.6,0.1,1,0.1,1c0,0,0,0.1,0,0.1s0,0.1,0,0.1
		c0,0.1,0.1,0.3,0.2,0.4l0.2-0.1c0,0.1,0.1,0.2,0.3,0.2c0.3,0.1,0.5,0.2,0.4,0.4c0,0.2-0.1,0.4-0.1,0.5h-0.1c-0.1,0-0.2,0-0.3,0.1
		c-0.1,0-0.2,0.1-0.2,0.1c-0.1,0-0.1,0-0.2,0c0,0,0,0,0,0c-0.1,0-0.1,0.7-0.1,2c0,0.8,0.1,1.7,0.2,2.8c0.1,0.2,0.2,0.3,0.3,0.4
		c0,0.3-0.1,0.5-0.1,0.7c0,0.3,0,0.6,0.1,1c0.1,0.4,0.1,0.7,0.1,0.9l0,0.3c0,0.1,0,0.1,0.1,0.1c0.1,0,0.1,0.1,0.1,0.1v0l0,0.1
		L95.8,52.4z M93.3,42.9c-0.2,0-0.3-0.1-0.5-0.1l-0.4-0.1c-0.1,0-0.3,0-0.4,0.1l-0.2,0.1h-0.5c-0.9,0.3-1.7,0.8-2.3,1.7
		c-0.6,0.8-0.9,1.7-0.9,2.5c0,0.9,0.3,1.6,0.8,2.1c0.5,0.6,1.2,0.8,2,0.8c0.7,0,1.3-0.1,1.9-0.3c0.5-0.2,0.9-0.5,1-0.7
		s0.1-0.9,0.1-1.8c0-1-0.1-2.3-0.2-4.1c-0.2-0.1-0.3-0.1-0.3-0.1V42.9z"/>
	<path d="M106.3,41.9c0.1-0.1,0.2-0.1,0.3-0.1c0.1,0,0.3,0,0.6,0.1c0.3,0.1,0.4,0.2,0.4,0.3c0,0.2-0.1,0.4-0.4,0.5
		c-0.1,0-0.4,0.6-1.1,1.7l-1.7,3.1c-0.5,0.9-0.8,1.7-0.9,2.3c-0.1,0.5-0.2,0.9-0.5,1l-0.1,0.3c-0.1,0-0.2,0.1-0.3,0.2
		c-1,2.3-1.6,3.7-1.8,4.2s-0.3,1-0.4,1.3s-0.2,0.4-0.4,0.4h-0.1c-0.2-0.1-0.5-0.1-0.9-0.1l-0.1,0c-0.1,0-0.2-0.1-0.2-0.2
		c0,0,0-0.1,0.1-0.1c0-0.1,0.3-0.4,0.8-1.1c-0.1,0-0.1-0.1-0.1-0.1c0-0.1,0.2-0.4,0.5-0.9c0.8-1.2,1.5-2.4,2-3.5
		c0-0.1-0.1-0.1-0.1-0.2c0,0-0.1,0-0.2,0h-0.1c-0.1,0-0.2-0.2-0.3-0.5c-0.1-0.4-0.1-0.6-0.1-0.6c-0.3-0.5-0.6-1.2-0.9-1.9
		s-0.7-1.5-1-2.2c-0.3-0.7-0.6-1.2-0.7-1.6c-0.1-0.4-0.3-0.7-0.6-0.9c-0.2-0.3-0.3-0.5-0.3-0.7v-0.1c0,0-0.1,0-0.1,0
		c-0.1,0-0.1,0-0.1-0.1s0.1-0.2,0.3-0.5c0.2-0.3,0.5-0.5,0.7-0.7c0.2,0.1,0.4,0.2,0.5,0.2s0.2,0.4,0.4,1l0.2,0.8v0.3
		c0.3,0.5,0.6,1.2,1,2.1l0.3,0.7c0.1,0.2,0.2,0.4,0.3,0.6c0.1,0.2,0.2,0.4,0.3,0.6c0.1,0.2,0.2,0.3,0.3,0.5c0.2,0.2,0.3,0.4,0.3,0.4
		c0,0.1,0.1,0.2,0.2,0.3c0.1,0.1,0.1,0.2,0.2,0.2c0.1,0.1,0.2,0.1,0.2,0.2l0.8-1.8c0.7-1.5,1.1-2.5,1.3-2.8c0.2-0.3,0.4-0.7,0.5-0.9
		c0.1-0.3,0.2-0.6,0.3-1c0.1-0.4,0.1-0.6,0.2-0.7c0.1-0.1,0.1-0.2,0.3-0.2L106.3,41.9z"/>
	<path d="M116.8,41.8c0-0.1,0.2-0.2,0.5-0.2c0.3-0.1,0.6-0.1,0.8-0.1l1.6,0.1c0.5,0,1,0.2,1.5,0.3c0.4,0.2,0.9,0.4,1.4,0.8
		c0.3,0.3,0.6,0.6,0.8,1.1c0.2,0.5,0.3,1,0.3,1.5c0,1.6-0.8,2.9-2.4,3.9c-0.1,0-0.1,0.1-0.2,0.2c0,0.1-0.1,0.1-0.1,0.1
		c-0.2,0.1-0.3,0.2-0.4,0.2s-0.2,0.1-0.4,0.2c-0.2,0.1-0.4,0.1-0.6,0.2c-0.2,0.1-0.5,0.1-0.8,0.2c0,0-0.1,0-0.2,0.1
		c-0.1,0.1-0.2,0.1-0.2,0.1s0,0-0.1,0c-0.1,0-0.5,0.2-1.2,0.5l-0.1-0.1c-0.2,0-0.4,0.2-0.5,0.3c0,0.1-0.1,0.2-0.2,0.3
		c-0.1,0.1-0.3,0.1-0.5,0.1c-0.1,0-0.2,0-0.3-0.1s-0.2-0.1-0.3-0.1c0,0-0.1,0-0.2,0v0c0-0.1,0-0.2-0.1-0.3c-0.1-0.1-0.1-0.2-0.1-0.2
		c0-0.1,0.1-0.2,0.3-0.3c0.2-0.2,0.3-0.3,0.3-0.4v0c0.2-1.9,0.3-3.9,0.3-5.8c0-3.6-0.1-6.2-0.3-7.8c-0.1-0.2-0.2-0.3-0.2-0.4l0-0.2
		c0-0.1,0-0.2,0-0.4c0-0.2,0-0.4,0-0.5c0-0.2,0.1-0.4,0.3-0.4c0.2,0,0.3-0.1,0.4-0.1c0.1,0,0.2-0.1,0.2-0.1c0,0,0.1,0,0.2,0
		c0.1,0,0.2,0,0.2,0.1c0.1,0,0.2,0.1,0.5,0.3c0.1,0.3,0.1,0.5,0.1,0.6c0,0.1,0,0.1,0,0.1c0,0,0,0.1-0.1,0.2
		c-0.3,0.8-0.4,1.9-0.4,3.5c0,0.9,0,1.5,0.1,1.9C116.5,41.6,116.6,41.8,116.8,41.8L116.8,41.8z M116.6,42.7c-0.1,3-0.2,4.8-0.2,5.6
		c0,0.7,0.1,1.1,0.3,1.3s0.5,0.3,1,0.3c0.5,0,1-0.1,1.7-0.3c0.7-0.2,1.3-0.6,1.8-1.1c0.5-0.5,0.9-1,1.1-1.5c0.2-0.5,0.3-0.9,0.3-1.4
		c0-0.8-0.4-1.6-1.1-2.2c-0.7-0.6-1.5-0.9-2.4-0.9h-0.4l-0.7,0c-0.3,0-0.6,0.1-0.8,0.3c-0.1-0.2-0.2-0.2-0.4-0.2
		C116.7,42.6,116.7,42.7,116.6,42.7z"/>
	<path d="M133.1,44.6c0.1,0.1,0.1,0.1,0.1,0.2c0,0.2-0.1,0.3-0.2,0.4c0,0,0,0,0,0.1c0,0.1-0.1,0.2-0.4,0.2h-0.1c0,0-0.1,0-0.1,0.1
		s-0.1,0.1-0.1,0.1c0,0,0,0-0.1-0.1c-0.1,0-0.1-0.1-0.3-0.1l-0.1-0.1c-0.2,0-0.3,0.1-0.4,0.1c-0.1,0-0.3,0-0.5,0c-0.2,0-0.3,0-0.4,0
		c-0.1,0-0.2,0-0.5,0.1c-0.2,0-0.5,0.1-0.6,0.1l-1,0c-0.5,0-1,0-1.5,0.1c-0.1,0-0.2,0.1-0.3,0.1c-0.1,0-0.2,0.1-0.2,0.2
		c0,0.1-0.1,0.2-0.2,0.2c-0.1,0.3-0.1,0.5-0.1,0.8c0,0.2,0.1,0.5,0.2,1c0.1,0.5,0.2,0.9,0.4,1.1c0,0,0.3,0.3,0.9,0.7
		c0.3,0.3,0.7,0.5,1.1,0.6c0.4,0.1,0.9,0.2,1.4,0.2c0.2,0,0.5,0,0.8-0.1l0.4-0.1h0.7c0.1,0,0.2-0.1,0.4-0.2c0.2-0.1,0.4-0.2,0.6-0.2
		c0.1,0.2,0.1,0.4,0.1,0.5c0,0.3-0.1,0.6-0.3,0.8c-0.2,0.2-0.4,0.4-0.7,0.4l-0.2,0l-0.6,0h-0.6c-0.3,0-0.9-0.1-1.9-0.3
		c-1-0.2-1.8-0.5-2.3-0.9s-0.8-0.8-1.1-1.4c-0.2-0.6-0.3-1.1-0.3-1.6c0-0.7,0.1-1.4,0.4-2.2c0.3-0.7,0.6-1.3,0.9-1.7
		c0.3-0.4,0.9-0.8,1.6-1.3c0.1,0,0.2-0.1,0.3-0.2c0.1-0.1,0.3-0.2,0.4-0.2l0.3,0c0.1-0.1,0.4-0.2,0.8-0.2c0.4-0.1,0.7-0.1,0.9-0.1
		c0.4,0,0.9,0.2,1.4,0.5c0.5,0.3,0.8,1,0.9,1.9c0,0.2,0,0.3,0.1,0.4c0,0.1,0.1,0.2,0.1,0.2C133.2,44.5,133.2,44.5,133.1,44.6z
		 M128.9,42.3c0,0.1-0.2,0.2-0.6,0.3c-0.2,0.1-0.3,0.3-0.5,0.4s-0.3,0.3-0.5,0.5c-0.2,0.2-0.3,0.3-0.4,0.5c-0.1,0.1-0.2,0.3-0.3,0.3
		c-0.1,0.1-0.1,0.1-0.1,0.2c0,0.1,0,0.1,0.1,0.2l0.1,0.1h0.8l3.6-0.1c0.5,0,0.7-0.2,0.7-0.6c0-0.4-0.1-0.8-0.3-1.1
		c-0.2-0.3-0.6-0.6-1.3-0.8c-0.1,0-0.2,0-0.3,0s-0.3,0-0.3,0C129.6,42.2,129.4,42.2,128.9,42.3z"/>
	<path d="M141.6,45.6c0,0.1,0,0.1-0.1,0.2c-0.1,0.1-0.2,0.2-0.2,0.3s-0.1,0.3-0.1,0.6c0,0.3,0,0.8,0,1.4l0,1.4c0,0.1,0,0.1-0.1,0.2
		c0,0.1,0,0.2,0,0.4c0,0.3,0,0.6,0.1,1l0.1,0.5l0,0.5l0,0.4c-0.5,0.5-0.9,0.7-1.1,0.7c0,0-0.1,0-0.2-0.1s-0.2-0.1-0.3-0.1h-0.1
		c-0.1-0.2-0.1-0.4-0.1-0.5c0-0.3,0.1-0.7,0.2-1c0.1-0.1,0.1-0.2,0.2-0.2c0-0.1,0.1-0.3,0.1-0.6c0-0.4,0-0.6-0.1-0.6
		c0,0-0.1,0-0.1,0c-0.1,0-0.1,0-0.2,0h-0.1c-0.1,0.1-0.1,0.1-0.2,0.2c-0.1,0-0.5,0.1-1.3,0.5c-0.4,0.1-0.8,0.2-1.1,0.2
		c-0.4,0-0.8-0.1-1.1-0.2c-0.3-0.1-0.6-0.3-0.8-0.5c-0.2-0.2-0.4-0.4-0.4-0.5c-0.1-0.1-0.1-0.3-0.1-0.7l0-0.3v-0.1
		c0-0.7,0.5-1.4,1.6-2.2c1.1-0.8,2.1-1.2,3-1.4c0.2,0,0.4-0.1,0.6-0.1c0.1,0,0.3-0.1,0.3-0.2c0.1-0.1,0.1-0.3,0.1-0.7
		c0-1.2-0.6-2-1.9-2.5c0,0-0.1,0-0.2-0.1c-0.1,0-0.1-0.1-0.2-0.1c-0.7,0-1.2,0-1.7,0.1c-0.2,0.3-0.5,0.4-0.8,0.4
		c-0.2,0-0.3-0.1-0.3-0.2c0,0,0-0.2,0.1-0.4c0.1-0.3,0.3-0.4,0.7-0.4c0.4-0.2,1.2-0.3,2.4-0.3c0.9,0,1.6,0.4,2.1,1.1
		c0.5,0.7,0.8,1.7,0.8,3v0.1c0.1,0.1,0.2,0.2,0.3,0.2S141.6,45.5,141.6,45.6L141.6,45.6z M139.6,49.2c0.4-0.6,0.6-1.1,0.6-1.6
		c0-0.3-0.1-0.6-0.2-0.9c-0.1-0.3-0.4-0.5-0.8-0.5c-0.8,0-1.5,0.2-2,0.6H137c-1.1,0.6-1.6,1.2-1.6,1.8c0,0.5,0.2,0.8,0.7,1.2
		c0.4,0.3,0.9,0.5,1.5,0.5c0.2,0,0.4-0.1,0.9-0.2s0.8-0.4,1.2-0.7V49.2z"/>
	<path d="M151.1,49.6c0.3,0.2,0.5,0.5,0.5,0.8c0,0.4-0.1,0.7-0.3,0.7h-0.1c-0.1,0-0.3,0-0.7,0.1c-0.4,0.1-0.8,0.1-1.2,0.1H149
		l-0.7,0c-0.3,0-0.5,0-0.7-0.1c-0.1,0-0.4-0.1-0.8-0.3c-0.4-0.1-0.7-0.2-0.8-0.3c-0.2-0.1-0.3-0.2-0.6-0.5c-0.2-0.2-0.4-0.4-0.6-0.7
		c-0.2-0.2-0.3-0.5-0.4-0.8c-0.1-0.3-0.2-0.6-0.3-0.9c-0.1-0.3-0.1-0.6-0.1-0.9c0-1,0.2-1.8,0.5-2.4c0.3-0.7,0.9-1.3,1.7-1.8
		c0.1-0.1,0.3-0.2,0.5-0.3c0.2-0.1,0.4-0.2,0.5-0.3c0.1-0.1,0.5-0.1,1.1-0.2s1.2-0.2,1.8-0.2h0.4c0.1,0,0.3,0,0.4,0
		c0.3,0,0.5,0.1,0.5,0.4c0,0,0,0.1,0,0.2c0,0.1,0,0.2,0,0.2l0,0.8c-0.1,0-0.2,0-0.2,0c-0.2,0-0.4-0.1-0.6-0.2
		c-0.3-0.2-0.5-0.4-0.7-0.4h-0.1c-0.1,0-0.3,0-0.6-0.1c-0.3-0.1-0.6-0.1-0.8-0.1c-0.2,0-0.4,0.1-0.7,0.2c-0.1,0-0.2-0.1-0.2-0.1h0
		c0,0-0.1,0-0.1,0.1c-0.2,0.2-0.5,0.4-0.9,0.5c-0.3,0.1-0.6,0.4-0.8,0.8c-0.2,0.4-0.4,0.7-0.6,0.9c-0.1,0.4-0.1,0.8-0.1,1.2
		c0,0.8,0.1,1.4,0.3,1.8c0.2,0.4,0.4,0.7,0.8,1c0.3,0.3,0.6,0.5,0.7,0.7h0.3c0.1,0.2,0.2,0.3,0.5,0.3c0.1,0,0.4,0,0.6,0.1
		c0.3,0.1,0.5,0.1,0.6,0.1l0.3,0h0.2c0.3,0,0.6,0,0.8-0.1c0.2-0.1,0.4-0.1,0.7-0.2S151,49.8,151.1,49.6z"/>
	<path d="M154.1,33.8c0.1,0,0.2-0.1,0.3-0.1c0.1,0,0.2,0,0.4-0.1l0.4-0.1c0.3,0,0.4,0.2,0.4,0.6c0,0.1,0,0.3,0,0.5
		c-0.1,0.4-0.1,0.8-0.1,1.4l0,1.5l0,2.3c0,1.4,0,2.2,0.1,2.5c0.1,0.3,0.2,0.4,0.4,0.4c0.1,0,0.3-0.1,0.6-0.2
		c0.3-0.2,0.5-0.3,0.7-0.4c0.2-0.1,0.4-0.2,0.6-0.3c0.2-0.1,0.5-0.1,0.7-0.2l0.6-0.1c0.2,0,0.3,0,0.5,0h0.2c0.5,0.1,1,0.3,1.3,0.7
		c0.3,0.3,0.5,0.7,0.6,1.2c0.1,0.5,0.1,1.3,0.1,2.5c0,0.9-0.1,1.8-0.3,2.7c-0.2,0.9-0.3,1.5-0.3,1.5v0.1c0,0.1,0,0.2,0.1,0.4
		c0.1,0.2,0.1,0.3,0.1,0.3c-0.2,0.3-0.4,0.5-0.7,0.5h-0.2c-0.1,0-0.1,0-0.2,0c-0.1,0-0.1,0-0.2,0c0,0-0.1,0-0.3-0.1
		c-0.2-0.1-0.3-0.2-0.3-0.3c0,0,0-0.1,0.1-0.3c0.3-0.6,0.6-1.4,0.8-2.4c0.2-1,0.4-2,0.4-2.9v-0.7c0-0.7-0.2-1.3-0.5-1.7
		c-0.4-0.4-0.8-0.6-1.4-0.6c-0.3,0-0.7,0.1-1.2,0.3s-0.8,0.3-0.9,0.5c-0.1,0-0.2,0-0.3,0.1c-0.1,0.1-0.2,0.1-0.3,0.1
		c0,0-0.1,0.1-0.1,0.2c0,0.1,0,0.2-0.1,0.2c-0.1,0-0.1,0-0.2,0c0,0-0.1,0-0.2,0.1c0,0.1,0,0.2,0,0.3c0,0.1-0.1,0.6-0.1,1.4
		c0,0.8-0.1,1.4-0.1,1.8c0,0.4,0,0.8,0.1,1.3l0.1,0.5v0c0,0.1,0,0.2,0.1,0.4c0.1,0.2,0.1,0.3,0.1,0.4c0,0,0,0.1-0.1,0.2
		s-0.1,0.2-0.1,0.2v0h0c0.1,0,0.2,0.1,0.2,0.3c0,0,0,0-0.1,0.1c-0.2,0-0.3,0.1-0.5,0.2s-0.2,0.2-0.3,0.2c-0.2,0-0.3-0.1-0.3-0.2
		c-0.3,0-0.6-0.1-0.7-0.1s-0.2-0.2-0.2-0.3c0-0.1,0-0.1,0-0.2c0,0,0-0.1,0-0.1s0,0,0-0.1c0,0,0-0.1,0-0.1c0,0,0-0.1,0.1-0.2
		c0.4-0.7,0.6-1.6,0.6-2.6l-0.1-2c0-0.3,0-0.5,0-0.7c-0.3-0.1-0.4-0.3-0.4-0.6c0-0.3,0.2-0.7,0.5-1.1c0-0.7,0-1.8,0-3.1
		c0-3.4-0.2-5.1-0.5-5.1c0-0.1-0.1-0.2-0.1-0.3C153.8,34,153.9,33.8,154.1,33.8z"/>
	<path d="M172.2,44.6c0.1,0.1,0.1,0.1,0.1,0.2c0,0.2-0.1,0.3-0.2,0.4c0,0,0,0,0,0.1c0,0.1-0.1,0.2-0.4,0.2h-0.1c0,0-0.1,0-0.1,0.1
		s-0.1,0.1-0.1,0.1c0,0,0,0-0.1-0.1c-0.1,0-0.1-0.1-0.3-0.1l-0.1-0.1c-0.2,0-0.3,0.1-0.4,0.1c-0.1,0-0.3,0-0.5,0c-0.2,0-0.3,0-0.4,0
		c-0.1,0-0.2,0-0.5,0.1c-0.2,0-0.5,0.1-0.6,0.1l-1,0c-0.5,0-1,0-1.5,0.1c-0.1,0-0.2,0.1-0.3,0.1c-0.1,0-0.2,0.1-0.2,0.2
		c0,0.1-0.1,0.2-0.2,0.2c-0.1,0.3-0.1,0.5-0.1,0.8c0,0.2,0.1,0.5,0.2,1c0.1,0.5,0.2,0.9,0.4,1.1c0,0,0.3,0.3,0.9,0.7
		c0.3,0.3,0.7,0.5,1.1,0.6c0.4,0.1,0.9,0.2,1.4,0.2c0.2,0,0.5,0,0.8-0.1l0.4-0.1h0.7c0.1,0,0.2-0.1,0.4-0.2c0.2-0.1,0.4-0.2,0.6-0.2
		c0.1,0.2,0.1,0.4,0.1,0.5c0,0.3-0.1,0.6-0.3,0.8c-0.2,0.2-0.4,0.4-0.7,0.4l-0.2,0l-0.6,0h-0.6c-0.3,0-0.9-0.1-1.9-0.3
		c-1-0.2-1.8-0.5-2.3-0.9s-0.8-0.8-1.1-1.4c-0.2-0.6-0.3-1.1-0.3-1.6c0-0.7,0.1-1.4,0.4-2.2c0.3-0.7,0.6-1.3,0.9-1.7
		c0.3-0.4,0.9-0.8,1.6-1.3c0.1,0,0.2-0.1,0.3-0.2c0.1-0.1,0.3-0.2,0.4-0.2l0.3,0c0.1-0.1,0.4-0.2,0.8-0.2c0.4-0.1,0.7-0.1,0.9-0.1
		c0.4,0,0.9,0.2,1.4,0.5c0.5,0.3,0.8,1,0.9,1.9c0,0.2,0,0.3,0.1,0.4c0,0.1,0.1,0.2,0.1,0.2C172.3,44.5,172.2,44.5,172.2,44.6z
		 M168,42.3c0,0.1-0.2,0.2-0.6,0.3c-0.2,0.1-0.3,0.3-0.5,0.4s-0.3,0.3-0.5,0.5c-0.2,0.2-0.3,0.3-0.4,0.5c-0.1,0.1-0.2,0.3-0.3,0.3
		c-0.1,0.1-0.1,0.1-0.1,0.2c0,0.1,0,0.1,0.1,0.2l0.1,0.1h0.8l3.6-0.1c0.5,0,0.7-0.2,0.7-0.6c0-0.4-0.1-0.8-0.3-1.1
		c-0.2-0.3-0.6-0.6-1.3-0.8c-0.1,0-0.2,0-0.3,0s-0.3,0-0.3,0C168.7,42.2,168.5,42.2,168,42.3z"/>
	<path d="M178.6,45.9c0.5,0.5,0.8,1.1,0.8,1.7c0,0.9-0.3,1.7-0.8,2.4c-0.5,0.7-1.2,1.1-2.1,1.3c-0.2,0-0.4,0-0.8,0
		c-0.3,0.1-0.5,0.2-0.8,0.2c-0.4,0-0.7-0.1-0.9-0.2c-0.2-0.2-0.3-0.4-0.3-0.9c0-0.1,0-0.2,0-0.3h0.1c0.1,0,0.3,0,0.4,0.1
		c0.1,0.1,0.2,0.1,0.2,0.1l0.1,0c0.2,0.2,0.6,0.3,1.2,0.3c0.5,0,1-0.1,1.4-0.3c0.4-0.2,0.8-0.5,1-0.9c0.2-0.4,0.3-0.8,0.3-1.2
		c0-0.5-0.2-0.9-0.6-1.3c-0.4-0.3-1.3-0.7-2.6-1.1c-0.2,0-0.3-0.1-0.4-0.1l-0.5-0.4c-0.3-0.2-0.4-0.4-0.5-0.6l-0.1-0.3
		c0-1.1,0.3-1.8,0.9-2.3c0.6-0.5,1.7-0.7,3.2-0.7l0.6,0c0,0,0.1,0,0.2-0.1c0.1,0.1,0.2,0.3,0.2,0.5c0,0.2,0,0.4-0.1,0.6
		c-0.1,0.2-0.2,0.3-0.2,0.4c-0.1-0.1-0.1-0.2-0.2-0.3h0c0,0-0.1,0-0.1,0c0,0-0.1,0-0.1,0c-0.3-0.4-0.7-0.5-1.2-0.5
		c-0.9,0-1.5,0.2-1.8,0.5s-0.4,0.7-0.4,1.2c0,0.6,0.5,1,1.5,1.3c0.7,0.2,1.3,0.4,1.8,0.5C178.4,45.7,178.6,45.8,178.6,45.9z"/>
	<path d="M193.3,45.6c0,0.1,0,0.1-0.1,0.2c-0.1,0.1-0.2,0.2-0.2,0.3s-0.1,0.3-0.1,0.6c0,0.3,0,0.8,0,1.4l0,1.4c0,0.1,0,0.1-0.1,0.2
		c0,0.1,0,0.2,0,0.4c0,0.3,0,0.6,0.1,1l0.1,0.5l0,0.5l0,0.4c-0.5,0.5-0.9,0.7-1.1,0.7c0,0-0.1,0-0.2-0.1s-0.2-0.1-0.3-0.1h-0.1
		c-0.1-0.2-0.1-0.4-0.1-0.5c0-0.3,0.1-0.7,0.2-1c0.1-0.1,0.1-0.2,0.2-0.2c0-0.1,0.1-0.3,0.1-0.6c0-0.4,0-0.6-0.1-0.6
		c0,0-0.1,0-0.1,0c-0.1,0-0.1,0-0.2,0h-0.1c-0.1,0.1-0.1,0.1-0.2,0.2c-0.1,0-0.5,0.1-1.3,0.5c-0.4,0.1-0.8,0.2-1.1,0.2
		c-0.4,0-0.8-0.1-1.1-0.2c-0.3-0.1-0.6-0.3-0.8-0.5c-0.2-0.2-0.4-0.4-0.4-0.5c-0.1-0.1-0.1-0.3-0.1-0.7l0-0.3v-0.1
		c0-0.7,0.5-1.4,1.6-2.2c1.1-0.8,2.1-1.2,3-1.4c0.2,0,0.4-0.1,0.6-0.1c0.1,0,0.3-0.1,0.3-0.2c0.1-0.1,0.1-0.3,0.1-0.7
		c0-1.2-0.6-2-1.9-2.5c0,0-0.1,0-0.2-0.1c-0.1,0-0.1-0.1-0.2-0.1c-0.7,0-1.2,0-1.7,0.1c-0.2,0.3-0.5,0.4-0.8,0.4
		c-0.2,0-0.3-0.1-0.3-0.2c0,0,0-0.2,0.1-0.4c0.1-0.3,0.3-0.4,0.7-0.4c0.4-0.2,1.2-0.3,2.4-0.3c0.9,0,1.6,0.4,2.1,1.1
		c0.5,0.7,0.8,1.7,0.8,3v0.1c0.1,0.1,0.2,0.2,0.3,0.2S193.3,45.5,193.3,45.6L193.3,45.6z M191.2,49.2c0.4-0.6,0.6-1.1,0.6-1.6
		c0-0.3-0.1-0.6-0.2-0.9c-0.1-0.3-0.4-0.5-0.8-0.5c-0.8,0-1.5,0.2-2,0.6h-0.3c-1.1,0.6-1.6,1.2-1.6,1.8c0,0.5,0.2,0.8,0.7,1.2
		c0.4,0.3,0.9,0.5,1.5,0.5c0.2,0,0.4-0.1,0.9-0.2s0.8-0.4,1.2-0.7V49.2z"/>
	<path d="M201,42.2c0.4-0.1,0.8-0.1,1.1-0.1c1.9,0,2.8,1.2,2.8,3.5c0,1.3-0.2,2.8-0.6,4.5c-0.2,0.7-0.3,1.2-0.3,1.5
		c0,0.1,0,0.1,0,0.2c-0.1,0.4-0.3,0.6-0.7,0.6c-0.2,0-0.5-0.1-0.7-0.2c-0.2-0.1-0.3-0.3-0.3-0.4c0-0.2,0.1-0.5,0.4-0.8
		c0.3-0.3,0.6-1,0.8-2s0.4-1.9,0.4-2.9c0-2-0.8-3-2.5-3c-0.7,0-1.3,0.1-1.8,0.4c-0.6,0.3-0.9,0.6-1,0.9c-0.1,0.1-0.2,0.1-0.3,0.2
		c-0.1,0.1-0.2,0.1-0.2,0.1c0,0-0.1,0.6-0.1,1.6s-0.1,1.7-0.1,2.3v0.5c0,0.3,0,0.5,0.1,0.7c0.1,0.2,0.1,0.3,0.1,0.4l0,0.4
		c0,0.2,0,0.4-0.1,0.5c-0.1,0.1-0.2,0.2-0.3,0.2h0l-0.1,0.1c-0.1,0-0.1,0-0.2,0c-0.1,0-0.2,0.1-0.4,0.2h-0.1c-0.1,0-0.2-0.1-0.3-0.3
		c-0.2,0-0.3-0.1-0.3-0.3c0-0.2,0-0.3,0.1-0.4c0.1,0,0.2-0.4,0.3-1.3c0.1-0.9,0.2-2,0.2-3.4c0-1.8-0.1-2.8-0.4-3.1l0-0.2
		c0-0.3,0.2-0.4,0.5-0.5c0.1,0,0.2-0.1,0.3-0.3c0.1-0.2,0.2-0.2,0.3-0.2h0c0.1,0,0.3-0.1,0.4-0.1c0.1,0,0.2-0.1,0.2-0.1
		c0.1,0,0.1,0.1,0.1,0.4c0,0.2,0,0.4-0.1,0.7c-0.1,0.3-0.1,0.4-0.1,0.5c0,0.1,0,0.2,0.1,0.3c0.1,0.1,0.2,0.1,0.3,0.1h0.1
		c0.2-0.2,0.3-0.3,0.3-0.3h0c0.7,0,1.2-0.1,1.5-0.4c0.1,0,0.1,0,0.2,0c0.1,0,0.1,0,0.2,0C200.9,42.3,201,42.3,201,42.2z"/>
	<path d="M216.1,52.4l-0.9,1.3h-0.3c-0.1-0.1-0.2-0.1-0.3-0.1c-0.1-0.2-0.2-0.5-0.3-0.8c0.1-0.2,0.1-0.4,0.1-0.6l0-1.1
		c0-0.4-0.1-0.8-0.2-1.2c0,0-0.1,0-0.2,0.1s-0.2,0-0.2,0.1c-0.7,0.5-1.2,0.8-1.7,0.9c-0.5,0.1-1,0.2-1.4,0.2c-0.8,0-1.4-0.2-2-0.5
		c-0.6-0.4-0.9-0.8-1.1-1.4c-0.2-0.6-0.3-1-0.3-1.3c0-0.5,0-0.9,0.1-1.1c0-0.2,0.2-0.5,0.4-1c0.2-0.4,0.4-0.8,0.5-1
		c0.1-0.2,0.4-0.5,0.8-0.9s0.8-0.7,1.3-1c0.4-0.1,0.9-0.3,1.3-0.5c0.5-0.2,0.8-0.3,1-0.3l0.1,0.1c0.3-0.2,0.6-0.3,0.8-0.3h0
		c0.2,0,0.3-0.1,0.3-0.4c0-0.9,0-1.8-0.1-2.8c-0.1-1-0.1-1.5-0.2-1.6c0-0.1-0.1-0.2-0.3-0.3c0-0.1-0.1-0.3-0.1-0.5
		c0-0.5,0.2-0.8,0.5-0.8c0.3-0.2,0.6-0.3,0.7-0.3c0.1,0,0.2,0.1,0.4,0.2c0.2,0.1,0.2,0.2,0.3,0.2c0,0,0,0,0,0.1c0,0,0,0.2-0.1,0.3
		c-0.1,0.2-0.1,0.4-0.1,0.6c-0.1,0.1-0.2,0.3-0.2,0.5l0,0.5c0,1.1,0,1.9,0.1,2.6c0.1,0.6,0.1,1,0.1,1c0,0,0,0.1,0,0.1s0,0.1,0,0.1
		c0,0.1,0.1,0.3,0.2,0.4l0.2-0.1c0,0.1,0.1,0.2,0.3,0.2c0.3,0.1,0.5,0.2,0.4,0.4c0,0.2-0.1,0.4-0.1,0.5h-0.1c-0.1,0-0.2,0-0.3,0.1
		c-0.1,0-0.2,0.1-0.2,0.1c-0.1,0-0.1,0-0.2,0c0,0,0,0,0,0c-0.1,0-0.1,0.7-0.1,2c0,0.8,0.1,1.7,0.2,2.8c0.1,0.2,0.2,0.3,0.3,0.4
		c0,0.3-0.1,0.5-0.1,0.7c0,0.3,0,0.6,0.1,1c0.1,0.4,0.1,0.7,0.1,0.9l0,0.3c0,0.1,0,0.1,0.1,0.1c0.1,0,0.1,0.1,0.1,0.1v0l0,0.1
		L216.1,52.4z M213.6,42.9c-0.2,0-0.3-0.1-0.5-0.1l-0.4-0.1c-0.1,0-0.3,0-0.4,0.1l-0.2,0.1h-0.5c-0.9,0.3-1.7,0.8-2.3,1.7
		c-0.6,0.8-0.9,1.7-0.9,2.5c0,0.9,0.3,1.6,0.8,2.1c0.5,0.6,1.2,0.8,2,0.8c0.7,0,1.3-0.1,1.9-0.3c0.5-0.2,0.9-0.5,1-0.7
		s0.1-0.9,0.1-1.8c0-1-0.1-2.3-0.2-4.1c-0.2-0.1-0.3-0.1-0.3-0.1V42.9z"/>
	<path d="M231.7,44.6c0.1,0.1,0.1,0.1,0.1,0.2c0,0.2-0.1,0.3-0.2,0.4c0,0,0,0,0,0.1c0,0.1-0.1,0.2-0.4,0.2h-0.1c0,0-0.1,0-0.1,0.1
		s-0.1,0.1-0.1,0.1c0,0,0,0-0.1-0.1c-0.1,0-0.1-0.1-0.3-0.1l-0.1-0.1c-0.2,0-0.3,0.1-0.4,0.1c-0.1,0-0.3,0-0.5,0c-0.2,0-0.3,0-0.4,0
		c-0.1,0-0.2,0-0.5,0.1c-0.2,0-0.5,0.1-0.6,0.1l-1,0c-0.5,0-1,0-1.5,0.1c-0.1,0-0.2,0.1-0.3,0.1c-0.1,0-0.2,0.1-0.2,0.2
		c0,0.1-0.1,0.2-0.2,0.2c-0.1,0.3-0.1,0.5-0.1,0.8c0,0.2,0.1,0.5,0.2,1c0.1,0.5,0.2,0.9,0.4,1.1c0,0,0.3,0.3,0.9,0.7
		c0.3,0.3,0.7,0.5,1.1,0.6c0.4,0.1,0.9,0.2,1.4,0.2c0.2,0,0.5,0,0.8-0.1l0.4-0.1h0.7c0.1,0,0.2-0.1,0.4-0.2c0.2-0.1,0.4-0.2,0.6-0.2
		c0.1,0.2,0.1,0.4,0.1,0.5c0,0.3-0.1,0.6-0.3,0.8c-0.2,0.2-0.4,0.4-0.7,0.4l-0.2,0l-0.6,0h-0.6c-0.3,0-0.9-0.1-1.9-0.3
		c-1-0.2-1.8-0.5-2.3-0.9s-0.8-0.8-1.1-1.4c-0.2-0.6-0.3-1.1-0.3-1.6c0-0.7,0.1-1.4,0.4-2.2c0.3-0.7,0.6-1.3,0.9-1.7
		c0.3-0.4,0.9-0.8,1.6-1.3c0.1,0,0.2-0.1,0.3-0.2c0.1-0.1,0.3-0.2,0.4-0.2l0.3,0c0.1-0.1,0.4-0.2,0.8-0.2c0.4-0.1,0.7-0.1,0.9-0.1
		c0.4,0,0.9,0.2,1.4,0.5c0.5,0.3,0.8,1,0.9,1.9c0,0.2,0,0.3,0.1,0.4c0,0.1,0.1,0.2,0.1,0.2C231.8,44.5,231.8,44.5,231.7,44.6z
		 M227.5,42.3c0,0.1-0.2,0.2-0.6,0.3c-0.2,0.1-0.3,0.3-0.5,0.4s-0.3,0.3-0.5,0.5c-0.2,0.2-0.3,0.3-0.4,0.5c-0.1,0.1-0.2,0.3-0.3,0.3
		c-0.1,0.1-0.1,0.1-0.1,0.2c0,0.1,0,0.1,0.1,0.2l0.1,0.1h0.8l3.6-0.1c0.5,0,0.7-0.2,0.7-0.6c0-0.4-0.1-0.8-0.3-1.1
		c-0.2-0.3-0.6-0.6-1.3-0.8c-0.1,0-0.2,0-0.3,0s-0.3,0-0.3,0C228.2,42.2,228,42.2,227.5,42.3z"/>
	<path d="M238.9,42.2c0.4-0.1,0.8-0.1,1.1-0.1c1.9,0,2.8,1.2,2.8,3.5c0,1.3-0.2,2.8-0.6,4.5c-0.2,0.7-0.3,1.2-0.3,1.5
		c0,0.1,0,0.1,0,0.2c-0.1,0.4-0.3,0.6-0.7,0.6c-0.2,0-0.5-0.1-0.7-0.2c-0.2-0.1-0.3-0.3-0.3-0.4c0-0.2,0.1-0.5,0.4-0.8
		c0.3-0.3,0.6-1,0.8-2s0.4-1.9,0.4-2.9c0-2-0.8-3-2.5-3c-0.7,0-1.3,0.1-1.8,0.4c-0.6,0.3-0.9,0.6-1,0.9c-0.1,0.1-0.2,0.1-0.3,0.2
		c-0.1,0.1-0.2,0.1-0.2,0.1c0,0-0.1,0.6-0.1,1.6s-0.1,1.7-0.1,2.3v0.5c0,0.3,0,0.5,0.1,0.7c0.1,0.2,0.1,0.3,0.1,0.4l0,0.4
		c0,0.2,0,0.4-0.1,0.5c-0.1,0.1-0.2,0.2-0.3,0.2h0l-0.1,0.1c-0.1,0-0.1,0-0.2,0c-0.1,0-0.2,0.1-0.4,0.2h-0.1c-0.1,0-0.2-0.1-0.3-0.3
		c-0.2,0-0.3-0.1-0.3-0.3c0-0.2,0-0.3,0.1-0.4c0.1,0,0.2-0.4,0.3-1.3c0.1-0.9,0.2-2,0.2-3.4c0-1.8-0.1-2.8-0.4-3.1l0-0.2
		c0-0.3,0.2-0.4,0.5-0.5c0.1,0,0.2-0.1,0.3-0.3c0.1-0.2,0.2-0.2,0.3-0.2h0c0.1,0,0.3-0.1,0.4-0.1c0.1,0,0.2-0.1,0.2-0.1
		c0.1,0,0.1,0.1,0.1,0.4c0,0.2,0,0.4-0.1,0.7c-0.1,0.3-0.1,0.4-0.1,0.5c0,0.1,0,0.2,0.1,0.3c0.1,0.1,0.2,0.1,0.3,0.1h0.1
		c0.2-0.2,0.3-0.3,0.3-0.3h0c0.7,0,1.2-0.1,1.5-0.4c0.1,0,0.1,0,0.2,0c0.1,0,0.1,0,0.2,0C238.8,42.3,238.9,42.3,238.9,42.2z"/>
	<path d="M254,52.4l-0.9,1.3h-0.3c-0.1-0.1-0.2-0.1-0.3-0.1c-0.1-0.2-0.2-0.5-0.3-0.8c0.1-0.2,0.1-0.4,0.1-0.6l0-1.1
		c0-0.4-0.1-0.8-0.2-1.2c0,0-0.1,0-0.2,0.1s-0.2,0-0.2,0.1c-0.7,0.5-1.2,0.8-1.7,0.9c-0.5,0.1-1,0.2-1.4,0.2c-0.8,0-1.4-0.2-2-0.5
		c-0.6-0.4-0.9-0.8-1.1-1.4c-0.2-0.6-0.3-1-0.3-1.3c0-0.5,0-0.9,0.1-1.1c0-0.2,0.2-0.5,0.4-1c0.2-0.4,0.4-0.8,0.5-1
		c0.1-0.2,0.4-0.5,0.8-0.9s0.8-0.7,1.3-1c0.4-0.1,0.9-0.3,1.3-0.5c0.5-0.2,0.8-0.3,1-0.3l0.1,0.1c0.3-0.2,0.6-0.3,0.8-0.3h0
		c0.2,0,0.3-0.1,0.3-0.4c0-0.9,0-1.8-0.1-2.8c-0.1-1-0.1-1.5-0.2-1.6c0-0.1-0.1-0.2-0.3-0.3c0-0.1-0.1-0.3-0.1-0.5
		c0-0.5,0.2-0.8,0.5-0.8c0.3-0.2,0.6-0.3,0.7-0.3c0.1,0,0.2,0.1,0.4,0.2c0.2,0.1,0.2,0.2,0.3,0.2c0,0,0,0,0,0.1c0,0,0,0.2-0.1,0.3
		c-0.1,0.2-0.1,0.4-0.1,0.6c-0.1,0.1-0.2,0.3-0.2,0.5l0,0.5c0,1.1,0,1.9,0.1,2.6c0.1,0.6,0.1,1,0.1,1c0,0,0,0.1,0,0.1s0,0.1,0,0.1
		c0,0.1,0.1,0.3,0.2,0.4l0.2-0.1c0,0.1,0.1,0.2,0.3,0.2c0.3,0.1,0.5,0.2,0.4,0.4c0,0.2-0.1,0.4-0.1,0.5h-0.1c-0.1,0-0.2,0-0.3,0.1
		c-0.1,0-0.2,0.1-0.2,0.1c-0.1,0-0.1,0-0.2,0c0,0,0,0,0,0c-0.1,0-0.1,0.7-0.1,2c0,0.8,0.1,1.7,0.2,2.8c0.1,0.2,0.2,0.3,0.3,0.4
		c0,0.3-0.1,0.5-0.1,0.7c0,0.3,0,0.6,0.1,1c0.1,0.4,0.1,0.7,0.1,0.9l0,0.3c0,0.1,0,0.1,0.1,0.1c0.1,0,0.1,0.1,0.1,0.1v0l0,0.1
		L254,52.4z M251.4,42.9c-0.2,0-0.3-0.1-0.5-0.1l-0.4-0.1c-0.1,0-0.3,0-0.4,0.1l-0.2,0.1h-0.5c-0.9,0.3-1.7,0.8-2.3,1.7
		c-0.6,0.8-0.9,1.7-0.9,2.5c0,0.9,0.3,1.6,0.8,2.1c0.5,0.6,1.2,0.8,2,0.8c0.7,0,1.3-0.1,1.9-0.3c0.5-0.2,0.9-0.5,1-0.7
		s0.1-0.9,0.1-1.8c0-1-0.1-2.3-0.2-4.1c-0.2-0.1-0.3-0.1-0.3-0.1V42.9z"/>
	<path d="M259.2,50.5c-0.1,0.2-0.1,0.3-0.2,0.4c0,0.1-0.2,0.1-0.3,0.1c-0.1,0.1-0.2,0.1-0.2,0.1c-0.1,0-0.1,0-0.2-0.1
		c-0.1,0.1-0.2,0.2-0.3,0.2c-0.5-0.2-0.8-0.3-0.8-0.6v0c0.1,0,0.2-0.1,0.2-0.3v-0.2l0-0.3c0,0,0-0.2,0.1-0.5
		c0.1-0.7,0.2-1.7,0.2-2.9v-2.1l0-0.8l0-0.7l-0.1-2.4l0.1-1.6l-0.1-2.1v-0.4c-0.1-0.2-0.1-0.5-0.1-0.7l0-0.4c0,0,0-0.1-0.1-0.2
		c0-0.4,0.1-0.7,0.2-0.9c0.1-0.2,0.3-0.4,0.4-0.5c0.2-0.1,0.3-0.2,0.5-0.2c0.3,0,0.5,0.3,0.8,0.9c-0.2,0.2-0.3,0.4-0.4,0.6
		c-0.1,0.2-0.1,0.5-0.1,0.9l0,1.2l0,2.9l0,4l0,4.6l0,0.2c0,0.1,0,0.2-0.1,0.2c0.1,0.1,0.2,0.3,0.2,0.6c0,0.3,0.1,0.6,0.2,0.7
		C259.1,50.4,259.1,50.5,259.2,50.5z"/>
	<path d="M269.6,44.6c0.1,0.1,0.1,0.1,0.1,0.2c0,0.2-0.1,0.3-0.2,0.4c0,0,0,0,0,0.1c0,0.1-0.1,0.2-0.4,0.2H269c0,0-0.1,0-0.1,0.1
		s-0.1,0.1-0.1,0.1c0,0,0,0-0.1-0.1c-0.1,0-0.1-0.1-0.3-0.1l-0.1-0.1c-0.2,0-0.3,0.1-0.4,0.1c-0.1,0-0.3,0-0.5,0c-0.2,0-0.3,0-0.4,0
		c-0.1,0-0.2,0-0.5,0.1c-0.2,0-0.5,0.1-0.6,0.1l-1,0c-0.5,0-1,0-1.5,0.1c-0.1,0-0.2,0.1-0.3,0.1c-0.1,0-0.2,0.1-0.2,0.2
		c0,0.1-0.1,0.2-0.2,0.2c-0.1,0.3-0.1,0.5-0.1,0.8c0,0.2,0.1,0.5,0.2,1c0.1,0.5,0.2,0.9,0.4,1.1c0,0,0.3,0.3,0.9,0.7
		c0.3,0.3,0.7,0.5,1.1,0.6c0.4,0.1,0.9,0.2,1.4,0.2c0.2,0,0.5,0,0.8-0.1l0.4-0.1h0.7c0.1,0,0.2-0.1,0.4-0.2c0.2-0.1,0.4-0.2,0.6-0.2
		c0.1,0.2,0.1,0.4,0.1,0.5c0,0.3-0.1,0.6-0.3,0.8c-0.2,0.2-0.4,0.4-0.7,0.4l-0.2,0l-0.6,0h-0.6c-0.3,0-0.9-0.1-1.9-0.3
		c-1-0.2-1.8-0.5-2.3-0.9s-0.8-0.8-1.1-1.4c-0.2-0.6-0.3-1.1-0.3-1.6c0-0.7,0.1-1.4,0.4-2.2c0.3-0.7,0.6-1.3,0.9-1.7
		c0.3-0.4,0.9-0.8,1.6-1.3c0.1,0,0.2-0.1,0.3-0.2c0.1-0.1,0.3-0.2,0.4-0.2l0.3,0c0.1-0.1,0.4-0.2,0.8-0.2c0.4-0.1,0.7-0.1,0.9-0.1
		c0.4,0,0.9,0.2,1.4,0.5c0.5,0.3,0.8,1,0.9,1.9c0,0.2,0,0.3,0.1,0.4c0,0.1,0.1,0.2,0.1,0.2C269.7,44.5,269.6,44.5,269.6,44.6z
		 M265.4,42.3c0,0.1-0.2,0.2-0.6,0.3c-0.2,0.1-0.3,0.3-0.5,0.4s-0.3,0.3-0.5,0.5c-0.2,0.2-0.3,0.3-0.4,0.5c-0.1,0.1-0.2,0.3-0.3,0.3
		c-0.1,0.1-0.1,0.1-0.1,0.2c0,0.1,0,0.1,0.1,0.2l0.1,0.1h0.8l3.6-0.1c0.5,0,0.7-0.2,0.7-0.6c0-0.4-0.1-0.8-0.3-1.1
		c-0.2-0.3-0.6-0.6-1.3-0.8c-0.1,0-0.2,0-0.3,0s-0.3,0-0.3,0C266.1,42.2,265.9,42.2,265.4,42.3z"/>
	<path d="M276,45.9c0.5,0.5,0.8,1.1,0.8,1.7c0,0.9-0.3,1.7-0.8,2.4c-0.5,0.7-1.2,1.1-2.1,1.3c-0.2,0-0.4,0-0.8,0
		c-0.3,0.1-0.5,0.2-0.8,0.2c-0.4,0-0.7-0.1-0.9-0.2c-0.2-0.2-0.3-0.4-0.3-0.9c0-0.1,0-0.2,0-0.3h0.1c0.1,0,0.3,0,0.4,0.1
		c0.1,0.1,0.2,0.1,0.2,0.1l0.1,0c0.2,0.2,0.6,0.3,1.2,0.3c0.5,0,1-0.1,1.4-0.3c0.4-0.2,0.8-0.5,1-0.9c0.2-0.4,0.3-0.8,0.3-1.2
		c0-0.5-0.2-0.9-0.6-1.3c-0.4-0.3-1.3-0.7-2.6-1.1c-0.2,0-0.3-0.1-0.4-0.1l-0.5-0.4c-0.3-0.2-0.4-0.4-0.5-0.6l-0.1-0.3
		c0-1.1,0.3-1.8,0.9-2.3c0.6-0.5,1.7-0.7,3.2-0.7l0.6,0c0,0,0.1,0,0.2-0.1c0.1,0.1,0.2,0.3,0.2,0.5c0,0.2,0,0.4-0.1,0.6
		c-0.1,0.2-0.2,0.3-0.2,0.4c-0.1-0.1-0.1-0.2-0.2-0.3h0c0,0-0.1,0-0.1,0c0,0-0.1,0-0.1,0c-0.3-0.4-0.7-0.5-1.2-0.5
		c-0.9,0-1.5,0.2-1.8,0.5s-0.4,0.7-0.4,1.2c0,0.6,0.5,1,1.5,1.3c0.7,0.2,1.3,0.4,1.8,0.5C275.8,45.7,276,45.8,276,45.9z"/>
	<path d="M283.2,45.9c0.5,0.5,0.8,1.1,0.8,1.7c0,0.9-0.3,1.7-0.8,2.4c-0.5,0.7-1.2,1.1-2.1,1.3c-0.2,0-0.4,0-0.8,0
		c-0.3,0.1-0.5,0.2-0.8,0.2c-0.4,0-0.7-0.1-0.9-0.2c-0.2-0.2-0.3-0.4-0.3-0.9c0-0.1,0-0.2,0-0.3h0.1c0.1,0,0.3,0,0.4,0.1
		c0.1,0.1,0.2,0.1,0.2,0.1l0.1,0c0.2,0.2,0.6,0.3,1.2,0.3c0.5,0,1-0.1,1.4-0.3c0.4-0.2,0.8-0.5,1-0.9c0.2-0.4,0.3-0.8,0.3-1.2
		c0-0.5-0.2-0.9-0.6-1.3c-0.4-0.3-1.3-0.7-2.6-1.1c-0.2,0-0.3-0.1-0.4-0.1l-0.5-0.4c-0.3-0.2-0.4-0.4-0.5-0.6l-0.1-0.3
		c0-1.1,0.3-1.8,0.9-2.3c0.6-0.5,1.7-0.7,3.2-0.7l0.6,0c0,0,0.1,0,0.2-0.1c0.1,0.1,0.2,0.3,0.2,0.5c0,0.2,0,0.4-0.1,0.6
		c-0.1,0.2-0.2,0.3-0.2,0.4c-0.1-0.1-0.1-0.2-0.2-0.3h0c0,0-0.1,0-0.1,0c0,0-0.1,0-0.1,0c-0.3-0.4-0.7-0.5-1.2-0.5
		c-0.9,0-1.5,0.2-1.8,0.5s-0.4,0.7-0.4,1.2c0,0.6,0.5,1,1.5,1.3c0.7,0.2,1.3,0.4,1.8,0.5C283,45.7,283.2,45.8,283.2,45.9z"/>
	<path d="M291.5,44.8c1.1-2,3-3,5.8-3c0.4,0,0.8,0,1.2,0.1c0.3,0,0.7,0.1,0.9,0.2c0.3,0.1,0.6,0.3,0.8,0.4c0.2,0.2,0.5,0.4,0.7,0.7
		c0.2,0.3,0.5,0.6,0.7,1c0.1,0.2,0.2,0.6,0.2,1.3c0,1.6-0.5,2.9-1.6,4c-1.1,1.1-2.4,1.7-3.9,1.7h-0.1c-0.3-0.1-0.5-0.1-0.5-0.1
		c0,0,0,0-0.1,0c-0.1,0.1-0.3,0.1-0.6,0.1c-0.5,0-1.1-0.1-1.7-0.4c-0.7-0.3-1.2-0.7-1.6-1.3c-0.4-0.6-0.6-1.2-0.6-1.8
		c0-0.2,0-0.5,0-0.7c0-0.2,0.1-0.5,0.1-0.7c0.1-0.2,0.1-0.4,0.2-0.6l0.2-0.6V44.8z M300.5,46.5v-0.3c0-1.1-0.4-2.1-1.1-2.7
		c-0.7-0.7-1.7-1-2.8-1c-0.3,0-0.5,0-0.7,0.1c-0.2,0.1-0.4,0.1-0.4,0.1c0,0-0.1,0.1-0.2,0.2c-0.1,0.1-0.1,0.2-0.2,0.2
		c0,0-0.1,0-0.2,0l-0.5-0.1c-0.1,0-0.1,0.1-0.2,0.2c-0.5,0-1,0.4-1.5,1.2s-0.7,1.5-0.7,2.3c0,0.2,0,0.5,0.1,1.1
		c0.1,0.6,0.3,1,0.6,1.4s0.8,0.7,1.3,0.9c0.5,0.3,0.9,0.4,1.2,0.4c0.1,0,0.2,0,0.2,0l0.1,0h0.4c0.9,0,1.5-0.1,1.9-0.4
		c0,0,0.1,0,0.1,0c0,0,0.1,0,0.2,0.1c0.8-0.7,1.3-1.3,1.7-2C300.3,47.2,300.5,46.7,300.5,46.5z"/>
	<path d="M310.5,49.6c0.3,0.2,0.5,0.5,0.5,0.8c0,0.4-0.1,0.7-0.3,0.7h-0.1c-0.1,0-0.3,0-0.7,0.1c-0.4,0.1-0.8,0.1-1.2,0.1h-0.3
		l-0.7,0c-0.3,0-0.5,0-0.7-0.1c-0.1,0-0.4-0.1-0.8-0.3c-0.4-0.1-0.7-0.2-0.8-0.3c-0.2-0.1-0.3-0.2-0.6-0.5c-0.2-0.2-0.4-0.4-0.6-0.7
		c-0.2-0.2-0.3-0.5-0.4-0.8c-0.1-0.3-0.2-0.6-0.3-0.9c-0.1-0.3-0.1-0.6-0.1-0.9c0-1,0.2-1.8,0.5-2.4c0.3-0.7,0.9-1.3,1.7-1.8
		c0.1-0.1,0.3-0.2,0.5-0.3c0.2-0.1,0.4-0.2,0.5-0.3c0.1-0.1,0.5-0.1,1.1-0.2s1.2-0.2,1.8-0.2h0.4c0.1,0,0.3,0,0.4,0
		c0.3,0,0.5,0.1,0.5,0.4c0,0,0,0.1,0,0.2c0,0.1,0,0.2,0,0.2l0,0.8c-0.1,0-0.2,0-0.2,0c-0.2,0-0.4-0.1-0.6-0.2
		c-0.3-0.2-0.5-0.4-0.7-0.4H309c-0.1,0-0.3,0-0.6-0.1c-0.3-0.1-0.6-0.1-0.8-0.1c-0.2,0-0.4,0.1-0.7,0.2c-0.1,0-0.2-0.1-0.2-0.1h0
		c0,0-0.1,0-0.1,0.1c-0.2,0.2-0.5,0.4-0.9,0.5c-0.3,0.1-0.6,0.4-0.8,0.8c-0.2,0.4-0.4,0.7-0.6,0.9c-0.1,0.4-0.1,0.8-0.1,1.2
		c0,0.8,0.1,1.4,0.3,1.8c0.2,0.4,0.4,0.7,0.8,1c0.3,0.3,0.6,0.5,0.7,0.7h0.3c0.1,0.2,0.2,0.3,0.5,0.3c0.1,0,0.4,0,0.6,0.1
		c0.3,0.1,0.5,0.1,0.6,0.1l0.3,0h0.2c0.3,0,0.6,0,0.8-0.1c0.2-0.1,0.4-0.1,0.7-0.2S310.4,49.8,310.5,49.6z"/>
	<path d="M320.1,44.6c0.1,0.1,0.1,0.1,0.1,0.2c0,0.2-0.1,0.3-0.2,0.4c0,0,0,0,0,0.1c0,0.1-0.1,0.2-0.4,0.2h-0.1c0,0-0.1,0-0.1,0.1
		s-0.1,0.1-0.1,0.1c0,0,0,0-0.1-0.1c-0.1,0-0.1-0.1-0.3-0.1l-0.1-0.1c-0.2,0-0.3,0.1-0.4,0.1c-0.1,0-0.3,0-0.5,0c-0.2,0-0.3,0-0.4,0
		c-0.1,0-0.2,0-0.5,0.1c-0.2,0-0.5,0.1-0.6,0.1l-1,0c-0.5,0-1,0-1.5,0.1c-0.1,0-0.2,0.1-0.3,0.1c-0.1,0-0.2,0.1-0.2,0.2
		c0,0.1-0.1,0.2-0.2,0.2c-0.1,0.3-0.1,0.5-0.1,0.8c0,0.2,0.1,0.5,0.2,1c0.1,0.5,0.2,0.9,0.4,1.1c0,0,0.3,0.3,0.9,0.7
		c0.3,0.3,0.7,0.5,1.1,0.6c0.4,0.1,0.9,0.2,1.4,0.2c0.2,0,0.5,0,0.8-0.1l0.4-0.1h0.7c0.1,0,0.2-0.1,0.4-0.2c0.2-0.1,0.4-0.2,0.6-0.2
		c0.1,0.2,0.1,0.4,0.1,0.5c0,0.3-0.1,0.6-0.3,0.8c-0.2,0.2-0.4,0.4-0.7,0.4l-0.2,0l-0.6,0h-0.6c-0.3,0-0.9-0.1-1.9-0.3
		c-1-0.2-1.8-0.5-2.3-0.9s-0.8-0.8-1.1-1.4c-0.2-0.6-0.3-1.1-0.3-1.6c0-0.7,0.1-1.4,0.4-2.2c0.3-0.7,0.6-1.3,0.9-1.7
		c0.3-0.4,0.9-0.8,1.6-1.3c0.1,0,0.2-0.1,0.3-0.2c0.1-0.1,0.3-0.2,0.4-0.2l0.3,0c0.1-0.1,0.4-0.2,0.8-0.2c0.4-0.1,0.7-0.1,0.9-0.1
		c0.4,0,0.9,0.2,1.4,0.5c0.5,0.3,0.8,1,0.9,1.9c0,0.2,0,0.3,0.1,0.4c0,0.1,0.1,0.2,0.1,0.2C320.2,44.5,320.2,44.5,320.1,44.6z
		 M315.9,42.3c0,0.1-0.2,0.2-0.6,0.3c-0.2,0.1-0.3,0.3-0.5,0.4s-0.3,0.3-0.5,0.5c-0.2,0.2-0.3,0.3-0.4,0.5c-0.1,0.1-0.2,0.3-0.3,0.3
		c-0.1,0.1-0.1,0.1-0.1,0.2c0,0.1,0,0.1,0.1,0.2l0.1,0.1h0.8l3.6-0.1c0.5,0,0.7-0.2,0.7-0.6c0-0.4-0.1-0.8-0.3-1.1
		c-0.2-0.3-0.6-0.6-1.3-0.8c-0.1,0-0.2,0-0.3,0s-0.3,0-0.3,0C316.6,42.2,316.4,42.2,315.9,42.3z"/>
	<path d="M328.6,45.6c0,0.1,0,0.1-0.1,0.2c-0.1,0.1-0.2,0.2-0.2,0.3s-0.1,0.3-0.1,0.6c0,0.3,0,0.8,0,1.4l0,1.4c0,0.1,0,0.1-0.1,0.2
		c0,0.1,0,0.2,0,0.4c0,0.3,0,0.6,0.1,1l0.1,0.5l0,0.5l0,0.4c-0.5,0.5-0.9,0.7-1.1,0.7c0,0-0.1,0-0.2-0.1s-0.2-0.1-0.3-0.1h-0.1
		c-0.1-0.2-0.1-0.4-0.1-0.5c0-0.3,0.1-0.7,0.2-1c0.1-0.1,0.1-0.2,0.2-0.2c0-0.1,0.1-0.3,0.1-0.6c0-0.4,0-0.6-0.1-0.6
		c0,0-0.1,0-0.1,0c-0.1,0-0.1,0-0.2,0h-0.1c-0.1,0.1-0.1,0.1-0.2,0.2c-0.1,0-0.5,0.1-1.3,0.5c-0.4,0.1-0.8,0.2-1.1,0.2
		c-0.4,0-0.8-0.1-1.1-0.2c-0.3-0.1-0.6-0.3-0.8-0.5c-0.2-0.2-0.4-0.4-0.4-0.5c-0.1-0.1-0.1-0.3-0.1-0.7l0-0.3v-0.1
		c0-0.7,0.5-1.4,1.6-2.2c1.1-0.8,2.1-1.2,3-1.4c0.2,0,0.4-0.1,0.6-0.1c0.1,0,0.3-0.1,0.3-0.2c0.1-0.1,0.1-0.3,0.1-0.7
		c0-1.2-0.6-2-1.9-2.5c0,0-0.1,0-0.2-0.1c-0.1,0-0.1-0.1-0.2-0.1c-0.7,0-1.2,0-1.7,0.1c-0.2,0.3-0.5,0.4-0.8,0.4
		c-0.2,0-0.3-0.1-0.3-0.2c0,0,0-0.2,0.1-0.4c0.1-0.3,0.3-0.4,0.7-0.4c0.4-0.2,1.2-0.3,2.4-0.3c0.9,0,1.6,0.4,2.1,1.1
		c0.5,0.7,0.8,1.7,0.8,3v0.1c0.1,0.1,0.2,0.2,0.3,0.2S328.6,45.5,328.6,45.6L328.6,45.6z M326.6,49.2c0.4-0.6,0.6-1.1,0.6-1.6
		c0-0.3-0.1-0.6-0.2-0.9c-0.1-0.3-0.4-0.5-0.8-0.5c-0.8,0-1.5,0.2-2,0.6H324c-1.1,0.6-1.6,1.2-1.6,1.8c0,0.5,0.2,0.8,0.7,1.2
		c0.4,0.3,0.9,0.5,1.5,0.5c0.2,0,0.4-0.1,0.9-0.2s0.8-0.4,1.2-0.7V49.2z"/>
	<path d="M336.4,42.2c0.4-0.1,0.8-0.1,1.1-0.1c1.9,0,2.8,1.2,2.8,3.5c0,1.3-0.2,2.8-0.6,4.5c-0.2,0.7-0.3,1.2-0.3,1.5
		c0,0.1,0,0.1,0,0.2c-0.1,0.4-0.3,0.6-0.7,0.6c-0.2,0-0.5-0.1-0.7-0.2c-0.2-0.1-0.3-0.3-0.3-0.4c0-0.2,0.1-0.5,0.4-0.8
		c0.3-0.3,0.6-1,0.8-2s0.4-1.9,0.4-2.9c0-2-0.8-3-2.5-3c-0.7,0-1.3,0.1-1.8,0.4c-0.6,0.3-0.9,0.6-1,0.9c-0.1,0.1-0.2,0.1-0.3,0.2
		c-0.1,0.1-0.2,0.1-0.2,0.1c0,0-0.1,0.6-0.1,1.6s-0.1,1.7-0.1,2.3v0.5c0,0.3,0,0.5,0.1,0.7c0.1,0.2,0.1,0.3,0.1,0.4l0,0.4
		c0,0.2,0,0.4-0.1,0.5c-0.1,0.1-0.2,0.2-0.3,0.2h0l-0.1,0.1c-0.1,0-0.1,0-0.2,0c-0.1,0-0.2,0.1-0.4,0.2h-0.1c-0.1,0-0.2-0.1-0.3-0.3
		c-0.2,0-0.3-0.1-0.3-0.3c0-0.2,0-0.3,0.1-0.4c0.1,0,0.2-0.4,0.3-1.3c0.1-0.9,0.2-2,0.2-3.4c0-1.8-0.1-2.8-0.4-3.1l0-0.2
		c0-0.3,0.2-0.4,0.5-0.5c0.1,0,0.2-0.1,0.3-0.3c0.1-0.2,0.2-0.2,0.3-0.2h0c0.1,0,0.3-0.1,0.4-0.1c0.1,0,0.2-0.1,0.2-0.1
		c0.1,0,0.1,0.1,0.1,0.4c0,0.2,0,0.4-0.1,0.7c-0.1,0.3-0.1,0.4-0.1,0.5c0,0.1,0,0.2,0.1,0.3c0.1,0.1,0.2,0.1,0.3,0.1h0.1
		c0.2-0.2,0.3-0.3,0.3-0.3h0c0.7,0,1.2-0.1,1.5-0.4c0.1,0,0.1,0,0.2,0c0.1,0,0.1,0,0.2,0C336.3,42.3,336.4,42.3,336.4,42.2z"/>
	<path d="M344.7,48.9c0.2,0,0.3,0.1,0.3,0.3c0.1,0.2,0.1,0.4,0.3,0.5c0.1,0.2,0.2,0.3,0.2,0.4c0,0.3-0.1,0.5-0.2,0.7h0
		c0,0-0.1,0-0.1-0.1c-0.2,0.1-0.4,0.2-0.6,0.4c-0.1-0.1-0.3-0.2-0.4-0.2c-0.1-0.2-0.1-0.4-0.1-0.7c0-0.1,0-0.2-0.1-0.3
		c-0.1-0.1-0.1-0.2-0.1-0.3v0c0,0,0.1-0.1,0.1-0.2c0.1-0.1,0.1-0.2,0.1-0.2L344.7,48.9z"/>
</g>
</svg>
