<?xml version="1.0" encoding="utf-8"?>
<!-- Generator: Adobe Illustrator 19.2.1, SVG Export Plug-In . SVG Version: 6.00 Build 0)  -->
<svg version="1.1" id="Layer_1" xmlns="http://www.w3.org/2000/svg" xmlns:xlink="http://www.w3.org/1999/xlink" x="0px" y="0px"
	 viewBox="0 0 352 120" style="enable-background:new 0 0 352 120;" xml:space="preserve">
<style type="text/css">
	.st0{fill:none;}
	.st1{fill:#E27D3C;}
</style>
<g>
	<rect x="45.4" y="12.7" class="st0" width="339.3" height="158.2"/>
	<path class="st1" d="M99.4,84c-1,1.6-2.6,3-4.6,3.9c-1.9,0.8-4,1.3-6.2,1.3c-1.9,0-3.7-0.3-5.4-0.9c-3.7-1.3-6.9-3.7-10-6.1
		c-0.7-0.5-1.3-1-2-1.6c-0.5-0.3-1-0.6-1.7-0.4c-0.6,0.1-1.3,0.5-1.9,0.7c-7,3.2-15.1,6.9-23.5,9.8c-4.6,1.6-9.7,3.3-15,4.5
		c-3.1,0.7-7,1.6-10.7,1.6c-1.5,0-2.9-0.2-4.2-0.4c-2.2-0.6-4-1.8-5-3.4c-1-1.4-1.2-3.3-0.7-5.1c0.5-1.8,1.7-3.3,3.3-4
		c0.5-0.3,1.1-0.4,1.6-0.4c0.4,0,1.3,0.1,1,0.7c0,0.2-0.2,0.4-0.5,0.4c-0.8,0-1.6,0.1-2.4,0.6s-1.3,1.3-1.7,2.4
		c-0.6,1.6-0.6,3.1-0.1,4.3c1,2.4,4,3.3,5.6,3.5c1.2,0.2,2.5,0.4,3.7,0.4c2.1,0,4.4-0.3,7.3-0.8c6.3-1.3,12.5-3.4,17.8-5.3
		c6.7-2.4,13.2-5.2,19.6-8c1.2-0.5,2.3-1,3.5-1.6c1.4-0.6,1.9-0.9,2.1-1.4c0.3-0.9-0.7-1.9-1-2.7c-2.2-4.9-3.8-10.1-5.5-15.2
		c-1.2-4-2.8-8.6-6.4-11.1c-1.3-0.9-3-1.3-4.6-1.3c-0.4,0-0.8,0.1-1,0.3c-0.3,0.2-0.4,0.7-0.4,1.1c0.1,5.9,0,11.9-0.3,17.8
		c-0.1,1.5-0.2,3.1-0.8,4.5c-0.1,0.1-0.1,0.4-0.3,0.4c-0.6,0.4-1.1-0.4-1.3-1c-2.5-8.7-3.1-18-1.5-26.9c0.7-4,1.9-8.1,1.7-12.2
		c-0.1-1.6-0.4-3.3,0-4.9c0.2-0.4,0.3-0.7,0.6-0.8c0.7-0.4,1.3,0.7,1.4,1.4c0.1,0.9,0.3,1.8,0.5,2.6c1.1-1.9,2.8-3.7,4.8-4.7
		c2.1-1,4.6-1.3,6.7-0.5c3,1.1,5,4.2,5.3,7.4s-1,6.4-3.1,8.8c-2,2.5-4.9,4.2-7.8,5.5c0.7-0.3,2.5,1.8,3,2.3c3.8,4,5.3,9.9,7.1,15
		c1.3,3.8,2.3,7.9,4.2,11.5c0.5,1.1,1.3,1.6,2.3,1.6c0.2,0,0.5,0,0.9-0.1c1.9-0.4,3.1-1.3,4.7-2.2c4-2.2,8.9-4.6,13.6-4.6
		c2,0,4.4,0.5,6.1,2.1c1.4,1.3,2.2,3.4,2.3,5.5C101,80.2,100.5,82.3,99.4,84z M48.4,53.4c0-3.2-0.1-6.4-0.1-9.7c0-0.2,0-2-0.3-2
		c0-0.2-0.1-0.1-0.2,0.1c-0.3,1-0.6,2-0.7,3.1c-0.2,3.3-0.7,6.4-0.7,9.6c0,4.6,0.5,9.1,1.6,13.5c0.1,0.2,0.1,0.4,0.2,0.4
		c0.1-0.5,0.1-1.1,0.1-1.7V53.4z M62.9,41.1c2.5-3.4,3.1-8.4,1-12c-0.6-1-1.4-1.9-2.5-2.5c-1.4-0.7-3.3-0.7-4.9-0.1
		c-5.8,2.2-6.3,8.2-6.1,13.6c0.2,1.9,0.2,4,0.5,5.8c0,0.5,0,0.9,0.4,1.1c0.1,0.1,0.8,0.1,0.9,0.1C56.4,46.6,60.5,44.6,62.9,41.1z
		 M100,77.4c-0.2-1.8-1.1-3.3-2.5-4.3c-1.3-0.9-3.1-1.3-5.1-1.3c-1.5,0-3.2,0.3-5,0.8c-3.6,1-6.9,2.9-10.1,4.8
		c-0.6,0.4-1.3,0.7-1.9,1.1c-0.6,0.4-0.9,0.7-1,1.1c-0.1,0.4,0.1,0.8,0.5,1.4c1.3,1.7,3,3.1,4.4,4.1c2.7,1.9,5.7,2.9,9,2.9
		c1.2,0,2.5-0.1,3.8-0.4c2.3-0.5,4.3-1.6,5.7-3.1C99.4,82.5,100.3,79.8,100,77.4z"/>
	<path class="st1" d="M83.7,59.6c-1.8,0.7-3.8,0.7-5.7,0.4c-2.5-0.5-4.9-1.6-6.6-3.4c-1.8-1.8-2.7-5.5-1.9-7.9
		c0.8-3.6,4.9-7.1,7.2-4.2c0.8,0.8,1.5,2.7,0.6,3.8c-1,1.8-2.8,1.2-4.3,2l-0.2,0.2L72.7,51c0.1,1.1,0,4.8,4.8,7.2
		c1.3,0.7,2.6,0.9,4.2,0.7c1.7-0.2,3.3-0.8,4.6-2.1c1.4-1.2,1.8-1.9,3.2-3.6c1.4-1.8,2.4-3.1,3.3-4.6c0.2,0,0.4,0,0.4,0.1
		c0.5,0.2-0.2,1.3-0.4,1.6c-1.3,1.8-2.8,3.8-4.2,5.5C86.8,57.7,85.9,58.8,83.7,59.6z M72.6,48.8c0,0.2,0.2,0.1,0.5,0.1
		c1.1-0.2,1.9-0.2,2.8-0.7l0.8-0.7c0.2-0.8-0.3-1.4-1-2.2c-0.3-0.2-0.6-0.2-1,0c-0.3,0.2-0.5,0.2-0.7,0.5
		C73.1,46.7,72.8,47.5,72.6,48.8z"/>
	<path class="st1" d="M108.6,50c-1.8,6.2-4,8.4-6.4,11.4c-1,1.2-2.8,3.2-3.5,4.3c-0.5,0.6-0.2,1.6-0.5,2.2c-0.2,1.1-0.5,2.2-0.7,3.3
		c-0.5,1.6-1.2,3.1-2.3,4.5c-0.5,0.5-0.9,1-1.4,1.2c-0.5,0.3-1.3,0.4-1.8,0c-0.8-0.5-0.9-1.5-0.7-2.4c0.4-2.1,2.4-3.6,3.4-5.4
		c0.7-1.5,0.7-3.3,0.4-4.9c-0.6-5.4-2.2-10.8-2.5-16.2c0-1.4-0.1-2.8,1-3.9c0.8-1,2.3-1.3,3.4-0.8c0.3,0,0.6,0.2,0.5,0.5
		c-0.1,0.4-0.7,0.4-1,0.4c-0.5,0.2-0.8,0.5-0.8,1c-0.2,0.5-0.1,0.8,0,1.3l2.5,16.6c0,0.4,0.1,0.6,0.5,0.6c0.1,0,0.2-0.1,0.4-0.2
		c2.5-3.1,3-3.7,5.2-6.7c2.5-3.3,3.4-7.6,3.8-8.4c0.1-0.2,0.2-0.3,0.6-0.2C109.3,48.4,108.7,49.8,108.6,50z M94,75.3
		c0.9-1.1,1.3-2.4,1.1-3.8c0-0.1-0.1-0.1-0.1-0.2v-0.1c-0.1-0.1-0.3,0-0.3,0.1c-0.9,1.1-1.8,1.9-2.4,3.3c-0.1,0.3-0.2,0.7,0,1
		c0.3,0.4,0.8,0.4,1.3,0C93.9,75.5,93.8,75.4,94,75.3z"/>
	<path class="st1" d="M118.5,47.8c0.5,0.8,0.2,1.2,0.7,1.8c0.9,0.8,2.6,1.6,3.6,1.8c2.2,0.5,5,0.2,6.2-2l0.4-0.7
		c0.1-0.2,0.4-0.3,0.6-0.1c0.5,0.2,0.1,0.9-0.1,1.1c-1.4,3-4.8,3.3-7.8,2.7c-1.2-0.2-2.6-1-3.1-1.4c0,0.5-0.1,1.3-0.1,1.9
		c-0.1,0.5-0.2,0.7-0.5,1.9c-0.5,1.4-1.3,2.8-2.5,3.9s-2.7,1.8-4.2,1.6c-1.3-0.1-2.5-0.9-3.3-2c-0.8-1-1.1-2.2-1.3-3.7
		c-0.3-2,0-4.2,1.1-5.9c0.5-1,1.3-1.6,2.2-2c1.1-0.4,2.2-0.6,3.4-0.8c1.3-0.2,2.8-0.1,3.7,0.8C117.9,47.1,117.9,46.9,118.5,47.8z
		 M116.9,50.7h-0.6c-1.1,0.1-1.9-0.3-2.8-0.9c-0.2-0.2-0.6-0.3-0.9-0.5c-0.5-0.2-0.9-0.1-1.1,0.3c-0.3,0.3-0.5,0.5-0.5,0.7
		c-0.5,1.1-0.7,2.3-0.7,3.5c0,1.5,0.2,2.8,0.7,3.9c0.5,1.1,1.6,1.3,2.7,0.9c0.7-0.2,1-0.6,1.6-1.1c1-1.1,1.7-2.4,2-3.8
		c0.1-0.5,0.3-1.2,0.2-1.9C117.5,51.1,117.3,50.8,116.9,50.7z M113.7,48.4c0.6,0.8,1.3,1.1,2.3,1.1c0.5-0.1,0.6-0.1,1-0.3
		c0.2-0.1,0.2-0.5,0.2-0.7c-0.3-0.9-1.6-1.9-2.5-1.6c-0.1,0.1-0.2,0.1-0.4,0.1C113.7,47.2,113.4,47.8,113.7,48.4z"/>
	<path class="st1" d="M139.3,55.9c-0.3,1.7-0.4,3.4-0.1,5.2c0.2,1.6,1.5,2.3,3.1,1.8c1.2-0.4,2.2-1.1,3.1-2
		c3.4-3.5,5.2-7.7,6.3-10.3c0.2-0.5,0.5-1.6,0.7-2c0.4-0.3,0.7-0.2,1,0c-0.1,0.4-0.5,1.6-0.7,2.2l-0.6,1.6c-1,1.9-1.6,3.8-4.4,7.6
		c-1.1,1.6-2.5,2.9-4.3,3.8c-0.9,0.5-1.8,0.8-2.8,0.8c-1.4-0.1-2.5-0.8-3.1-1.9c-1.1-1.8-1.6-4-1.5-6.1c0-1.8,0.4-3.7,0.6-5.5
		c0.1-0.7-0.2-1-0.8-1.1c-0.9-0.1-1.6,0.1-2.5-0.1c-0.4-0.2-1.9-0.6-2.5-0.6c-0.2,0-0.4,0-0.5,0.1c-0.2,0.2-0.4,0.3-0.6,0.4
		c-0.1,0.1-0.2,0.1-0.4,0.1c-0.2-0.2-0.1-0.6-0.1-0.9c0-0.5,0-0.9-0.2-1.4c-0.4-0.5-0.8-0.9-1.3-1.4c-1.3-1.4-1.9-3.3-1.9-5.3
		c-0.1-1.3,0.1-2.3,0.8-3.2c0.5-0.9,1.3-1.5,2.4-1.7c1-0.2,2.1,0.1,2.8,0.9c0.5,0.5,0.8,1.2,0.9,2c0.5,2.3-0.1,4.4-0.7,6.7
		c-0.1,0.5-0.2,1,0.1,1.6c0.4,0.9,1.7,1.2,2.6,1.2c1,0.1,1.9,0.1,2.9,0c1.9,0,2.8,1,2.7,2.8C140,52.6,139.5,54.2,139.3,55.9z
		 M130.9,37.8c-0.4-0.6-1.1-0.9-1.8-0.6c-0.8,0.4-1.4,1-1.6,1.9c-0.3,2.2-0.1,4.7,1.7,6.3c0.5,0.4,1,0.3,1.3-0.2
		c0.5-1.4,0.8-2.9,1-4.3C131.7,39.9,131.4,38.9,130.9,37.8z"/>
	<path class="st1" d="M179.2,49.2c0,0.3-1.3,3.4-1.6,4c-2.4,4.7-4.1,8.2-7,11.8c-1.8,2.2-3.9,4-5.6,5.2c-2.3,1.7-4.7,1.5-6.9-0.3
		c-3.4-3.1-4.3-8.2-5.2-12.4c-0.8-4.2-0.8-8.4-0.3-12.6c0.3-3.2,0.8-6.8,1-11c0-0.4-0.3-0.7-0.8-1c-1.3-0.4-9-0.7-10.9-0.7
		c-0.9-0.1-12.5-0.6-12.5-0.5h-2.8c-1.6,0-3.5,0.1-4.8,0c-0.5-0.1-1.2-0.5-0.5-1c0.2-0.1,0.4-0.2,0.7-0.2c1.4-0.2,2.8-0.1,4.2-0.1
		c5.5,0,27.1,1,27.3,1c0.4,0,0.7-0.2,0.9-0.6l0.7-1.9c0.2-0.8,0.4-1.7,0.7-2.6c0.5-1.6,1.5-3.2,3.2-3.5c1.4-0.4,2.5,0.3,3.1,1.7
		c0.6,1.6,1,3.3,0.5,4.9c0,0.5-0.1,0.9-0.1,1.4c0,0.3,0.1,0.5,0.4,0.6c0.2,0.2,0.6,0.2,0.8,0.2c1.6,0,9.7,0.9,10.9,1.1
		c0.5,0.2,1,0.4,1,1c0.1,0.3,0.1,1-0.4,0.7c-2.8-0.8-11.2-1.3-11.8-1.3c-0.7,0.1-1.3,0.2-1.6,0.8c-0.4,0.6-3.1,5-4,6.8
		c-0.9,1.6-1,3.3-1.3,5.1c-0.3,3.8-0.2,8.3,0.4,12.1c0.4,3,2.2,12.4,7.2,11.2c3-0.6,5.7-4.9,7.1-6.7c1.2-1.7,4-6.1,7.6-13.9
		C178.9,48.1,179.4,48.7,179.2,49.2z M157.2,38.5c0,0.1,0.1,0.1,0.2,0.1c0-0.2,1.3-2.9,1.9-4c0-0.4,0-0.5,0-0.5
		c0-0.5-0.4-0.8-0.9-0.6c-0.2,0.1-0.4,0.2-0.6,0.5C157.6,34.4,157.2,38.3,157.2,38.5z M158.4,30.8c0.2,0.4,0.5,0.5,1,0.4
		c0.4-0.2,0.7-0.4,0.8-0.8c0.5-0.8,0.5-1.7,0.5-2.7c0-0.8,0-1.5-0.3-2.3c-0.2-0.3-0.5-0.4-0.7-0.3c-0.2,0.2-0.5,0.5-0.7,1
		c-0.2,0.8-0.3,1.6-0.5,2.2c-0.1,0.5-0.2,1.6-0.2,1.9C158.3,30.2,158.3,30.5,158.4,30.8z"/>
	<path class="st1" d="M219.2,12.1c-0.5,1-1.4,1.7-2.2,2.4c-0.7,0.7-0.6,1.7-0.5,2.7c0.6,11.3,2.4,22.3,2.6,33.7c0.1,4-0.2,8-1,12.1
		c-1.2,4.9-3.6,11.2-9.3,12.1c-6.4,1-13.4-2.1-14.6-9.1c-0.3-1.5-0.2-2.9,0.3-4.2c0.2-0.5,0.5-0.7,1-0.5c0.2,0.1,0.2,0.4,0.1,0.8
		c-2.6,8,6.4,13.3,13.6,11.8c2.8-0.6,4.9-3.3,6.1-6.2c0.8-2.8,1-5.8,0.9-8.8c0.1-4.5-0.3-8.9-0.1-13.6c0-1.2-0.6-1.5-1.7-1.3
		c-1.2,0.2-2.5,0.4-3.7,0.4c-4.5,0-9.2-2-11.6-6.1c-2.4-4.2-0.4-9.5,2.4-12.9c1.7-2.3,3.7-4.1,6.1-5.8c2.1-1.5,4.2-2.2,6.2-4.3
		c1.1-1.1,1.2-2.8,2-4c0.5-1,1.2-1.4,2.1-1.5C219,9.6,219.7,11,219.2,12.1z M213.6,18c0-1-3,1-3.4,1.3c-5.2,3.4-10.5,8.2-11.1,14.8
		c-0.2,2,0.7,3.4,1.9,4.9c1.8,2.3,6.3,4.4,9.2,4.2c1.6-0.1,3.3,0.1,4.6-0.7c0.7-0.2,1-0.7,1.2-1.5c-0.2-0.5-0.1-0.8,0-1.2
		C215.4,32.4,213.6,18.1,213.6,18z M217,11.3c-0.4,0.6-0.5,1.1-0.6,1.5c0,0.6,1.2-0.2,1.6-1C218.4,11,217.4,11.1,217,11.3z"/>
	<path class="st1" d="M244.1,50c-1.8,6.2-4,8.4-6.4,11.4c-1,1.2-2.8,3.2-3.5,4.3c-0.5,0.6-0.2,1.6-0.5,2.2c-0.2,1.1-0.5,2.2-0.7,3.3
		c-0.5,1.6-1.2,3.1-2.3,4.5c-0.5,0.5-0.9,1-1.4,1.2c-0.5,0.3-1.3,0.4-1.8,0c-0.8-0.5-0.9-1.5-0.7-2.4c0.4-2.1,2.4-3.6,3.4-5.4
		c0.7-1.5,0.7-3.3,0.4-4.9c-0.6-5.4-2.2-10.8-2.5-16.2c0-1.4-0.1-2.8,1-3.9c0.8-1,2.3-1.3,3.4-0.8c0.3,0,0.6,0.2,0.5,0.5
		c-0.1,0.4-0.7,0.4-1,0.4c-0.5,0.2-0.8,0.5-0.8,1c-0.2,0.5-0.1,0.8,0,1.3l2.5,16.6c0,0.4,0.1,0.6,0.5,0.6c0.1,0,0.2-0.1,0.4-0.2
		c2.5-3.1,3-3.7,5.2-6.7c2.5-3.3,3.4-7.6,3.8-8.4c0.1-0.2,0.2-0.3,0.6-0.2C244.7,48.4,244.1,49.8,244.1,50z M229.5,75.3
		c0.9-1.1,1.3-2.4,1.1-3.8c0-0.1-0.1-0.1-0.1-0.2v-0.1c-0.1-0.1-0.3,0-0.3,0.1c-0.9,1.1-1.8,1.9-2.4,3.3c-0.1,0.3-0.2,0.7,0,1
		c0.3,0.4,0.8,0.4,1.3,0C229.4,75.5,229.3,75.4,229.5,75.3z"/>
	<path class="st1" d="M262.1,48.2c0.3,0.1,0.5,0.2,0.6,0.4c0.2,0.3-0.2,0.9-0.4,1.3c-1.1,2.6-2.5,4.6-4.3,7c-1,1.3-2.1,2.5-3.5,3.4
		c-1.4,0.8-3.2,1.2-4.7,0.7c-2.1-0.7-3.4-2.7-4.3-4.7l-0.6-1.7c-2.2-6.2-2-13.3-1.2-19.8c0.8-6.9,2.2-13.6,5.1-19.9
		c1.6-3.3,3.5-6.5,6.5-8.5c1.8-1.2,3.8-1.9,5.9-1.9c1.4-0.2,2.5,0.1,3.5,0.7c2.2,1.4,2.5,4.6,2.1,7.2c-0.5,4.2-1.9,8-3.7,11.7
		c-3.8,8.4-9.3,15.7-16,21.9c-0.3,0.3-0.6,0.6-0.7,0.9c-0.2,0.4-0.1,0.7-0.1,1c0.5,3.4,0.9,6.9,2.9,9.7c0.8,1.1,2,2.2,3.4,2
		c1.1-0.1,1.8-0.7,2.6-1.6c2.5-2.6,4.5-5.7,6.1-9.2C261.5,48.3,261.8,48.1,262.1,48.2z M246.2,45.3c3.8-3.5,7.6-7.6,10.5-12.1
		c2.6-4,4.7-8.2,6.5-12.5c1.2-2.9,2.2-5.8,2.6-8.9c0.2-1.7,0.4-3.4-0.8-4.8c-2.1-2.5-5.5-1.6-7.7-0.2c-2.7,1.9-4.3,4.7-5.8,7.7
		c-2.3,5.2-3.4,10.6-4.3,16.3C246.7,35.6,246,40.5,246.2,45.3z"/>
	<path class="st1" d="M286.6,48.8c-0.9,1.8-1.6,3.5-2.5,5.2c-2.9,5.3-7.2,10.1-12.3,5.8c-2.2-2-3.1-4-3.5-5.6
		c-0.1-0.3-0.1-0.8-0.4-0.6c-0.2,0.1-0.3,0.3-0.5,0.5c-0.5,0.6-1,1.2-1.9,1.9c-0.8,0.7-1.9,1.2-2.8,1c-1-0.2-1.8-0.9-2.3-1.7
		c-0.9-1.4-1.3-3.2-0.6-4.7c0.6-1.6,2.3-3,3.8-3.6c1.4-0.5,2.7-0.5,3.8,0.1c0.4,0.2,0.6,0.4,0.7,0.7c0,0.4-0.1,0.6-0.2,0.7
		c-0.5,0.2-0.8-0.1-1.1-0.3c-1.1-0.6-2.5,0.1-3.4,1.2c-0.7,1.1-1.2,2.2-1,3.6c0.1,0.9,0.5,1.8,1.4,2c0.7,0.2,1.3-0.3,1.9-0.8
		c1.2-1.3,2.1-3,2.6-4.7c0.6-1.7,1-3.4,1.6-5.2c0.2-0.5,0.5-1,1-1.3c0.8-0.2,1.3,0.4,1.6,1.3c0,0.7-0.2,1.3-0.4,2
		c-0.7,1.8-1.3,3.8-1.4,5.7c-0.1,1.4,0.4,3.4,2.3,6.3c2.2,3.4,6.1,1.2,8.3-2.1c1.4-2.2,3.1-5.2,4.2-7.6l0.2-0.5
		c0.2-0.3,0.9-0.3,1,0.2C286.7,48.6,286.7,48.5,286.6,48.8z"/>
	<path class="st1" d="M315.4,48.7c0.4,0,0.4,0.2,0.3,0.7c-0.6,4.4-3.2,11.7-7,14.8c-5.7,5.2-9.3-0.8-9.1-8.1c0.1-2,0.6-4.5-0.3-6.2
		c-1.6-2.9-4.6,0.4-5.5,1.6c-2.5,4.2-3.6,8.2-4.9,12.4c0,0.2-0.2,0.3-0.3,0.5c-0.2,0.3-0.8,0.5-1.1,0.2c-0.2-0.3-0.4-0.5-0.4-0.7
		c-0.6-1.2-0.8-2.3-1-3.4c-0.5-4.2-1.4-8.5-0.7-12.7c0.1-0.8,0.7-1.2,1.5-1.3c0.4,0,0.8,0.2,1.1,0.5c0.5,1,0.2,2.1,0.3,3
		c0,1.5,0.1,2.8,0,4.3c-0.2,1.6,0,3,0.3,4.4c0.2,0.1,0.3,0.2,0.4,0.2l0.1-0.1c0.1,0,0.2-0.1,0.2-0.1c1.2-2.9,1.8-5.7,3.8-8.3
		c1.7-2.1,3.8-4,6.7-3.2c1,0.2,1.6,0.8,2,1.9c0.8,1.9,0.7,4.3,0.4,6.4c0,2.8-0.2,10.6,5.3,8.1c1.4-0.8,4.3-5,5.2-7.6
		c0.6-2,2.1-5.2,2.1-7.3C315.1,48.8,315,48.7,315.4,48.7z"/>
	<path class="st1" d="M340.1,48.7c-1.4,4.3-2.2,7.3-4.1,11.5c-0.8,1.6-1.7,3-3.3,3.8c-1.4,0.9-3.4,0.7-4.8-0.2
		c-1.1-0.7-2-1.5-2.8-2.5c-1.8-2-3.1-4.7-3.4-7.4c0-0.2-0.2-0.2-0.3-0.2c-0.1,0-0.1,0-0.2,0.1v0.1c-0.5,1.1-0.8,2.2-1.1,3.4
		c-0.5,1.3-0.8,2.4-1.3,3.6c-1.3,2.5-4.3,1.1-5.2-1c-1-2-0.9-4.9-0.7-7.1c0.2-1.7,1-3.9,2.6-4.9c1.1-0.7,2.5-1.2,3.9-0.8
		c0.3,0.2,0.6,0.2,1.1,0.4c0.2,0,0.4-0.1,0.4-0.3c0.5-4.9,0.1-9.7,0.3-14.8c0-3.2,0.1-6.2,0.3-9.3c0.1-2.4,0.3-4.7,1.4-6.9
		c0.6-1.1,1-2.2,2.2-3c0.7-0.6,2.5-1.2,2.7,0.1c0.1,0.9,0.1,1.7-0.2,2.6c0,0.7-0.2,1.3-0.3,2c-0.8,4.5-2.2,10.3-2.6,14.8
		c-0.2,2.1-0.4,5.4-0.6,7.4c0,0.2-0.3,4.9-0.3,7.3c0,3,0.5,6.2,1.3,9.1c0.7,2.2,1.8,4.2,3.4,5.7c1,0.9,2.5,1.2,3.6,0.6
		c1.4-0.7,2.2-2.1,2.9-3.5c1.1-2.1,1.7-4.3,2.5-6.4l1.6-4.8c0.2-0.1,0.4-0.1,0.4,0C339.8,48.4,339.9,48.5,340.1,48.7z M319.2,48.1
		c-0.7-0.3-1.3-0.1-1.8,0.5c-0.9,1.2-0.9,2.5-1.1,3.9c-0.2,2.3-0.7,4.7-0.2,7.1c0.2,0.7,1,1.9,1.7,0.7c0.5-1.1,1-2.2,1.3-3.4
		c0.5-1.9,0.8-3.8,1.3-5.6c0.2-0.4,0.2-0.7,0.2-1C321,49.4,320.1,48.5,319.2,48.1z M324.1,29.6c0.1-0.2,0.2-0.5,0.2-0.7l2.2-12.1
		c0.2-1.1-0.4-0.9-0.9-0.2l-0.7,1.6c-0.3,1.1-0.4,2.2-0.4,3.2c-0.2,2.2-0.5,4.3-0.5,6.7C324,28.6,324.1,29.4,324.1,29.6z"/>
</g>
</svg>
