<?xml version="1.0" encoding="utf-8"?>
<!-- Generator: Adobe Illustrator 19.2.1, SVG Export Plug-In . SVG Version: 6.00 Build 0)  -->
<svg version="1.1" id="Layer_1" xmlns="http://www.w3.org/2000/svg" xmlns:xlink="http://www.w3.org/1999/xlink" x="0px" y="0px"
	 viewBox="0 0 345.5 112.6" style="enable-background:new 0 0 345.5 112.6;" xml:space="preserve">
<style type="text/css">
	.st0{fill:#2E3493;}
	.st1{fill:none;}
</style>
<g>
	<path class="st0" d="M124.3,75c-0.2,0.2-0.4,0.3-0.7,0.3c-1.1,0-2.3-0.5-2.9,0c-0.3,0.2-0.5,0.6-0.8,0.9c-1.6,2.2-3.8,3.9-6.3,4.4
		c-2.4,0.5-5.6-0.5-6-3.2c-0.1-1.6,0.8-3.1,2.1-3.9c0.6-0.5,1.4-0.8,2.1-0.9c-11-1-21.2,3.4-31.8,7.9c-4.4,1.9-9.1,3.8-13.8,5.4
		c-5.3,1.7-15.8,4.7-26.7,4.7c-0.2,0-0.5,0-0.8,0c-5.3-0.1-10-0.8-14-2.3c-4.7-1.7-8.4-4.2-11.2-7.6c-0.2-0.2-0.2-0.5,0.1-0.7
		c0.2-0.1,0.5-0.1,0.7,0.1c5.1,6.2,13.3,9.3,24.4,9.5C50,89.5,60.6,86.6,66,84.9c4.7-1.6,9.3-3.5,13.7-5.4
		c6.8-2.9,13.1-5.6,19.7-7.1c3.6-0.8,7-1.1,10.3-1.1c2.6,0.1,5.1,0.4,7.6,1c0.5,0.1,1.1,0.1,1.6,0.1c0.2,0,0.5,0,0.8-0.1
		c1.7-1.2,1-5,0.8-6.8c-0.5-2.9-1.4-5.6-2.5-8.1c-2.7-6.5-6.2-12.3-7.7-19.3c-0.5-2-0.9-4.9-0.8-6.8c0.1-2.6,1.1-5.9,2.8-7.9
		c2.9-3.3,7.7-1.3,9.9,1.4c0.9,1.1,1.5,2.5,1.4,3.6c0,0.2-0.1,0.6-0.4,0.7c-0.4,0-0.5-0.2-0.6-0.7c-0.1-1.7-1.4-2.9-2.6-4.1
		c-1.7-1.4-3.8-2-5.6-0.3c-1.1,1.1-1.8,2.6-2.3,4.1c-0.4,1.4-0.5,2.9-0.4,4.4c0.2,5.3,2.4,9.7,4.8,14.9c2.6,5.6,6,12.5,6.2,19
		c0,1.4-0.1,2.7-0.4,4.1c-0.2,0.8-1.2,2.3-0.3,2.9c0.5,0.3,1.1,0.5,1.6,0.6C124.3,74.2,124.6,74.5,124.3,75z M118.5,73.9
		c-1.1-0.3-2.3-0.5-3.6-0.5c-2.3,0-5.3,0.5-5.9,3.1c-0.3,1.3,0.7,2.1,1.8,2.6c2.3,0.9,4.5-0.3,6.3-1.6
		C118,76.9,120.5,74.7,118.5,73.9z"/>
	<path class="st0" d="M159.3,55.3c0.4,0,0.5,0.2,0.3,0.8c-0.6,4.4-3.2,11.7-7,14.9c-5.7,5.3-9.3-0.8-9.1-8.1c0.1-2,0.6-4.5-0.3-6.2
		c-1.6-2.9-4.7,0.4-5.5,1.7c-2.5,4.2-3.6,8.3-4.9,12.5c0,0.2-0.2,0.3-0.3,0.5c-0.2,0.3-0.8,0.5-1.1,0.2c-0.2-0.3-0.5-0.5-0.5-0.7
		c-0.6-1.2-0.8-2.3-1-3.5c-0.5-4.2-1.4-8.5-0.8-12.7c0.2-0.8,0.7-1.2,1.5-1.3c0.5,0,0.8,0.1,1.1,0.5c0.5,1,0.2,2.1,0.3,3
		c0,1.5,0.1,2.9,0,4.3c-0.2,1.6,0,3,0.3,4.4c0.2,0.2,0.3,0.2,0.4,0.2l0.1-0.1c0.1,0,0.2-0.1,0.2-0.2c1.2-2.9,1.8-5.7,3.8-8.3
		c1.7-2.1,3.8-4.1,6.8-3.2c1,0.2,1.7,0.8,2,2c0.8,1.9,0.7,4.3,0.4,6.4c0,2.9-0.2,10.6,5.3,8.1c1.4-0.8,4.3-5,5.3-7.6
		c0.6-2,2.1-5.2,2.1-7.3C159,55.4,158.9,55.2,159.3,55.3z"/>
	<path class="st0" d="M169.2,54.3c0.5,0.8,0.2,1.2,0.7,1.8c0.9,0.8,2.6,1.6,3.6,1.8c2.3,0.5,5,0.2,6.2-2l0.4-0.8
		c0.1-0.2,0.4-0.3,0.6-0.1c0.5,0.2,0.2,0.9-0.1,1.1c-1.4,3-4.8,3.3-7.8,2.7c-1.2-0.2-2.6-1.1-3.2-1.4c0,0.5-0.1,1.4-0.2,1.9
		c-0.1,0.5-0.2,0.7-0.5,2c-0.5,1.4-1.4,2.8-2.5,3.9s-2.7,1.8-4.2,1.6c-1.3-0.1-2.5-0.9-3.3-2c-0.8-1-1.1-2.3-1.4-3.7
		c-0.3-2,0-4.2,1.1-5.9c0.5-1,1.3-1.7,2.3-2c1.1-0.4,2.3-0.6,3.5-0.8c1.3-0.2,2.8-0.1,3.7,0.8C168.6,53.7,168.6,53.5,169.2,54.3z
		 M167.6,57.3H167c-1.1,0.1-2-0.3-2.9-0.9c-0.2-0.2-0.6-0.3-0.9-0.5c-0.5-0.2-0.9-0.1-1.1,0.3c-0.3,0.3-0.5,0.5-0.5,0.7
		c-0.5,1.1-0.7,2.3-0.7,3.5c0,1.5,0.2,2.8,0.7,3.9c0.5,1.1,1.6,1.3,2.7,0.9c0.7-0.2,1.1-0.6,1.6-1.1c1.1-1.1,1.7-2.4,2-3.8
		c0.1-0.5,0.3-1.2,0.2-1.9C168.2,57.6,168,57.3,167.6,57.3z M164.4,54.9c0.6,0.8,1.4,1.1,2.3,1.1c0.5-0.1,0.6-0.1,1-0.3
		c0.2-0.1,0.2-0.5,0.2-0.8c-0.3-0.9-1.7-1.9-2.6-1.7c-0.1,0.1-0.2,0.1-0.4,0.1C164.4,53.8,164.1,54.4,164.4,54.9z"/>
	<path class="st0" d="M190,62.5c-0.3,1.7-0.4,3.5-0.2,5.3c0.2,1.6,1.5,2.3,3.1,1.8c1.2-0.4,2.3-1.1,3.2-2c3.4-3.5,5.2-7.7,6.3-10.4
		c0.2-0.5,0.5-1.7,0.8-2c0.4-0.3,0.8-0.2,1,0c-0.1,0.4-0.5,1.7-0.8,2.3l-0.6,1.6c-1,2-1.6,3.8-4.4,7.7c-1.1,1.6-2.6,2.9-4.3,3.8
		c-0.9,0.5-1.8,0.8-2.8,0.8c-1.4-0.2-2.5-0.8-3.2-2c-1.1-1.8-1.6-4.1-1.5-6.2c0-1.8,0.4-3.7,0.6-5.5c0.1-0.7-0.2-1.1-0.8-1.1
		c-0.9-0.1-1.7,0.1-2.5-0.2c-0.4-0.2-2-0.6-2.5-0.6c-0.2,0-0.4,0-0.5,0.1c-0.2,0.2-0.4,0.3-0.6,0.4c-0.1,0.1-0.2,0.1-0.5,0.1
		c-0.2-0.2-0.2-0.6-0.2-0.9c0-0.5,0-0.9-0.2-1.4c-0.4-0.5-0.8-0.9-1.4-1.4c-1.3-1.4-1.9-3.3-1.9-5.3c-0.1-1.3,0.2-2.3,0.8-3.2
		c0.5-0.9,1.3-1.5,2.4-1.7c1-0.2,2.1,0.1,2.8,0.9c0.5,0.5,0.8,1.2,0.9,2c0.5,2.3-0.1,4.4-0.7,6.8c-0.1,0.5-0.1,1.1,0.1,1.6
		c0.4,0.9,1.7,1.2,2.6,1.2c1,0.1,2,0.1,2.9,0c1.9,0,2.8,1,2.7,2.9C190.7,59.2,190.3,60.8,190,62.5z M181.6,44.4
		c-0.4-0.6-1.1-0.9-1.8-0.6c-0.8,0.4-1.4,1.1-1.7,2c-0.3,2.2-0.1,4.7,1.7,6.3c0.5,0.4,1.1,0.3,1.3-0.2c0.5-1.4,0.8-2.9,1-4.4
		C182.4,46.5,182.2,45.4,181.6,44.4z"/>
	<path class="st0" d="M233.9,33.5c-2.4,3.9-5.5,7.1-9.2,9.8c-3.6,2.4-7.5,4.8-14,5.3c-1.6,0.2-2.3,0.1-3.8,0.1c-0.5,0.1-1,0.5-0.9,1
		c0,3.2,1.1,13.2,1.7,14.8c0,0.2,0.2,0.2,0.3,0.3c0.2-0.5,0.3-1.3,0.5-1.8c0.6-2,1.6-3.9,3.1-5.3c1-1,3.2-2.3,4.4-0.8
		c0.8,0.8,0.5,2.5-0.2,3.4c-0.6,0.8-1.7,1.4-2.6,2c-0.3,0.2-0.7,0.3-0.8,0.8c-0.1,0.3,0,0.6,0.3,0.9c1,2.2,2.7,3.8,4.6,5.2
		c0.8,0.4,1.4,1,2.2,1.2c0.8,0.4,1.6,0.4,2.4,0.1c0.1-0.2,0.3-0.2,0.5-0.2c0.2,0.2,0.4,0.5,0.4,0.6c0,0.2-0.2,0.6-0.5,0.8
		c-0.3,0.2-0.6,0.4-0.9,0.4c0,0-0.1,0-0.2,0.1c-1.2,0.1-2.3-0.8-3.5-1.3c-1.7-0.9-2.9-2.1-4.1-3.4c-1.1-1.1-2.1-2.6-2.5-4
		c-0.2-0.5-0.3-0.9-0.1-1.3c0.1-0.3,0.5-0.5,0.8-0.8c0.6-0.4,1.4-0.5,2-1c0.6-0.5,1.1-1,1.4-1.6c0.2-0.5,0.1-1.1-0.5-1.3
		c-0.9-0.3-1.5,0.4-2.1,0.9c-0.8,0.8-1.7,1.8-2.2,2.9c-0.5,0.9-0.8,1.7-0.8,2.6l-0.6,3.4c-0.1,0.4-0.2,0.6-0.5,0.8
		c-0.2,0.4-0.5,0.7-1.1,0.8c-1.1,0.2-2.3-0.5-2.6-1.6c-1.7-5.7-1.7-11-2.1-17c-0.2-2-0.1-2.4-1.9-3.2c-2.8-1.1-5.4-3.5-7.7-5.6
		c-5.3-5-5.9-14.1-3.7-20.9c0.6-2,1.7-3.8,3.5-5c0.4-0.3,0.8-0.4,1-0.2c0.4,0.3-0.2,0.8-0.5,1.3c-3.2,2.9-3.8,7.7-3.8,12.2
		c0.1,4.4,1.4,8.6,4.5,11.8c0.7,0.7,8.6,6.8,8.6,4.8c0.6-9.9,1.7-19.9,6.2-28.7c3-6.2,10.4-12.8,17.9-11c4.2,1.1,8.3,3.5,10.4,7.4
		C240.6,19.2,237.5,28.1,233.9,33.5z M236.2,13.6c-1.7-2.8-4.3-4.7-7.2-5.9c-5.2-2.4-11.5,0.5-14.9,4.7c-4.7,5.8-6.9,13.7-7.8,21.2
		c-0.6,3.9-0.7,8-0.5,11.9c0.1,0.4,0,0.7,0,1c0.1,0.5,0.5,0.8,1,0.9c0.9-0.1,1.8,0.1,2.9-0.1c12.2-0.4,24.2-10.8,27-22.7
		C237.6,20.9,238.1,17,236.2,13.6z"/>
	<path class="st0" d="M239.5,66.2c-1.8,0.7-3.8,0.7-5.7,0.4c-2.5-0.5-4.9-1.6-6.6-3.4c-1.8-1.8-2.7-5.5-1.9-7.9
		c0.8-3.6,4.9-7.1,7.2-4.2c0.8,0.8,1.5,2.7,0.6,3.8c-1.1,1.8-2.8,1.2-4.4,2l-0.2,0.2l-0.1,0.4c0.1,1.1,0,4.8,4.8,7.2
		c1.3,0.7,2.6,0.9,4.2,0.8c1.7-0.1,3.3-0.8,4.6-2.1c1.4-1.2,1.8-1.9,3.2-3.6c1.4-1.8,2.4-3.1,3.3-4.7c0.2,0,0.4,0,0.5,0.1
		c0.5,0.2-0.2,1.4-0.5,1.6c-1.3,1.8-2.8,3.8-4.2,5.6C242.7,64.2,241.7,65.4,239.5,66.2z M228.4,55.4c0,0.2,0.2,0.2,0.5,0.2
		c1.1-0.2,2-0.2,2.8-0.8l0.8-0.8c0.2-0.8-0.3-1.4-1-2.3c-0.3-0.2-0.6-0.2-1,0c-0.3,0.2-0.5,0.2-0.8,0.5
		C228.9,53.3,228.6,54.1,228.4,55.4z"/>
	<path class="st0" d="M267.1,54.8c0.3,0.1,0.5,0.2,0.6,0.5c0.2,0.3-0.2,0.9-0.4,1.3c-1.1,2.6-2.6,4.7-4.4,7c-1,1.3-2.1,2.5-3.5,3.4
		c-1.4,0.8-3.2,1.2-4.7,0.7c-2.1-0.7-3.5-2.7-4.3-4.7l-0.6-1.7c-2.2-6.2-2-13.3-1.2-19.8c0.8-6.9,2.2-13.7,5.1-20
		c1.6-3.3,3.5-6.5,6.5-8.6c1.8-1.2,3.8-2,5.9-2c1.4-0.1,2.6,0.1,3.5,0.7c2.2,1.4,2.5,4.6,2.1,7.2c-0.5,4.2-2,8-3.7,11.7
		c-3.8,8.4-9.3,15.7-16,21.9c-0.3,0.3-0.6,0.6-0.7,0.9c-0.2,0.4-0.2,0.8-0.1,1.1c0.5,3.4,0.9,6.9,2.9,9.7c0.8,1.1,2,2.3,3.5,2
		c1.1-0.1,1.8-0.8,2.6-1.6c2.5-2.6,4.5-5.7,6.1-9.2C266.5,54.9,266.8,54.7,267.1,54.8z M251.2,51.9c3.8-3.5,7.6-7.7,10.5-12.1
		c2.6-4,4.7-8.3,6.5-12.5c1.2-2.9,2.3-5.9,2.6-8.9c0.2-1.7,0.4-3.4-0.8-4.8c-2.1-2.5-5.5-1.6-7.7-0.2c-2.7,1.9-4.4,4.7-5.8,7.7
		c-2.3,5.2-3.4,10.7-4.3,16.3C251.7,42.2,251,47.1,251.2,51.9z"/>
	<path class="st0" d="M283.7,55.2c0.2-0.2,0.4-0.3,0.6-0.3c0.1,0,0.2,0,0.3,0.1c0.5,0.2,0.2,0.8,0,1.1c-0.2,0.2-1.2,1.6-1.8,2.4
		c-0.8,1.2-1.9,2.4-3,3.5c-0.8,0.8-1.8,1.4-2.9,1.7c-1.7,0.5-3.3,0.7-4.7,0.5c-1.9-0.3-3.8-0.8-5-2.6c-1.1-1.4-1.1-3-1.1-4.7
		c0-0.7,0.1-1.6,0.5-2.3c0.4-0.7,1.3-1,2.1-0.9c0.8,0.2,1.4,0.6,1.4,1.3c0.2,2-0.3,4.1,0.9,5.6c0.7,1.1,1.9,1.6,3.1,1.8
		c1.6,0.5,3.8-0.5,5-1.7c1-1.1,1.8-2,2.7-3.2C282.6,56.7,283.1,56,283.7,55.2z M267.6,49.8c-0.5-0.9,0-2.6,1.4-2.6
		c2.3-0.2,1.6,2.9-0.2,3.2C268.3,50.5,267.9,50.3,267.6,49.8z"/>
	<path class="st0" d="M313.7,55.3c0.4,0,0.5,0.2,0.3,0.8c-0.6,4.4-3.2,11.7-7,14.9c-5.7,5.3-9.3-0.8-9.1-8.1c0.1-2,0.6-4.5-0.3-6.2
		c-1.6-2.9-4.7,0.4-5.5,1.7c-2.5,4.2-3.6,8.3-4.9,12.5c0,0.2-0.2,0.3-0.3,0.5c-0.2,0.3-0.8,0.5-1.1,0.2c-0.2-0.3-0.5-0.5-0.5-0.7
		c-0.6-1.2-0.8-2.3-1-3.5c-0.5-4.2-1.4-8.5-0.8-12.7c0.2-0.8,0.7-1.2,1.5-1.3c0.5,0,0.8,0.1,1.1,0.5c0.5,1,0.2,2.1,0.3,3
		c0,1.5,0.1,2.9,0,4.3c-0.2,1.6,0,3,0.3,4.4c0.2,0.2,0.3,0.2,0.4,0.2l0.1-0.1c0.1,0,0.1-0.1,0.1-0.2c1.2-2.9,1.8-5.7,3.8-8.3
		c1.7-2.1,3.8-4.1,6.8-3.2c1,0.2,1.7,0.8,2,2c0.8,1.9,0.7,4.3,0.4,6.4c0,2.9-0.2,10.6,5.3,8.1c1.4-0.8,4.3-5,5.3-7.6
		c0.6-2,2.1-5.2,2.1-7.3C313.4,55.4,313.3,55.2,313.7,55.3z"/>
	<path class="st0" d="M336,66.9c-0.2,0.2-0.5,0-0.7,0c-0.7-0.4-0.8-0.4-1.6-0.6c-1.8-0.3-4.3,0-6.2,0.3c-0.4,0.1-0.8,0-1.2,0.2
		c-0.4,0.1-0.5,0.3-0.5,0.5c0.2,1.1,0.5,4.9,0.5,7.1c0.2,2.4,0.2,4.9,0.2,7.3c0,4.2-0.3,8.1-1.3,12.2c-0.7,2.6-1.7,4.4-4,5.9
		c-1.4,0.9-2.9,1.4-4.5,1.3c-2-0.2-3.8-0.7-5.3-2c-1.4-1-3-2.9-3.8-4.5c-0.5-1.4-0.6-1.9-0.8-3.3c-0.5-3.2,0.7-6.6,1.9-9.5
		c2.3-5.3,6.2-9.8,11-13.1c1.2-0.6,3-1.3,3-2.7v-0.2c-0.3-3.5,0.2-7-0.3-10.5c0-0.1-0.1-0.2-0.2-0.2c-0.1-0.2-0.3-0.1-0.3,0.1
		c-0.3,0.9-0.7,1.7-0.9,2.5c-0.7,1.7-1.7,3-3.1,4.1c-1.4,1-3.2,0.5-4.1-0.9c-1-1.7-1.4-3.6-1.1-5.6c0.2-1.2,0.7-2.3,1.2-3.4
		c0.6-1.1,2.6-2.3,3.9-2.3c0.8,0,2.7,0,3.8,1.5c0.1,0.1,0.1,0.1,0.1,0.1c0.3,0.2,0.2-0.2,0.3-0.2c0.1-0.5,0.3-2.2,0.3-3.3
		c0.1-0.4,0.8-0.7,1.1-0.7c0.4,0,1.4,0.1,1.4,1.2c0,0.9-0.1,6.5,0.2,8.3c0.2,2.6,0.2,5.3,0.5,7.9c0,0.4,0,0.6,0.1,0.8
		c0.1,0.2,0.3,0.4,0.6,0.4c0,0.1,0,0.1,0.1,0.1h0.2c2.5-0.3,4.9-0.5,7.2-0.3c0.8,0,1.9,0.2,2.5,0.9C336.4,66.5,336.3,66.9,336,66.9z
		 M323.1,70.3c-0.1-0.6,0-1.3-0.5-1.5c-0.6-0.2-3.2,1.4-3.7,1.9c-1.3,1.1-2.6,2.1-3.7,3.3c-2.3,2.3-4.1,5.1-5.5,8.1
		c-1.3,2.6-2.2,5.6-2,8.6c0.1,2.5,1.1,5.1,3,7c1.9,1.8,4.5,2.8,7.1,2.6c2-0.2,4.1-1.3,5-3c0.8-1.4,0.8-2.8,1.1-4.3
		c0.2-2,0.2-4.1,0.2-6.2C324.3,81.1,323.7,75.7,323.1,70.3z M321.5,52.7c-0.2-0.5-0.4-0.8-0.5-1c-0.4-0.5-2-1.4-3.2-0.8
		c-0.6,0.3-1.1,0.6-1.3,1.2c-0.4,0.9-0.8,1.7-1,2.7c0,0.5-0.4,3.2,0.6,4.7c0.5,1.1,1.5,1.4,2.4,0.5c0.1,0,1.2-1.6,1.6-2.5
		c0.4-1.1,0.8-2.3,1.3-3.5c0.1-0.2,0.2-0.5,0.2-0.8C321.6,53,321.6,52.8,321.5,52.7z"/>
</g>
</svg>
