<?xml version="1.0" encoding="utf-8"?>
<!-- Generator: Adobe Illustrator 15.0.0, SVG Export Plug-In . SVG Version: 6.00 Build 0)  -->
<!DOCTYPE svg PUBLIC "-//W3C//DTD SVG 1.0//EN" "http://www.w3.org/TR/2001/REC-SVG-20010904/DTD/svg10.dtd">
<svg version="1.0" xmlns="http://www.w3.org/2000/svg" xmlns:xlink="http://www.w3.org/1999/xlink" x="0px" y="0px" width="572px"
	 height="172px" viewBox="0 0 572 172" enable-background="new 0 0 572 172" xml:space="preserve">
<g id="Layer_1" display="none">
	<text transform="matrix(1 0 0 1 98.3936 113.6406)" display="inline" font-family="'AGaramondPro-Regular'" font-size="52">Time-based Media</text>
	<text transform="matrix(1 0 0 1 232 71)" display="inline" font-family="'HelveticaNeue'" font-size="22" letter-spacing="1">WHAT IS </text>
	<text transform="matrix(1 0 0 1 863 -277)" display="inline" font-family="'HelveticaNeue'" font-size="48">{{</text>
	<text transform="matrix(1 0 0 1 21 128.6406)" display="inline" font-family="'HelveticaNeue-UltraLight'" font-size="150">{</text>
	<text transform="matrix(1 0 0 1 503 128.6406)" display="inline" font-family="'HelveticaNeue-UltraLight'" font-size="150">}</text>
</g>
<g id="Layer_1_copy">
	<g>
		<path d="M117.53,105.84c0,5.461,0.104,6.24,3.12,6.501l1.664,0.155c0.312,0.209,0.208,1.145-0.104,1.301
			c-2.964-0.104-4.732-0.156-6.812-0.156s-3.9,0.052-7.229,0.156c-0.312-0.156-0.416-1.04,0-1.301l1.872-0.155
			c2.964-0.261,3.224-1.04,3.224-6.501V82.596c0-1.612,0-1.664-1.56-1.664h-2.86c-2.236,0-5.096,0.104-6.396,1.3
			c-1.248,1.144-1.768,2.288-2.34,3.588c-0.416,0.312-1.144,0.052-1.352-0.364c0.832-2.34,1.612-5.668,1.976-7.749
			c0.156-0.104,0.832-0.156,0.988,0c0.312,1.664,2.028,1.612,4.42,1.612h21.061c2.808,0,3.276-0.104,4.056-1.456
			c0.26-0.104,0.832-0.052,0.936,0.156c-0.572,2.132-0.936,6.344-0.78,7.904c-0.208,0.416-1.092,0.416-1.353,0.104
			c-0.156-1.3-0.52-3.224-1.3-3.796c-1.196-0.884-3.172-1.3-6.032-1.3h-3.692c-1.56,0-1.508,0.052-1.508,1.768V105.84z"/>
		<path d="M132.713,96.532c0-3.588-0.208-3.796-2.444-4.16l-0.988-0.156c-0.364-0.26-0.312-1.144,0.104-1.3
			c2.028,0.104,3.641,0.156,5.305,0.156s3.276-0.052,5.304-0.156c0.416,0.156,0.468,1.04,0.104,1.3l-0.988,0.156
			c-2.236,0.364-2.444,0.572-2.444,4.16v11.648c0,3.588,0.208,3.796,2.444,4.16l0.988,0.155c0.364,0.261,0.312,1.145-0.104,1.301
			c-1.976-0.104-3.692-0.156-5.304-0.156c-1.664,0-3.276,0.052-5.305,0.156c-0.416-0.156-0.468-1.04-0.104-1.301l0.988-0.155
			c2.236-0.364,2.444-0.572,2.444-4.16V96.532z"/>
		<path d="M157.882,104.488c0.364,0.676,1.664,3.016,1.872,3.172c0.208-0.104,1.144-1.768,2.132-3.64l2.6-4.992
			c2.496-4.784,2.756-5.668,3.588-8.112c1.144,0.104,2.184,0.156,3.016,0.156c1.248,0,2.756-0.052,4.265-0.156
			c0.468,0.156,0.52,1.04,0.156,1.3l-1.144,0.156c-2.392,0.312-2.496,1.3-2.496,4.368c0,5.512,0,9.932,0.26,13.053
			c0.104,1.144,0.104,2.392,1.716,2.548l1.508,0.155c0.364,0.209,0.364,1.093-0.052,1.301c-1.872-0.104-3.9-0.156-5.2-0.156
			c-1.508,0-3.12,0.052-4.576,0.156c-0.364-0.26-0.416-1.092-0.052-1.301l1.145-0.155c1.664-0.208,1.664-0.624,1.664-2.704V97.624
			c0-0.624,0-1.404-0.156-1.508c-0.156,0-1.508,2.6-2.236,3.952l-3.172,5.98c-0.416,0.779-3.12,6.188-3.692,7.852
			c-0.26,0.208-0.676,0.208-0.988,0c-0.572-1.872-2.184-5.2-3.068-6.916l-3.38-6.552c-0.572-1.144-1.664-3.9-2.08-4.056
			c-0.208,0.26-0.26,3.744-0.312,5.2c-0.052,2.08-0.104,4.264-0.104,6.812c0,2.652,0.052,3.796,1.508,3.952l1.716,0.155
			c0.364,0.209,0.312,1.093-0.052,1.301c-1.353-0.104-2.86-0.156-4.265-0.156c-1.144,0-2.704,0.052-4.316,0.156
			c-0.364-0.208-0.416-1.04,0-1.301l1.092-0.155c1.716-0.261,1.872-0.78,2.132-2.601c0.416-2.808,0.728-11.18,0.728-14.716
			c0-1.664-0.572-2.444-2.34-2.652l-1.248-0.156c-0.312-0.26-0.364-1.092,0.104-1.3c1.404,0.104,2.6,0.156,4.004,0.156
			c1.04,0,2.132,0,3.796-0.156c0,2.288,0.937,3.952,2.704,7.384L157.882,104.488z"/>
		<path d="M182.685,96.532c0-3.588-0.208-3.744-2.185-4.16l-0.728-0.156c-0.364-0.208-0.312-1.092,0.104-1.3
			c1.508,0.104,3.12,0.156,4.836,0.156h7.384c2.288,0,4.368-0.052,4.836-0.156c0.052,0.624,0.312,3.068,0.572,5.304
			c-0.208,0.416-1.04,0.468-1.352,0.104c-0.312-1.353-0.624-2.028-0.936-2.496c-0.832-1.248-3.172-1.248-4.42-1.248h-2.288
			c-1.82,0-1.872,0.052-1.872,1.664v5.772c0,0.936,0,1.04,0.988,1.04h2.444c2.756,0,3.017-0.416,3.433-1.976l0.26-0.988
			c0.26-0.364,1.04-0.312,1.3,0.104c-0.104,1.508-0.104,2.444-0.104,3.64c0,1.3,0,2.236,0.104,3.744
			c-0.26,0.416-1.04,0.469-1.3,0.104l-0.26-0.988c-0.416-1.56-0.676-1.976-3.433-1.976h-2.444c-0.988,0-0.988,0.156-0.988,1.196
			v3.744c0,1.561,0.104,3.172,0.572,3.744c0.468,0.521,1.404,0.729,4.368,0.729c3.328,0,5.252-0.156,6.76-4.316
			c0.364-0.364,1.196-0.26,1.352,0.208c-0.26,2.185-0.988,4.784-1.56,5.772c-3.276-0.104-6.032-0.156-8.84-0.156h-4.576
			c-1.664,0-3.276,0.052-5.772,0.156c-0.416-0.156-0.468-1.04-0.104-1.301l1.404-0.155c2.236-0.261,2.444-0.572,2.444-4.16V96.532z"
			/>
		<path d="M214.717,100.796c0.572,0.364,0.78,0.988,0.78,1.664c0,0.521-0.156,0.988-0.416,1.3l-12.117,1.144
			c-0.572-0.468-0.78-1.144-0.78-1.664s0.156-0.988,0.416-1.3L214.717,100.796z"/>
		<path d="M222.62,97.156c0-3.38-0.052-4.212-1.508-4.42l-1.612-0.208c-0.468-0.156-0.416-1.144,0.052-1.3
			c2.6-0.208,5.668-0.312,8.685-0.312c2.548,0,4.68,0.052,6.604,0.78c1.871,0.676,3.275,2.132,3.275,4.576
			c0,2.236-1.508,3.64-4.16,4.576c-0.208,0.364,0.156,0.416,1.301,0.676c1.871,0.416,4.628,2.08,4.628,5.668
			c0,2.808-1.404,4.42-3.433,5.408c-1.976,0.937-4.628,1.196-7.072,1.196c-1.04,0-2.756-0.156-4.628-0.156
			c-1.664,0-3.432,0.052-5.46,0.156c-0.416-0.156-0.468-1.04-0.104-1.301l0.988-0.155c2.236-0.364,2.444-0.572,2.444-4.16V97.156z
			 M226.572,99.912c0,0.832,0.104,0.884,1.768,0.884c3.276,0,5.513-0.78,5.513-4.056c0-3.12-2.34-4.316-4.992-4.316
			c-2.185,0-2.288,0.468-2.288,1.404V99.912z M226.572,108.232c0,3.12,0.676,4.057,3.899,4.057c2.601,0,5.045-1.196,5.045-4.629
			c0-4.108-3.12-5.356-6.5-5.356c-2.341,0-2.444,0.208-2.444,0.884V108.232z"/>
		<path d="M250.647,105.58c-1.196,0-1.353,0.053-1.769,1.248l-1.196,3.328c-0.571,1.664-0.416,1.872,0.572,2.08l1.404,0.26
			c0.416,0.261,0.364,1.196-0.156,1.301c-1.3-0.104-2.652-0.156-4.107-0.156c-1.457,0-2.705,0.104-3.641,0.156
			c-0.468-0.208-0.468-1.04-0.104-1.301l1.195-0.26c1.612-0.363,2.185-0.936,3.225-3.432l4.992-11.961
			c0.884-2.132,1.248-3.38,1.352-4.368c0.937-0.364,1.924-1.352,2.185-1.976c0.416-0.156,0.728-0.052,0.832,0.26
			c0.208,0.52,1.04,3.224,2.235,6.396l4.681,12.428c0.624,1.717,1.092,2.393,2.964,2.757l0.832,0.155
			c0.469,0.261,0.364,1.196-0.156,1.301c-1.352-0.104-2.548-0.156-4.315-0.156c-1.872,0-3.38,0.052-4.681,0.156
			c-0.52-0.156-0.572-1.092-0.104-1.301l1.04-0.155c1.352-0.208,1.3-0.521,0.676-2.132l-1.248-3.381
			c-0.416-1.195-0.572-1.248-1.769-1.248H250.647z M254.755,103.916c1.353,0,1.509-0.104,0.937-1.612l-1.612-4.42
			c-0.416-1.196-0.624-1.612-0.779-1.872h-0.104c-0.156,0.208-0.364,0.676-0.832,1.769l-1.872,4.628
			c-0.572,1.404-0.468,1.508,0.676,1.508H254.755z"/>
		<path d="M273.787,103.032c-2.496-1.3-4.628-3.328-4.628-6.24c0-3.796,2.912-6.448,8.164-6.448c1.82,0,3.068,0.468,4.836,0.78
			c0.416,0.884,0.78,2.86,0.729,5.096c-0.156,0.416-1.093,0.468-1.353,0.104c-0.416-1.82-1.769-4.473-4.836-4.473
			c-3.068,0-4.212,1.769-4.212,3.536c0,1.872,1.403,3.017,3.483,4.108l3.225,1.664c1.872,0.936,4.212,3.12,4.212,6.604
			c0,4.056-3.328,6.604-8.477,6.604c-3.172,0-5.252-1.093-5.98-1.612c-0.468-0.729-1.092-2.601-1.092-5.356
			c0.208-0.52,0.988-0.572,1.353-0.104c0.416,1.871,2.704,5.563,6.188,5.563c2.651,0,4.367-1.352,4.367-3.744
			c0-1.664-0.676-3.38-3.64-4.888L273.787,103.032z"/>
		<path d="M290.842,96.532c0-3.588-0.208-3.744-2.184-4.16l-0.729-0.156c-0.364-0.208-0.312-1.092,0.104-1.3
			c1.508,0.104,3.12,0.156,4.836,0.156h7.385c2.287,0,4.367-0.052,4.836-0.156c0.052,0.624,0.312,3.068,0.572,5.304
			c-0.209,0.416-1.041,0.468-1.353,0.104c-0.312-1.353-0.624-2.028-0.937-2.496c-0.832-1.248-3.172-1.248-4.42-1.248h-2.288
			c-1.819,0-1.872,0.052-1.872,1.664v5.772c0,0.936,0,1.04,0.988,1.04h2.444c2.756,0,3.016-0.416,3.432-1.976l0.261-0.988
			c0.26-0.364,1.039-0.312,1.3,0.104c-0.104,1.508-0.104,2.444-0.104,3.64c0,1.3,0,2.236,0.104,3.744
			c-0.261,0.416-1.04,0.469-1.3,0.104l-0.261-0.988c-0.416-1.56-0.676-1.976-3.432-1.976h-2.444c-0.988,0-0.988,0.156-0.988,1.196
			v3.744c0,1.561,0.104,3.172,0.572,3.744c0.468,0.521,1.404,0.729,4.368,0.729c3.328,0,5.252-0.156,6.761-4.316
			c0.363-0.364,1.195-0.26,1.352,0.208c-0.26,2.185-0.988,4.784-1.561,5.772c-3.275-0.104-6.031-0.156-8.84-0.156h-4.576
			c-1.664,0-3.276,0.052-5.772,0.156c-0.416-0.156-0.468-1.04-0.104-1.301l1.403-0.155c2.236-0.261,2.444-0.572,2.444-4.16V96.532z"
			/>
		<path d="M314.138,97.156c0-3.38-0.052-4.265-1.248-4.42l-1.56-0.208c-0.468-0.156-0.416-1.144,0.052-1.3
			c2.912-0.208,5.824-0.312,10.036-0.312c2.912,0,5.46,0.312,7.904,1.144c4.732,1.612,7.177,5.408,7.177,10.192
			c0,4.108-2.133,7.904-6.293,10.037c-2.34,1.195-5.252,1.611-7.852,1.611c-2.34,0-4.681-0.26-6.24-0.26
			c-1.664,0-3.276,0.052-5.305,0.156c-0.416-0.156-0.468-1.04-0.104-1.301l0.988-0.155c2.235-0.364,2.443-0.572,2.443-4.16V97.156z
			 M318.09,107.4c0,3.328,0.521,4.992,4.473,4.992c6.24,0,9.308-3.9,9.308-10.244c0-6.396-4.472-9.725-10.348-9.725
			c-1.717,0-2.704,0.208-3.12,0.572c-0.312,0.208-0.312,0.884-0.312,2.028V107.4z"/>
		<path d="M371.702,99.756c1.196,2.444,2.34,4.836,3.588,7.125h0.104c1.404-2.444,2.704-5.148,4.004-7.801l4.889-9.933
			c2.34-4.732,3.848-7.592,3.952-9.984c1.768,0.156,2.859,0.156,3.899,0.156c1.301,0,3.017-0.052,4.629-0.156
			c0.312,0.208,0.312,1.092,0.052,1.3l-1.092,0.104c-3.276,0.312-3.692,1.3-3.641,4.94c0.104,5.512,0.156,15.132,0.572,22.621
			c0.156,2.6,0.104,4.004,2.548,4.212l1.664,0.155c0.312,0.312,0.261,1.093-0.104,1.301c-2.133-0.104-4.265-0.156-6.137-0.156
			c-1.82,0-4.16,0.052-6.292,0.156c-0.364-0.26-0.416-0.988-0.104-1.301l1.508-0.155c2.548-0.261,2.548-1.093,2.548-4.421
			l-0.156-21.685h-0.104c-0.364,0.572-2.341,4.732-3.38,6.761l-4.629,9.1c-2.34,4.576-4.68,9.464-5.616,11.857
			c-0.104,0.155-0.312,0.207-0.52,0.207c-0.104,0-0.364-0.052-0.468-0.207c-0.885-2.757-3.381-7.853-4.576-10.401l-4.681-10.037
			c-1.092-2.392-2.185-5.096-3.328-7.488h-0.104c-0.207,3.225-0.363,6.24-0.52,9.257c-0.156,3.172-0.364,7.8-0.364,12.22
			c0,3.849,0.312,4.681,2.341,4.837l1.976,0.155c0.364,0.312,0.312,1.145-0.052,1.301c-1.769-0.104-3.797-0.156-5.772-0.156
			c-1.664,0-3.536,0.052-5.304,0.156c-0.312-0.26-0.416-1.04-0.104-1.301l1.144-0.155c2.185-0.312,2.912-0.624,3.225-4.265
			c0.312-3.432,0.572-6.292,0.884-11.44c0.261-4.316,0.468-8.736,0.572-11.596c0.104-3.276-0.312-4.056-3.484-4.472l-0.832-0.104
			c-0.26-0.312-0.208-1.092,0.208-1.3c1.561,0.104,2.809,0.156,4.108,0.156c1.196,0,2.601,0,4.316-0.156
			c-0.208,2.028,1.092,5.252,2.704,8.581L371.702,99.756z"/>
		<path d="M404.357,96.532c0-3.588-0.208-3.744-2.184-4.16l-0.729-0.156c-0.364-0.208-0.312-1.092,0.104-1.3
			c1.508,0.104,3.12,0.156,4.836,0.156h7.385c2.287,0,4.367-0.052,4.836-0.156c0.052,0.624,0.312,3.068,0.572,5.304
			c-0.209,0.416-1.041,0.468-1.353,0.104c-0.312-1.353-0.624-2.028-0.937-2.496c-0.832-1.248-3.172-1.248-4.42-1.248h-2.288
			c-1.819,0-1.872,0.052-1.872,1.664v5.772c0,0.936,0,1.04,0.988,1.04h2.444c2.756,0,3.016-0.416,3.432-1.976l0.261-0.988
			c0.26-0.364,1.039-0.312,1.3,0.104c-0.104,1.508-0.104,2.444-0.104,3.64c0,1.3,0,2.236,0.104,3.744
			c-0.261,0.416-1.04,0.469-1.3,0.104l-0.261-0.988c-0.416-1.56-0.676-1.976-3.432-1.976h-2.444c-0.988,0-0.988,0.156-0.988,1.196
			v3.744c0,1.561,0.104,3.172,0.572,3.744c0.468,0.521,1.404,0.729,4.368,0.729c3.328,0,5.252-0.156,6.761-4.316
			c0.363-0.364,1.195-0.26,1.352,0.208c-0.26,2.185-0.988,4.784-1.561,5.772c-3.275-0.104-6.031-0.156-8.84-0.156h-4.576
			c-1.664,0-3.276,0.052-5.772,0.156c-0.416-0.156-0.468-1.04-0.104-1.301l1.403-0.155c2.236-0.261,2.444-0.572,2.444-4.16V96.532z"
			/>
		<path d="M427.653,97.156c0-3.38-0.052-4.265-1.248-4.42l-1.56-0.208c-0.468-0.156-0.416-1.144,0.052-1.3
			c2.912-0.208,5.824-0.312,10.036-0.312c2.912,0,5.46,0.312,7.904,1.144c4.732,1.612,7.177,5.408,7.177,10.192
			c0,4.108-2.133,7.904-6.293,10.037c-2.34,1.195-5.252,1.611-7.852,1.611c-2.34,0-4.681-0.26-6.24-0.26
			c-1.664,0-3.276,0.052-5.305,0.156c-0.416-0.156-0.468-1.04-0.104-1.301l0.988-0.155c2.235-0.364,2.443-0.572,2.443-4.16V97.156z
			 M431.605,107.4c0,3.328,0.521,4.992,4.473,4.992c6.24,0,9.308-3.9,9.308-10.244c0-6.396-4.472-9.725-10.348-9.725
			c-1.717,0-2.704,0.208-3.12,0.572c-0.312,0.208-0.312,0.884-0.312,2.028V107.4z"/>
		<path d="M457.449,96.532c0-3.588-0.208-3.796-2.444-4.16l-0.987-0.156c-0.364-0.26-0.312-1.144,0.104-1.3
			c2.028,0.104,3.641,0.156,5.305,0.156s3.276-0.052,5.304-0.156c0.416,0.156,0.469,1.04,0.104,1.3l-0.988,0.156
			c-2.236,0.364-2.444,0.572-2.444,4.16v11.648c0,3.588,0.208,3.796,2.444,4.16l0.988,0.155c0.364,0.261,0.312,1.145-0.104,1.301
			c-1.976-0.104-3.691-0.156-5.304-0.156c-1.664,0-3.276,0.052-5.305,0.156c-0.416-0.156-0.468-1.04-0.104-1.301l0.987-0.155
			c2.236-0.364,2.444-0.572,2.444-4.16V96.532z"/>
		<path d="M475.337,105.58c-1.196,0-1.353,0.053-1.769,1.248l-1.196,3.328c-0.571,1.664-0.416,1.872,0.572,2.08l1.404,0.26
			c0.416,0.261,0.364,1.196-0.156,1.301c-1.3-0.104-2.652-0.156-4.107-0.156c-1.457,0-2.705,0.104-3.641,0.156
			c-0.468-0.208-0.468-1.04-0.104-1.301l1.195-0.26c1.612-0.363,2.185-0.936,3.225-3.432l4.992-11.961
			c0.884-2.132,1.248-3.38,1.352-4.368c0.937-0.364,1.924-1.352,2.185-1.976c0.416-0.156,0.728-0.052,0.832,0.26
			c0.208,0.52,1.04,3.224,2.235,6.396l4.681,12.428c0.624,1.717,1.092,2.393,2.964,2.757l0.832,0.155
			c0.469,0.261,0.364,1.196-0.156,1.301c-1.352-0.104-2.548-0.156-4.315-0.156c-1.872,0-3.38,0.052-4.681,0.156
			c-0.52-0.156-0.572-1.092-0.104-1.301l1.04-0.155c1.352-0.208,1.3-0.521,0.676-2.132l-1.248-3.381
			c-0.416-1.195-0.572-1.248-1.769-1.248H475.337z M479.444,103.916c1.353,0,1.509-0.104,0.937-1.612l-1.612-4.42
			c-0.416-1.196-0.624-1.612-0.779-1.872h-0.104c-0.156,0.208-0.364,0.676-0.832,1.769l-1.872,4.628
			c-0.572,1.404-0.468,1.508,0.676,1.508H479.444z"/>
	</g>
	<g>
		<path d="M245.728,71l-3.586-13.2h-0.044l-3.63,13.2h-2.178l-4.026-15.708h2.134l3.08,13.068h0.044l3.52-13.068h2.266l3.476,13.068
			h0.044l3.19-13.068h2.09L247.906,71H245.728z"/>
		<path d="M257.872,55.292v6.754h8.272v-6.754h2.09V71h-2.09v-7.194h-8.272V71h-2.09V55.292H257.872z"/>
		<path d="M279.938,55.292L286.076,71h-2.311l-1.717-4.73h-6.643L273.646,71h-2.134l6.115-15.708H279.938z M281.39,64.51
			l-2.618-7.326h-0.044l-2.662,7.326H281.39z"/>
		<path d="M285.613,57.052v-1.76h12.562v1.76h-5.236V71h-2.09V57.052H285.613z"/>
		<path d="M311.595,55.292V71h-2.09V55.292H311.595z"/>
		<path d="M324.674,57.437c-0.697-0.506-1.588-0.759-2.673-0.759c-0.44,0-0.873,0.044-1.298,0.132
			c-0.426,0.088-0.804,0.235-1.134,0.44c-0.329,0.206-0.594,0.48-0.792,0.825c-0.197,0.345-0.297,0.773-0.297,1.287
			c0,0.484,0.144,0.877,0.43,1.177c0.285,0.301,0.667,0.546,1.144,0.737c0.477,0.191,1.016,0.349,1.617,0.473
			c0.602,0.125,1.213,0.261,1.837,0.407c0.623,0.147,1.235,0.319,1.837,0.517c0.602,0.198,1.141,0.466,1.617,0.803
			s0.857,0.763,1.144,1.276c0.286,0.514,0.43,1.159,0.43,1.936c0,0.836-0.188,1.551-0.562,2.145
			c-0.374,0.594-0.854,1.078-1.44,1.452c-0.587,0.374-1.243,0.646-1.97,0.814c-0.726,0.168-1.448,0.253-2.167,0.253
			c-0.88,0-1.712-0.11-2.497-0.33c-0.784-0.22-1.474-0.553-2.067-1.001c-0.595-0.447-1.063-1.019-1.408-1.716
			s-0.517-1.521-0.517-2.475h1.979c0,0.66,0.128,1.229,0.385,1.705s0.595,0.869,1.013,1.177s0.905,0.536,1.463,0.682
			c0.557,0.147,1.129,0.22,1.716,0.22c0.469,0,0.942-0.044,1.419-0.132s0.905-0.238,1.287-0.451
			c0.381-0.212,0.689-0.502,0.924-0.869s0.352-0.836,0.352-1.408c0-0.542-0.143-0.982-0.429-1.32s-0.667-0.612-1.144-0.825
			c-0.478-0.212-1.016-0.385-1.617-0.517c-0.602-0.132-1.214-0.267-1.837-0.407c-0.624-0.139-1.236-0.3-1.837-0.484
			c-0.602-0.184-1.141-0.425-1.617-0.726c-0.477-0.3-0.858-0.689-1.145-1.166c-0.285-0.477-0.429-1.074-0.429-1.793
			c0-0.792,0.161-1.478,0.484-2.057c0.322-0.579,0.751-1.056,1.287-1.43c0.535-0.374,1.144-0.652,1.825-0.836
			c0.683-0.183,1.383-0.275,2.102-0.275c0.807,0,1.555,0.096,2.244,0.286c0.689,0.191,1.294,0.492,1.814,0.902
			c0.521,0.411,0.932,0.928,1.232,1.551s0.465,1.368,0.495,2.233h-1.98C325.777,58.761,325.37,57.943,324.674,57.437z"/>
	</g>
	<g>
		<path d="M875.432-309.208c-0.479,0-0.863,0.12-1.151,0.36c-0.288,0.24-0.521,0.552-0.696,0.936
			c-0.176,0.384-0.296,0.824-0.36,1.32s-0.096,1-0.096,1.512v8.784c0,1.121-0.168,2.072-0.504,2.856
			c-0.336,0.785-0.729,1.433-1.176,1.944c-0.449,0.512-0.904,0.896-1.368,1.152c-0.464,0.257-0.84,0.417-1.128,0.48v0.144
			c0.288,0.032,0.664,0.161,1.128,0.384c0.464,0.224,0.919,0.584,1.368,1.08c0.447,0.497,0.84,1.145,1.176,1.944
			c0.336,0.8,0.504,1.808,0.504,3.024v8.736c0,0.48,0.031,0.967,0.096,1.464c0.064,0.496,0.185,0.943,0.36,1.344
			c0.176,0.4,0.408,0.72,0.696,0.96c0.288,0.24,0.672,0.36,1.151,0.36h2.4v2.88h-3.36c-0.608,0-1.216-0.137-1.823-0.408
			c-0.608-0.272-1.161-0.672-1.656-1.2c-0.497-0.528-0.904-1.185-1.225-1.968c-0.32-0.784-0.479-1.688-0.479-2.712v-8.688
			c0-0.864-0.112-1.648-0.336-2.352c-0.225-0.704-0.521-1.296-0.888-1.776c-0.369-0.48-0.792-0.848-1.272-1.104
			c-0.48-0.256-0.977-0.384-1.488-0.384v-3.264c0.512,0,1.008-0.136,1.488-0.408c0.48-0.271,0.903-0.655,1.272-1.152
			c0.367-0.496,0.663-1.096,0.888-1.8c0.224-0.704,0.336-1.472,0.336-2.304v-8.736c0-1.024,0.159-1.928,0.479-2.712
			c0.32-0.784,0.728-1.44,1.225-1.968c0.495-0.528,1.048-0.928,1.656-1.2c0.607-0.271,1.215-0.408,1.823-0.408h3.36v2.88H875.432z"
			/>
		<path d="M891.415-309.208c-0.479,0-0.863,0.12-1.151,0.36c-0.288,0.24-0.521,0.552-0.696,0.936
			c-0.176,0.384-0.296,0.824-0.36,1.32s-0.096,1-0.096,1.512v8.784c0,1.121-0.168,2.072-0.504,2.856
			c-0.336,0.785-0.729,1.433-1.176,1.944c-0.449,0.512-0.904,0.896-1.368,1.152c-0.464,0.257-0.84,0.417-1.128,0.48v0.144
			c0.288,0.032,0.664,0.161,1.128,0.384c0.464,0.224,0.919,0.584,1.368,1.08c0.447,0.497,0.84,1.145,1.176,1.944
			c0.336,0.8,0.504,1.808,0.504,3.024v8.736c0,0.48,0.031,0.967,0.096,1.464c0.064,0.496,0.185,0.943,0.36,1.344
			c0.176,0.4,0.408,0.72,0.696,0.96c0.288,0.24,0.672,0.36,1.151,0.36h2.4v2.88h-3.36c-0.608,0-1.216-0.137-1.823-0.408
			c-0.608-0.272-1.161-0.672-1.656-1.2c-0.497-0.528-0.904-1.185-1.225-1.968c-0.32-0.784-0.479-1.688-0.479-2.712v-8.688
			c0-0.864-0.112-1.648-0.336-2.352c-0.225-0.704-0.521-1.296-0.888-1.776c-0.369-0.48-0.792-0.848-1.272-1.104
			c-0.48-0.256-0.977-0.384-1.488-0.384v-3.264c0.512,0,1.008-0.136,1.488-0.408c0.48-0.271,0.903-0.655,1.272-1.152
			c0.367-0.496,0.663-1.096,0.888-1.8c0.224-0.704,0.336-1.472,0.336-2.304v-8.736c0-1.024,0.159-1.928,0.479-2.712
			c0.32-0.784,0.728-1.44,1.225-1.968c0.495-0.528,1.048-0.928,1.656-1.2c0.607-0.271,1.215-0.408,1.823-0.408h3.36v2.88H891.415z"
			/>
	</g>
	<g>
		<path d="M46.875,150.99c-1.552-2.7-2.325-6.9-2.325-12.6V114.09c0-6.098-0.701-11.224-2.1-15.375
			c-1.402-4.148-4.301-7.674-8.7-10.575v-3c1.699-0.3,3.199-1.2,4.5-2.7c1.298-1.5,2.423-3.398,3.375-5.7
			c0.949-2.299,1.673-4.898,2.175-7.8c0.5-2.899,0.75-5.85,0.75-8.85V35.34c0-5.7,0.773-9.849,2.325-12.45
			c1.549-2.599,4.425-3.9,8.625-3.9H63v3h-7.2c-3,0-5.125,1.125-6.375,3.375c-1.251,2.25-1.875,6.476-1.875,12.675v24.6
			c0,2.201-0.201,4.552-0.6,7.05c-0.401,2.501-1.05,4.901-1.95,7.2c-0.9,2.302-2.025,4.35-3.375,6.15
			c-1.35,1.8-2.977,3.101-4.875,3.9c3.3,1.601,5.925,4.676,7.875,9.225c1.95,4.552,2.925,9.675,2.925,15.375v24.149
			c0,3.301,0.174,6.023,0.525,8.176c0.349,2.148,0.848,3.824,1.5,5.025c0.649,1.199,1.5,2.024,2.55,2.475
			c1.05,0.449,2.273,0.675,3.675,0.675H63v3h-7.5C51.3,155.04,48.424,153.689,46.875,150.99z"/>
	</g>
	<g>
		<path d="M527.075,23.041c1.549,2.7,2.325,6.9,2.325,12.6v24.45c0,6.101,0.698,11.25,2.1,15.45c1.399,4.2,4.299,7.702,8.7,10.5v3
			c-1.601,0.3-3.075,1.2-4.425,2.7c-1.351,1.5-2.501,3.401-3.45,5.7c-0.952,2.302-1.676,4.901-2.175,7.8
			c-0.502,2.902-0.75,5.851-0.75,8.851v24.6c0,5.7-0.776,9.849-2.325,12.45c-1.552,2.6-4.425,3.9-8.625,3.9h-7.5v-3h7.2
			c3,0,5.123-1.125,6.375-3.375c1.249-2.25,1.875-6.477,1.875-12.676v-24.449c0-2.199,0.199-4.55,0.6-7.051
			c0.398-2.498,1.05-4.898,1.95-7.2c0.899-2.299,2.024-4.35,3.375-6.15c1.35-1.8,2.974-3.099,4.875-3.9
			c-3.3-1.599-5.925-4.673-7.875-9.225c-1.95-4.549-2.925-9.675-2.925-15.375v-24.3c0-3.3-0.176-6.023-0.525-8.175
			c-0.352-2.149-0.851-3.825-1.5-5.025c-0.651-1.2-1.5-2.025-2.55-2.475c-1.05-0.45-2.276-0.675-3.675-0.675h-7.2v-3h7.5
			C522.65,18.991,525.523,20.341,527.075,23.041z"/>
	</g>
</g>
</svg>
