<?xml version="1.0" encoding="utf-8"?>
<!-- Generator: Adobe Illustrator 17.1.0, SVG Export Plug-In . SVG Version: 6.00 Build 0)  -->
<!DOCTYPE svg PUBLIC "-//W3C//DTD SVG 1.1//EN" "http://www.w3.org/Graphics/SVG/1.1/DTD/svg11.dtd">
<svg version="1.1" xmlns="http://www.w3.org/2000/svg" xmlns:xlink="http://www.w3.org/1999/xlink" x="0px" y="0px"
	 viewBox="0 0 141.667 48.26" enable-background="new 0 0 141.667 48.26" xml:space="preserve">
<g id="Bleeding">
</g>
<g id="Crop_mark">
</g>
<g id="info">
</g>
<g id="Layer_4">
	<g>
		<path fill="#FFFFFF" d="M85.334,39.898l-0.593,1.368h-0.6l2.268-5.051l2.209,5.051h-0.606l-0.58-1.368H85.334z M86.395,37.468
			l-0.84,1.931h1.661L86.395,37.468z"/>
		<path fill="#FFFFFF" d="M89.702,41.266h-0.548v-4.821h0.71c0.932,0,1.799,0.243,1.799,1.33c0,0.742-0.476,1.266-1.231,1.33
			l1.563,2.161h-0.671l-1.485-2.116h-0.137V41.266z M89.702,38.677h0.169c0.619,0,1.244-0.115,1.244-0.863
			c0-0.792-0.593-0.869-1.251-0.869h-0.162V38.677z"/>
		<path fill="#FFFFFF" d="M93.861,41.266h-0.547v-4.322h-1.186v-0.499h2.932v0.499h-1.199V41.266z"/>
		<path fill="#FFFFFF" d="M98.491,36.446h2.548v0.499h-2.001v1.432h1.942v0.499h-1.942v1.893h2.001v0.499h-2.548V36.446z"/>
		<path fill="#FFFFFF" d="M101.686,36.446h0.625l1.003,1.816l1.004-1.816h0.625l-1.329,2.327l1.453,2.494h-0.625l-1.128-1.982
			l-1.127,1.982h-0.625l1.453-2.494L101.686,36.446z"/>
		<path fill="#FFFFFF" d="M106.196,41.266h-0.547v-4.821h0.808c0.424,0,0.86,0.013,1.219,0.256c0.365,0.25,0.554,0.671,0.554,1.1
			c0,0.39-0.163,0.787-0.469,1.036c-0.333,0.269-0.756,0.32-1.167,0.32h-0.397V41.266z M106.196,38.658h0.365
			c0.606,0,1.121-0.179,1.121-0.87c0-0.787-0.646-0.844-1.284-0.844h-0.202V38.658z"/>
		<path fill="#FFFFFF" d="M108.928,36.446h2.548v0.499h-2.001v1.432h1.942v0.499h-1.942v1.893h2.001v0.499h-2.548V36.446z"/>
		<path fill="#FFFFFF" d="M112.958,41.266h-0.548v-4.821h0.71c0.932,0,1.799,0.243,1.799,1.33c0,0.742-0.476,1.266-1.231,1.33
			l1.563,2.161h-0.671l-1.485-2.116h-0.137V41.266z M112.958,38.677h0.169c0.619,0,1.244-0.115,1.244-0.863
			c0-0.792-0.593-0.869-1.251-0.869h-0.162V38.677z"/>
		<path fill="#FFFFFF" d="M116.504,41.266h-0.548v-4.821h0.548V41.266z"/>
		<path fill="#FFFFFF" d="M118.139,36.171l1.785,4.047l1.792-4.047l0.997,5.096h-0.561l-0.632-3.261h-0.014l-1.583,3.459
			l-1.577-3.459h-0.013l-0.632,3.261h-0.561L118.139,36.171z"/>
		<path fill="#FFFFFF" d="M123.341,36.446h2.548v0.499h-2v1.432h1.941v0.499h-1.941v1.893h2v0.499h-2.548V36.446z"/>
		<path fill="#FFFFFF" d="M126.855,36.241l3.831,3.938v-3.734h0.548v5.038l-3.831-3.932v3.714h-0.548V36.241z"/>
		<path fill="#FFFFFF" d="M133.562,41.266h-0.547v-4.322h-1.186v-0.499h2.932v0.499h-1.199V41.266z"/>
	</g>
	<g>
		<g>
			<path fill="#FFFFFF" d="M8.16,24.313c-0.087,3.385,2.257,5.642,5.353,5.642c2.083,0,3.761-1.244,4.716-3.038l1.099,0.636
				c-1.215,2.314-3.355,3.616-5.988,3.616c-3.964,0-6.48-3.211-6.48-7.001c0-3.732,2.575-6.943,6.48-6.943
				c4.051,0,6.451,3.24,6.423,7.088H8.16z M18.46,23.098c-0.318-2.459-2.344-4.658-5.092-4.658c-2.72,0-4.977,2.141-5.208,4.658
				H18.46z"/>
			<path fill="#FFFFFF" d="M33.355,28.479h-0.058c-0.984,1.707-3.125,2.69-5.092,2.69c-4.051,0-6.597-3.153-6.597-7.059
				c0-3.906,2.517-6.886,6.538-6.886c2.055,0,4.021,0.926,5.15,2.604h0.058V7.013h1.302v23.868h-1.302V28.479z M33.442,23.966
				c0-3.095-2.112-5.526-5.353-5.526c-3.066,0-5.179,2.777-5.179,5.671c0,3.066,2.025,5.844,5.266,5.844
				C31.59,29.955,33.442,27.177,33.442,23.966z"/>
			<path fill="#FFFFFF" d="M41.453,13.059c0,0.666-0.521,1.186-1.187,1.186c-0.665,0-1.186-0.521-1.186-1.186
				c0-0.637,0.521-1.186,1.186-1.186C40.932,11.873,41.453,12.423,41.453,13.059z M40.903,30.881h-1.302V17.514h1.302V30.881z"/>
			<path fill="#FFFFFF" d="M51.49,19.945c-0.434-0.926-1.302-1.505-2.343-1.505c-1.129,0-2.286,0.926-2.286,2.083
				c0,3.211,6.51,1.649,6.51,6.48c0,2.459-1.909,4.166-4.311,4.166c-2.228,0-4.051-1.359-4.601-3.529l1.273-0.405
				c0.492,1.591,1.562,2.72,3.327,2.72c1.678,0,3.009-1.331,3.009-3.009c0-1.649-1.273-2.17-2.604-2.633
				c-1.823-0.665-3.906-1.446-3.906-3.703c0-2.025,1.707-3.385,3.646-3.385c1.359,0,2.835,0.897,3.414,2.141L51.49,19.945z"/>
			<path fill="#FFFFFF" d="M69.396,24.197c0,3.963-3.096,6.972-7.03,6.972c-3.848,0-6.943-3.153-6.943-6.943
				c0-3.848,3.066-7.001,6.943-7.001C66.3,17.225,69.396,20.234,69.396,24.197z M56.724,24.226c0,3.038,2.401,5.729,5.555,5.729
				c3.27,0,5.815-2.488,5.815-5.729c0-3.298-2.518-5.786-5.815-5.786C59.096,18.44,56.724,21.131,56.724,24.226z"/>
			<path fill="#FFFFFF" d="M73.847,19.597h0.058c0.781-1.475,2.229-2.372,3.964-2.372c3.442,0,4.397,2.141,4.397,5.583v8.072h-1.302
				v-8.072c0-2.401-0.289-4.369-3.211-4.369c-3.356,0-3.906,3.125-3.906,5.844v6.596h-1.302V17.514h1.302V19.597z"/>
			<path fill="#FFFFFF" d="M90.914,25.789l3.905-8.448h2.922l-6.827,14.002l-6.799-14.002h2.922L90.914,25.789z"/>
			<path fill="#FFFFFF" d="M102.83,11.15c0,0.983-0.81,1.765-1.794,1.765c-0.983,0-1.793-0.781-1.793-1.765
				c0-1.013,0.81-1.823,1.793-1.823C102.02,9.327,102.83,10.137,102.83,11.15z M102.339,30.881h-2.604v-13.54h2.604V30.881z"/>
			<path fill="#FFFFFF" d="M106.299,5.769h2.604v13.829h0.058c1.07-1.62,2.69-2.661,4.716-2.661c3.905,0,6.364,3.385,6.364,7.088
				c0,3.876-2.314,7.319-6.48,7.319c-1.909,0-3.559-1.042-4.6-2.575h-0.058v2.112h-2.604V5.769z M117.438,24.111
				c0-2.633-1.591-4.86-4.397-4.86c-2.69,0-4.282,2.343-4.282,4.86c0,2.546,1.534,4.918,4.282,4.918
				C115.876,29.029,117.438,26.772,117.438,24.111z"/>
		</g>
		<g>
			<path fill="#FFFFFF" d="M122.141,24.545V24.14c0-4.021,2.025-7.204,6.336-7.204c4.369,0,6.597,3.124,6.597,7.29
				c0,3.993-2.518,7.117-6.654,7.117c-2.633,0-5.005-1.36-6.278-3.703l2.199-1.244c0.983,1.62,2.054,2.633,4.05,2.633
				c2.488,0,4.051-2.17,4.079-4.484H122.141z M132.325,22.577c-0.318-1.938-1.822-3.385-3.848-3.385
				c-2.083,0-3.414,1.36-3.731,3.385H132.325z"/>
		</g>
	</g>
</g>
</svg>
